<svg width="133"
    height="132"
    viewBox="0 0 133 132"
    fill="none"
    xmlns="http://www.w3.org/2000/svg">
    <path d="M89.4493 114.719C89.4493 114.719 101.206 113.701 101.75 106.839C102.28 99.9774 85.8689 63.7781 66.5376 47.7525C47.2061 31.7125 28.1011 16.7458 22.2947 26.5384C17.0269 35.4116 27.5438 75.3165 44.9722 90.4846C62.4002 105.624 81.089 113.808 89.4493 114.719Z"
        fill="url(#paint0_radial_33_1810)"/>
    <path d="M102.905 99.799C102.905 99.799 112.627 97.1252 114.514 90.2243C116.386 83.338 118.989 47.9258 102.391 28.1893C85.7943 8.45282 60.7841 -6.3387 58.1719 3.79312C55.5597 13.9249 57.308 49.3772 72.1353 67.892C86.9472 86.3923 94.542 97.4064 102.905 99.799Z"
        fill="url(#paint1_radial_33_1810)"/>
    <path d="M100.115 116.82C100.115 116.82 109.612 113.174 110.196 105.789C110.765 98.4041 106.475 61.0677 85.4728 41.8292C64.47 22.5762 35.7527 9.25095 35.057 20.0948C34.3613 30.9387 43.1494 67.9362 62.0781 86.057C81.037 104.148 91.0267 115.028 100.115 116.82Z"
        fill="url(#paint2_radial_33_1810)"/>
    <path d="M117.729 118.052C117.729 118.052 107.819 128.05 99.6912 127.471C91.5638 126.893 53.7979 107.388 32.114 88.62C9.38144 68.9587 2.10741 38.6477 14.0101 39.648C25.9126 40.6337 69.9885 51.6206 85.3047 72.747C100.621 93.8879 117.865 108.97 117.729 118.052Z"
        fill="url(#paint3_radial_33_1810)"/>
    <path opacity="0.2"
        d="M20.5573 46.0064C28.9027 48.2393 36.9219 51.2737 44.7622 54.6727C52.5877 58.1154 60.22 61.9954 67.5531 66.3862C74.886 70.7625 81.9197 75.6495 88.4113 81.1653C94.8573 86.6961 100.868 92.8548 105.348 99.9404C98.7818 94.5558 92.1293 89.6369 85.2054 84.996C78.3119 80.3404 71.2384 75.9622 64.0743 71.6573C56.9103 67.367 49.6561 63.1935 42.3558 58.9914C35.101 54.7598 27.7554 50.6016 20.5573 46.0064Z"
        fill="#FFA8C0"/>
    <path d="M121.832 115.261C124.198 110.115 122.377 100.684 122.017 93.4808C121.657 86.2771 109.159 62.1075 90.5165 39.8147C58.1554 1.10558 49.0114 7.47988 48.5342 20.022C47.9531 35.3835 49.3636 61.6559 69.3677 88.0792C87.1389 111.57 111.252 138.224 121.832 115.261Z"
        fill="url(#paint4_radial_33_1810)"/>
    <path d="M6.34502 56.1963C1.32871 56.6698 -0.886556 61.6554 2.01771 65.8615C12.2675 80.6622 35.7125 111.491 61.9941 125.372C82.4235 136.174 116.958 131.57 120.206 117.133C121.7 110.569 73.8284 49.7905 6.34502 56.1963Z"
        fill="url(#paint5_radial_33_1810)"/>
    <path opacity="0.2"
        d="M17.2205 69.7429C23.7946 75.7812 30.2302 81.7188 37.0114 87.2034C43.7625 92.7173 50.7988 97.8222 58.1941 102.314C65.6047 106.806 73.3895 110.671 81.5907 113.616C89.7923 116.591 98.4245 118.546 107.487 119.495C98.5166 121.161 89.0446 120.476 80.0587 118.292C71.0569 116.064 62.495 112.307 54.6846 107.571C46.8588 102.821 39.7693 97.0915 33.4662 90.7315C27.2084 84.3422 21.6304 77.3521 17.2205 69.7429Z"
        fill="#FFA8C0"/>
    <path opacity="0.2"
        d="M26.4487 67.8578C34.3947 71.1543 41.8771 75.2679 49.2532 79.4259C56.5991 83.6132 63.8089 87.9032 71.1217 91.8728C78.4345 95.8424 85.8655 99.4769 93.6396 102.441C101.399 105.462 109.485 107.726 117.905 109.741C109.257 110.329 100.468 109.291 92.0154 107.073C83.5479 104.841 75.4476 101.4 67.9039 97.2727C60.3297 93.1453 53.2369 88.4185 46.4008 83.4574C39.5643 78.4672 32.9247 73.3447 26.4487 67.8578Z"
        fill="#FFA8C0"/>
    <path d="M74.9827 6.81945C76.5948 2.46316 84.0145 -0.00441208 87.4907 3.51455C99.742 15.9029 122.115 46.4637 129.832 72.8921C135.83 93.4347 129.301 120.856 114.339 120.533C107.544 120.381 53.3904 65.3157 74.9827 6.81945Z"
        fill="url(#paint6_radial_33_1810)"/>
    <path opacity="0.2"
        d="M92.9579 15.2857C97.8991 22.6439 102.581 29.9894 107.067 37.5544C111.491 45.1198 115.614 52.9926 118.66 61.3675C121.72 69.7132 123.58 78.5765 123.807 87.423C124.019 96.2841 122.704 105.084 119.887 113.358C119.997 104.639 119.881 96.1263 118.683 87.7811C117.546 79.4355 115.374 71.3301 112.486 63.3753C109.614 55.4205 106.026 47.6163 102.482 39.681C98.9383 31.7603 95.4084 23.7087 92.9579 15.2857Z"
        fill="#FFA8C0"/>
    <path opacity="0.2"
        d="M75.3634 29.9328C80.6541 35.8645 85.7314 41.8268 90.6586 47.9937C95.5401 54.1755 100.166 60.6642 103.928 67.7116C107.69 74.7444 110.467 82.3513 111.781 90.1726C113.094 97.9793 113.051 105.912 111.6 113.566C110.593 105.844 109.404 98.3267 107.288 91.0781C105.218 83.8291 102.282 76.9063 98.7219 70.2061C95.1622 63.5059 91.0097 57.0136 86.8711 50.4049C82.7325 43.7963 78.5926 37.0859 75.3634 29.9328Z"
        fill="#FFA8C0"/>
    <defs>
        <radialGradient id="paint0_radial_33_1810"
            cx="0"
            cy="0"
            r="1"
            gradientUnits="userSpaceOnUse"
            gradientTransform="translate(16.0827 7.73072) rotate(-45.4243) scale(38.4824 66.5965)">
            <stop stop-color="#FFDDE7"/>
            <stop offset="0.1298"
                stop-color="#FDD7E2"/>
            <stop offset="0.3053"
                stop-color="#F6C6D4"/>
            <stop offset="0.5071"
                stop-color="#EBA9BD"/>
            <stop offset="0.7284"
                stop-color="#DB829C"/>
            <stop offset="0.9631"
                stop-color="#C75073"/>
            <stop offset="1"
                stop-color="#C4476C"/>
        </radialGradient>
        <radialGradient id="paint1_radial_33_1810"
            cx="0"
            cy="0"
            r="1"
            gradientUnits="userSpaceOnUse"
            gradientTransform="translate(57.9434 -3.63195) rotate(-35.1759) scale(39.1348 66.6123)">
            <stop stop-color="#FFDDE7"/>
            <stop offset="0.3328"
                stop-color="#E7A0B5"/>
            <stop offset="0.6377"
                stop-color="#D4708E"/>
            <stop offset="0.8691"
                stop-color="#C85275"/>
            <stop offset="1"
                stop-color="#C4476C"/>
        </radialGradient>
        <radialGradient id="paint2_radial_33_1810"
            cx="0"
            cy="0"
            r="1"
            gradientUnits="userSpaceOnUse"
            gradientTransform="translate(18.5166 14.2421) rotate(-42.762) scale(30.4575 57.6571)">
            <stop stop-color="#FFDDE7"/>
            <stop offset="0.2179"
                stop-color="#EDB0C2"/>
            <stop offset="0.4667"
                stop-color="#DB839D"/>
            <stop offset="0.6891"
                stop-color="#CF6282"/>
            <stop offset="0.8744"
                stop-color="#C74E72"/>
            <stop offset="1"
                stop-color="#C4476C"/>
        </radialGradient>
        <radialGradient id="paint3_radial_33_1810"
            cx="0"
            cy="0"
            r="1"
            gradientUnits="userSpaceOnUse"
            gradientTransform="translate(16.1546 21.8594) rotate(-45.3288) scale(49.5059 76.073)">
            <stop stop-color="#FFDDE7"/>
            <stop offset="0.1884"
                stop-color="#F2BCCC"/>
            <stop offset="0.5725"
                stop-color="#D97D98"/>
            <stop offset="0.8537"
                stop-color="#CA5678"/>
            <stop offset="1"
                stop-color="#C4476C"/>
        </radialGradient>
        <radialGradient id="paint4_radial_33_1810"
            cx="0"
            cy="0"
            r="1"
            gradientUnits="userSpaceOnUse"
            gradientTransform="translate(25.6388 21.2235) rotate(-47.1791) scale(42.2168 88.6103)">
            <stop stop-color="#FFDDE7"/>
            <stop offset="0.2122"
                stop-color="#F4C2D1"/>
            <stop offset="0.6653"
                stop-color="#D97D99"/>
            <stop offset="1"
                stop-color="#C4476C"/>
        </radialGradient>
        <radialGradient id="paint5_radial_33_1810"
            cx="0"
            cy="0"
            r="1"
            gradientUnits="userSpaceOnUse"
            gradientTransform="translate(39.8625 74.1213) rotate(-47.4876) scale(44.807 98.3976)">
            <stop stop-color="#FFDDE7"/>
            <stop offset="0.1469"
                stop-color="#F9CEDB"/>
            <stop offset="0.4298"
                stop-color="#EAA7BA"/>
            <stop offset="0.8166"
                stop-color="#D16787"/>
            <stop offset="1"
                stop-color="#C4476C"/>
        </radialGradient>
        <radialGradient id="paint6_radial_33_1810"
            cx="0"
            cy="0"
            r="1"
            gradientUnits="userSpaceOnUse"
            gradientTransform="translate(73.3498 25.9406) rotate(-22.9472) scale(58.5655 101.673)">
            <stop stop-color="#FFDDE7"/>
            <stop offset="0.1327"
                stop-color="#FDD7E2"/>
            <stop offset="0.3052"
                stop-color="#F6C7D5"/>
            <stop offset="0.4997"
                stop-color="#ECACBF"/>
            <stop offset="0.7103"
                stop-color="#DD87A0"/>
            <stop offset="0.9316"
                stop-color="#CA5779"/>
            <stop offset="1"
                stop-color="#C4476C"/>
        </radialGradient>
    </defs>
</svg>
