<svg width="131"
    height="132"
    viewBox="0 0 131 132"
    fill="none"
    xmlns="http://www.w3.org/2000/svg">
    <path d="M87.932 16.1383C85.6009 14.8155 81.8658 16.4007 79.5435 17.0895C75.3668 18.3358 71.1637 19.604 67.2609 21.8342C64.1615 23.6162 60.3381 26.3712 58.528 30.1211C57.1858 32.887 57.7333 37.0961 58.4573 40.1025C63.3933 38.1893 68.709 37.588 73.5037 38.1456C73.5832 38.1565 73.6715 38.1675 73.751 38.1784C73.539 35.5655 74.3249 32.3404 75.2256 30.8098C75.7818 29.8696 76.5147 29.1153 77.2476 28.3719C79.6936 25.8683 82.1571 23.3538 84.8415 21.2438C85.6715 20.5988 90.7399 17.7235 87.932 16.1383ZM51.3138 78.7383C51.5522 79.1537 51.8171 79.5473 52.1703 79.8097C48.8326 79.0225 48.2057 80.9248 47.2697 84.5653C46.2807 88.3699 45.5655 92.2618 44.8502 96.1538C44.3999 98.6465 44.1438 101.15 45.4683 103.315C45.9363 104.08 46.6427 104.67 47.4198 104.703C48.1968 104.736 48.9297 104.2 49.4507 103.501C50.2101 102.473 50.6516 101.084 51.2432 99.9037C53.0445 96.3506 54.4043 92.5242 55.8878 88.7634C56.9032 86.1724 58.2366 83.7891 59.1902 81.1871C59.3227 80.8264 59.4551 80.4875 59.5964 80.1704C56.7796 80.1486 53.9805 79.6894 51.3138 78.7383ZM87.932 16.1383C85.6009 14.8155 81.8658 16.4007 79.5435 17.0895C75.3668 18.3358 71.1637 19.604 67.2609 21.8342C64.1615 23.6162 60.3381 26.3712 58.528 30.1211C57.1858 32.887 57.7333 37.0961 58.4573 40.1025C63.3933 38.1893 68.709 37.588 73.5037 38.1456C73.5832 38.1565 73.6715 38.1675 73.751 38.1784C73.539 35.5655 74.3249 32.3404 75.2256 30.8098C75.7818 29.8696 76.5147 29.1153 77.2476 28.3719C79.6936 25.8683 82.1571 23.3538 84.8415 21.2438C85.6715 20.5988 90.7399 17.7235 87.932 16.1383ZM51.3138 78.7383C51.5522 79.1537 51.8171 79.5473 52.1703 79.8097C48.8326 79.0225 48.2057 80.9248 47.2697 84.5653C46.2807 88.3699 45.5655 92.2618 44.8502 96.1538C44.3999 98.6465 44.1438 101.15 45.4683 103.315C45.9363 104.08 46.6427 104.67 47.4198 104.703C48.1968 104.736 48.9297 104.2 49.4507 103.501C50.2101 102.473 50.6516 101.084 51.2432 99.9037C53.0445 96.3506 54.4043 92.5242 55.8878 88.7634C56.9032 86.1724 58.2366 83.7891 59.1902 81.1871C59.3227 80.8264 59.4551 80.4875 59.5964 80.1704C56.7796 80.1486 53.9805 79.6894 51.3138 78.7383ZM129.733 47.9084C128.577 42.6936 126.811 37.6755 124.568 32.9964C120.983 25.5075 116.153 18.8933 110.555 13.7222C98.3338 2.4398 80.709 -0.402665 65.8834 0.952975C50.1836 2.39607 34.9783 9.21802 21.7685 19.7242C13.8745 26.0105 8.23206 34.8221 4.67356 44.9019C1.16803 54.8287 -0.315399 65.98 0.0554631 77.1203C0.435155 88.3261 4.62941 98.3185 10.6956 106.409C15.976 113.471 22.6957 119.079 29.5654 122.786C30.6339 123.365 31.7111 123.912 32.8061 124.436C61.0622 137.916 97.3978 133.412 117.504 102.976C127.155 88.3589 133.928 66.8436 129.733 47.9084ZM40.7708 61.9786C41.2034 58.7098 42.369 55.4081 43.9849 52.4673C46.5456 47.81 50.263 44.3444 54.4838 41.972C55.7642 41.2395 57.0975 40.6164 58.4573 40.1025C63.3933 38.1893 68.709 37.588 73.5037 38.1456C73.5832 38.1565 73.6715 38.1675 73.751 38.1784C74.8812 38.3205 76.0203 38.5938 77.124 38.9983C81.0622 40.3868 84.656 43.3276 86.528 47.6788C86.7223 48.1161 86.8989 48.5644 87.049 49.0345C87.2256 49.5702 87.3757 50.1058 87.4993 50.6525C87.9143 52.4673 88.038 54.2821 87.9143 56.0641C87.4199 63.2905 82.9342 69.9922 78.0688 73.7858C74.2896 76.7376 69.8569 78.7383 65.2741 79.6347C63.3933 80.0064 61.486 80.1923 59.5964 80.1704C56.7796 80.1486 53.9805 79.6894 51.3138 78.7383C49.8657 78.2463 48.4529 77.5903 47.1019 76.7923C46.9341 76.6939 46.7664 76.5845 46.5986 76.4752C45.0445 75.4803 43.826 74.2668 42.9076 72.9112C41.6538 71.0745 40.9562 68.9645 40.7001 66.7343C40.5235 65.1928 40.5588 63.5857 40.7708 61.9786ZM51.3138 78.7383C51.5522 79.1537 51.8171 79.5473 52.1703 79.8097C48.8326 79.0225 48.2057 80.9248 47.2697 84.5653C46.2807 88.3699 45.5655 92.2618 44.8502 96.1538C44.3999 98.6465 44.1438 101.15 45.4683 103.315C45.9363 104.08 46.6427 104.67 47.4198 104.703C48.1968 104.736 48.9297 104.2 49.4507 103.501C50.2101 102.473 50.6516 101.084 51.2432 99.9037C53.0445 96.3506 54.4043 92.5242 55.8878 88.7634C56.9032 86.1724 58.2366 83.7891 59.1902 81.1871C59.3227 80.8264 59.4551 80.4875 59.5964 80.1704C56.7796 80.1486 53.9805 79.6894 51.3138 78.7383ZM87.932 16.1383C85.6009 14.8155 81.8658 16.4007 79.5435 17.0895C75.3668 18.3358 71.1637 19.604 67.2609 21.8342C64.1615 23.6162 60.3381 26.3712 58.528 30.1211C57.1858 32.887 57.7333 37.0961 58.4573 40.1025C63.3933 38.1893 68.709 37.588 73.5037 38.1456C73.5832 38.1565 73.6715 38.1675 73.751 38.1784C73.539 35.5655 74.3249 32.3404 75.2256 30.8098C75.7818 29.8696 76.5147 29.1153 77.2476 28.3719C79.6936 25.8683 82.1571 23.3538 84.8415 21.2438C85.6715 20.5988 90.7399 17.7235 87.932 16.1383ZM51.3138 78.7383C51.5522 79.1537 51.8171 79.5473 52.1703 79.8097C48.8326 79.0225 48.2057 80.9248 47.2697 84.5653C46.2807 88.3699 45.5655 92.2618 44.8502 96.1538C44.3999 98.6465 44.1438 101.15 45.4683 103.315C45.9363 104.08 46.6427 104.67 47.4198 104.703C48.1968 104.736 48.9297 104.2 49.4507 103.501C50.2101 102.473 50.6516 101.084 51.2432 99.9037C53.0445 96.3506 54.4043 92.5242 55.8878 88.7634C56.9032 86.1724 58.2366 83.7891 59.1902 81.1871C59.3227 80.8264 59.4551 80.4875 59.5964 80.1704C56.7796 80.1486 53.9805 79.6894 51.3138 78.7383ZM87.932 16.1383C85.6009 14.8155 81.8658 16.4007 79.5435 17.0895C75.3668 18.3358 71.1637 19.604 67.2609 21.8342C64.1615 23.6162 60.3381 26.3712 58.528 30.1211C57.1858 32.887 57.7333 37.0961 58.4573 40.1025C63.3933 38.1893 68.709 37.588 73.5037 38.1456C73.5832 38.1565 73.6715 38.1675 73.751 38.1784C73.539 35.5655 74.3249 32.3404 75.2256 30.8098C75.7818 29.8696 76.5147 29.1153 77.2476 28.3719C79.6936 25.8683 82.1571 23.3538 84.8415 21.2438C85.6715 20.5988 90.7399 17.7235 87.932 16.1383Z"
        fill="url(#paint0_linear_34_2838)"/>
    <defs>
        <linearGradient id="paint0_linear_34_2838"
            x1="37.579"
            y1="17.8661"
            x2="194.253"
            y2="194.853"
            gradientUnits="userSpaceOnUse">
            <stop stop-color="#FFD061"/>
            <stop offset="1"
                stop-color="#CC5327"/>
        </linearGradient>
    </defs>
</svg>
