<svg width="358"
    height="69"
    viewBox="0 0 358 69"
    fill="none"
    xmlns="http://www.w3.org/2000/svg">
    <path fill-rule="evenodd"
        clip-rule="evenodd"
        d="M63.2221 0L0 34.3222L63.2221 68.6443V50.3945H357.5V18.2499H63.2221V0Z"
        fill="url(#paint0_linear_21_26)"/>
    <path d="M126.854 40.5605C126.854 40.6543 126.83 40.7363 126.783 40.8066C126.736 40.8652 126.654 40.918 126.537 40.9648C126.42 41.0117 126.262 41.0469 126.062 41.0703C125.875 41.0938 125.635 41.1055 125.342 41.1055C125.061 41.1055 124.82 41.0938 124.621 41.0703C124.422 41.0469 124.264 41.0117 124.146 40.9648C124.041 40.918 123.959 40.8652 123.9 40.8066C123.854 40.7363 123.83 40.6543 123.83 40.5605V20.873H113.547V40.5605C113.547 40.6543 113.518 40.7363 113.459 40.8066C113.412 40.8652 113.33 40.918 113.213 40.9648C113.107 41.0117 112.955 41.0469 112.756 41.0703C112.568 41.0938 112.328 41.1055 112.035 41.1055C111.742 41.1055 111.496 41.0938 111.297 41.0703C111.109 41.0469 110.957 41.0117 110.84 40.9648C110.723 40.918 110.641 40.8652 110.594 40.8066C110.547 40.7363 110.523 40.6543 110.523 40.5605V19.4844C110.523 19.0742 110.623 18.7695 110.822 18.5703C111.033 18.3594 111.297 18.2539 111.613 18.2539H125.799C126.127 18.2539 126.385 18.3594 126.572 18.5703C126.76 18.7695 126.854 19.0742 126.854 19.4844V40.5605ZM147.297 32.4746C147.297 33.7637 147.127 34.9531 146.787 36.043C146.447 37.1211 145.938 38.0527 145.258 38.8379C144.59 39.623 143.746 40.2383 142.727 40.6836C141.719 41.1172 140.547 41.334 139.211 41.334C137.91 41.334 136.773 41.1406 135.801 40.7539C134.84 40.3672 134.037 39.8047 133.393 39.0664C132.748 38.3281 132.268 37.4316 131.951 36.377C131.635 35.3223 131.477 34.127 131.477 32.791C131.477 31.502 131.641 30.3184 131.969 29.2402C132.309 28.1504 132.812 27.2129 133.48 26.4277C134.16 25.6426 135.004 25.0332 136.012 24.5996C137.02 24.166 138.197 23.9492 139.545 23.9492C140.846 23.9492 141.977 24.1426 142.938 24.5293C143.91 24.916 144.719 25.4785 145.363 26.2168C146.008 26.9551 146.488 27.8516 146.805 28.9062C147.133 29.9609 147.297 31.1504 147.297 32.4746ZM144.238 32.668C144.238 31.8125 144.156 31.0039 143.992 30.2422C143.84 29.4805 143.582 28.8125 143.219 28.2383C142.855 27.6641 142.363 27.2129 141.742 26.8848C141.121 26.5449 140.348 26.375 139.422 26.375C138.566 26.375 137.828 26.5273 137.207 26.832C136.598 27.1367 136.094 27.5703 135.695 28.1328C135.297 28.6836 134.998 29.3398 134.799 30.1016C134.611 30.8633 134.518 31.6953 134.518 32.5977C134.518 33.4648 134.594 34.2793 134.746 35.041C134.91 35.8027 135.174 36.4707 135.537 37.0449C135.912 37.6074 136.41 38.0586 137.031 38.3984C137.652 38.7266 138.426 38.8906 139.352 38.8906C140.195 38.8906 140.928 38.7383 141.549 38.4336C142.17 38.1289 142.68 37.7012 143.078 37.1504C143.477 36.5996 143.77 35.9434 143.957 35.1816C144.145 34.4199 144.238 33.582 144.238 32.668ZM166.932 41L164.822 46.8184C164.752 47.0059 164.57 47.1465 164.277 47.2402C163.996 47.3457 163.562 47.3984 162.977 47.3984C162.672 47.3984 162.426 47.3809 162.238 47.3457C162.051 47.3223 161.904 47.2754 161.799 47.2051C161.705 47.1348 161.652 47.041 161.641 46.9238C161.629 46.8066 161.658 46.666 161.729 46.502L163.908 41C163.803 40.9531 163.703 40.877 163.609 40.7715C163.516 40.666 163.451 40.5547 163.416 40.4375L157.773 25.3203C157.68 25.0742 157.633 24.8809 157.633 24.7402C157.633 24.5996 157.68 24.4883 157.773 24.4062C157.867 24.3242 158.02 24.2715 158.23 24.248C158.441 24.2129 158.723 24.1953 159.074 24.1953C159.426 24.1953 159.701 24.207 159.9 24.2305C160.1 24.2422 160.258 24.2715 160.375 24.3184C160.492 24.3652 160.574 24.4355 160.621 24.5293C160.68 24.6113 160.738 24.7285 160.797 24.8809L165.314 37.5723H165.367L169.727 24.8105C169.797 24.5879 169.879 24.4473 169.973 24.3887C170.078 24.3184 170.23 24.2715 170.43 24.248C170.629 24.2129 170.916 24.1953 171.291 24.1953C171.619 24.1953 171.889 24.2129 172.1 24.248C172.311 24.2715 172.463 24.3242 172.557 24.4062C172.662 24.4883 172.715 24.5996 172.715 24.7402C172.715 24.8809 172.68 25.0566 172.609 25.2676L166.932 41ZM190.785 32.4043C190.785 33.7285 190.604 34.9355 190.24 36.0254C189.877 37.1152 189.35 38.0586 188.658 38.8555C187.967 39.6406 187.123 40.25 186.127 40.6836C185.143 41.1172 184.029 41.334 182.787 41.334C181.498 41.334 180.379 41.1289 179.43 40.7188C178.492 40.2969 177.713 39.6699 177.092 38.8379C176.482 37.9941 176.031 36.9453 175.738 35.6914C175.445 34.4258 175.299 32.9434 175.299 31.2441C175.299 29.8027 175.363 28.4785 175.492 27.2715C175.633 26.0527 175.826 24.9629 176.072 24.002C176.318 23.0293 176.611 22.2031 176.951 21.5234C177.291 20.8438 177.637 20.3047 177.988 19.9062C178.352 19.5078 178.703 19.1914 179.043 18.957C179.395 18.7109 179.781 18.4883 180.203 18.2891C180.625 18.0781 181.1 17.8965 181.627 17.7441C182.166 17.5918 182.77 17.457 183.438 17.3398L189.08 16.4082C189.279 16.373 189.443 16.3613 189.572 16.373C189.701 16.373 189.801 16.4199 189.871 16.5137C189.941 16.5957 189.988 16.7363 190.012 16.9355C190.035 17.1348 190.047 17.4102 190.047 17.7617C190.047 17.9961 190.035 18.1953 190.012 18.3594C189.988 18.5234 189.947 18.6582 189.889 18.7637C189.83 18.8691 189.742 18.9512 189.625 19.0098C189.508 19.0684 189.355 19.1152 189.168 19.1504L183.912 20.0293C183.385 20.1113 182.922 20.2051 182.523 20.3105C182.125 20.416 181.768 20.5332 181.451 20.6621C181.146 20.791 180.877 20.9375 180.643 21.1016C180.408 21.2539 180.174 21.4531 179.939 21.6992C179.705 21.9453 179.488 22.25 179.289 22.6133C179.102 22.9766 178.938 23.3926 178.797 23.8613C178.668 24.3184 178.557 24.8223 178.463 25.373C178.381 25.9121 178.299 26.4922 178.217 27.1133C178.604 26.7031 179.014 26.334 179.447 26.0059C179.881 25.666 180.338 25.3789 180.818 25.1445C181.299 24.9102 181.803 24.7344 182.33 24.6172C182.869 24.4883 183.438 24.4238 184.035 24.4238C185.172 24.4238 186.162 24.6172 187.006 25.0039C187.861 25.3789 188.564 25.918 189.115 26.6211C189.678 27.3242 190.094 28.168 190.363 29.1523C190.645 30.1367 190.785 31.2207 190.785 32.4043ZM187.779 32.6504C187.779 31.877 187.703 31.1387 187.551 30.4355C187.41 29.7324 187.176 29.1172 186.848 28.5898C186.531 28.0508 186.098 27.623 185.547 27.3066C185.008 26.9785 184.34 26.8145 183.543 26.8145C183.051 26.8145 182.588 26.8789 182.154 27.0078C181.732 27.125 181.316 27.3125 180.906 27.5703C180.496 27.8164 180.086 28.127 179.676 28.502C179.266 28.8652 178.826 29.2988 178.357 29.8027C178.346 29.9902 178.34 30.207 178.34 30.4531C178.34 30.6992 178.34 30.9512 178.34 31.209C178.34 32.4746 178.416 33.5879 178.568 34.5488C178.732 35.5098 178.996 36.3125 179.359 36.957C179.723 37.6016 180.203 38.0879 180.801 38.416C181.398 38.7441 182.131 38.9082 182.998 38.9082C183.76 38.9082 184.439 38.7617 185.037 38.4688C185.635 38.1641 186.133 37.7422 186.531 37.2031C186.941 36.6641 187.252 36.0078 187.463 35.2344C187.674 34.4609 187.779 33.5996 187.779 32.6504ZM213.83 40.5605C213.83 40.6543 213.807 40.7363 213.76 40.8066C213.713 40.8652 213.637 40.918 213.531 40.9648C213.426 41.0117 213.279 41.0469 213.092 41.0703C212.904 41.0938 212.664 41.1055 212.371 41.1055C212.09 41.1055 211.855 41.0938 211.668 41.0703C211.48 41.0469 211.328 41.0117 211.211 40.9648C211.105 40.918 211.029 40.8652 210.982 40.8066C210.947 40.7363 210.93 40.6543 210.93 40.5605V24.7402C210.93 24.6465 210.947 24.5703 210.982 24.5117C211.029 24.4414 211.105 24.3828 211.211 24.3359C211.328 24.2773 211.48 24.2422 211.668 24.2305C211.855 24.207 212.09 24.1953 212.371 24.1953C212.664 24.1953 212.904 24.207 213.092 24.2305C213.279 24.2422 213.426 24.2773 213.531 24.3359C213.637 24.3828 213.713 24.4414 213.76 24.5117C213.807 24.5703 213.83 24.6465 213.83 24.7402V40.5605ZM198.133 30.3125C198.566 30.2773 199 30.2539 199.434 30.2422C199.879 30.2188 200.359 30.207 200.875 30.207C202.129 30.207 203.201 30.3359 204.092 30.5938C204.982 30.8398 205.715 31.1973 206.289 31.666C206.875 32.1348 207.303 32.6973 207.572 33.3535C207.842 33.998 207.977 34.7246 207.977 35.5332C207.977 36.3418 207.83 37.0977 207.537 37.8008C207.256 38.5039 206.805 39.1133 206.184 39.6289C205.574 40.1445 204.789 40.5547 203.828 40.8594C202.867 41.1523 201.713 41.2988 200.365 41.2988C200.049 41.2988 199.732 41.293 199.416 41.2812C199.1 41.2812 198.789 41.2695 198.484 41.2461C198.18 41.2344 197.875 41.2168 197.57 41.1934C197.277 41.1699 196.979 41.1406 196.674 41.1055C196.182 41.0469 195.818 40.8887 195.584 40.6309C195.35 40.373 195.232 39.9805 195.232 39.4531V24.7402C195.232 24.6465 195.25 24.5703 195.285 24.5117C195.332 24.4414 195.408 24.3828 195.514 24.3359C195.631 24.2773 195.777 24.2422 195.953 24.2305C196.141 24.207 196.369 24.1953 196.639 24.1953C197.201 24.1953 197.588 24.2422 197.799 24.3359C198.021 24.418 198.133 24.5527 198.133 24.7402V30.3125ZM204.953 35.7266C204.953 35.2461 204.877 34.8125 204.725 34.4258C204.584 34.0273 204.344 33.6934 204.004 33.4238C203.676 33.1426 203.236 32.9316 202.686 32.791C202.135 32.6387 201.461 32.5625 200.664 32.5625C200.184 32.5625 199.738 32.5742 199.328 32.5977C198.918 32.6211 198.52 32.6504 198.133 32.6855V38.7676C198.543 38.8145 198.947 38.8555 199.346 38.8906C199.744 38.9258 200.23 38.9434 200.805 38.9434C202.234 38.9434 203.283 38.6621 203.951 38.0996C204.619 37.5254 204.953 36.7344 204.953 35.7266ZM232.199 36.0078C232.199 36.8398 232.041 37.584 231.725 38.2402C231.408 38.8848 230.939 39.4297 230.318 39.875C229.697 40.3086 228.924 40.6426 227.998 40.877C227.072 41.0996 225.994 41.2109 224.764 41.2109C224.377 41.2109 224.002 41.2051 223.639 41.1934C223.275 41.1934 222.924 41.1816 222.584 41.1582C222.244 41.1465 221.904 41.1289 221.564 41.1055C221.236 41.082 220.908 41.0527 220.58 41.0176C220.111 40.959 219.766 40.8066 219.543 40.5605C219.32 40.3027 219.209 39.9277 219.209 39.4355V25.8125C219.209 25.332 219.314 24.9629 219.525 24.7051C219.748 24.4473 220.082 24.2949 220.527 24.248C220.832 24.2129 221.154 24.1836 221.494 24.1602C221.846 24.1367 222.203 24.1191 222.566 24.1074C222.93 24.084 223.305 24.0664 223.691 24.0547C224.078 24.043 224.471 24.0371 224.869 24.0371C226.006 24.0371 226.99 24.1309 227.822 24.3184C228.654 24.5059 229.346 24.7812 229.896 25.1445C230.447 25.5078 230.852 25.9531 231.109 26.4805C231.379 27.0078 231.514 27.6113 231.514 28.291C231.514 29.1816 231.273 29.9434 230.793 30.5762C230.324 31.209 229.627 31.6602 228.701 31.9297C229.861 32.1758 230.734 32.6504 231.32 33.3535C231.906 34.0566 232.199 34.9414 232.199 36.0078ZM228.701 28.6602C228.701 28.2734 228.631 27.9277 228.49 27.623C228.35 27.3184 228.115 27.0605 227.787 26.8496C227.471 26.6387 227.055 26.4805 226.539 26.375C226.035 26.2695 225.42 26.2168 224.693 26.2168C224.143 26.2168 223.639 26.2344 223.182 26.2695C222.725 26.293 222.338 26.3223 222.021 26.3574V31.2793H224.975C226.182 31.2793 227.102 31.0566 227.734 30.6113C228.379 30.1543 228.701 29.5039 228.701 28.6602ZM229.229 36.0605C229.229 35.5918 229.146 35.1816 228.982 34.8301C228.818 34.4668 228.555 34.168 228.191 33.9336C227.84 33.6992 227.383 33.5234 226.82 33.4062C226.27 33.2891 225.613 33.2305 224.852 33.2305H222.021V38.8379C222.244 38.873 222.473 38.9023 222.707 38.9258C222.953 38.9375 223.199 38.9551 223.445 38.9785C223.703 38.9902 223.955 39.002 224.201 39.0137C224.459 39.0254 224.693 39.0312 224.904 39.0312C225.666 39.0312 226.316 38.9668 226.855 38.8379C227.395 38.6973 227.84 38.498 228.191 38.2402C228.555 37.9824 228.818 37.6719 228.982 37.3086C229.146 36.9336 229.229 36.5176 229.229 36.0605ZM248.389 40.5781C248.389 40.7188 248.342 40.8242 248.248 40.8945C248.154 40.9648 248.025 41.0176 247.861 41.0527C247.697 41.0879 247.457 41.1055 247.141 41.1055C246.836 41.1055 246.59 41.0879 246.402 41.0527C246.227 41.0176 246.098 40.9648 246.016 40.8945C245.934 40.8242 245.893 40.7188 245.893 40.5781V38.9961C245.201 39.7344 244.428 40.3086 243.572 40.7188C242.729 41.1289 241.832 41.334 240.883 41.334C240.051 41.334 239.295 41.2227 238.615 41C237.947 40.7891 237.373 40.4785 236.893 40.0684C236.424 39.6582 236.055 39.1543 235.785 38.5566C235.527 37.959 235.398 37.2793 235.398 36.5176C235.398 35.627 235.58 34.8535 235.943 34.1973C236.307 33.541 236.828 32.9961 237.508 32.5625C238.188 32.1289 239.02 31.8066 240.004 31.5957C240.988 31.373 242.096 31.2617 243.326 31.2617H245.506V30.0312C245.506 29.4219 245.441 28.8828 245.312 28.4141C245.184 27.9453 244.973 27.5586 244.68 27.2539C244.398 26.9375 244.029 26.7031 243.572 26.5508C243.115 26.3867 242.553 26.3047 241.885 26.3047C241.17 26.3047 240.525 26.3926 239.951 26.5684C239.389 26.7324 238.891 26.9199 238.457 27.1309C238.035 27.3301 237.678 27.5176 237.385 27.6934C237.104 27.8574 236.893 27.9395 236.752 27.9395C236.658 27.9395 236.576 27.916 236.506 27.8691C236.436 27.8223 236.371 27.752 236.312 27.6582C236.266 27.5645 236.23 27.4473 236.207 27.3066C236.184 27.1543 236.172 26.9902 236.172 26.8145C236.172 26.5215 236.189 26.293 236.225 26.1289C236.271 25.9531 236.371 25.7891 236.523 25.6367C236.688 25.4844 236.963 25.3086 237.35 25.1094C237.736 24.8984 238.182 24.7109 238.686 24.5469C239.189 24.3711 239.74 24.2305 240.338 24.125C240.936 24.0078 241.539 23.9492 242.148 23.9492C243.285 23.9492 244.252 24.0781 245.049 24.3359C245.846 24.5938 246.49 24.9746 246.982 25.4785C247.475 25.9707 247.832 26.5859 248.055 27.3242C248.277 28.0625 248.389 28.9238 248.389 29.9082V40.5781ZM245.506 33.3535H243.027C242.23 33.3535 241.539 33.4238 240.953 33.5645C240.367 33.6934 239.881 33.8926 239.494 34.1621C239.107 34.4199 238.82 34.7363 238.633 35.1113C238.457 35.4746 238.369 35.8965 238.369 36.377C238.369 37.1973 238.627 37.8535 239.143 38.3457C239.67 38.8262 240.402 39.0664 241.34 39.0664C242.102 39.0664 242.805 38.873 243.449 38.4863C244.105 38.0996 244.791 37.5078 245.506 36.7109V33.3535ZM267.602 40.5605C267.602 40.6543 267.578 40.7363 267.531 40.8066C267.484 40.8652 267.408 40.918 267.303 40.9648C267.197 41.0117 267.051 41.0469 266.863 41.0703C266.676 41.0938 266.441 41.1055 266.16 41.1055C265.867 41.1055 265.627 41.0938 265.439 41.0703C265.252 41.0469 265.105 41.0117 265 40.9648C264.895 40.918 264.818 40.8652 264.771 40.8066C264.725 40.7363 264.701 40.6543 264.701 40.5605V33.6172H256.633V40.5605C256.633 40.6543 256.609 40.7363 256.562 40.8066C256.516 40.8652 256.439 40.918 256.334 40.9648C256.229 41.0117 256.082 41.0469 255.895 41.0703C255.707 41.0938 255.467 41.1055 255.174 41.1055C254.893 41.1055 254.658 41.0938 254.471 41.0703C254.283 41.0469 254.131 41.0117 254.014 40.9648C253.908 40.918 253.832 40.8652 253.785 40.8066C253.75 40.7363 253.732 40.6543 253.732 40.5605V24.7402C253.732 24.6465 253.75 24.5703 253.785 24.5117C253.832 24.4414 253.908 24.3828 254.014 24.3359C254.131 24.2773 254.283 24.2422 254.471 24.2305C254.658 24.207 254.893 24.1953 255.174 24.1953C255.467 24.1953 255.707 24.207 255.895 24.2305C256.082 24.2422 256.229 24.2773 256.334 24.3359C256.439 24.3828 256.516 24.4414 256.562 24.5117C256.609 24.5703 256.633 24.6465 256.633 24.7402V31.1738H264.701V24.7402C264.701 24.6465 264.725 24.5703 264.771 24.5117C264.818 24.4414 264.895 24.3828 265 24.3359C265.105 24.2773 265.252 24.2422 265.439 24.2305C265.627 24.207 265.867 24.1953 266.16 24.1953C266.441 24.1953 266.676 24.207 266.863 24.2305C267.051 24.2422 267.197 24.2773 267.303 24.3359C267.408 24.3828 267.484 24.4414 267.531 24.5117C267.578 24.5703 267.602 24.6465 267.602 24.7402V40.5605ZM287.078 40.5781C287.078 40.6602 287.055 40.7363 287.008 40.8066C286.961 40.877 286.885 40.9355 286.779 40.9824C286.674 41.0176 286.527 41.0469 286.34 41.0703C286.152 41.0938 285.918 41.1055 285.637 41.1055C285.355 41.1055 285.121 41.0938 284.934 41.0703C284.746 41.0469 284.594 41.0176 284.477 40.9824C284.359 40.9355 284.277 40.877 284.23 40.8066C284.184 40.7363 284.16 40.6602 284.16 40.5781V31.4727C284.16 31.0156 284.172 30.5527 284.195 30.084C284.219 29.6035 284.248 29.1348 284.283 28.6777C284.014 29.1465 283.715 29.6094 283.387 30.0664C283.07 30.5117 282.748 30.957 282.42 31.4023L275.705 40.5781C275.623 40.6719 275.547 40.7539 275.477 40.8242C275.418 40.8945 275.336 40.9531 275.23 41C275.137 41.0352 275.014 41.0586 274.861 41.0703C274.709 41.0938 274.521 41.1055 274.299 41.1055C274.041 41.1055 273.83 41.0938 273.666 41.0703C273.502 41.0469 273.367 41.0176 273.262 40.9824C273.168 40.9355 273.098 40.877 273.051 40.8066C273.016 40.7363 272.998 40.6602 272.998 40.5781V24.7227C272.998 24.6406 273.016 24.5645 273.051 24.4941C273.098 24.4238 273.174 24.3652 273.279 24.3184C273.396 24.2715 273.549 24.2422 273.736 24.2305C273.924 24.207 274.152 24.1953 274.422 24.1953C274.984 24.1953 275.371 24.2422 275.582 24.3359C275.793 24.418 275.898 24.5469 275.898 24.7227V33.8809C275.898 34.3379 275.887 34.7949 275.863 35.252C275.84 35.6973 275.811 36.1426 275.775 36.5879C276.045 36.1426 276.314 35.709 276.584 35.2871C276.865 34.8535 277.164 34.4316 277.48 34.0215L284.283 24.7227C284.354 24.6289 284.424 24.5469 284.494 24.4766C284.576 24.4062 284.67 24.3535 284.775 24.3184C284.893 24.2715 285.027 24.2422 285.18 24.2305C285.332 24.207 285.531 24.1953 285.777 24.1953C286.023 24.1953 286.229 24.207 286.393 24.2305C286.568 24.2422 286.703 24.2715 286.797 24.3184C286.902 24.3652 286.973 24.4238 287.008 24.4941C287.055 24.5645 287.078 24.6465 287.078 24.7402V40.5781ZM314.184 32.4395C314.184 33.7285 314.008 34.918 313.656 36.0078C313.316 37.0977 312.812 38.0352 312.145 38.8203C311.488 39.6055 310.68 40.2207 309.719 40.666C308.758 41.1113 307.662 41.334 306.432 41.334C305.166 41.334 304.076 41.1641 303.162 40.8242C302.248 40.4727 301.48 39.9629 300.859 39.2949C300.25 38.627 299.781 37.8125 299.453 36.8516C299.137 35.8789 298.949 34.7773 298.891 33.5469H295.375V40.5605C295.375 40.6543 295.352 40.7363 295.305 40.8066C295.258 40.8652 295.182 40.918 295.076 40.9648C294.971 41.0117 294.824 41.0469 294.637 41.0703C294.449 41.0938 294.209 41.1055 293.916 41.1055C293.635 41.1055 293.4 41.0938 293.213 41.0703C293.025 41.0469 292.873 41.0117 292.756 40.9648C292.65 40.918 292.574 40.8652 292.527 40.8066C292.492 40.7363 292.475 40.6543 292.475 40.5605V24.7402C292.475 24.6465 292.492 24.5703 292.527 24.5117C292.574 24.4414 292.65 24.3828 292.756 24.3359C292.873 24.2773 293.025 24.2422 293.213 24.2305C293.4 24.207 293.635 24.1953 293.916 24.1953C294.209 24.1953 294.449 24.207 294.637 24.2305C294.824 24.2422 294.971 24.2773 295.076 24.3359C295.182 24.3828 295.258 24.4414 295.305 24.5117C295.352 24.5703 295.375 24.6465 295.375 24.7402V31.2441H298.961C299.066 30.166 299.301 29.1816 299.664 28.291C300.039 27.4004 300.543 26.6328 301.176 25.9883C301.82 25.3438 302.6 24.8457 303.514 24.4941C304.428 24.1309 305.482 23.9492 306.678 23.9492C307.943 23.9492 309.045 24.1484 309.982 24.5469C310.92 24.9453 311.699 25.5137 312.32 26.252C312.941 26.9902 313.404 27.8867 313.709 28.9414C314.025 29.9844 314.184 31.1504 314.184 32.4395ZM311.143 32.6328C311.143 31.8008 311.072 31.0098 310.932 30.2598C310.791 29.498 310.545 28.8301 310.193 28.2559C309.854 27.6816 309.385 27.2246 308.787 26.8848C308.201 26.5449 307.457 26.375 306.555 26.375C305.746 26.375 305.043 26.5332 304.445 26.8496C303.848 27.166 303.355 27.5996 302.969 28.1504C302.582 28.7012 302.295 29.3574 302.107 30.1191C301.932 30.8809 301.844 31.7012 301.844 32.5801C301.844 33.4707 301.914 34.3027 302.055 35.0762C302.195 35.8379 302.436 36.5059 302.775 37.0801C303.127 37.6426 303.596 38.0879 304.182 38.416C304.768 38.7324 305.518 38.8906 306.432 38.8906C307.193 38.8906 307.867 38.7559 308.453 38.4863C309.039 38.2168 309.531 37.8242 309.93 37.3086C310.328 36.7812 310.627 36.125 310.826 35.3398C311.037 34.5547 311.143 33.6523 311.143 32.6328Z"
        fill="white"/>
    <defs>
        <linearGradient id="paint0_linear_21_26"
            x1="46"
            y1="68.636"
            x2="254.5"
            y2="13.5"
            gradientUnits="userSpaceOnUse">
            <stop stop-color="#FEFFDE"/>
            <stop offset="0.625112"
                stop-color="white"
                stop-opacity="0"/>
        </linearGradient>
    </defs>
</svg>
