<svg width="358"
    height="69"
    viewBox="0 0 358 69"
    fill="none"
    xmlns="http://www.w3.org/2000/svg">
    <path fill-rule="evenodd"
        clip-rule="evenodd"
        d="M294.278 0L357.5 34.3222L294.278 68.6443V50.3945H0V18.2499H294.278V0Z"
        fill="url(#paint0_linear_21_34)"/>
    <path d="M20.3535 40.5605C20.3535 40.6543 20.3301 40.7363 20.2832 40.8066C20.2363 40.8652 20.1543 40.918 20.0371 40.9648C19.9199 41.0117 19.7617 41.0469 19.5625 41.0703C19.375 41.0938 19.1348 41.1055 18.8418 41.1055C18.5605 41.1055 18.3203 41.0938 18.1211 41.0703C17.9219 41.0469 17.7637 41.0117 17.6465 40.9648C17.541 40.918 17.459 40.8652 17.4004 40.8066C17.3535 40.7363 17.3301 40.6543 17.3301 40.5605V20.873H7.04688V40.5605C7.04688 40.6543 7.01758 40.7363 6.95898 40.8066C6.91211 40.8652 6.83008 40.918 6.71289 40.9648C6.60742 41.0117 6.45508 41.0469 6.25586 41.0703C6.06836 41.0938 5.82812 41.1055 5.53516 41.1055C5.24219 41.1055 4.99609 41.0938 4.79688 41.0703C4.60938 41.0469 4.45703 41.0117 4.33984 40.9648C4.22266 40.918 4.14062 40.8652 4.09375 40.8066C4.04688 40.7363 4.02344 40.6543 4.02344 40.5605V19.4844C4.02344 19.0742 4.12305 18.7695 4.32227 18.5703C4.5332 18.3594 4.79688 18.2539 5.11328 18.2539H19.2988C19.627 18.2539 19.8848 18.3594 20.0723 18.5703C20.2598 18.7695 20.3535 19.0742 20.3535 19.4844V40.5605ZM40.7969 32.4746C40.7969 33.7637 40.627 34.9531 40.2871 36.043C39.9473 37.1211 39.4375 38.0527 38.7578 38.8379C38.0898 39.623 37.2461 40.2383 36.2266 40.6836C35.2188 41.1172 34.0469 41.334 32.7109 41.334C31.4102 41.334 30.2734 41.1406 29.3008 40.7539C28.3398 40.3672 27.5371 39.8047 26.8926 39.0664C26.248 38.3281 25.7676 37.4316 25.4512 36.377C25.1348 35.3223 24.9766 34.127 24.9766 32.791C24.9766 31.502 25.1406 30.3184 25.4688 29.2402C25.8086 28.1504 26.3125 27.2129 26.9805 26.4277C27.6602 25.6426 28.5039 25.0332 29.5117 24.5996C30.5195 24.166 31.6973 23.9492 33.0449 23.9492C34.3457 23.9492 35.4766 24.1426 36.4375 24.5293C37.4102 24.916 38.2188 25.4785 38.8633 26.2168C39.5078 26.9551 39.9883 27.8516 40.3047 28.9062C40.6328 29.9609 40.7969 31.1504 40.7969 32.4746ZM37.7383 32.668C37.7383 31.8125 37.6562 31.0039 37.4922 30.2422C37.3398 29.4805 37.082 28.8125 36.7188 28.2383C36.3555 27.6641 35.8633 27.2129 35.2422 26.8848C34.6211 26.5449 33.8477 26.375 32.9219 26.375C32.0664 26.375 31.3281 26.5273 30.707 26.832C30.0977 27.1367 29.5938 27.5703 29.1953 28.1328C28.7969 28.6836 28.498 29.3398 28.2988 30.1016C28.1113 30.8633 28.0176 31.6953 28.0176 32.5977C28.0176 33.4648 28.0938 34.2793 28.2461 35.041C28.4102 35.8027 28.6738 36.4707 29.0371 37.0449C29.4121 37.6074 29.9102 38.0586 30.5312 38.3984C31.1523 38.7266 31.9258 38.8906 32.8516 38.8906C33.6953 38.8906 34.4277 38.7383 35.0488 38.4336C35.6699 38.1289 36.1797 37.7012 36.5781 37.1504C36.9766 36.5996 37.2695 35.9434 37.457 35.1816C37.6445 34.4199 37.7383 33.582 37.7383 32.668ZM66.2148 36.0078C66.2148 36.8398 66.0566 37.584 65.7402 38.2402C65.4238 38.8848 64.9551 39.4297 64.334 39.875C63.7129 40.3086 62.9395 40.6426 62.0137 40.877C61.0879 41.0996 60.0098 41.2109 58.7793 41.2109C58.3926 41.2109 58.0176 41.2051 57.6543 41.1934C57.291 41.1934 56.9395 41.1816 56.5996 41.1582C56.2598 41.1465 55.9199 41.1289 55.5801 41.1055C55.252 41.082 54.9238 41.0527 54.5957 41.0176C54.127 40.959 53.7812 40.8066 53.5586 40.5605C53.3359 40.3027 53.2246 39.9277 53.2246 39.4355V25.8125C53.2246 25.332 53.3301 24.9629 53.541 24.7051C53.7637 24.4473 54.0977 24.2949 54.543 24.248C54.8477 24.2129 55.1699 24.1836 55.5098 24.1602C55.8613 24.1367 56.2188 24.1191 56.582 24.1074C56.9453 24.084 57.3203 24.0664 57.707 24.0547C58.0938 24.043 58.4863 24.0371 58.8848 24.0371C60.0215 24.0371 61.0059 24.1309 61.8379 24.3184C62.6699 24.5059 63.3613 24.7812 63.9121 25.1445C64.4629 25.5078 64.8672 25.9531 65.125 26.4805C65.3945 27.0078 65.5293 27.6113 65.5293 28.291C65.5293 29.1816 65.2891 29.9434 64.8086 30.5762C64.3398 31.209 63.6426 31.6602 62.7168 31.9297C63.877 32.1758 64.75 32.6504 65.3359 33.3535C65.9219 34.0566 66.2148 34.9414 66.2148 36.0078ZM62.7168 28.6602C62.7168 28.2734 62.6465 27.9277 62.5059 27.623C62.3652 27.3184 62.1309 27.0605 61.8027 26.8496C61.4863 26.6387 61.0703 26.4805 60.5547 26.375C60.0508 26.2695 59.4355 26.2168 58.709 26.2168C58.1582 26.2168 57.6543 26.2344 57.1973 26.2695C56.7402 26.293 56.3535 26.3223 56.0371 26.3574V31.2793H58.9902C60.1973 31.2793 61.1172 31.0566 61.75 30.6113C62.3945 30.1543 62.7168 29.5039 62.7168 28.6602ZM63.2441 36.0605C63.2441 35.5918 63.1621 35.1816 62.998 34.8301C62.834 34.4668 62.5703 34.168 62.207 33.9336C61.8555 33.6992 61.3984 33.5234 60.8359 33.4062C60.2852 33.2891 59.6289 33.2305 58.8672 33.2305H56.0371V38.8379C56.2598 38.873 56.4883 38.9023 56.7227 38.9258C56.9688 38.9375 57.2148 38.9551 57.4609 38.9785C57.7188 38.9902 57.9707 39.002 58.2168 39.0137C58.4746 39.0254 58.709 39.0312 58.9199 39.0312C59.6816 39.0312 60.332 38.9668 60.8711 38.8379C61.4102 38.6973 61.8555 38.498 62.207 38.2402C62.5703 37.9824 62.834 37.6719 62.998 37.3086C63.1621 36.9336 63.2441 36.5176 63.2441 36.0605ZM85.1992 32.4746C85.1992 33.7637 85.0293 34.9531 84.6895 36.043C84.3496 37.1211 83.8398 38.0527 83.1602 38.8379C82.4922 39.623 81.6484 40.2383 80.6289 40.6836C79.6211 41.1172 78.4492 41.334 77.1133 41.334C75.8125 41.334 74.6758 41.1406 73.7031 40.7539C72.7422 40.3672 71.9395 39.8047 71.2949 39.0664C70.6504 38.3281 70.1699 37.4316 69.8535 36.377C69.5371 35.3223 69.3789 34.127 69.3789 32.791C69.3789 31.502 69.543 30.3184 69.8711 29.2402C70.2109 28.1504 70.7148 27.2129 71.3828 26.4277C72.0625 25.6426 72.9062 25.0332 73.9141 24.5996C74.9219 24.166 76.0996 23.9492 77.4473 23.9492C78.748 23.9492 79.8789 24.1426 80.8398 24.5293C81.8125 24.916 82.6211 25.4785 83.2656 26.2168C83.9102 26.9551 84.3906 27.8516 84.707 28.9062C85.0352 29.9609 85.1992 31.1504 85.1992 32.4746ZM82.1406 32.668C82.1406 31.8125 82.0586 31.0039 81.8945 30.2422C81.7422 29.4805 81.4844 28.8125 81.1211 28.2383C80.7578 27.6641 80.2656 27.2129 79.6445 26.8848C79.0234 26.5449 78.25 26.375 77.3242 26.375C76.4688 26.375 75.7305 26.5273 75.1094 26.832C74.5 27.1367 73.9961 27.5703 73.5977 28.1328C73.1992 28.6836 72.9004 29.3398 72.7012 30.1016C72.5137 30.8633 72.4199 31.6953 72.4199 32.5977C72.4199 33.4648 72.4961 34.2793 72.6484 35.041C72.8125 35.8027 73.0762 36.4707 73.4395 37.0449C73.8145 37.6074 74.3125 38.0586 74.9336 38.3984C75.5547 38.7266 76.3281 38.8906 77.2539 38.8906C78.0977 38.8906 78.8301 38.7383 79.4512 38.4336C80.0723 38.1289 80.582 37.7012 80.9805 37.1504C81.3789 36.5996 81.6719 35.9434 81.8594 35.1816C82.0469 34.4199 82.1406 33.582 82.1406 32.668ZM100.422 36.1836C100.422 36.9805 100.264 37.6953 99.9473 38.3281C99.6309 38.9609 99.1738 39.5059 98.5762 39.9629C97.9902 40.4082 97.2695 40.748 96.4141 40.9824C95.5586 41.2168 94.5859 41.334 93.4961 41.334C92.8867 41.334 92.3125 41.2871 91.7734 41.1934C91.2461 41.1113 90.7598 41.0059 90.3145 40.877C89.8809 40.7363 89.5117 40.5898 89.207 40.4375C88.9141 40.2734 88.7031 40.1387 88.5742 40.0332C88.457 39.9277 88.3691 39.834 88.3105 39.752C88.252 39.6582 88.2109 39.5586 88.1875 39.4531C88.1641 39.3477 88.1406 39.2188 88.1172 39.0664C88.1055 38.9141 88.0996 38.7324 88.0996 38.5215C88.0996 38.334 88.1113 38.1758 88.1348 38.0469C88.1582 37.918 88.1875 37.8125 88.2227 37.7305C88.2578 37.6484 88.2988 37.5898 88.3457 37.5547C88.3926 37.5078 88.457 37.4844 88.5391 37.4844C88.668 37.4844 88.8438 37.5664 89.0664 37.7305C89.3008 37.8828 89.6113 38.0586 89.998 38.2578C90.3848 38.4453 90.8594 38.6211 91.4219 38.7852C91.9961 38.9492 92.6992 39.0312 93.5312 39.0312C94.1172 39.0312 94.6445 38.9727 95.1133 38.8555C95.582 38.7266 95.9805 38.5449 96.3086 38.3105C96.6367 38.0645 96.8887 37.7598 97.0645 37.3965C97.252 37.0332 97.3457 36.6113 97.3457 36.1309C97.3457 35.7207 97.2578 35.3516 97.082 35.0234C96.9062 34.6953 96.6309 34.4199 96.2559 34.1973C95.8809 33.9629 95.4004 33.7812 94.8145 33.6523C94.2285 33.5234 93.5195 33.459 92.6875 33.459H90.9297C90.8125 33.459 90.7188 33.4414 90.6484 33.4062C90.5781 33.3594 90.5137 33.2949 90.4551 33.2129C90.4082 33.1191 90.373 33.002 90.3496 32.8613C90.3379 32.709 90.332 32.5332 90.332 32.334C90.332 32.1465 90.3438 31.9824 90.3672 31.8418C90.3906 31.7012 90.4258 31.5898 90.4727 31.5078C90.5195 31.4258 90.5781 31.3672 90.6484 31.332C90.7188 31.2852 90.8066 31.2617 90.9121 31.2617H92.6172C93.3555 31.2617 93.9883 31.2031 94.5156 31.0859C95.0547 30.9688 95.5 30.7988 95.8516 30.5762C96.2148 30.3418 96.4785 30.0605 96.6426 29.7324C96.8184 29.3926 96.9062 29.0059 96.9062 28.5723C96.9062 28.1855 96.8242 27.8457 96.6602 27.5527C96.4961 27.2598 96.2734 27.0195 95.9922 26.832C95.7227 26.6328 95.3887 26.4863 94.9902 26.3926C94.5918 26.2871 94.1641 26.2344 93.707 26.2344C92.9922 26.2344 92.3535 26.3164 91.791 26.4805C91.2402 26.6445 90.7598 26.8262 90.3496 27.0254C89.9512 27.2129 89.623 27.3887 89.3652 27.5527C89.1074 27.7051 88.9258 27.7812 88.8203 27.7812C88.7617 27.7812 88.7031 27.7695 88.6445 27.7461C88.5977 27.7109 88.5508 27.6582 88.5039 27.5879C88.4688 27.5059 88.4395 27.4004 88.416 27.2715C88.4043 27.1309 88.3984 26.9668 88.3984 26.7793C88.3984 26.4395 88.4219 26.1699 88.4688 25.9707C88.5273 25.7715 88.627 25.6016 88.7676 25.4609C88.9082 25.3203 89.1543 25.1562 89.5059 24.9688C89.8574 24.7812 90.2676 24.6172 90.7363 24.4766C91.2168 24.3242 91.7324 24.2012 92.2832 24.1074C92.8457 24.002 93.4199 23.9492 94.0059 23.9492C94.8613 23.9492 95.6465 24.043 96.3613 24.2305C97.0762 24.4062 97.6855 24.6816 98.1895 25.0566C98.7051 25.4199 99.1035 25.877 99.3848 26.4277C99.666 26.9668 99.8066 27.5996 99.8066 28.3262C99.8066 28.7598 99.7363 29.1758 99.5957 29.5742C99.4551 29.9609 99.25 30.3184 98.9805 30.6465C98.7227 30.9746 98.4004 31.2676 98.0137 31.5254C97.627 31.7832 97.1992 31.9824 96.7305 32.123L96.6953 32.1406C97.1523 32.1875 97.6035 32.3223 98.0488 32.5449C98.4941 32.7559 98.8926 33.0371 99.2441 33.3887C99.5957 33.7285 99.877 34.1387 100.088 34.6191C100.311 35.0879 100.422 35.6094 100.422 36.1836ZM119.248 32.4043C119.248 33.7871 119.096 35.0293 118.791 36.1309C118.498 37.2324 118.059 38.1699 117.473 38.9434C116.898 39.7051 116.184 40.2969 115.328 40.7188C114.473 41.1289 113.494 41.334 112.393 41.334C111.924 41.334 111.49 41.2871 111.092 41.1934C110.693 41.0996 110.301 40.9531 109.914 40.7539C109.539 40.5547 109.164 40.3027 108.789 39.998C108.414 39.6934 108.016 39.3359 107.594 38.9258V46.8359C107.594 46.9297 107.57 47.0117 107.523 47.082C107.477 47.1523 107.4 47.2109 107.295 47.2578C107.189 47.3047 107.043 47.3398 106.855 47.3633C106.668 47.3867 106.428 47.3984 106.135 47.3984C105.854 47.3984 105.619 47.3867 105.432 47.3633C105.244 47.3398 105.092 47.3047 104.975 47.2578C104.869 47.2109 104.793 47.1523 104.746 47.082C104.711 47.0117 104.693 46.9297 104.693 46.8359V24.7402C104.693 24.6348 104.711 24.5527 104.746 24.4941C104.781 24.4238 104.852 24.3652 104.957 24.3184C105.062 24.2715 105.197 24.2422 105.361 24.2305C105.525 24.207 105.725 24.1953 105.959 24.1953C106.205 24.1953 106.404 24.207 106.557 24.2305C106.721 24.2422 106.855 24.2715 106.961 24.3184C107.066 24.3652 107.137 24.4238 107.172 24.4941C107.219 24.5527 107.242 24.6348 107.242 24.7402V26.8672C107.723 26.375 108.186 25.9473 108.631 25.584C109.076 25.2207 109.521 24.9219 109.967 24.6875C110.424 24.4414 110.887 24.2598 111.355 24.1426C111.836 24.0137 112.34 23.9492 112.867 23.9492C114.016 23.9492 114.994 24.1719 115.803 24.6172C116.611 25.0625 117.268 25.6719 117.771 26.4453C118.287 27.2188 118.662 28.1211 118.896 29.1523C119.131 30.1719 119.248 31.2559 119.248 32.4043ZM116.189 32.7383C116.189 31.9297 116.125 31.1504 115.996 30.4004C115.879 29.6387 115.668 28.9648 115.363 28.3789C115.07 27.793 114.672 27.3242 114.168 26.9727C113.664 26.6211 113.037 26.4453 112.287 26.4453C111.912 26.4453 111.543 26.5039 111.18 26.6211C110.816 26.7266 110.447 26.9023 110.072 27.1484C109.697 27.3828 109.305 27.6992 108.895 28.0977C108.484 28.4844 108.051 28.9648 107.594 29.5391V35.832C108.391 36.8047 109.146 37.5488 109.861 38.0645C110.576 38.5801 111.326 38.8379 112.111 38.8379C112.838 38.8379 113.459 38.6621 113.975 38.3105C114.502 37.959 114.924 37.4902 115.24 36.9043C115.568 36.3184 115.809 35.6621 115.961 34.9355C116.113 34.209 116.189 33.4766 116.189 32.7383ZM135.525 40.5781C135.525 40.7188 135.479 40.8242 135.385 40.8945C135.291 40.9648 135.162 41.0176 134.998 41.0527C134.834 41.0879 134.594 41.1055 134.277 41.1055C133.973 41.1055 133.727 41.0879 133.539 41.0527C133.363 41.0176 133.234 40.9648 133.152 40.8945C133.07 40.8242 133.029 40.7188 133.029 40.5781V38.9961C132.338 39.7344 131.564 40.3086 130.709 40.7188C129.865 41.1289 128.969 41.334 128.02 41.334C127.188 41.334 126.432 41.2227 125.752 41C125.084 40.7891 124.51 40.4785 124.029 40.0684C123.561 39.6582 123.191 39.1543 122.922 38.5566C122.664 37.959 122.535 37.2793 122.535 36.5176C122.535 35.627 122.717 34.8535 123.08 34.1973C123.443 33.541 123.965 32.9961 124.645 32.5625C125.324 32.1289 126.156 31.8066 127.141 31.5957C128.125 31.373 129.232 31.2617 130.463 31.2617H132.643V30.0312C132.643 29.4219 132.578 28.8828 132.449 28.4141C132.32 27.9453 132.109 27.5586 131.816 27.2539C131.535 26.9375 131.166 26.7031 130.709 26.5508C130.252 26.3867 129.689 26.3047 129.021 26.3047C128.307 26.3047 127.662 26.3926 127.088 26.5684C126.525 26.7324 126.027 26.9199 125.594 27.1309C125.172 27.3301 124.814 27.5176 124.521 27.6934C124.24 27.8574 124.029 27.9395 123.889 27.9395C123.795 27.9395 123.713 27.916 123.643 27.8691C123.572 27.8223 123.508 27.752 123.449 27.6582C123.402 27.5645 123.367 27.4473 123.344 27.3066C123.32 27.1543 123.309 26.9902 123.309 26.8145C123.309 26.5215 123.326 26.293 123.361 26.1289C123.408 25.9531 123.508 25.7891 123.66 25.6367C123.824 25.4844 124.1 25.3086 124.486 25.1094C124.873 24.8984 125.318 24.7109 125.822 24.5469C126.326 24.3711 126.877 24.2305 127.475 24.125C128.072 24.0078 128.676 23.9492 129.285 23.9492C130.422 23.9492 131.389 24.0781 132.186 24.3359C132.982 24.5938 133.627 24.9746 134.119 25.4785C134.611 25.9707 134.969 26.5859 135.191 27.3242C135.414 28.0625 135.525 28.9238 135.525 29.9082V40.5781ZM132.643 33.3535H130.164C129.367 33.3535 128.676 33.4238 128.09 33.5645C127.504 33.6934 127.018 33.8926 126.631 34.1621C126.244 34.4199 125.957 34.7363 125.77 35.1113C125.594 35.4746 125.506 35.8965 125.506 36.377C125.506 37.1973 125.764 37.8535 126.279 38.3457C126.807 38.8262 127.539 39.0664 128.477 39.0664C129.238 39.0664 129.941 38.873 130.586 38.4863C131.242 38.0996 131.928 37.5078 132.643 36.7109V33.3535ZM152.242 38.1523C152.242 38.3516 152.236 38.5273 152.225 38.6797C152.213 38.8203 152.189 38.9434 152.154 39.0488C152.131 39.1426 152.096 39.2305 152.049 39.3125C152.014 39.3828 151.92 39.4941 151.768 39.6465C151.627 39.7871 151.381 39.9688 151.029 40.1914C150.678 40.4023 150.279 40.5957 149.834 40.7715C149.4 40.9355 148.926 41.0703 148.41 41.1758C147.895 41.2812 147.361 41.334 146.811 41.334C145.674 41.334 144.666 41.1465 143.787 40.7715C142.908 40.3965 142.17 39.8516 141.572 39.1367C140.986 38.4102 140.535 37.5254 140.219 36.4824C139.914 35.4277 139.762 34.2148 139.762 32.8438C139.762 31.2852 139.949 29.9492 140.324 28.8359C140.711 27.7109 141.232 26.791 141.889 26.0762C142.557 25.3613 143.336 24.834 144.227 24.4941C145.129 24.1426 146.102 23.9668 147.145 23.9668C147.648 23.9668 148.135 24.0137 148.604 24.1074C149.084 24.2012 149.523 24.3242 149.922 24.4766C150.32 24.6289 150.672 24.8047 150.977 25.0039C151.293 25.2031 151.521 25.373 151.662 25.5137C151.803 25.6543 151.896 25.7656 151.943 25.8477C152.002 25.9297 152.049 26.0293 152.084 26.1465C152.119 26.252 152.143 26.375 152.154 26.5156C152.166 26.6562 152.172 26.832 152.172 27.043C152.172 27.5 152.119 27.8223 152.014 28.0098C151.908 28.1855 151.779 28.2734 151.627 28.2734C151.451 28.2734 151.246 28.1797 151.012 27.9922C150.789 27.793 150.502 27.5762 150.15 27.3418C149.799 27.1074 149.371 26.8965 148.867 26.709C148.375 26.5098 147.789 26.4102 147.109 26.4102C145.715 26.4102 144.643 26.9492 143.893 28.0273C143.154 29.0938 142.785 30.6465 142.785 32.6855C142.785 33.7051 142.879 34.6016 143.066 35.375C143.266 36.1367 143.553 36.7754 143.928 37.291C144.303 37.8066 144.76 38.1934 145.299 38.4512C145.85 38.6973 146.477 38.8203 147.18 38.8203C147.848 38.8203 148.434 38.7148 148.938 38.5039C149.441 38.293 149.875 38.0645 150.238 37.8184C150.613 37.5605 150.924 37.332 151.17 37.1328C151.428 36.9219 151.627 36.8164 151.768 36.8164C151.85 36.8164 151.92 36.8398 151.979 36.8867C152.037 36.9336 152.084 37.0156 152.119 37.1328C152.166 37.2383 152.195 37.3789 152.207 37.5547C152.23 37.7188 152.242 37.918 152.242 38.1523ZM167.166 25.6016C167.166 25.8359 167.154 26.0352 167.131 26.1992C167.107 26.3633 167.066 26.498 167.008 26.6035C166.961 26.709 166.902 26.791 166.832 26.8496C166.762 26.8965 166.674 26.9199 166.568 26.9199H161.822V40.5605C161.822 40.6543 161.799 40.7363 161.752 40.8066C161.705 40.8652 161.629 40.918 161.523 40.9648C161.418 41.0117 161.271 41.0469 161.084 41.0703C160.896 41.0938 160.656 41.1055 160.363 41.1055C160.082 41.1055 159.848 41.0938 159.66 41.0703C159.473 41.0469 159.32 41.0117 159.203 40.9648C159.098 40.918 159.021 40.8652 158.975 40.8066C158.939 40.7363 158.922 40.6543 158.922 40.5605V26.9199H154.176C154.082 26.9199 153.994 26.8965 153.912 26.8496C153.842 26.791 153.783 26.709 153.736 26.6035C153.689 26.498 153.648 26.3633 153.613 26.1992C153.59 26.0234 153.578 25.8184 153.578 25.584C153.578 25.373 153.59 25.1855 153.613 25.0215C153.648 24.8574 153.689 24.7227 153.736 24.6172C153.795 24.5 153.859 24.418 153.93 24.3711C154 24.3125 154.082 24.2832 154.176 24.2832H166.568C166.662 24.2832 166.744 24.3125 166.814 24.3711C166.896 24.418 166.961 24.5 167.008 24.6172C167.055 24.7227 167.09 24.8633 167.113 25.0391C167.148 25.2031 167.166 25.3906 167.166 25.6016ZM181.967 40.5781C181.967 40.7188 181.92 40.8242 181.826 40.8945C181.732 40.9648 181.604 41.0176 181.439 41.0527C181.275 41.0879 181.035 41.1055 180.719 41.1055C180.414 41.1055 180.168 41.0879 179.98 41.0527C179.805 41.0176 179.676 40.9648 179.594 40.8945C179.512 40.8242 179.471 40.7188 179.471 40.5781V38.9961C178.779 39.7344 178.006 40.3086 177.15 40.7188C176.307 41.1289 175.41 41.334 174.461 41.334C173.629 41.334 172.873 41.2227 172.193 41C171.525 40.7891 170.951 40.4785 170.471 40.0684C170.002 39.6582 169.633 39.1543 169.363 38.5566C169.105 37.959 168.977 37.2793 168.977 36.5176C168.977 35.627 169.158 34.8535 169.521 34.1973C169.885 33.541 170.406 32.9961 171.086 32.5625C171.766 32.1289 172.598 31.8066 173.582 31.5957C174.566 31.373 175.674 31.2617 176.904 31.2617H179.084V30.0312C179.084 29.4219 179.02 28.8828 178.891 28.4141C178.762 27.9453 178.551 27.5586 178.258 27.2539C177.977 26.9375 177.607 26.7031 177.15 26.5508C176.693 26.3867 176.131 26.3047 175.463 26.3047C174.748 26.3047 174.104 26.3926 173.529 26.5684C172.967 26.7324 172.469 26.9199 172.035 27.1309C171.613 27.3301 171.256 27.5176 170.963 27.6934C170.682 27.8574 170.471 27.9395 170.33 27.9395C170.236 27.9395 170.154 27.916 170.084 27.8691C170.014 27.8223 169.949 27.752 169.891 27.6582C169.844 27.5645 169.809 27.4473 169.785 27.3066C169.762 27.1543 169.75 26.9902 169.75 26.8145C169.75 26.5215 169.768 26.293 169.803 26.1289C169.85 25.9531 169.949 25.7891 170.102 25.6367C170.266 25.4844 170.541 25.3086 170.928 25.1094C171.314 24.8984 171.76 24.7109 172.264 24.5469C172.768 24.3711 173.318 24.2305 173.916 24.125C174.514 24.0078 175.117 23.9492 175.727 23.9492C176.863 23.9492 177.83 24.0781 178.627 24.3359C179.424 24.5938 180.068 24.9746 180.561 25.4785C181.053 25.9707 181.41 26.5859 181.633 27.3242C181.855 28.0625 181.967 28.9238 181.967 29.9082V40.5781ZM179.084 33.3535H176.605C175.809 33.3535 175.117 33.4238 174.531 33.5645C173.945 33.6934 173.459 33.8926 173.072 34.1621C172.686 34.4199 172.398 34.7363 172.211 35.1113C172.035 35.4746 171.947 35.8965 171.947 36.377C171.947 37.1973 172.205 37.8535 172.721 38.3457C173.248 38.8262 173.98 39.0664 174.918 39.0664C175.68 39.0664 176.383 38.873 177.027 38.4863C177.684 38.0996 178.369 37.5078 179.084 36.7109V33.3535ZM201.18 40.5605C201.18 40.6543 201.156 40.7363 201.109 40.8066C201.062 40.8652 200.986 40.918 200.881 40.9648C200.775 41.0117 200.629 41.0469 200.441 41.0703C200.254 41.0938 200.02 41.1055 199.738 41.1055C199.445 41.1055 199.205 41.0938 199.018 41.0703C198.83 41.0469 198.684 41.0117 198.578 40.9648C198.473 40.918 198.396 40.8652 198.35 40.8066C198.303 40.7363 198.279 40.6543 198.279 40.5605V33.6172H190.211V40.5605C190.211 40.6543 190.188 40.7363 190.141 40.8066C190.094 40.8652 190.018 40.918 189.912 40.9648C189.807 41.0117 189.66 41.0469 189.473 41.0703C189.285 41.0938 189.045 41.1055 188.752 41.1055C188.471 41.1055 188.236 41.0938 188.049 41.0703C187.861 41.0469 187.709 41.0117 187.592 40.9648C187.486 40.918 187.41 40.8652 187.363 40.8066C187.328 40.7363 187.311 40.6543 187.311 40.5605V24.7402C187.311 24.6465 187.328 24.5703 187.363 24.5117C187.41 24.4414 187.486 24.3828 187.592 24.3359C187.709 24.2773 187.861 24.2422 188.049 24.2305C188.236 24.207 188.471 24.1953 188.752 24.1953C189.045 24.1953 189.285 24.207 189.473 24.2305C189.66 24.2422 189.807 24.2773 189.912 24.3359C190.018 24.3828 190.094 24.4414 190.141 24.5117C190.188 24.5703 190.211 24.6465 190.211 24.7402V31.1738H198.279V24.7402C198.279 24.6465 198.303 24.5703 198.35 24.5117C198.396 24.4414 198.473 24.3828 198.578 24.3359C198.684 24.2773 198.83 24.2422 199.018 24.2305C199.205 24.207 199.445 24.1953 199.738 24.1953C200.02 24.1953 200.254 24.207 200.441 24.2305C200.629 24.2422 200.775 24.2773 200.881 24.3359C200.986 24.3828 201.062 24.4414 201.109 24.5117C201.156 24.5703 201.18 24.6465 201.18 24.7402V40.5605ZM220.656 40.5781C220.656 40.6602 220.633 40.7363 220.586 40.8066C220.539 40.877 220.463 40.9355 220.357 40.9824C220.252 41.0176 220.105 41.0469 219.918 41.0703C219.73 41.0938 219.496 41.1055 219.215 41.1055C218.934 41.1055 218.699 41.0938 218.512 41.0703C218.324 41.0469 218.172 41.0176 218.055 40.9824C217.938 40.9355 217.855 40.877 217.809 40.8066C217.762 40.7363 217.738 40.6602 217.738 40.5781V31.4727C217.738 31.0156 217.75 30.5527 217.773 30.084C217.797 29.6035 217.826 29.1348 217.861 28.6777C217.592 29.1465 217.293 29.6094 216.965 30.0664C216.648 30.5117 216.326 30.957 215.998 31.4023L209.283 40.5781C209.201 40.6719 209.125 40.7539 209.055 40.8242C208.996 40.8945 208.914 40.9531 208.809 41C208.715 41.0352 208.592 41.0586 208.439 41.0703C208.287 41.0938 208.1 41.1055 207.877 41.1055C207.619 41.1055 207.408 41.0938 207.244 41.0703C207.08 41.0469 206.945 41.0176 206.84 40.9824C206.746 40.9355 206.676 40.877 206.629 40.8066C206.594 40.7363 206.576 40.6602 206.576 40.5781V24.7227C206.576 24.6406 206.594 24.5645 206.629 24.4941C206.676 24.4238 206.752 24.3652 206.857 24.3184C206.975 24.2715 207.127 24.2422 207.314 24.2305C207.502 24.207 207.73 24.1953 208 24.1953C208.562 24.1953 208.949 24.2422 209.16 24.3359C209.371 24.418 209.477 24.5469 209.477 24.7227V33.8809C209.477 34.3379 209.465 34.7949 209.441 35.252C209.418 35.6973 209.389 36.1426 209.354 36.5879C209.623 36.1426 209.893 35.709 210.162 35.2871C210.443 34.8535 210.742 34.4316 211.059 34.0215L217.861 24.7227C217.932 24.6289 218.002 24.5469 218.072 24.4766C218.154 24.4062 218.248 24.3535 218.354 24.3184C218.471 24.2715 218.605 24.2422 218.758 24.2305C218.91 24.207 219.109 24.1953 219.355 24.1953C219.602 24.1953 219.807 24.207 219.971 24.2305C220.146 24.2422 220.281 24.2715 220.375 24.3184C220.48 24.3652 220.551 24.4238 220.586 24.4941C220.633 24.5645 220.656 24.6465 220.656 24.7402V40.5781ZM247.762 32.4395C247.762 33.7285 247.586 34.918 247.234 36.0078C246.895 37.0977 246.391 38.0352 245.723 38.8203C245.066 39.6055 244.258 40.2207 243.297 40.666C242.336 41.1113 241.24 41.334 240.01 41.334C238.744 41.334 237.654 41.1641 236.74 40.8242C235.826 40.4727 235.059 39.9629 234.438 39.2949C233.828 38.627 233.359 37.8125 233.031 36.8516C232.715 35.8789 232.527 34.7773 232.469 33.5469H228.953V40.5605C228.953 40.6543 228.93 40.7363 228.883 40.8066C228.836 40.8652 228.76 40.918 228.654 40.9648C228.549 41.0117 228.402 41.0469 228.215 41.0703C228.027 41.0938 227.787 41.1055 227.494 41.1055C227.213 41.1055 226.979 41.0938 226.791 41.0703C226.604 41.0469 226.451 41.0117 226.334 40.9648C226.229 40.918 226.152 40.8652 226.105 40.8066C226.07 40.7363 226.053 40.6543 226.053 40.5605V24.7402C226.053 24.6465 226.07 24.5703 226.105 24.5117C226.152 24.4414 226.229 24.3828 226.334 24.3359C226.451 24.2773 226.604 24.2422 226.791 24.2305C226.979 24.207 227.213 24.1953 227.494 24.1953C227.787 24.1953 228.027 24.207 228.215 24.2305C228.402 24.2422 228.549 24.2773 228.654 24.3359C228.76 24.3828 228.836 24.4414 228.883 24.5117C228.93 24.5703 228.953 24.6465 228.953 24.7402V31.2441H232.539C232.645 30.166 232.879 29.1816 233.242 28.291C233.617 27.4004 234.121 26.6328 234.754 25.9883C235.398 25.3438 236.178 24.8457 237.092 24.4941C238.006 24.1309 239.061 23.9492 240.256 23.9492C241.521 23.9492 242.623 24.1484 243.561 24.5469C244.498 24.9453 245.277 25.5137 245.898 26.252C246.52 26.9902 246.982 27.8867 247.287 28.9414C247.604 29.9844 247.762 31.1504 247.762 32.4395ZM244.721 32.6328C244.721 31.8008 244.65 31.0098 244.51 30.2598C244.369 29.498 244.123 28.8301 243.771 28.2559C243.432 27.6816 242.963 27.2246 242.365 26.8848C241.779 26.5449 241.035 26.375 240.133 26.375C239.324 26.375 238.621 26.5332 238.023 26.8496C237.426 27.166 236.934 27.5996 236.547 28.1504C236.16 28.7012 235.873 29.3574 235.686 30.1191C235.51 30.8809 235.422 31.7012 235.422 32.5801C235.422 33.4707 235.492 34.3027 235.633 35.0762C235.773 35.8379 236.014 36.5059 236.354 37.0801C236.705 37.6426 237.174 38.0879 237.76 38.416C238.346 38.7324 239.096 38.8906 240.01 38.8906C240.771 38.8906 241.445 38.7559 242.031 38.4863C242.617 38.2168 243.109 37.8242 243.508 37.3086C243.906 36.7812 244.205 36.125 244.404 35.3398C244.615 34.5547 244.721 33.6523 244.721 32.6328Z"
        fill="white"/>
    <defs>
        <linearGradient id="paint0_linear_21_34"
            x1="311.5"
            y1="68.636"
            x2="103"
            y2="13.5"
            gradientUnits="userSpaceOnUse">
            <stop stop-color="#FEFFDE"/>
            <stop offset="0.625112"
                stop-color="white"
                stop-opacity="0"/>
        </linearGradient>
    </defs>
</svg>
