<svg width="980"
    height="810"
    viewBox="0 0 980 810"
    fill="none"
    xmlns="http://www.w3.org/2000/svg">
    <g clip-path="url(#clip0_2_772)">
        <rect width="980"
            height="810"
            fill="#3A1F36"/>
        <g opacity="0.3">
            <path d="M66.0067 217.757C45.3877 199.357 8.47925 187.092 -33.6214 187.092C-75.7221 187.092 -112.631 199.352 -133.25 217.757H-150.655C-150.655 236.726 -148.78 243.177 -148.47 251.648C-147.168 287.275 -98.2577 316.204 -33.6214 316.204C31.0149 316.204 80.8754 287.275 82.3169 251.648C82.663 243.156 83.4069 238.173 83.4069 217.675L66.0067 217.757Z"
                fill="#C6640C"/>
            <path d="M13.175 258.703C11.8111 283.027 13.175 310.73 13.175 310.73C37.7358 304.652 57.554 293.907 69.5813 280.499C83.4064 261.38 81.2366 241.507 81.2366 222.797C81.2366 222.802 14.4459 235.951 13.175 258.703Z"
                fill="#A3490A"/>
            <path d="M83.4123 217.675C83.4123 253.328 31.0151 285.59 -33.6212 285.59C-98.2576 285.59 -150.655 253.411 -150.655 217.758C-150.655 182.104 -98.2576 153.202 -33.6212 153.202C31.0151 153.202 83.4123 182.022 83.4123 217.675Z"
                fill="url(#paint0_radial_2_772)"/>
            <path opacity="0.7"
                d="M18.9872 193.279L67.7422 250.883C70.6457 247.921 72.6192 245.585 75.2127 241.998L-2.88716 155.455C-8.23951 154.654 -13.7468 154.054 -19.3781 153.677L18.9872 193.279Z"
                fill="#FCFFAC"/>
            <path d="M-31.4364 268.301C16.7559 268.301 55.8234 246.753 55.8234 220.171C55.8234 193.59 16.7559 172.041 -31.4364 172.041C-79.6286 172.041 -118.696 193.59 -118.696 220.171C-118.696 246.753 -79.6286 268.301 -31.4364 268.301Z"
                fill="#FCFFAC"/>
            <path d="M-33.621 266.156C14.8366 266.156 54.1193 244.487 54.1193 217.758C54.1193 191.028 14.8366 169.359 -33.621 169.359C-82.0787 169.359 -121.361 191.028 -121.361 217.758C-121.361 244.487 -82.0787 266.156 -33.621 266.156Z"
                fill="#FBAA12"/>
            <path opacity="0.3"
                d="M38.191 189.945C44.184 196.494 47.5628 203.895 47.5628 211.731C47.5628 238.458 8.27783 260.13 -40.1774 260.13C-69.8685 260.13 -96.1136 251.994 -111.99 239.548C-97.5395 255.333 -67.8691 266.161 -33.6213 266.161C14.8339 266.161 54.1189 244.494 54.1189 217.762C54.1189 207.405 48.2293 197.812 38.191 189.945Z"
                fill="#EA831C"/>
            <path opacity="0.25"
                d="M-147.039 201.781C-136.07 221.629 -102.613 236.07 -63.0387 236.07C-14.5473 236.07 24.7635 214.387 24.7635 187.64C24.7635 175.881 17.1638 165.1 4.52693 156.711C-7.42803 154.437 -20.2613 153.202 -33.6215 153.202C-88.2557 153.202 -134.149 173.855 -147.039 201.781Z"
                fill="#FFFFEB"/>
            <path d="M-23.5881 218.362C-8.16649 219.019 31.1805 222.218 5.14722 237.631C-22.1312 253.777 -30.1287 239.197 -33.0735 227.082C-36.0183 239.197 -44.0158 253.777 -71.2942 237.631C-97.3275 222.218 -57.9805 219.019 -42.5589 218.362C-57.9805 217.706 -97.3275 214.506 -71.2942 199.094C-44.0158 182.947 -37.1136 198.985 -34.1688 211.1C-31.2239 198.985 -22.1363 182.942 5.14205 199.094C31.1805 214.501 -8.16649 217.706 -23.5881 218.362Z"
                fill="#C6640C"/>
            <path d="M-24.6835 217.158C-9.26195 217.814 30.085 221.014 4.05176 236.427C-23.2266 252.573 -31.2241 237.993 -34.169 225.877C-37.1138 237.993 -45.1113 252.573 -72.3897 236.427C-98.423 221.014 -59.076 217.814 -43.6544 217.158C-59.076 216.502 -98.423 213.302 -72.3897 197.889C-45.1113 181.743 -37.1138 196.323 -34.169 208.439C-31.2241 196.323 -23.2266 181.743 4.05176 197.889C30.085 213.297 -9.25678 216.496 -24.6835 217.158Z"
                fill="#FCE13C"/>
            <path d="M-33.0732 209.638C-30.1284 197.523 -22.1309 182.942 5.1475 199.089C7.91667 200.727 9.9367 202.226 11.3368 203.601C9.9987 201.911 7.65836 200.014 4.0574 197.884C-22.1515 182.368 -30.5572 195.217 -33.7914 206.997C-33.5227 207.88 -33.285 208.769 -33.0732 209.638Z"
                fill="#FCFFAC"/>
            <path d="M-14.6552 217.804C-18.003 218.083 6.12906 220.259 12.0859 225.356C9.09455 220.849 -3.82652 218.766 -14.6552 217.804Z"
                fill="#FCFFAC"/>
            <path opacity="0.25"
                d="M1.81487 220.285C-6.61146 218.213 -17.9361 217.443 -24.6834 217.153C-9.26183 216.497 30.0852 213.297 4.05188 197.885C-23.2265 181.738 -31.224 196.318 -34.1688 208.434C-37.1137 196.318 -45.1112 181.738 -72.3896 197.885C-98.4229 213.297 -59.0758 216.497 -43.6543 217.153C-58.8434 217.799 -97.2294 220.916 -73.5313 235.729C-70.0905 235.956 -66.5929 236.07 -63.0436 236.07C-53.9818 236.07 -45.2403 235.31 -37.0155 233.905C-35.7187 231.346 -34.8198 228.55 -34.1688 225.873C-33.6005 228.209 -32.8463 230.633 -31.8027 232.912C-18.8454 230.194 -7.36059 225.831 1.81487 220.285Z"
                fill="#FFFFEB"/>
            <path d="M-119.176 219.567C-119.176 192.84 -79.891 171.168 -31.4357 171.168C-1.66194 171.168 24.6503 179.35 40.511 191.858C24.9499 178.337 -2.43689 169.359 -33.621 169.359C-82.0763 169.359 -121.361 191.026 -121.361 217.758C-121.361 228.064 -115.523 237.615 -105.568 245.466C-114.185 237.977 -119.176 229.092 -119.176 219.567Z"
                fill="#CF7310"/>
            <path d="M80.5351 232.142C74.5732 208.888 38.9511 190.1 -4.70463 188.658C-53.1341 187.061 -116.644 201.337 -117.522 228.048C-118.349 253.1 -60.9715 280.928 -16.825 284.856C31.2945 280.623 69.9493 258.589 80.5351 232.142Z"
                fill="#342D3F"/>
            <path d="M76.9442 173.524C56.3252 155.124 19.4168 142.859 -22.6839 142.859C-64.7846 142.859 -101.693 155.119 -122.312 173.524H-139.717C-139.717 192.493 -137.842 198.944 -137.532 207.415C-136.23 243.042 -87.3202 271.971 -22.6839 271.971C41.9524 271.971 91.813 243.042 93.2544 207.415C93.6005 198.923 94.3496 193.94 94.3496 173.442L76.9442 173.524Z"
                fill="#C6640C"/>
            <path d="M24.1182 214.47C22.7595 238.794 24.1182 266.497 24.1182 266.497C48.6791 260.419 68.4973 249.674 80.5246 236.266C94.3549 217.148 92.1798 197.28 92.1798 178.564C92.1798 178.564 25.3892 191.713 24.1182 214.47Z"
                fill="#A3490A"/>
            <path d="M94.3496 173.442C94.3496 209.095 41.9524 241.357 -22.6839 241.357C-87.3202 241.357 -139.717 209.178 -139.717 173.525C-139.717 137.872 -87.3202 108.969 -22.6839 108.969C41.9524 108.969 94.3496 137.789 94.3496 173.442Z"
                fill="url(#paint1_radial_2_772)"/>
            <path opacity="0.7"
                d="M29.9245 149.046L78.6794 206.65C81.5829 203.688 83.5565 201.352 86.15 197.765L8.05012 111.222C2.69778 110.421 -2.80959 109.821 -8.44092 109.444L29.9245 149.046Z"
                fill="#FCFFAC"/>
            <path d="M-20.4931 224.063C27.6992 224.063 66.7668 202.515 66.7668 175.933C66.7668 149.352 27.6992 127.803 -20.4931 127.803C-68.6853 127.803 -107.753 149.352 -107.753 175.933C-107.753 202.515 -68.6853 224.063 -20.4931 224.063Z"
                fill="#FCFFAC"/>
            <path d="M-22.6788 221.923C25.7788 221.923 65.0615 200.255 65.0615 173.525C65.0615 146.795 25.7788 125.126 -22.6788 125.126C-71.1364 125.126 -110.419 146.795 -110.419 173.525C-110.419 200.255 -71.1364 221.923 -22.6788 221.923Z"
                fill="#FBAA12"/>
            <path opacity="0.3"
                d="M49.1337 145.707C55.1266 152.256 58.5054 159.657 58.5054 167.493C58.5054 194.22 19.2204 215.892 -29.2349 215.892C-58.9259 215.892 -85.171 207.756 -101.047 195.31C-86.5969 211.095 -56.9265 221.923 -22.6787 221.923C25.7766 221.923 65.0615 200.257 65.0615 173.525C65.0615 163.172 59.1667 153.579 49.1337 145.707Z"
                fill="#EA831C"/>
            <path opacity="0.25"
                d="M-136.101 157.543C-125.133 177.391 -91.6755 191.832 -52.1012 191.832C-3.60976 191.832 35.7011 170.149 35.7011 143.402C35.7011 131.643 28.1013 120.862 15.4644 112.473C3.50947 110.199 -9.32375 108.963 -22.684 108.963C-77.3182 108.969 -123.211 129.622 -136.101 157.543Z"
                fill="#FFFFEB"/>
            <path d="M-12.6508 174.124C2.77077 174.781 42.1178 177.98 16.0845 193.393C-11.1939 209.54 -19.1914 194.959 -22.1362 182.844C-25.0811 194.959 -33.0786 209.54 -60.357 193.393C-86.3903 177.98 -47.0433 174.781 -31.6217 174.124C-47.0433 173.468 -86.3903 170.269 -60.357 154.856C-33.0786 138.709 -26.1763 154.747 -23.2315 166.863C-20.2867 154.747 -11.1991 138.704 16.0793 154.856C42.1178 170.269 2.77594 173.468 -12.6508 174.124Z"
                fill="#C6640C"/>
            <path d="M-13.7408 172.92C1.68074 173.576 41.0277 176.776 14.9945 192.189C-12.2839 208.335 -20.2815 193.755 -23.2263 181.639C-26.1712 193.755 -34.1686 208.335 -61.447 192.189C-87.4803 176.776 -48.1333 173.576 -32.7117 172.92C-48.1333 172.264 -87.4803 169.064 -61.447 153.651C-34.1686 137.505 -26.1712 152.085 -23.2263 164.201C-20.2815 152.085 -12.2839 137.505 14.9945 153.651C41.0277 169.064 1.68074 172.264 -13.7408 172.92Z"
                fill="#FCE13C"/>
            <path d="M-22.1307 165.405C-19.1859 153.29 -11.1883 138.709 16.0901 154.856C18.8593 156.494 20.8793 157.993 22.2794 159.368C20.9413 157.678 18.601 155.781 15 153.651C-11.2089 138.135 -19.6146 150.984 -22.8488 162.764C-22.5853 163.647 -22.3477 164.531 -22.1307 165.405Z"
                fill="#FCFFAC"/>
            <path d="M-3.71258 173.571C-7.06038 173.85 17.0717 176.026 23.0285 181.122C20.0372 176.61 7.11611 174.527 -3.71258 173.571Z"
                fill="#FCFFAC"/>
            <path opacity="0.25"
                d="M12.7574 176.052C4.33105 173.98 -6.99357 173.209 -13.7408 172.92C1.68074 172.264 41.0277 169.064 14.9945 153.651C-12.2839 137.505 -20.2815 152.085 -23.2263 164.201C-26.1712 152.085 -34.1686 137.505 -61.447 153.651C-87.4803 169.064 -48.1333 172.264 -32.7117 172.92C-47.9008 173.566 -86.2869 176.683 -62.5888 191.496C-59.148 191.723 -55.6504 191.837 -52.1011 191.837C-43.0393 191.837 -34.2978 191.077 -26.0729 189.671C-24.7762 187.113 -23.8773 184.317 -23.2263 181.639C-22.658 183.976 -21.9037 186.4 -20.8601 188.679C-7.90803 185.96 3.57676 181.598 12.7574 176.052Z"
                fill="#FFFFEB"/>
            <path d="M-108.234 175.328C-108.234 148.601 -68.9487 126.929 -20.4935 126.929C9.28027 126.929 35.5925 135.111 51.4533 147.619C35.8922 134.098 8.50533 125.12 -22.6788 125.12C-71.1341 125.12 -110.419 146.787 -110.419 173.519C-110.419 183.825 -104.581 193.377 -94.6255 201.228C-103.243 193.744 -108.234 184.859 -108.234 175.328Z"
                fill="#CF7310"/>
            <path d="M-139.713 173.524C-139.713 196.835 -72.8496 231.511 -36.9898 240.83C-32.2988 241.181 -27.5251 241.362 -22.679 241.362C41.9573 241.362 94.3545 209.1 94.3545 173.447C94.3545 164.516 91.0687 156.013 85.1222 148.286C65.8466 136.92 38.4132 129.819 7.97296 129.819C-50.3707 129.814 -139.713 141.34 -139.713 173.524Z"
                fill="#342D3F"/>
            <path d="M54.6616 116.732C34.0426 98.3317 -2.86581 86.0666 -44.9665 86.0666C-87.0671 86.0666 -123.976 98.3265 -144.595 116.732H-162C-162 135.701 -160.125 142.151 -159.815 150.622C-158.513 186.25 -109.603 215.178 -44.9665 215.178C19.6699 215.178 69.5304 186.25 70.9718 150.622C71.318 142.13 72.0619 137.148 72.0619 116.649L54.6616 116.732Z"
                fill="#C6640C"/>
            <path d="M1.83012 157.677C0.466205 182.001 1.83012 209.705 1.83012 209.705C26.391 203.626 46.2092 192.881 58.2365 179.473C72.0616 160.355 69.8918 140.487 69.8918 121.771C69.8918 121.771 3.10621 134.925 1.83012 157.677Z"
                fill="#A3490A"/>
            <path d="M72.0671 116.649C72.0671 152.302 19.6698 184.565 -44.9665 184.565C-109.603 184.565 -162 152.385 -162 116.732C-162 81.0789 -109.603 52.176 -44.9665 52.176C19.6698 52.176 72.0671 80.9962 72.0671 116.649Z"
                fill="url(#paint2_radial_2_772)"/>
            <path opacity="0.7"
                d="M7.64203 92.2532L56.397 149.857C59.3004 146.896 61.274 144.559 63.8676 140.972L-14.2323 54.4294C-19.5847 53.6283 -25.092 53.0287 -30.7233 52.6514L7.64203 92.2532Z"
                fill="#FCFFAC"/>
            <path d="M-42.7818 167.27C5.41048 167.27 44.478 145.722 44.478 119.14C44.478 92.5589 5.41048 71.0103 -42.7818 71.0103C-90.974 71.0103 -130.042 92.5589 -130.042 119.14C-130.042 145.722 -90.974 167.27 -42.7818 167.27Z"
                fill="#FCFFAC"/>
            <path d="M-44.9664 165.131C3.49118 165.131 42.7738 143.462 42.7738 116.732C42.7738 90.002 3.49118 68.3331 -44.9664 68.3331C-93.4241 68.3331 -132.707 90.002 -132.707 116.732C-132.707 143.462 -93.4241 165.131 -44.9664 165.131Z"
                fill="#FBAA12"/>
            <path opacity="0.3"
                d="M26.846 88.9196C32.839 95.4682 36.2178 102.87 36.2178 110.705C36.2178 137.432 -3.06719 159.104 -51.5225 159.104C-81.2135 159.104 -107.459 150.969 -123.335 138.523C-108.885 154.308 -79.2142 165.136 -44.9664 165.136C3.48893 165.136 42.7739 143.469 42.7739 116.737C42.7739 106.379 36.8843 96.7862 26.846 88.9196Z"
                fill="#EA831C"/>
            <path opacity="0.25"
                d="M-158.384 100.756C-147.415 120.603 -113.958 135.044 -74.3838 135.044C-25.8923 135.044 13.4185 113.362 13.4185 86.6143C13.4185 74.8558 5.81875 64.0741 -6.81817 55.6854C-18.7731 53.4112 -31.6063 52.1759 -44.9665 52.1759C-99.6008 52.1759 -145.494 72.8297 -158.384 100.756Z"
                fill="#FFFFEB"/>
            <path d="M-34.9331 117.336C-19.5115 117.993 19.8355 121.192 -6.19781 136.605C-33.4762 152.752 -41.4737 138.171 -44.4186 126.056C-47.3634 138.171 -55.3609 152.752 -82.6393 136.605C-108.673 121.192 -69.3256 117.993 -53.904 117.336C-69.3256 116.68 -108.673 113.481 -82.6393 98.0679C-55.3609 81.9212 -48.4586 97.9594 -45.5138 110.075C-42.569 97.9594 -33.4814 81.916 -6.20298 98.0679C19.8355 113.476 -19.5115 116.675 -34.9331 117.336Z"
                fill="#C6640C"/>
            <path d="M-36.0287 116.128C-20.6071 116.784 18.7399 119.983 -7.29339 135.396C-34.5718 151.543 -42.5693 136.962 -45.5141 124.847C-48.459 136.962 -56.4565 151.543 -83.7348 135.396C-109.768 119.983 -70.4211 116.784 -54.9996 116.128C-70.4211 115.471 -109.768 112.272 -83.7348 96.8592C-56.4565 80.7124 -48.459 95.2931 -45.5141 107.408C-42.5693 95.2931 -34.5718 80.7124 -7.29339 96.8592C18.7399 112.272 -20.602 115.471 -36.0287 116.128Z"
                fill="#FCE13C"/>
            <path d="M-25.9958 116.778C-29.3436 117.057 -5.21158 119.233 0.745233 124.33C-2.24609 119.823 -15.1723 117.74 -25.9958 116.778Z"
                fill="#FCFFAC"/>
            <path opacity="0.25"
                d="M-9.53046 119.26C-17.9568 117.187 -29.2814 116.417 -36.0287 116.128C-20.6071 115.471 18.7399 112.272 -7.29339 96.8592C-34.5718 80.7124 -42.5693 95.2931 -45.5141 107.408C-48.459 95.2931 -56.4565 80.7124 -83.7348 96.8592C-109.768 112.272 -70.4211 115.471 -54.9996 116.128C-70.1887 116.774 -108.575 119.89 -84.8766 134.704C-81.4358 134.931 -77.9382 135.045 -74.3889 135.045C-65.3271 135.045 -56.5857 134.285 -48.3608 132.879C-47.0641 130.321 -46.1651 127.524 -45.5141 124.847C-44.9458 127.183 -44.1915 129.607 -43.1479 131.887C-30.1907 129.168 -18.7059 124.806 -9.53046 119.26Z"
                fill="#FFFFEB"/>
            <path d="M-130.521 118.541C-130.521 91.8141 -91.2364 70.1421 -42.7811 70.1421C-13.0074 70.1421 13.3049 78.324 29.1656 90.832C13.6046 77.311 -13.7823 68.3331 -44.9664 68.3331C-93.4217 68.3331 -132.707 89.9999 -132.707 116.732C-132.707 127.038 -126.869 136.59 -116.913 144.441C-125.531 136.951 -130.521 128.067 -130.521 118.541Z"
                fill="#CF7310"/>
            <path d="M69.189 131.111C63.227 107.858 27.605 89.0698 -16.0507 87.6278C-64.4802 86.0307 -104.457 106.395 -105.336 133.111C-106.162 158.164 -72.3175 179.903 -28.1658 183.831C19.9485 179.598 58.6083 157.564 69.189 131.111Z"
                fill="#342D3F"/>
            <path d="M95.5948 72.5558C74.9758 54.1556 38.0673 41.8905 -4.03337 41.8905C-46.134 41.8905 -83.0425 54.1504 -103.661 72.5558H-121.067C-121.067 91.5246 -119.192 97.975 -118.882 106.446C-117.58 142.073 -68.6697 171.002 -4.03337 171.002C60.603 171.002 110.464 142.073 111.905 106.446C112.251 97.9543 112.995 92.9718 112.995 72.4731L95.5948 72.5558Z"
                fill="#C6640C"/>
            <path d="M42.7629 113.502C41.4041 137.825 42.7629 165.529 42.7629 165.529C67.3238 159.451 87.1419 148.705 99.1692 135.298C112.994 116.179 110.824 96.3058 110.824 77.5955C110.824 77.6006 44.039 90.7495 42.7629 113.502Z"
                fill="#A3490A"/>
            <path d="M113 72.4731C113 108.126 60.6029 140.389 -4.03338 140.389C-68.6697 140.389 -121.067 108.209 -121.067 72.5558C-121.067 36.9028 -68.6697 8 -4.03338 8C60.6029 8 113 36.8253 113 72.4731Z"
                fill="url(#paint3_radial_2_772)"/>
            <path opacity="0.7"
                d="M48.5751 48.0825L97.33 105.687C100.234 102.725 102.207 100.389 104.801 96.8017L26.7007 10.2586C21.3483 9.45749 15.841 8.85796 10.2097 8.48065L48.5751 48.0825Z"
                fill="#FCFFAC"/>
            <path d="M-1.84276 123.1C46.3495 123.1 85.4171 101.551 85.4171 74.9696C85.4171 48.3882 46.3495 26.8396 -1.84276 26.8396C-50.035 26.8396 -89.1025 48.3882 -89.1025 74.9696C-89.1025 101.551 -50.035 123.1 -1.84276 123.1Z"
                fill="#FCFFAC"/>
            <path d="M-4.0332 120.955C44.4244 120.955 83.7071 99.2859 83.7071 72.556C83.7071 45.826 44.4244 24.1572 -4.0332 24.1572C-52.4908 24.1572 -91.7735 45.826 -91.7735 72.556C-91.7735 99.2859 -52.4908 120.955 -4.0332 120.955Z"
                fill="#FBAA12"/>
            <path opacity="0.3"
                d="M67.784 44.7435C73.777 51.2921 77.1558 58.6936 77.1558 66.5292C77.1558 93.256 37.8708 114.928 -10.5845 114.928C-40.2756 114.928 -66.5207 106.793 -82.3969 94.3466C-67.9466 110.132 -38.2762 120.96 -4.0284 120.96C44.4269 120.96 83.7119 99.293 83.7119 72.561C83.7119 62.2083 77.8171 52.6153 67.784 44.7435Z"
                fill="#EA831C"/>
            <path opacity="0.25"
                d="M-117.45 56.5797C-106.482 76.4271 -73.0248 90.8682 -33.4505 90.8682C15.041 90.8682 54.3518 69.1859 54.3518 42.4384C54.3518 30.6798 46.7521 19.8981 34.1152 11.5095C22.1602 9.23532 9.32695 8 -4.03326 8C-58.6675 8.00517 -104.56 28.6537 -117.45 56.5797Z"
                fill="#FFFFEB"/>
            <path d="M-89.5881 74.365C-89.5881 47.6381 -50.3031 25.9662 -1.84785 25.9662C27.9259 25.9662 54.2382 34.1481 70.0989 46.6561C54.5378 33.135 27.1509 24.1572 -4.03321 24.1572C-52.4885 24.1572 -91.7735 45.824 -91.7735 72.556C-91.7735 82.8622 -85.9355 92.4137 -75.9799 100.265C-84.5974 92.7755 -89.5881 83.8959 -89.5881 74.365Z"
                fill="#CF7310"/>
            <path d="M201.123 416.235C173.203 391.319 123.226 374.711 66.2171 374.711C9.20863 374.711 -40.7691 391.312 -68.6892 416.235H-92.2579C-92.2579 441.92 -89.7185 450.655 -89.2987 462.126C-87.5358 510.368 -21.3069 549.541 66.2171 549.541C153.741 549.541 221.257 510.368 223.209 462.126C223.678 450.627 224.692 443.88 224.692 416.123L201.123 416.235Z"
                fill="#C6640C"/>
            <path d="M129.585 471.679C127.738 504.615 129.585 542.129 129.585 542.129C162.843 533.898 189.678 519.348 205.965 501.193C224.685 475.304 221.747 448.401 221.747 423.058C221.747 423.058 131.313 440.863 129.585 471.679Z"
                fill="#A3490A"/>
            <path d="M41.3053 548.448L37.9194 502.732L21.4373 448.919L-76.9721 430.162L-73.6281 499.807C-65.8348 509.038 -55.3692 517.374 -42.7208 524.464L-42.2451 463.28L0.575959 484.661L3.18537 500.164L2.3249 541.933C14.4835 545.019 27.5446 547.231 41.3053 548.448Z"
                fill="#DD8D19"/>
            <path d="M224.692 416.122C224.692 464.4 153.741 508.087 66.2171 508.087C-21.3069 508.087 -92.2579 464.512 -92.2579 416.234C-92.2579 367.957 -21.3069 328.819 66.2171 328.819C153.741 328.819 224.692 367.845 224.692 416.122Z"
                fill="url(#paint4_radial_2_772)"/>
            <path opacity="0.7"
                d="M-21.4258 423.17L-58.4684 362.273C-69.4937 370.014 -78.1965 378.805 -84.0099 388.33L3.18526 500.171C13.9028 502.788 24.1376 504.951 36.0374 506.33L-21.4258 423.17Z"
                fill="#FCFFAC"/>
            <path d="M21.7379 370.189L28.4748 365.822L6.55704 335.223C2.38057 336.161 -1.69796 337.19 -5.68555 338.31L21.7379 370.189Z"
                fill="#FCFFAC"/>
            <path opacity="0.7"
                d="M137.455 383.088L203.474 461.09C207.406 457.079 210.078 453.916 213.59 449.059L107.835 331.871C100.588 330.786 93.1302 329.974 85.5118 329.463L137.455 383.088Z"
                fill="#FCFFAC"/>
            <path d="M69.1763 484.669C134.433 484.669 187.335 455.49 187.335 419.496C187.335 383.502 134.433 354.323 69.1763 354.323C3.91916 354.323 -48.9822 383.502 -48.9822 419.496C-48.9822 455.49 3.91916 484.669 69.1763 484.669Z"
                fill="#FCFFAC"/>
            <path d="M66.2173 481.771C131.834 481.771 185.026 452.429 185.026 416.234C185.026 380.039 131.834 350.698 66.2173 350.698C0.600845 350.698 -52.5918 380.039 -52.5918 416.234C-52.5918 452.429 0.600845 481.771 66.2173 481.771Z"
                fill="#FBAA12"/>
            <path opacity="0.3"
                d="M163.458 378.567C171.573 387.434 176.149 397.457 176.149 408.067C176.149 444.258 122.953 473.604 57.3395 473.604C17.1349 473.604 -18.4036 462.587 -39.9016 445.734C-20.3344 467.109 19.8422 481.771 66.2172 481.771C131.83 481.771 185.026 452.432 185.026 416.234C185.026 402.216 177.051 389.226 163.458 378.567Z"
                fill="#EA831C"/>
            <path opacity="0.25"
                d="M-87.361 394.594C-72.509 421.47 -27.2044 441.024 26.3832 441.024C92.0454 441.024 145.276 411.664 145.276 375.445C145.276 359.523 134.985 344.924 117.874 333.565C101.686 330.485 84.3081 328.812 66.2171 328.812C-7.76316 328.819 -69.9065 356.787 -87.361 394.594Z"
                fill="#FFFFEB"/>
            <path d="M79.8027 417.046C100.685 417.935 153.965 422.267 118.713 443.138C81.7755 465.002 70.946 445.258 66.9584 428.853C62.9709 445.258 52.1414 465.002 15.2038 443.138C-20.0479 422.267 33.2319 417.935 54.1142 417.046C33.2319 416.157 -20.0479 411.825 15.2038 390.955C52.1414 369.09 61.4878 390.808 65.4753 407.213C69.4629 390.808 81.7685 369.083 118.706 390.955C153.965 411.825 100.685 416.157 79.8027 417.046Z"
                fill="#C6640C"/>
            <path d="M78.3197 415.416C99.202 416.305 152.482 420.637 117.23 441.507C80.2925 463.371 69.463 443.628 65.4754 427.223C61.4878 443.628 50.6584 463.371 13.7207 441.507C-21.5309 420.637 31.7488 416.305 52.6312 415.416C31.7488 414.527 -21.5309 410.195 13.7207 389.324C50.6584 367.46 61.4878 387.203 65.4754 403.609C69.463 387.203 80.2925 367.46 117.23 389.324C152.482 410.195 99.209 414.527 78.3197 415.416Z"
                fill="#FCE13C"/>
            <path d="M40.5356 416.165C19.8911 417.879 -7.68618 422.569 5.34694 435.39C-5.92324 421.141 45.6355 416.619 40.5356 416.165Z"
                fill="#FCFFAC"/>
            <path d="M66.9588 405.239C70.9464 388.834 81.7758 369.09 118.713 390.955C122.463 393.173 125.199 395.203 127.094 397.065C125.289 394.776 122.113 392.207 117.237 389.324C81.7479 368.313 70.3657 385.712 65.9864 401.663C66.3502 402.86 66.6719 404.056 66.9588 405.239Z"
                fill="#FCFFAC"/>
            <path d="M91.8988 416.298C87.3656 416.675 120.043 419.622 128.109 426.523C124.058 420.413 106.562 417.592 91.8988 416.298Z"
                fill="#FCFFAC"/>
            <path d="M15.2041 390.955C37.8144 377.573 50.6376 379.778 58.1021 387.266C50.8965 378.525 37.9053 375.011 13.721 389.324C1.13558 396.778 -0.158637 402.118 4.31865 405.946C1.87713 402.272 4.31166 397.401 15.2041 390.955Z"
                fill="#FCFFAC"/>
            <path opacity="0.25"
                d="M114.201 419.657C102.791 416.85 87.4561 415.808 78.3197 415.416C99.202 414.527 152.482 410.195 117.23 389.324C80.2925 367.46 69.463 387.203 65.4754 403.609C61.4878 387.203 50.6584 367.46 13.7207 389.324C-21.5309 410.195 31.7488 414.527 52.6312 415.416C32.0636 416.291 -19.9149 420.511 12.1747 440.569C16.8338 440.877 21.57 441.031 26.3761 441.031C38.6467 441.031 50.4835 440.002 61.6208 438.099C63.3767 434.634 64.5939 430.848 65.4754 427.223C66.2449 430.386 67.2663 433.669 68.6795 436.755C86.2249 433.074 101.776 427.167 114.201 419.657Z"
                fill="#FFFFEB"/>
            <path d="M-49.6326 418.677C-49.6326 382.486 3.56323 353.14 69.1765 353.14C109.493 353.14 145.123 364.219 166.6 381.157C145.528 362.848 108.444 350.691 66.2173 350.691C0.603994 350.691 -52.5918 380.03 -52.5918 416.228C-52.5918 430.183 -44.6866 443.117 -31.2057 453.748C-42.8747 443.607 -49.6326 431.583 -49.6326 418.677Z"
                fill="#CF7310"/>
            <path d="M-35.3192 435.95C-35.3192 467.514 -1.71156 494.754 46.8461 507.373C53.1982 507.849 59.6623 508.094 66.2243 508.094C153.748 508.094 224.699 464.407 224.699 416.129C224.699 404.035 220.25 392.522 212.198 382.059C186.097 366.669 148.949 357.052 107.73 357.052C28.7201 357.045 -35.3192 392.368 -35.3192 435.95Z"
                fill="#342D3F"/>
            <path d="M163.381 344.091C135.461 319.175 85.4836 302.567 28.4751 302.567C-28.5334 302.567 -78.5112 319.168 -106.431 344.091H-130C-130 369.776 -127.461 378.511 -127.041 389.982C-125.278 438.225 -59.0489 477.397 28.4751 477.397C115.999 477.397 183.515 438.225 185.467 389.982C185.936 378.483 186.943 371.736 186.943 343.979L163.381 344.091Z"
                fill="#C6640C"/>
            <path d="M91.8499 399.535C90.01 432.472 91.8499 469.985 91.8499 469.985C125.108 461.755 151.944 447.204 168.23 429.049C186.95 403.161 184.012 376.25 184.012 350.915C184.012 350.922 93.5709 368.727 91.8499 399.535Z"
                fill="#A3490A"/>
            <path d="M3.56328 476.312L0.177354 430.596L-16.3047 376.782L-114.714 358.025L-111.37 427.67C-103.577 436.902 -93.1112 445.237 -80.4628 452.327L-79.9871 391.143L-37.166 412.525L-34.5566 428.027L-35.4171 469.796C-23.2515 472.875 -10.1974 475.094 3.56328 476.312Z"
                fill="#DD8D19"/>
            <path d="M186.95 343.979C186.95 392.256 115.999 435.943 28.4751 435.943C-59.0489 435.943 -130 392.368 -130 344.091C-130 295.813 -59.0489 256.676 28.4751 256.676C115.999 256.676 186.95 295.708 186.95 343.979Z"
                fill="url(#paint5_radial_2_772)"/>
            <path opacity="0.7"
                d="M99.7131 310.951L165.732 388.953C169.664 384.943 172.336 381.779 175.848 376.922L70.093 259.734C62.8454 258.649 55.388 257.837 47.7626 257.327L99.7131 310.951Z"
                fill="#FCFFAC"/>
            <path d="M31.4414 412.532C96.6985 412.532 149.6 383.353 149.6 347.359C149.6 311.365 96.6985 282.186 31.4414 282.186C-33.8158 282.186 -86.7171 311.365 -86.7171 347.359C-86.7171 383.353 -33.8158 412.532 31.4414 412.532Z"
                fill="#FCFFAC"/>
            <path d="M28.4822 409.628C94.0986 409.628 147.291 380.286 147.291 344.091C147.291 307.896 94.0986 278.554 28.4822 278.554C-37.1343 278.554 -90.3269 307.896 -90.3269 344.091C-90.3269 380.286 -37.1343 409.628 28.4822 409.628Z"
                fill="#FBAA12"/>
            <path opacity="0.3"
                d="M125.723 306.43C133.838 315.298 138.414 325.32 138.414 335.93C138.414 372.121 85.218 401.467 19.6047 401.467C-20.6 401.467 -56.1385 390.451 -77.6365 373.598C-58.0693 394.972 -17.8927 409.635 28.4823 409.635C94.0955 409.635 147.291 380.296 147.291 344.098C147.291 330.072 139.309 317.082 125.723 306.43Z"
                fill="#EA831C"/>
            <path opacity="0.25"
                d="M-125.103 322.458C-110.251 349.333 -64.9464 368.888 -11.3589 368.888C54.3034 368.888 107.534 339.528 107.534 303.309C107.534 287.387 97.2434 272.787 80.1317 261.428C63.9435 258.349 46.5661 256.676 28.475 256.676C-45.5052 256.683 -107.649 284.643 -125.103 322.458Z"
                fill="#FFFFEB"/>
            <path d="M42.0604 344.91C62.9428 345.798 116.223 350.131 80.9709 371.001C44.0333 392.865 33.2038 373.122 29.2162 356.717C25.2286 373.122 14.3992 392.865 -22.5385 371.001C-57.7901 350.131 -4.51039 345.798 16.372 344.91C-4.51039 344.021 -57.7901 339.688 -22.5385 318.818C14.3992 296.954 23.7455 318.671 27.7331 335.076C31.7207 318.671 44.0263 296.947 80.9639 318.818C116.223 339.688 62.9498 344.021 42.0604 344.91Z"
                fill="#C6640C"/>
            <path d="M40.5846 343.279C61.467 344.168 114.747 348.5 79.4951 369.371C42.5574 391.235 31.7279 371.491 27.7404 355.086C23.7528 371.491 12.9233 391.235 -24.0143 369.371C-59.266 348.5 -5.98622 344.168 14.8961 343.279C-5.98622 342.39 -59.266 338.058 -24.0143 317.188C12.9233 295.323 23.7528 315.067 27.7404 331.472C31.7279 315.067 42.5574 295.323 79.4951 317.188C114.747 338.051 61.467 342.39 40.5846 343.279Z"
                fill="#FCE13C"/>
            <path d="M2.80058 344.028C-17.8439 345.743 -45.4212 350.432 -32.3881 363.254C-43.6583 349.004 7.8935 344.483 2.80058 344.028Z"
                fill="#FCFFAC"/>
            <path d="M29.2234 333.096C33.211 316.691 44.0404 296.947 80.9781 318.811C84.7278 321.03 87.4631 323.059 89.359 324.921C87.5471 322.633 84.378 320.064 79.502 317.181C44.0124 296.17 32.6303 313.569 28.251 329.519C28.6078 330.723 28.9296 331.92 29.2234 333.096Z"
                fill="#FCFFAC"/>
            <path d="M54.1637 344.154C49.6304 344.532 82.3076 347.478 90.3738 354.379C86.3232 348.276 68.8268 345.455 54.1637 344.154Z"
                fill="#FCFFAC"/>
            <path d="M-22.531 318.819C0.0792722 305.437 12.9025 307.641 20.367 315.13C13.1614 306.389 0.170221 302.875 -24.0141 317.188C-36.5995 324.642 -37.8937 329.982 -33.4165 333.81C-35.858 330.129 -33.4235 325.264 -22.531 318.819Z"
                fill="#FCFFAC"/>
            <path opacity="0.25"
                d="M76.4659 347.52C65.0558 344.714 49.7211 343.671 40.5846 343.279C61.467 342.39 114.747 338.058 79.4951 317.188C42.5574 295.323 31.7279 315.067 27.7404 331.472C23.7528 315.067 12.9233 295.323 -24.0143 317.188C-59.266 338.058 -5.98622 342.39 14.8961 343.279C-5.67141 344.154 -57.65 348.374 -25.5604 368.433C-20.9012 368.741 -16.165 368.895 -11.3589 368.895C0.911635 368.895 12.7485 367.866 23.8857 365.962C25.6417 362.498 26.8589 358.712 27.7404 355.086C28.5099 358.25 29.5313 361.532 30.9444 364.619C48.4828 360.937 64.0344 355.023 76.4659 347.52Z"
                fill="#FFFFEB"/>
            <path d="M-87.3677 346.54C-87.3677 310.35 -34.1719 281.004 31.4414 281.004C71.758 281.004 107.387 292.083 128.864 309.02C107.793 290.711 70.7086 278.554 28.4822 278.554C-37.1311 278.554 -90.3269 307.893 -90.3269 344.091C-90.3269 358.047 -82.4217 370.98 -68.9409 381.611C-80.6098 371.47 -87.3677 359.439 -87.3677 346.54Z"
                fill="#CF7310"/>
            <path d="M183.054 363.568C174.98 332.081 126.745 306.64 67.6304 304.687C2.05207 302.525 -52.0812 330.1 -53.2705 366.277C-54.3898 400.2 -8.56052 429.637 51.2253 434.956C116.377 429.217 168.726 399.381 183.054 363.568Z"
                fill="#342D3F"/>
            <path d="M181.487 270.456C154.406 244.631 105.002 226.392 48.0213 224.516C-8.95222 222.64 -59.4547 237.59 -88.1723 261.575L-111.727 260.798C-112.574 286.47 -110.321 295.281 -110.279 306.759C-110.104 355.037 -45.2043 396.365 42.2708 399.248C129.746 402.132 198.514 365.199 202.054 317.054C202.901 305.576 204.132 298.864 205.048 271.128L181.487 270.456Z"
                fill="#C6640C"/>
            <path d="M108.164 323.514C105.24 356.374 105.848 393.929 105.848 393.929C139.358 386.797 166.663 373.136 183.536 355.534C203.103 330.275 201.047 303.288 201.879 277.959C201.872 277.959 110.899 292.775 108.164 323.514Z"
                fill="#A3490A"/>
            <path d="M17.4006 397.338L15.5187 351.538L0.81361 297.213L-96.9242 275.23L-95.8749 344.945C-88.3894 354.428 -78.2036 363.1 -65.7931 370.609L-63.3026 309.475L-21.209 332.256L-19.1103 347.835L-21.349 389.555C-9.28827 393.027 3.68888 395.665 17.4006 397.338Z"
                fill="#DD8D19"/>
            <path d="M205.048 271.121C203.46 319.371 131.11 360.699 43.635 357.815C-43.8401 354.932 -113.315 309.041 -111.727 260.791C-110.139 212.541 -37.9357 175.763 49.5324 178.646C137.007 181.53 206.636 222.872 205.048 271.121Z"
                fill="url(#paint6_radial_2_772)"/>
            <path opacity="0.7"
                d="M-41.1677 270.057L-76.1885 207.978C-87.4586 215.347 -96.4482 223.851 -102.569 233.18L-19.103 347.835C-8.47644 350.802 1.68138 353.301 13.5322 355.072L-41.1677 270.057Z"
                fill="#FCFFAC"/>
            <path d="M3.71728 218.532L10.5941 214.389L-10.3022 183.083C-14.5067 183.881 -18.6202 184.777 -22.6428 185.764L3.71728 218.532Z"
                fill="#FCFFAC"/>
            <path opacity="0.7"
                d="M118.937 235.231L182.354 315.368C186.419 311.49 189.189 308.411 192.862 303.679L91.0243 183.076C83.8116 181.753 76.3891 180.697 68.7917 179.941L118.937 235.231Z"
                fill="#FCFFAC"/>
            <path d="M167.635 273.224C168.819 237.248 116.904 206.342 51.6793 204.195C-13.5452 202.047 -67.3797 229.47 -68.5633 265.446C-69.747 301.422 -17.8317 332.327 47.3928 334.475C112.617 336.623 166.452 309.2 167.635 273.224Z"
                fill="#FCFFAC"/>
            <path d="M165.437 269.883C166.627 233.706 114.426 202.628 48.8425 200.468C-16.7412 198.308 -70.8722 225.885 -72.0625 262.061C-73.2528 298.238 -21.0516 329.316 44.532 331.476C110.116 333.636 164.247 306.059 165.437 269.883Z"
                fill="#FBAA12"/>
            <path opacity="0.3"
                d="M145.081 231.571C152.902 240.697 157.141 250.867 156.792 261.477C155.602 297.654 101.469 325.222 35.8907 323.066C-4.293 321.744 -39.4467 309.566 -60.3781 292.006C-41.5245 314.017 -1.85849 329.988 44.4955 331.514C110.074 333.677 164.207 306.101 165.396 269.924C165.858 255.913 158.317 242.671 145.081 231.571Z"
                fill="#EA831C"/>
            <path opacity="0.25"
                d="M-106.131 239.332C-92.174 266.684 -47.534 287.722 6.02554 289.486C71.6528 291.648 125.821 264.059 127.01 227.854C127.535 211.939 117.734 197.011 101 185.092C84.9168 181.48 67.6093 179.241 49.5322 178.646C-24.413 176.21 -87.4379 202.113 -106.131 239.332Z"
                fill="#FFFFEB"/>
            <path d="M-69.2137 264.64C-68.0244 228.463 -13.8912 200.895 51.6871 203.051C91.9827 204.381 127.227 216.622 148.138 234.259C127.682 215.264 91.0173 201.896 48.8119 200.503C-16.7664 198.341 -70.8997 225.916 -72.089 262.093C-72.5507 276.041 -65.0722 289.227 -51.9482 300.299C-63.2813 289.78 -69.6334 277.539 -69.2137 264.64Z"
                fill="#CF7310"/>
        </g>
        <g opacity="0.3">
            <path d="M1274.59 323.466C1272.59 373.062 1183.11 414.403 1074.95 410.041C966.792 405.679 880.921 357.376 882.917 307.78C884.913 258.185 974.213 221.519 1082.37 225.881C1190.53 230.243 1276.59 273.871 1274.59 323.466Z"
                fill="#342D3F"/>
            <path d="M1176.5 223.344C1145.26 195.464 1089.34 176.881 1025.55 176.881C961.759 176.881 905.836 195.457 874.595 223.344H848.223C848.223 252.084 851.065 261.858 851.535 274.693C853.507 328.674 927.613 372.505 1025.55 372.505C1123.48 372.505 1199.03 328.674 1201.21 274.693C1201.74 261.826 1202.87 254.277 1202.87 223.218L1176.5 223.344Z"
                fill="#C6640C"/>
            <path d="M997.673 371.284L993.884 320.13L975.442 259.916L865.327 238.928L869.069 316.857C877.789 327.186 889.5 336.513 903.653 344.446L904.185 275.985L952.099 299.91L955.019 317.256L954.056 363.993C967.669 367.446 982.283 369.921 997.673 371.284Z"
                fill="#DD8D19"/>
            <path d="M1202.87 223.218C1202.87 277.238 1123.48 326.121 1025.55 326.121C927.613 326.121 848.231 277.364 848.231 223.344C848.231 169.324 927.621 125.531 1025.55 125.531C1123.49 125.531 1202.87 169.199 1202.87 223.218Z"
                fill="url(#paint7_radial_2_772)"/>
            <path opacity="0.7"
                d="M927.488 231.105L886.039 162.965C873.703 171.627 863.965 181.463 857.46 192.121L955.026 317.264C967.018 320.193 978.471 322.613 991.786 324.156L927.488 231.105Z"
                fill="#FCFFAC"/>
            <path d="M975.786 171.822L983.324 166.936L958.799 132.697C954.126 133.747 949.562 134.898 945.101 136.151L975.786 171.822Z"
                fill="#FCFFAC"/>
            <path d="M1028.87 299.918C1101.89 299.918 1161.08 267.268 1161.08 226.993C1161.08 186.718 1101.89 154.068 1028.87 154.068C955.847 154.068 896.654 186.718 896.654 226.993C896.654 267.268 955.847 299.918 1028.87 299.918Z"
                fill="#FCFFAC"/>
            <path d="M1025.56 296.676C1098.98 296.676 1158.5 263.844 1158.5 223.344C1158.5 182.844 1098.98 150.012 1025.56 150.012C952.135 150.012 892.615 182.844 892.615 223.344C892.615 263.844 952.135 296.676 1025.56 296.676Z"
                fill="#FBAA12"/>
            <path opacity="0.3"
                d="M1134.36 181.204C1143.44 191.126 1148.56 202.34 1148.56 214.213C1148.56 254.708 1089.04 287.544 1015.62 287.544C970.635 287.544 930.869 275.218 906.814 256.36C928.709 280.277 973.664 296.683 1025.56 296.683C1098.97 296.683 1158.5 263.855 1158.5 223.352C1158.5 207.658 1149.56 193.123 1134.36 181.204Z"
                fill="#EA831C"/>
            <path opacity="0.25"
                d="M853.71 199.137C870.329 229.209 921.022 251.09 980.983 251.09C1054.46 251.09 1114.02 218.238 1114.02 177.711C1114.02 159.895 1102.5 143.559 1083.36 130.849C1065.24 127.403 1045.8 125.531 1025.56 125.531C942.768 125.531 873.241 156.825 853.71 199.137Z"
                fill="#FFFFEB"/>
            <path d="M1040.75 224.26C1064.12 225.254 1123.73 230.102 1084.29 253.455C1042.96 277.92 1030.84 255.828 1026.38 237.471C1021.92 255.828 1009.8 277.92 968.467 253.455C929.022 230.102 988.639 225.254 1012.01 224.26C988.639 223.265 929.022 218.418 968.467 195.065C1009.8 170.6 1020.26 194.901 1024.72 213.257C1029.18 194.901 1042.95 170.592 1084.28 195.065C1123.73 218.41 1064.12 223.265 1040.75 224.26Z"
                fill="#C6640C"/>
            <path d="M1039.1 222.428C1062.46 223.422 1122.08 228.27 1082.64 251.623C1041.31 276.087 1029.19 253.995 1024.73 235.639C1020.26 253.995 1008.15 276.087 966.815 251.623C927.371 228.27 986.988 223.422 1010.35 222.428C986.988 221.433 927.371 216.586 966.815 193.233C1008.15 168.768 1020.26 190.86 1024.73 209.216C1029.19 190.86 1041.31 168.768 1082.64 193.233C1122.08 216.586 1062.46 221.433 1039.1 222.428Z"
                fill="#FCE13C"/>
            <path d="M996.82 223.273C973.72 225.192 942.863 230.439 957.446 244.786C944.835 228.833 1002.53 223.774 996.82 223.273Z"
                fill="#FCFFAC"/>
            <path d="M968.475 195.065C993.774 180.091 1008.12 182.558 1016.48 190.938C1008.41 181.157 993.876 177.225 966.815 193.24C952.733 201.58 951.285 207.556 956.295 211.839C953.563 207.72 956.287 202.277 968.475 195.065Z"
                fill="#FCFFAC"/>
            <path opacity="0.25"
                d="M1079.25 227.173C1066.48 224.033 1049.32 222.866 1039.1 222.428C1062.46 221.433 1122.08 216.585 1082.64 193.233C1041.31 168.768 1029.19 190.86 1024.73 209.216C1020.26 190.86 1008.15 168.768 966.815 193.233C927.371 216.585 986.988 221.433 1010.35 222.428C987.34 223.406 929.179 228.129 965.085 250.573C970.299 250.918 975.598 251.09 980.976 251.09C994.706 251.09 1007.95 249.939 1020.41 247.809C1022.38 243.932 1023.74 239.695 1024.73 235.639C1025.59 239.179 1026.73 242.852 1028.31 246.305C1047.94 242.186 1065.34 235.576 1079.25 227.173Z"
                fill="#FFFFEB"/>
            <path d="M895.926 226.085C895.926 185.589 955.449 152.753 1028.87 152.753C1073.98 152.753 1113.85 165.15 1137.88 184.101C1114.3 163.615 1072.8 150.012 1025.56 150.012C952.138 150.012 892.615 182.841 892.615 223.344C892.615 238.959 901.461 253.431 916.545 265.327C903.488 253.98 895.926 240.518 895.926 226.085Z"
                fill="#CF7310"/>
            <path d="M911.934 245.404C911.934 280.723 949.539 311.202 1003.87 325.322C1010.98 325.855 1018.21 326.129 1025.56 326.129C1123.49 326.129 1202.88 277.246 1202.88 223.226C1202.88 209.694 1197.9 196.811 1188.89 185.104C1159.69 167.883 1118.12 157.122 1072 157.122C983.598 157.115 911.934 196.647 911.934 245.404Z"
                fill="#342D3F"/>
            <path d="M1134.28 142.627C1103.04 114.748 1047.11 96.1644 983.324 96.1644C919.535 96.1644 863.613 114.74 832.372 142.627H806C806 171.368 808.842 181.141 809.311 193.977C811.284 247.958 885.39 291.789 983.324 291.789C1081.26 291.789 1156.81 247.958 1158.99 193.977C1159.51 181.11 1160.64 173.561 1160.64 142.502L1134.28 142.627Z"
                fill="#C6640C"/>
            <path d="M955.449 290.567L951.661 239.414L933.218 179.199L823.104 158.211L826.846 236.14C835.566 246.469 847.276 255.797 861.429 263.73L861.961 195.269L909.876 219.193L912.795 236.539L911.833 283.276C925.445 286.73 940.052 289.205 955.449 290.567Z"
                fill="#DD8D19"/>
            <path d="M1160.65 142.502C1160.65 196.522 1081.26 245.405 983.324 245.405C885.39 245.405 806 196.647 806 142.627C806 88.6075 885.39 44.8151 983.324 44.8151C1081.26 44.8151 1160.65 88.4821 1160.65 142.502Z"
                fill="url(#paint8_radial_2_772)"/>
            <path opacity="0.7"
                d="M885.257 150.388L843.808 82.2484C831.472 90.9098 821.734 100.746 815.229 111.404L912.803 236.555C924.795 239.484 936.247 241.904 949.563 243.447L885.257 150.388Z"
                fill="#FCFFAC"/>
            <path d="M933.562 91.1052L941.1 86.2185L916.576 51.9803C911.902 53.0297 907.339 54.1808 902.877 55.4338L933.562 91.1052Z"
                fill="#FCFFAC"/>
            <path d="M986.635 219.201C1059.65 219.201 1118.85 186.552 1118.85 146.277C1118.85 106.001 1059.65 73.352 986.635 73.352C913.616 73.352 854.423 106.001 854.423 146.277C854.423 186.552 913.616 219.201 986.635 219.201Z"
                fill="#FCFFAC"/>
            <path d="M983.324 215.959C1056.75 215.959 1116.26 183.127 1116.26 142.627C1116.26 102.127 1056.75 69.2954 983.324 69.2954C909.903 69.2954 850.384 102.127 850.384 142.627C850.384 183.127 909.903 215.959 983.324 215.959Z"
                fill="#FBAA12"/>
            <path opacity="0.3"
                d="M1092.13 100.479C1101.21 110.402 1106.33 121.616 1106.33 133.488C1106.33 173.984 1046.81 206.82 973.391 206.82C928.404 206.82 888.639 194.494 864.584 175.636C886.478 199.553 931.434 215.959 983.324 215.959C1056.74 215.959 1116.26 183.131 1116.26 142.627C1116.26 126.941 1107.34 112.406 1092.13 100.479Z"
                fill="#EA831C"/>
            <path opacity="0.25"
                d="M811.479 118.421C828.098 148.493 878.791 170.373 938.753 170.373C1012.22 170.373 1071.79 137.521 1071.79 96.9946C1071.79 79.1785 1060.27 62.8425 1041.13 50.1324C1023.01 46.6867 1003.57 44.815 983.324 44.815C900.545 44.815 831.01 76.1087 811.479 118.421Z"
                fill="#FFFFEB"/>
            <path d="M998.527 143.536C1021.89 144.531 1081.51 149.378 1042.07 172.731C1000.73 197.196 988.617 175.104 984.155 156.747C979.693 175.104 967.575 197.196 926.244 172.731C886.8 149.378 946.417 144.531 969.783 143.536C946.417 142.541 886.8 137.694 926.244 114.341C967.575 89.8763 978.033 114.177 982.495 132.533C986.957 114.177 1000.73 89.8684 1042.06 114.341C1081.51 137.694 1021.89 142.541 998.527 143.536Z"
                fill="#C6640C"/>
            <path d="M996.867 141.711C1020.23 142.706 1079.85 147.553 1040.41 170.906C999.074 195.371 986.957 173.279 982.495 154.923C978.033 173.279 965.916 195.371 924.585 170.906C885.14 147.553 944.757 142.706 968.123 141.711C944.757 140.717 885.14 135.869 924.585 112.516C965.916 88.0516 978.033 110.144 982.495 128.5C986.957 110.144 999.074 88.0516 1040.41 112.516C1079.85 135.869 1020.24 140.717 996.867 141.711Z"
                fill="#FCE13C"/>
            <path d="M954.589 142.557C931.489 144.475 900.632 149.722 915.215 164.069C902.612 148.117 960.295 143.058 954.589 142.557Z"
                fill="#FCFFAC"/>
            <path d="M926.244 114.341C951.544 99.3677 965.892 101.834 974.244 110.214C966.182 100.433 951.645 96.5014 924.584 112.516C910.502 120.857 909.054 126.832 914.064 131.116C911.34 127.004 914.064 121.554 926.244 114.341Z"
                fill="#FCFFAC"/>
            <path opacity="0.25"
                d="M1037.02 146.457C1024.25 143.317 1007.09 142.15 996.867 141.711C1020.23 140.717 1079.85 135.869 1040.41 112.516C999.074 88.0516 986.957 110.144 982.495 128.5C978.033 110.144 965.916 88.0516 924.585 112.516C885.14 135.869 944.757 140.717 968.123 141.711C945.109 142.69 886.948 147.412 922.855 169.857C928.068 170.201 933.367 170.374 938.745 170.374C952.475 170.374 965.72 169.222 978.182 167.092C980.147 163.216 981.509 158.979 982.495 154.923C983.356 158.462 984.499 162.135 986.08 165.589C1005.71 161.47 1023.11 154.86 1037.02 146.457Z"
                fill="#FFFFEB"/>
            <path d="M853.695 145.368C853.695 104.873 913.218 72.0364 986.636 72.0364C1031.75 72.0364 1071.61 84.4333 1095.65 103.385C1072.07 82.8983 1030.57 69.2954 983.324 69.2954C909.907 69.2954 850.384 102.124 850.384 142.627C850.384 158.243 859.229 172.715 874.314 184.611C861.257 173.263 853.695 159.801 853.695 145.368Z"
                fill="#CF7310"/>
            <path d="M1156.29 164.414C1147.26 129.181 1093.28 100.714 1027.14 98.5293C953.759 96.1095 893.187 126.965 891.856 167.444C890.604 205.402 941.884 238.341 1008.78 244.292C1081.68 237.879 1140.26 204.486 1156.29 164.414Z"
                fill="#342D3F"/>
            <path d="M1204.77 86.9077C1174.46 58.0104 1119.18 37.6022 1055.43 35.5034C991.677 33.4046 935.167 50.1322 903.034 76.9699L876.678 76.1006C875.731 104.826 878.251 114.685 878.298 127.528C878.494 181.548 951.113 227.792 1048.99 231.018C1146.87 234.245 1223.82 192.919 1227.78 139.048C1228.73 126.205 1230.11 118.695 1231.13 87.6595L1204.77 86.9077Z"
                fill="#C6640C"/>
            <path d="M1021.17 228.88L1019.07 177.633L1002.61 116.846L893.249 92.2484L894.423 170.256C902.799 180.867 914.196 190.57 928.083 198.973L930.87 130.567L977.97 156.057L980.318 173.49L977.813 220.172C991.301 224.056 1005.83 227.009 1021.17 228.88Z"
                fill="#DD8D19"/>
            <path d="M1231.13 87.6518C1229.35 141.64 1148.4 187.884 1050.52 184.657C952.639 181.431 874.9 130.081 876.677 76.0929C878.454 22.1042 959.245 -19.049 1057.12 -15.8225C1155 -12.5961 1232.91 33.6631 1231.13 87.6518Z"
                fill="url(#paint9_radial_2_772)"/>
            <path opacity="0.7"
                d="M955.629 86.4612L916.443 16.998C903.832 25.2443 893.773 34.7592 886.924 45.1983L980.318 173.49C992.209 176.81 1003.57 179.606 1016.84 181.587L955.629 86.4612Z"
                fill="#FCFFAC"/>
            <path d="M1005.85 28.8075L1013.55 24.1714L990.166 -10.8578C985.461 -9.965 980.858 -8.96258 976.357 -7.85838L1005.85 28.8075Z"
                fill="#FCFFAC"/>
            <path d="M1189.24 90.0131C1190.57 49.7581 1132.47 15.1766 1059.49 12.7733C986.51 10.3699 926.273 41.0547 924.948 81.3097C923.624 121.565 981.714 156.146 1054.7 158.55C1127.68 160.953 1187.92 130.268 1189.24 90.0131Z"
                fill="#FCFFAC"/>
            <path d="M1186.78 86.2818C1188.11 45.802 1129.7 11.0276 1056.32 8.61097C982.933 6.19437 922.364 37.0507 921.032 77.5305C919.7 118.01 978.11 152.785 1051.49 155.201C1124.88 157.618 1185.45 126.762 1186.78 86.2818Z"
                fill="#FBAA12"/>
            <path opacity="0.3"
                d="M1164.04 43.3974C1172.79 53.6094 1177.53 64.9882 1177.14 76.8603C1175.81 117.34 1115.24 148.187 1041.86 145.775C996.897 144.295 957.562 130.669 934.141 111.02C955.237 135.65 999.621 153.52 1051.49 155.228C1124.87 157.648 1185.44 126.792 1186.77 86.3127C1187.29 70.6345 1178.84 55.8178 1164.04 43.3974Z"
                fill="#EA831C"/>
            <path opacity="0.25"
                d="M882.939 52.0823C898.556 82.6868 948.505 106.228 1008.44 108.201C1081.87 110.621 1142.48 79.7501 1143.81 39.239C1144.4 21.4308 1133.43 4.72671 1114.71 -8.60991C1096.71 -12.6508 1077.34 -15.1568 1057.12 -15.8225C974.376 -18.5478 903.855 10.4357 882.939 52.0823Z"
                fill="#FFFFEB"/>
            <path d="M924.255 80.4C925.586 39.9203 986.158 9.07299 1059.54 11.485C1104.62 12.973 1144.06 26.6698 1167.46 46.4046C1144.57 25.1505 1103.54 10.1929 1056.32 8.63446C982.94 6.2146 922.368 37.0697 921.038 77.5495C920.521 93.1571 928.889 107.911 943.574 120.3C930.893 108.53 923.777 94.833 924.255 80.4Z"
                fill="#CF7310"/>
        </g>
    </g>
    <defs>
        <radialGradient id="paint0_radial_2_772"
            cx="0"
            cy="0"
            r="1"
            gradientUnits="userSpaceOnUse"
            gradientTransform="translate(-33.6203 219.398) scale(95.0635 95.1048)">
            <stop stop-color="#FBC01E"/>
            <stop offset="0.4609"
                stop-color="#FDC822"/>
            <stop offset="1"
                stop-color="#FCE13C"/>
        </radialGradient>
        <radialGradient id="paint1_radial_2_772"
            cx="0"
            cy="0"
            r="1"
            gradientUnits="userSpaceOnUse"
            gradientTransform="translate(-22.6801 175.162) scale(95.0635 95.1048)">
            <stop stop-color="#FBC01E"/>
            <stop offset="0.4609"
                stop-color="#FDC822"/>
            <stop offset="1"
                stop-color="#FCE13C"/>
        </radialGradient>
        <radialGradient id="paint2_radial_2_772"
            cx="0"
            cy="0"
            r="1"
            gradientUnits="userSpaceOnUse"
            gradientTransform="translate(-44.9648 118.371) scale(95.0635 95.1048)">
            <stop stop-color="#FBC01E"/>
            <stop offset="0.4609"
                stop-color="#FDC822"/>
            <stop offset="1"
                stop-color="#FCE13C"/>
        </radialGradient>
        <radialGradient id="paint3_radial_2_772"
            cx="0"
            cy="0"
            r="1"
            gradientUnits="userSpaceOnUse"
            gradientTransform="translate(-4.03083 74.1978) scale(95.0635 95.1048)">
            <stop stop-color="#FBC01E"/>
            <stop offset="0.4609"
                stop-color="#FDC822"/>
            <stop offset="1"
                stop-color="#FCE13C"/>
        </radialGradient>
        <radialGradient id="paint4_radial_2_772"
            cx="0"
            cy="0"
            r="1"
            gradientUnits="userSpaceOnUse"
            gradientTransform="translate(66.2185 418.452) scale(128.726 128.781)">
            <stop stop-color="#FBC01E"/>
            <stop offset="0.4609"
                stop-color="#FDC822"/>
            <stop offset="1"
                stop-color="#FCE13C"/>
        </radialGradient>
        <radialGradient id="paint5_radial_2_772"
            cx="0"
            cy="0"
            r="1"
            gradientUnits="userSpaceOnUse"
            gradientTransform="translate(28.4802 346.314) scale(128.726 128.781)">
            <stop stop-color="#FBC01E"/>
            <stop offset="0.4609"
                stop-color="#FDC822"/>
            <stop offset="1"
                stop-color="#FCE13C"/>
        </radialGradient>
        <radialGradient id="paint6_radial_2_772"
            cx="0"
            cy="0"
            r="1"
            gradientUnits="userSpaceOnUse"
            gradientTransform="translate(46.5823 268.231) rotate(1.88611) scale(128.726 128.781)">
            <stop stop-color="#FBC01E"/>
            <stop offset="0.4609"
                stop-color="#FDC822"/>
            <stop offset="1"
                stop-color="#FCE13C"/>
        </radialGradient>
        <radialGradient id="paint7_radial_2_772"
            cx="0"
            cy="0"
            r="1"
            gradientUnits="userSpaceOnUse"
            gradientTransform="translate(1025.55 225.828) scale(144.036 144.099)">
            <stop stop-color="#FBC01E"/>
            <stop offset="0.4609"
                stop-color="#FDC822"/>
            <stop offset="1"
                stop-color="#FCE13C"/>
        </radialGradient>
        <radialGradient id="paint8_radial_2_772"
            cx="0"
            cy="0"
            r="1"
            gradientUnits="userSpaceOnUse"
            gradientTransform="translate(983.328 145.111) scale(144.036 144.099)">
            <stop stop-color="#FBC01E"/>
            <stop offset="0.4609"
                stop-color="#FDC822"/>
            <stop offset="1"
                stop-color="#FCE13C"/>
        </radialGradient>
        <radialGradient id="paint9_radial_2_772"
            cx="0"
            cy="0"
            r="1"
            gradientUnits="userSpaceOnUse"
            gradientTransform="translate(1053.82 84.4181) rotate(1.88611) scale(144.036 144.099)">
            <stop stop-color="#FBC01E"/>
            <stop offset="0.4609"
                stop-color="#FDC822"/>
            <stop offset="1"
                stop-color="#FCE13C"/>
        </radialGradient>
        <clipPath id="clip0_2_772">
            <rect width="980"
                height="810"
                fill="white"/>
        </clipPath>
    </defs>
</svg>
