<svg width="157"
    height="163"
    viewBox="0 0 157 163"
    fill="none"
    xmlns="http://www.w3.org/2000/svg">
    <path d="M156.966 115.303C155.632 142.438 119.488 163.812 76.1157 162.977C32.7429 162.141 -1.29559 139.492 0.0378784 112.356C1.37135 85.1766 37.5153 63.8464 80.8179 64.6821C124.191 65.4737 158.229 88.1233 156.966 115.303Z"
        fill="#00AB91"/>
    <path d="M80.8179 64.6369L76.1157 162.976C32.7429 162.14 -1.29559 139.49 0.0378784 112.355C1.37135 85.1755 37.5153 63.8013 80.8179 64.6369Z"
        fill="#008974"/>
    <path d="M115.768 48.7172L114.715 70.0914L46.4274 68.8159L47.4801 47.4417C47.6906 42.472 54.2878 38.5579 62.2886 38.7338L101.871 39.4814C109.802 39.6133 116.048 43.7914 115.768 48.7172Z"
        fill="white"/>
    <path d="M80.6047 69.4756L46.496 68.8159L47.5487 47.4417C47.7592 42.472 54.3564 38.5579 62.3572 38.7338L82.1487 39.0856L80.9556 63.8022L80.6047 69.4756Z"
        fill="#8AF3FF"/>
    <path d="M103.557 84.2087C121.944 90.5857 134.858 102.504 136.191 116.622"
        stroke="white"
        stroke-width="2"
        stroke-miterlimit="10"/>
    <path d="M84.4787 36.0752C82.8019 37.4362 79.9957 39.1561 79.9957 39.1561C79.9957 39.1561 78.364 34.6786 77.6035 31.7844C76.7961 28.7117 76.0511 23.9005 76.0511 23.9005C76.0511 23.9005 75.2206 19.5225 75.3233 16.5525L75.3251 16.5001C75.4128 13.9625 75.4707 12.2883 76.25 9.92688C76.904 7.94523 77.3376 6.77068 78.5363 5.24236C79.7227 3.72964 80.6241 3.13057 82.1846 2.32429C83.9284 1.4233 85.039 1.07996 86.9176 1.16871C88.5849 1.24748 89.5495 1.57273 91.0611 2.45063C92.916 3.52791 93.9075 4.50225 95.1648 6.52728C96.1469 8.10915 96.6454 9.14809 97.0419 11.0963C97.5117 13.4055 97.3334 14.8672 96.9548 17.2098C96.5471 19.7329 95.9557 21.0663 94.9261 23.2956C93.5098 26.3623 92.2664 27.738 90.2497 30.2173C88.1783 32.764 86.9113 34.1008 84.4787 36.0752Z"
        stroke="white"
        stroke-width="2"/>
</svg>
