<svg width="157"
    height="170"
    viewBox="0 0 157 170"
    fill="none"
    xmlns="http://www.w3.org/2000/svg">
    <path d="M98.2629 47.6938V65.4118H58.0625V47.6938C58.0625 43.5721 61.8232 40.2517 66.4916 40.2517H89.8014C94.5023 40.2231 98.2629 43.5721 98.2629 47.6938Z"
        fill="white"/>
    <path d="M78.1962 65.4116H58.0959V47.6937C58.0959 43.5719 61.8567 40.2515 66.5251 40.2515H78.1638V60.7459L78.1962 65.4116Z"
        fill="#8AF3FF"/>
    <path d="M91.3249 165.536C87.7263 168.341 83.2848 169.772 78.8108 169.972C73.5264 170.23 68.1448 168.656 63.9951 165.25C-32.8426 86.621 1.65192 42.6554 34.6552 42.9702C66.9128 43.2565 77.6113 63.0352 78.8108 65.5254C78.9081 65.6972 78.9406 65.7831 78.9406 65.7831C78.9406 65.7831 89.3797 43.514 123.809 43.8289C156.78 44.201 190.173 88.8535 91.3249 165.536Z"
        fill="#FF5287"/>
    <path d="M78.1952 65.5261V169.944C72.9108 170.202 67.5291 168.628 63.3794 165.222C-33.4583 86.593 1.0362 42.6274 34.0395 42.9423C66.2971 43.2571 76.9633 63.0645 78.1952 65.5261Z"
        fill="#FF2E60"/>
    <path d="M100.598 67.1568C119.044 49.9541 148.384 60.8883 133.731 95.0933"
        stroke="white"
        stroke-width="2"
        stroke-miterlimit="10"/>
    <path d="M83.4788 36.0747C81.802 37.4357 78.9958 39.1556 78.9958 39.1556C78.9958 39.1556 77.3641 34.6781 76.6036 31.7839C75.7962 28.7112 75.0513 23.9 75.0513 23.9C75.0513 23.9 74.2207 19.522 74.3234 16.552L74.3252 16.4996C74.4129 13.962 74.4708 12.2878 75.2501 9.92639C75.9042 7.94474 76.3377 6.77019 77.5364 5.24187C78.7228 3.72915 79.6243 3.13008 81.1847 2.3238C82.9285 1.42282 84.0391 1.07947 85.9178 1.16823C87.585 1.24699 88.5496 1.57224 90.0612 2.45014C91.9161 3.52742 92.9076 4.50177 94.1649 6.52679C95.147 8.10866 95.6456 9.1476 96.042 11.0959C96.5118 13.405 96.3336 14.8667 95.955 17.2093C95.5472 19.7324 94.9558 21.0658 93.9262 23.2952C92.5099 26.3618 91.2665 27.7375 89.2498 30.2168C87.1784 32.7635 85.9114 34.1003 83.4788 36.0747Z"
        stroke="white"
        stroke-width="2"/>
</svg>
