<svg width="131"
    height="131"
    viewBox="0 0 131 131"
    fill="none"
    xmlns="http://www.w3.org/2000/svg">
    <path d="M65.5 131C101.675 131 131 101.675 131 65.5014C131 29.3275 101.675 0.00282288 65.5 0.00282288C29.3254 0.00282288 0 29.3275 0 65.5014C0 101.675 29.3254 131 65.5 131Z"
        fill="url(#paint0_linear_33_1699)"/>
    <path opacity="0.7"
        d="M29.2731 70.7001L13.9629 25.0741C9.40601 30.8742 5.80905 37.4608 3.40625 44.5967L39.026 125.428C43.4557 127.389 48.1457 128.872 53.0264 129.812L29.2731 70.7001Z"
        fill="#FCFFAC"/>
    <path d="M47.1165 31.0015L49.9009 27.7284L40.842 4.80263C39.1158 5.50523 37.4301 6.27723 35.782 7.11574L47.1165 31.0015Z"
        fill="#FCFFAC"/>
    <path opacity="0.7"
        d="M94.9438 40.6588L122.095 98.4894C123.685 95.7657 125.087 92.9148 126.278 89.9598L82.7043 2.28436C79.7087 1.47188 76.6265 0.864695 73.4777 0.483032L94.9438 40.6588Z"
        fill="#FCFFAC"/>
    <path d="M66.6952 116.771C93.6725 116.771 115.551 94.9119 115.563 67.9469C115.575 40.982 93.7149 19.1225 66.7376 19.1225C39.7603 19.1225 17.8814 40.982 17.8697 67.9469C17.858 94.9119 39.7179 116.771 66.6952 116.771Z"
        fill="#FCFFAC"/>
    <path d="M65.4722 114.594C92.5981 114.594 114.597 92.6143 114.609 65.5009C114.621 38.3874 92.6407 16.4076 65.5149 16.4076C38.389 16.4076 16.3896 38.3874 16.3779 65.5009C16.3661 92.6143 38.3464 114.594 65.4722 114.594Z"
        fill="#FBAA12"/>
    <path opacity="0.3"
        d="M105.691 37.2813C109.045 43.9257 110.936 51.4347 110.936 59.386C110.936 86.5043 88.9495 108.49 61.8306 108.49C45.2134 108.49 30.5248 100.238 21.6394 87.6059C29.7268 103.621 46.3324 114.606 65.4998 114.606C92.6187 114.606 114.605 92.6195 114.605 65.5012C114.605 54.9968 111.306 45.2645 105.691 37.2813Z"
        fill="#EA831C"/>
    <path opacity="0.25"
        d="M2.021 49.2894C8.15954 69.4279 26.8846 84.0815 49.0331 84.0815C76.1722 84.0815 98.1733 62.0809 98.1733 34.9424C98.1733 23.0096 93.9199 12.0715 86.8475 3.55931C80.1566 1.25199 72.9743 0 65.497 0C34.9199 0.00289138 9.23516 20.9567 2.021 49.2894Z"
        fill="#FFFFEB"/>
    <path d="M17.6176 67.3347C17.6176 40.2164 39.6042 18.2303 66.7231 18.2303C83.3865 18.2303 98.1127 26.5315 106.989 39.2218C98.2804 25.5022 82.9528 16.3972 65.5 16.3972C38.3811 16.3972 16.3945 38.3833 16.3945 65.5016C16.3945 75.9568 19.6619 85.6516 25.2337 93.6145C20.4108 86.0159 17.6176 77.0006 17.6176 67.3347Z"
        fill="#CF7310"/>
    <defs>
        <linearGradient id="paint0_linear_33_1699"
            x1="19.1842"
            y1="111.814"
            x2="111.811"
            y2="19.1848"
            gradientUnits="userSpaceOnUse">
            <stop stop-color="#FBC01E"/>
            <stop offset="0.4609"
                stop-color="#FDC822"/>
            <stop offset="1"
                stop-color="#FCE13C"/>
        </linearGradient>
    </defs>
</svg>
