<svg width="426"
    height="323"
    viewBox="0 0 426 323"
    fill="none"
    xmlns="http://www.w3.org/2000/svg">
    <g filter="url(#filter0_d_16_3)">
        <g filter="url(#filter1_d_16_3)">
            <rect width="324"
                height="222"
                rx="50"
                transform="matrix(-1 0 0 1 376 47)"
                fill="url(#paint0_radial_16_3)"/>
            <rect x="-7.5"
                y="7.5"
                width="309"
                height="207"
                rx="42.5"
                transform="matrix(-1 0 0 1 361 47)"
                stroke="url(#paint1_radial_16_3)"
                stroke-width="15"/>
        </g>
        <g opacity="0.12">
            <mask id="mask0_16_3"
                style="mask-type:alpha"
                maskUnits="userSpaceOnUse"
                x="50"
                y="46"
                width="326"
                height="223">
                <rect width="326"
                    height="223"
                    rx="50"
                    transform="matrix(-1 0 0 1 376 46)"
                    fill="#D9D9D9"/>
            </mask>
            <g mask="url(#mask0_16_3)">
                <path opacity="0.25"
                    d="M257.055 213.188C256.801 213.188 256.547 213.188 256.311 213.188C255.583 213.201 254.872 213.214 254.144 213.253C249.812 213.421 245.615 213.863 241.62 214.524C241.587 214.524 241.553 214.537 241.519 214.537C222.852 217.678 208.466 225.919 204.066 235.926L198.413 233.706L196.484 232.954L179.881 226.425L178.443 225.854C173.044 223.739 166.681 226.893 166.985 231.539L168.847 259.948C169.151 264.607 175.904 267.255 181.015 264.724L182.386 264.049L198.041 256.288L206.164 252.265C208.889 255.977 213.086 259.26 218.401 261.934C218.384 261.921 218.367 261.895 218.367 261.882C220.482 262.959 222.767 263.933 225.221 264.789C229.503 266.308 234.225 267.489 239.285 268.267C242.314 268.735 245.479 269.059 248.712 269.228C251.707 269.383 254.787 269.409 257.935 269.293C259.577 269.228 261.202 269.137 262.792 268.981C266.025 268.709 269.19 268.267 272.219 267.696C277.28 266.749 282.018 265.425 286.283 263.777C297.487 259.481 305.526 253.07 308.318 245.802L316.967 249.189L319.082 250.02L335.685 256.548L337.123 257.119C342.522 259.234 348.885 256.081 348.581 251.435L346.719 223.025C346.414 218.366 339.662 215.718 334.551 218.249L333.18 218.924L317.525 226.685L306.998 231.902C303.41 225.867 296.015 220.819 286.266 217.484C284.743 216.964 283.135 216.497 281.511 216.069C281.341 216.03 281.172 215.978 281.003 215.939C280.089 215.705 279.175 215.485 278.227 215.277C277.889 215.199 277.533 215.121 277.178 215.057C276.383 214.888 275.587 214.732 274.775 214.589C274.284 214.498 273.81 214.421 273.319 214.343C272.947 214.278 272.575 214.213 272.202 214.148C271.068 213.979 269.918 213.85 268.767 213.72C268.564 213.694 268.377 213.681 268.174 213.655C267.751 213.616 267.328 213.577 266.905 213.538C266.55 213.512 266.194 213.473 265.839 213.447C265.5 213.421 265.162 213.395 264.823 213.369C264.265 213.33 263.706 213.305 263.131 213.266C263.012 213.266 262.894 213.253 262.776 213.24C262.742 213.24 262.708 213.24 262.674 213.24C262.183 213.214 261.675 213.201 261.185 213.188C260.982 213.188 260.779 213.175 260.575 213.162C260.135 213.149 259.678 213.149 259.221 213.136C258.968 213.136 258.714 213.123 258.443 213.123C257.969 213.175 257.512 213.175 257.055 213.188Z"
                    fill="#B4D0D8"/>
                <path opacity="0.25"
                    d="M43.3535 157.278L44.1151 159.367C44.2336 159.679 44.3859 159.977 44.5382 160.276C44.5721 160.354 44.6228 160.418 44.6736 160.496C44.8429 160.769 45.029 161.041 45.2321 161.288C45.2321 161.301 45.249 161.314 45.249 161.314C45.469 161.573 45.7229 161.82 45.9768 162.067C46.0275 162.119 46.0952 162.17 46.146 162.222C46.4168 162.443 46.6876 162.664 46.9753 162.858L46.9922 162.871C47.3138 163.079 47.6353 163.261 47.9907 163.442C48.0415 163.468 48.0923 163.494 48.1431 163.52C48.8539 163.858 49.6155 164.13 50.4109 164.312C50.4447 164.325 50.4955 164.325 50.5294 164.338C50.9355 164.429 51.3417 164.494 51.7648 164.546C53.0172 164.688 54.3204 164.636 55.6066 164.364L114.959 151.684C116.821 151.282 118.395 150.477 119.563 149.426C120.155 148.894 120.629 148.31 121.001 147.674C121.848 146.207 122.084 144.507 121.475 142.846L120.714 140.769L138.332 144.248C142.58 145.091 146.438 142.08 145.254 138.836L138.044 118.992C136.859 115.747 131.545 114.696 128.465 117.097L115.738 127.051L115.196 125.559C115.061 125.17 114.858 124.806 114.655 124.456C114.536 124.261 114.418 124.079 114.266 123.898C114.266 123.898 114.266 123.885 114.249 123.885C114.113 123.703 113.961 123.534 113.809 123.366C113.809 123.366 113.809 123.353 113.792 123.353C113.521 123.054 113.216 122.769 112.895 122.509C112.116 121.899 111.202 121.406 110.204 121.029C110.17 121.017 110.119 121.004 110.085 120.978C109.916 120.913 109.73 120.861 109.561 120.809C109.476 120.783 109.374 120.757 109.29 120.731C109.239 120.718 109.188 120.692 109.121 120.679C109.019 120.653 108.918 120.64 108.799 120.614C108.681 120.588 108.562 120.562 108.444 120.536C108.376 120.523 108.308 120.51 108.241 120.497C108.156 120.484 108.071 120.471 107.987 120.458C107.851 120.432 107.716 120.419 107.58 120.407C107.445 120.394 107.293 120.381 107.157 120.368C107.005 120.355 106.853 120.342 106.7 120.342C106.616 120.342 106.531 120.329 106.447 120.329C106.396 120.329 106.345 120.329 106.311 120.329C106.142 120.329 105.973 120.329 105.803 120.342C105.685 120.342 105.567 120.342 105.431 120.355C105.245 120.368 105.042 120.381 104.856 120.407C104.754 120.419 104.653 120.419 104.551 120.432C104.263 120.471 103.959 120.523 103.671 120.588L74.0031 126.922L44.3351 133.255C42.7781 133.592 41.4411 134.202 40.358 135.007C39.2748 135.812 38.4625 136.811 37.9886 137.901C37.4132 139.212 37.3286 140.666 37.8532 142.093L38.784 144.65L19.7613 140.899C15.5134 140.056 11.6547 143.067 12.8394 146.311L20.049 166.155C21.2337 169.399 26.5479 170.451 29.6281 168.05L43.3535 157.278Z"
                    fill="#B4D0D8"/>
                <path opacity="0.25"
                    d="M118.107 226.737C120.967 225.517 122.016 222.713 120.425 220.52L114.333 212.123C114.248 211.993 114.147 211.877 114.045 211.76H114.062C114.011 211.708 113.943 211.656 113.893 211.604C113.774 211.487 113.656 211.37 113.52 211.267C113.368 211.15 113.233 211.033 113.063 210.929C112.945 210.851 112.843 210.786 112.725 210.709C112.488 210.579 112.251 210.462 111.997 210.358C111.929 210.332 111.862 210.293 111.794 210.267C110.948 209.943 110.017 209.774 109.069 209.774C109.035 209.774 109.002 209.774 108.968 209.774C108.629 209.774 108.291 209.8 107.969 209.852C107.902 209.865 107.834 209.878 107.749 209.891C107.462 209.943 107.174 210.008 106.903 210.099C106.801 210.124 106.7 210.163 106.581 210.202C106.463 210.241 106.328 210.28 106.209 210.332L78.9783 221.948C77.3536 222.635 76.3212 223.829 76.0166 225.14C75.7796 226.153 75.9658 227.23 76.6597 228.19L82.7523 236.587C84.3432 238.78 87.9988 239.585 90.859 238.365L118.107 226.737Z"
                    fill="#B4D0D8"/>
                <path opacity="0.25"
                    d="M112.658 307.54C114.046 305.295 112.793 302.582 109.865 301.518L59.7701 283.271C61.4795 279.351 61.9872 275.289 61.4118 271.369C61.1579 269.63 60.684 267.917 60.024 266.256V266.243C59.4824 264.893 58.8224 263.583 58.0269 262.311C57.9085 262.142 57.79 261.973 57.6715 261.792C57.5023 261.532 57.3161 261.272 57.13 261.013C56.9269 260.727 56.7238 260.442 56.5038 260.156C56.2838 259.871 56.0468 259.598 55.8268 259.326C55.6068 259.066 55.4037 258.807 55.1668 258.56C54.8791 258.236 54.5744 257.937 54.2698 257.626C53.999 257.353 53.7451 257.093 53.4744 256.834C53.0343 256.432 52.5943 256.029 52.1373 255.627C52.0866 255.588 52.0358 255.536 51.985 255.497C51.545 255.121 51.0711 254.77 50.5973 254.407C50.5803 254.394 50.5465 254.368 50.5296 254.355C50.0557 254.005 49.548 253.654 49.0402 253.317C48.9048 253.226 48.7525 253.135 48.6171 253.044C48.194 252.772 47.754 252.512 47.314 252.253C47.1617 252.162 47.0263 252.071 46.8739 251.993C46.7893 251.941 46.6878 251.889 46.6032 251.837C46.1124 251.565 45.6216 251.305 45.1138 251.059C45.0631 251.033 44.9954 251.007 44.9277 250.968C44.3861 250.695 43.8276 250.436 43.2522 250.189C43.0999 250.124 42.9476 250.059 42.7952 249.994C42.1521 249.722 41.509 249.462 40.849 249.229C40.832 249.229 40.8151 249.216 40.8151 249.216C40.4089 249.073 40.0197 248.93 39.6135 248.8C39.5797 248.787 39.5289 248.774 39.495 248.761C39.2073 248.671 38.9196 248.58 38.615 248.489C38.3273 248.398 38.0396 248.32 37.7519 248.229C37.5318 248.164 37.3118 248.112 37.0918 248.048C36.7533 247.957 36.3979 247.866 36.0594 247.788C35.8564 247.736 35.6533 247.684 35.4502 247.645C35.0948 247.567 34.7224 247.49 34.3501 247.412C34.164 247.373 33.9778 247.334 33.7916 247.295C33.7578 247.295 33.7408 247.282 33.707 247.282C33.5547 247.256 33.4024 247.23 33.2331 247.204C32.81 247.126 32.37 247.061 31.9469 246.996C31.7269 246.97 31.5069 246.944 31.2869 246.906C30.8976 246.854 30.5083 246.802 30.1191 246.763C29.8991 246.737 29.6791 246.724 29.4421 246.698C29.0359 246.659 28.6298 246.633 28.2236 246.607C28.0544 246.594 27.902 246.594 27.7328 246.581C27.2251 246.555 26.7173 246.529 26.2096 246.529C26.1927 246.529 26.1758 246.529 26.1758 246.529C26.1419 246.529 26.1081 246.529 26.0742 246.529C25.6004 246.516 25.1096 246.516 24.6357 246.516C24.5341 246.516 24.4495 246.516 24.348 246.516C23.9079 246.529 23.451 246.529 23.011 246.555C22.9263 246.555 22.8587 246.568 22.774 246.568C21.0816 246.659 19.3892 246.828 17.7306 247.1C17.646 247.113 17.5783 247.126 17.4937 247.139C16.9183 247.23 16.3598 247.334 15.8013 247.451C15.6151 247.49 15.412 247.528 15.2259 247.58C14.7859 247.671 14.3458 247.775 13.9227 247.892C13.6689 247.957 13.4319 248.009 13.195 248.074C12.8734 248.164 12.5349 248.255 12.2134 248.359C11.9426 248.437 11.6718 248.502 11.401 248.593C11.0456 248.709 10.7071 248.826 10.3517 248.956C10.1317 249.034 9.89479 249.112 9.67477 249.19C9.38706 249.294 9.11628 249.397 8.82857 249.514C8.50701 249.644 8.18545 249.761 7.86389 249.891C7.62695 249.994 7.39002 250.098 7.13616 250.202C6.76383 250.371 6.3915 250.539 6.01917 250.708C5.833 250.799 5.66376 250.877 5.47759 250.968C4.30983 251.539 3.19284 252.162 2.12662 252.824C2.1097 252.837 2.07585 252.85 2.05893 252.876C1.5512 253.2 1.0604 253.524 0.569605 253.862C0.451136 253.953 0.332669 254.031 0.2142 254.121C-0.191978 254.407 -0.581234 254.705 -0.970488 255.017C-1.08896 255.108 -1.20743 255.199 -1.32589 255.289C-1.78285 255.666 -2.2398 256.042 -2.67982 256.445C-2.69675 256.458 -2.71367 256.47 -2.73059 256.496C-3.18755 256.925 -3.6445 257.353 -4.08452 257.807C-4.16914 257.885 -4.23684 257.976 -4.32146 258.054C-4.65994 258.417 -4.99842 258.781 -5.31998 259.157C-5.42153 259.274 -5.52307 259.404 -5.62462 259.533C-5.92925 259.897 -6.21696 260.273 -6.50467 260.662C-6.58929 260.766 -6.65699 260.87 -6.74161 260.974C-7.09701 261.467 -7.4355 261.973 -7.75705 262.492C-8.11246 263.076 -8.43402 263.66 -8.73865 264.257C-8.80635 264.387 -8.87404 264.53 -8.94174 264.66C-9.17868 265.127 -9.38177 265.607 -9.58486 266.074C-9.65255 266.217 -9.70332 266.36 -9.77102 266.503C-9.99103 267.087 -10.211 267.671 -10.3803 268.268V268.281C-10.5665 268.878 -10.7018 269.488 -10.8372 270.085C-10.8711 270.24 -10.9049 270.409 -10.9219 270.565C-11.0065 271.006 -11.0742 271.447 -11.1249 271.889C-11.1419 272.07 -11.1757 272.252 -11.1926 272.447C-11.2434 272.94 -11.2603 273.433 -11.2773 273.926C-11.2773 274.03 -11.2942 274.134 -11.2942 274.238C-11.2942 274.822 -11.2773 275.393 -11.2434 275.977C-11.2265 276.158 -11.2096 276.34 -11.1926 276.522C-11.1588 276.937 -11.108 277.352 -11.0403 277.768C-11.0234 277.872 -11.0234 277.988 -11.0065 278.092C-10.9896 278.196 -10.9557 278.3 -10.9388 278.404C-10.888 278.676 -10.8203 278.949 -10.7695 279.221C-10.7188 279.481 -10.6511 279.74 -10.5834 280C-10.5326 280.221 -10.4649 280.441 -10.3972 280.662C-10.3126 280.96 -10.228 281.259 -10.1264 281.557C-10.0926 281.661 -10.0418 281.765 -10.008 281.869C-9.6864 282.764 -9.31407 283.66 -8.87404 284.529C-8.68788 284.893 -8.48479 285.256 -8.2817 285.62C-8.26478 285.659 -8.24785 285.697 -8.214 285.736C-7.24933 287.411 -6.09849 289.02 -4.71071 290.512C-3.49218 291.849 -2.1044 293.108 -0.581234 294.276C1.22964 295.652 3.24362 296.898 5.46067 297.988C6.7469 298.611 8.08391 299.195 9.50553 299.701C10.0133 299.883 10.521 300.064 11.0456 300.233C13.6519 301.077 16.309 301.661 18.983 302.011C21.437 302.336 23.8741 302.452 26.3112 302.4C30.0345 302.31 33.707 301.777 37.1764 300.843C41.1198 299.792 44.8092 298.221 48.0925 296.197C50.3603 294.782 52.442 293.147 54.2529 291.317L104.771 309.72C107.733 310.745 111.27 309.785 112.658 307.54Z"
                    fill="#B4D0D8"/>
                <path opacity="0.25"
                    d="M95.7516 72.8014C95.7009 72.8793 95.667 72.9701 95.6162 73.061C105.297 70.1149 114.114 65.3909 121.172 59.0834C121.155 59.0315 121.155 58.9666 121.138 58.9147C123.71 56.6176 126.063 54.1258 128.111 51.4263C132.358 45.8586 135.032 39.9146 136.268 33.9057C136.268 33.9187 136.285 33.9187 136.285 33.9187C136.369 33.4774 136.454 33.0491 136.522 32.6079C136.539 32.53 136.556 32.4651 136.556 32.3872C136.64 31.8162 136.725 31.2322 136.793 30.6611C138.434 17.0469 132.782 3.35489 121.002 -7.07961L120.985 -7.09257C120.342 -7.65063 119.699 -8.20869 119.022 -8.75378C118.971 -8.79271 118.921 -8.83164 118.887 -8.87058C118.244 -9.37673 117.601 -9.88288 116.924 -10.3761C116.822 -10.4539 116.704 -10.5318 116.602 -10.6097C115.976 -11.0639 115.35 -11.5052 114.707 -11.9465C114.52 -12.0633 114.334 -12.1801 114.148 -12.3098C113.556 -12.6992 112.963 -13.0885 112.354 -13.4649C112.066 -13.6336 111.779 -13.8023 111.491 -13.9711C110.949 -14.2955 110.408 -14.607 109.866 -14.9184C109.443 -15.152 109.003 -15.3727 108.563 -15.6063C108.123 -15.8399 107.683 -16.0735 107.226 -16.3071C106.431 -16.6965 105.618 -17.0858 104.806 -17.4622C104.688 -17.5141 104.586 -17.566 104.468 -17.6179C93.67 -22.4458 81.84 -24.6651 70.1962 -24.5094C47.9749 -24.2109 26.4813 -15.2818 14.4482 0.512666C13.8897 1.23945 13.382 1.96623 12.8743 2.70599C12.7389 2.91364 12.6035 3.1213 12.485 3.31597C12.1296 3.84808 11.7912 4.3802 11.4696 4.91231C11.3173 5.17187 11.165 5.44441 11.0127 5.71695C10.7419 6.19714 10.4711 6.67732 10.2172 7.15751C10.0649 7.44304 9.91259 7.74157 9.77719 8.04006C9.54025 8.50728 9.32024 8.96149 9.11715 9.42871C8.98176 9.7272 8.84636 10.0387 8.71097 10.3372C8.50788 10.7914 8.32172 11.2587 8.15248 11.7259C8.03401 12.0374 7.91554 12.3488 7.814 12.6603C7.64476 13.1275 7.49244 13.5948 7.34012 14.049C7.23858 14.3605 7.13703 14.659 7.05241 14.9704C6.91702 15.4506 6.78163 15.9308 6.66316 16.398C6.59546 16.6965 6.51084 16.9951 6.44315 17.2936C6.32468 17.7997 6.22313 18.3188 6.13851 18.825C6.08774 19.0845 6.03697 19.3571 5.98619 19.6166C5.88465 20.2396 5.80003 20.8495 5.73233 21.4725C5.71541 21.6282 5.68156 21.797 5.66464 21.9527C5.58001 22.7314 5.52924 23.5101 5.49539 24.2888C5.49539 24.4835 5.49539 24.6782 5.47847 24.8728C5.47847 24.8858 5.47847 24.8988 5.47847 24.9247C5.46155 25.366 5.46155 25.8073 5.46155 26.2485C5.46155 26.3653 5.46155 26.4691 5.46155 26.5859C5.46155 26.6119 5.46155 26.6249 5.46155 26.6508C5.46155 26.7157 5.46155 26.7806 5.46155 26.8455C5.56309 32.1406 6.74778 37.3838 8.94791 42.3805C8.99868 42.3934 9.03253 42.4064 9.0833 42.4324C9.10023 42.4713 9.11715 42.5232 9.151 42.5621C9.30332 42.8866 9.43871 43.1981 9.59103 43.5225C9.84489 44.0287 10.0988 44.5349 10.3695 45.028C10.6234 45.4952 10.8773 45.9624 11.148 46.4167C11.4019 46.845 11.6388 47.2733 11.9096 47.7015C12.1127 48.039 12.3497 48.3634 12.5697 48.7009C12.8066 49.0513 13.0266 49.4147 13.2805 49.7651C13.5174 50.1025 13.7713 50.4529 14.0251 50.7904C14.2621 51.1278 14.5159 51.4522 14.7698 51.7897C15.0406 52.1271 15.3114 52.4645 15.5822 52.802C15.836 53.1264 16.1068 53.4379 16.3776 53.7494C16.6653 54.0868 16.9699 54.4243 17.2576 54.7487C17.5284 55.0602 17.8161 55.3587 18.1039 55.6572C18.4254 55.9817 18.73 56.3191 19.0516 56.6435C19.3393 56.942 19.6439 57.2276 19.9486 57.5131C20.2871 57.8375 20.6255 58.162 20.9809 58.4735C21.2856 58.759 21.6071 59.0315 21.9287 59.3041C22.2841 59.6156 22.6564 59.94 23.0288 60.2385C23.3503 60.5111 23.6888 60.7706 24.0104 61.0302C24.3996 61.3417 24.7719 61.6402 25.1781 61.9387C25.5166 62.1853 25.8551 62.4318 26.1936 62.6654C27.0905 63.3144 28.0044 63.9373 28.9522 64.5473C29.2061 64.703 29.443 64.8717 29.6969 65.0404C29.8661 65.1443 30.0353 65.2481 30.2046 65.3519C30.103 65.3649 29.9846 65.3779 29.883 65.3909C32.4386 66.9742 35.1803 68.4278 38.1081 69.7386C44.7932 72.7365 51.8844 74.7092 59.0771 75.7475C59.1786 75.6956 59.2802 75.6307 59.3817 75.5788C71.7025 77.3438 84.3279 76.3056 95.7516 72.8014Z"
                    fill="#B4D0D8"/>
                <path opacity="0.25"
                    d="M481.891 107.467L474.682 87.6234C473.497 84.3789 468.183 83.3276 465.103 85.7286L452.376 95.6829L451.834 94.1904C451.699 93.8011 451.496 93.4377 451.293 93.0873C451.174 92.8926 451.056 92.7109 450.903 92.5292C450.903 92.5292 450.903 92.5162 450.886 92.5162C450.751 92.3345 450.599 92.1658 450.446 91.9971C450.446 91.9971 450.446 91.9841 450.429 91.9841C449.499 90.9848 448.263 90.1931 446.841 89.661C446.808 89.648 446.757 89.635 446.723 89.6091C446.554 89.5442 446.368 89.4923 446.198 89.4404C446.114 89.4144 446.012 89.3885 445.928 89.3625C445.775 89.3236 445.606 89.2846 445.454 89.2457C445.335 89.2197 445.217 89.1938 445.098 89.1678C444.946 89.1419 444.811 89.1159 444.658 89.09C444.523 89.064 444.387 89.0511 444.235 89.0381C444.1 89.0251 443.947 89.0121 443.812 88.9991C443.66 88.9862 443.507 88.9732 443.355 88.9732C443.22 88.9732 443.084 88.9602 442.949 88.9602C442.78 88.9602 442.61 88.9602 442.441 88.9732C442.323 88.9732 442.204 88.9732 442.069 88.9862C441.883 88.9991 441.68 89.0121 441.493 89.0381C441.392 89.0511 441.29 89.051 441.189 89.064C440.901 89.103 440.597 89.1549 440.309 89.2197L380.956 101.899C375.997 102.964 373.069 106.935 374.457 110.738L375.388 113.294L356.365 109.544C352.117 108.7 348.259 111.711 349.443 114.956L356.653 134.799C357.838 138.044 363.152 139.095 366.232 136.694L379.974 125.948L380.736 128.038C380.854 128.349 381.007 128.648 381.159 128.946C381.193 129.024 381.244 129.089 381.294 129.167C381.464 129.439 381.65 129.712 381.853 129.958C381.87 129.971 381.87 129.984 381.87 129.984C382.09 130.244 382.344 130.491 382.598 130.737C382.648 130.789 382.716 130.841 382.767 130.893C383.038 131.114 383.308 131.334 383.596 131.529L383.613 131.542C383.935 131.749 384.256 131.944 384.612 132.113C384.662 132.139 384.713 132.165 384.764 132.191C385.475 132.528 386.236 132.801 387.032 132.982C387.066 132.995 387.116 132.995 387.15 133.008C387.556 133.099 387.963 133.164 388.386 133.216C389.638 133.359 390.941 133.307 392.227 133.034L421.895 126.701L451.563 120.368C455.896 119.446 458.688 116.279 458.384 112.957C458.35 112.477 458.231 112.01 458.062 111.529L457.301 109.453L474.919 112.931C479.217 113.723 483.076 110.725 481.891 107.467Z"
                    fill="#B4D0D8"/>
                <path opacity="0.25"
                    d="M352.627 176.109C356.807 174.331 358.313 170.255 355.995 167.05L347.127 154.824C346.991 154.643 346.856 154.474 346.704 154.292H346.72C344.233 151.476 339.274 150.529 335.314 152.216L295.677 169.113C293.325 170.113 291.819 171.852 291.362 173.747C291.006 175.213 291.277 176.784 292.309 178.185L301.178 190.411C303.496 193.616 308.81 194.771 312.991 192.993L352.627 176.109Z"
                    fill="#B4D0D8"/>
                <path opacity="0.25"
                    d="M215.437 171.087C215.691 171.165 215.962 171.229 216.233 171.307C216.419 171.359 216.605 171.398 216.808 171.437C217.113 171.502 217.417 171.567 217.722 171.619C217.857 171.645 217.993 171.658 218.128 171.684C219.82 171.943 221.581 171.982 223.391 171.839C224.204 171.775 225.033 171.684 225.862 171.541C225.845 171.541 225.812 171.528 225.795 171.528C228.858 171.009 231.989 169.971 234.984 168.465C238.995 166.453 242.753 163.598 245.816 160.042C246.171 159.627 246.51 159.212 246.814 158.809C250.064 154.643 251.824 150.231 252.112 146.181C252.518 140.484 250.047 135.487 244.767 132.814C244.005 132.425 243.193 132.087 242.346 131.828C237.489 130.27 231.633 130.724 225.981 132.84C223.594 133.735 221.259 134.916 219.042 136.357C216.351 138.109 213.846 140.263 211.697 142.768C210.851 143.755 210.072 144.767 209.395 145.779C207.5 148.608 206.281 151.503 205.723 154.306C204.809 158.809 205.604 163.027 208.092 166.233C208.177 166.35 208.278 166.44 208.363 166.557C208.397 166.609 208.447 166.661 208.498 166.713C208.82 167.076 209.141 167.427 209.514 167.764C209.598 167.855 209.7 167.933 209.784 168.011C210.14 168.309 210.495 168.608 210.884 168.88C210.986 168.958 211.088 169.023 211.189 169.101C211.68 169.425 212.188 169.737 212.729 170.009L212.865 170.074C213.271 170.269 213.677 170.451 214.1 170.619C214.286 170.697 214.489 170.762 214.692 170.827C214.929 170.918 215.183 171.009 215.437 171.087Z"
                    fill="#B4D0D8"/>
                <path opacity="0.25"
                    d="M202.981 111.243C203.201 112.931 203.895 114.618 205.148 116.162L206.451 117.772C207.314 118.784 209.057 119.095 210.411 118.459C211.765 117.823 212.171 116.474 211.376 115.435L213.305 114.514C214.202 115.396 215.827 115.643 217.096 115.033C218.365 114.436 218.805 113.203 218.179 112.191L220.142 111.256C221.039 112.139 222.664 112.386 223.933 111.776C225.203 111.179 225.643 109.946 225.017 108.933L226.946 108.012C227.792 109.024 229.552 109.336 230.906 108.7C232.26 108.064 232.683 106.714 231.871 105.676L230.568 104.066C229.315 102.522 227.657 101.302 225.778 100.394L225.795 100.381C225.677 100.329 225.575 100.277 225.457 100.225C225.355 100.173 225.254 100.134 225.152 100.082C224.78 99.9264 224.407 99.7837 224.035 99.6409C224.018 99.6409 224.018 99.6279 224.001 99.6279C223.612 99.4981 223.206 99.3684 222.8 99.2645C222.698 99.2386 222.596 99.2126 222.495 99.1867C222.427 99.1737 222.343 99.1478 222.275 99.1348L222.732 98.9141C223.561 98.5248 224.272 98.0446 224.881 97.5125C224.898 97.5774 224.915 97.6423 224.915 97.6942C227.555 95.41 228.114 91.9838 225.998 89.2324C225.964 89.1805 225.931 89.1286 225.88 89.0767L225.778 88.9469L220.007 81.7829L215.793 76.5526L209.903 69.2459L193.098 48.4158C191.913 46.9363 190.119 45.911 188.122 45.3789C185.533 44.7041 182.588 44.8858 180.1 46.0668L179.592 46.3134C179.609 46.2355 179.626 46.1446 179.643 46.0668C179.66 45.9889 179.677 45.8981 179.694 45.8202C179.745 45.4957 179.795 45.1583 179.812 44.8338C179.812 44.8208 179.812 44.8079 179.812 44.8079C179.829 44.4834 179.829 44.172 179.795 43.8475C179.795 43.7567 179.778 43.6658 179.778 43.575C179.762 43.4712 179.762 43.3803 179.762 43.2765L179.745 43.2895C179.542 41.5893 178.848 39.9021 177.595 38.3577L176.292 36.7484C175.429 35.7361 173.686 35.4246 172.332 36.0606C170.978 36.6965 170.572 38.0462 171.367 39.0845L169.438 40.006C168.541 39.1234 166.916 38.8768 165.647 39.4868C164.378 40.0838 163.938 41.3167 164.564 42.329L162.601 43.2635C161.704 42.381 160.079 42.1344 158.81 42.7444C157.54 43.3413 157.1 44.5743 157.726 45.5866L155.797 46.508C154.951 45.4957 153.191 45.1843 151.837 45.8202C150.483 46.4561 150.06 47.8059 150.872 48.8441L152.175 50.4534C153.428 51.9978 155.086 53.2178 156.965 54.1262L156.948 54.1392C157.066 54.1911 157.168 54.2431 157.286 54.295C157.388 54.3469 157.489 54.3858 157.591 54.4377C157.963 54.5935 158.336 54.7362 158.708 54.866C158.725 54.866 158.725 54.879 158.742 54.879C159.131 55.0088 159.537 55.1386 159.943 55.2424C160.045 55.2684 160.147 55.2943 160.265 55.3203C160.367 55.3462 160.468 55.3722 160.57 55.3981L160.062 55.6447C155.645 57.7342 154.274 62.2247 156.999 65.612L158.911 67.987L164.818 75.2937L169.032 80.511L174.938 87.8178L179.152 93.035L185.059 100.342L189.713 106.117C191.845 108.765 195.907 109.998 199.698 109.388C200.731 109.219 201.746 108.92 202.711 108.466L203.185 108.245C203.168 108.31 203.168 108.362 203.151 108.427C203.134 108.505 203.117 108.596 203.1 108.674C203.049 108.998 202.998 109.336 202.981 109.66C202.981 109.673 202.981 109.673 202.981 109.686C202.965 110.011 202.964 110.322 202.998 110.646C202.998 110.737 203.015 110.828 203.015 110.919C202.965 111.049 202.965 111.14 202.981 111.243Z"
                    fill="#B4D0D8"/>
                <path opacity="0.25"
                    d="M328.762 70.505L327.425 70.2843L312.261 67.7925L302.055 66.1054C304.577 60.94 304.103 54.6326 300.921 48.2733C300.414 47.261 299.821 46.2357 299.178 45.2234C299.144 45.1715 299.111 45.1195 299.077 45.0806C298.671 44.4576 298.247 43.8347 297.807 43.2117C297.74 43.1079 297.655 43.0171 297.587 42.9133C297.164 42.3422 296.724 41.7712 296.25 41.2001C296.149 41.0703 296.03 40.9406 295.912 40.7978C295.675 40.5123 295.455 40.2268 295.201 39.9542C294.338 38.9938 293.407 38.0335 292.426 37.086C292.341 36.9952 292.239 36.9173 292.155 36.8265C291.562 36.2684 290.97 35.7233 290.344 35.1782C290.327 35.1523 290.293 35.1393 290.259 35.1133C289.752 34.6721 289.21 34.2438 288.668 33.8025C288.398 33.5949 288.144 33.3742 287.873 33.1536C287.044 32.5177 286.198 31.8818 285.301 31.2718C282.627 29.4159 279.817 27.7806 276.957 26.366C276.94 26.353 276.906 26.3401 276.889 26.3271C263.502 19.7601 248.711 18.1118 238.455 22.0183L236.762 18.008L236.271 16.8529L231.516 5.52297L231.093 4.53661C229.553 0.850795 223.375 -0.161512 219.99 2.70668L199.292 20.2533C195.907 23.1344 197.854 27.7287 202.779 28.5463L204.116 28.767L219.28 31.2588L227.132 32.5566C225.88 35.9699 225.829 39.7985 226.912 43.7568C226.912 43.7439 226.929 43.7309 226.929 43.7049C227.352 45.2883 227.945 46.8976 228.723 48.5069C230.077 51.3231 231.956 54.1524 234.325 56.9038C235.747 58.552 237.355 60.1613 239.132 61.7187C240.773 63.1723 242.567 64.5739 244.497 65.9107C245.512 66.6115 246.544 67.2864 247.594 67.9223C249.709 69.2201 251.909 70.3882 254.126 71.4264C257.833 73.1525 261.641 74.5023 265.415 75.4756C275.298 78.0064 284.945 77.8636 292.172 74.8397L294.66 80.7448L295.269 82.1724L300.025 93.5024L300.448 94.4887C301.988 98.1746 308.165 99.1869 311.55 96.3187L332.248 78.7721C335.633 75.9169 333.703 71.3226 328.762 70.505Z"
                    fill="#B4D0D8"/>
                <path d="M162.484 264.815L160.622 236.406C160.317 231.759 166.698 228.606 172.08 230.721L173.518 231.292L190.121 237.82L205.082 243.699C205.962 244.05 206.723 244.491 207.333 245.01C207.451 245.114 207.57 245.218 207.688 245.322C208.026 245.659 208.314 245.997 208.551 246.36C208.856 246.84 209.093 247.346 209.228 247.878C209.245 247.891 209.228 247.891 209.228 247.891C209.482 248.878 209.414 249.903 209.025 250.876C208.653 251.811 207.976 252.68 207.011 253.407C206.893 253.498 206.757 253.589 206.622 253.68C206.351 253.848 206.08 254.017 205.776 254.16L191.644 261.155L175.989 268.916L174.618 269.591C169.558 272.109 162.805 269.461 162.484 264.815Z"
                    fill="#369CFF"/>
                <path opacity="0.15"
                    d="M190.156 237.822L205.116 243.701C210.515 245.829 210.904 251.631 205.81 254.161L191.696 261.157L190.156 237.822Z"
                    fill="black"/>
                <path d="M162.483 264.815L160.622 236.406C160.317 231.759 166.697 228.606 172.079 230.721L173.518 231.292L176.006 268.916L174.635 269.591C169.558 272.109 162.805 269.461 162.483 264.815Z"
                    fill="#6DB9DF"/>
                <path d="M340.353 227.904L342.215 256.313C342.519 260.959 336.139 264.113 330.757 261.998L329.319 261.427L312.716 254.899L297.755 249.019C296.875 248.669 296.114 248.228 295.504 247.709C295.386 247.605 295.267 247.501 295.149 247.397C294.81 247.06 294.523 246.722 294.286 246.359C293.981 245.879 293.744 245.372 293.609 244.84C293.592 244.827 293.609 244.827 293.609 244.827C293.355 243.841 293.423 242.816 293.812 241.842C294.184 240.908 294.861 240.038 295.826 239.312C295.944 239.221 296.08 239.13 296.215 239.039C296.486 238.87 296.757 238.702 297.061 238.559L311.193 231.564L326.848 223.803L328.219 223.128C333.279 220.61 340.049 223.258 340.353 227.904Z"
                    fill="#369CFF"/>
                <path opacity="0.15"
                    d="M312.681 254.899L297.72 249.033C292.321 246.905 291.932 241.103 297.026 238.573L311.141 231.577L312.681 254.899Z"
                    fill="black"/>
                <path d="M340.355 227.903L342.217 256.313C342.522 260.959 336.141 264.113 330.759 261.997L329.321 261.426L326.833 223.802L328.204 223.127C333.281 220.61 340.051 223.257 340.355 227.903Z"
                    fill="#6DB9DF"/>
                <path d="M256.412 218.144C259.645 218.287 262.793 218.599 265.839 219.04C270.899 219.78 275.621 220.922 279.903 222.388C293.357 226.983 302.378 234.86 302.987 244.088C303.647 254.016 294.39 263.114 279.903 268.669C275.621 270.317 270.899 271.641 265.839 272.588C262.809 273.159 259.645 273.587 256.412 273.873C254.821 274.016 253.197 274.12 251.555 274.184C248.424 274.301 245.344 274.275 242.331 274.12C239.099 273.951 235.934 273.626 232.905 273.159C227.844 272.367 223.106 271.186 218.841 269.681C205.775 265.048 197.025 257.3 196.416 248.215C195.773 238.442 204.743 229.461 218.841 223.894C223.089 222.207 227.827 220.844 232.905 219.845C235.934 219.248 239.082 218.806 242.331 218.495C244.142 218.326 245.987 218.209 247.866 218.131C250.76 217.989 253.62 218.015 256.412 218.144Z"
                    fill="#369CFF"/>
                <path d="M232.903 219.819V273.146C227.843 272.355 223.104 271.174 218.839 269.668V223.868C223.087 222.181 227.826 220.805 232.903 219.819Z"
                    fill="#6DB9DF"/>
                <path d="M256.41 218.144V273.86C254.819 274.003 253.194 274.106 251.553 274.171C248.422 274.288 245.342 274.262 242.329 274.106V218.482C244.14 218.313 245.985 218.196 247.863 218.118C250.757 217.989 253.618 218.015 256.41 218.144Z"
                    fill="#6DB9DF"/>
                <path d="M265.838 219.027C270.898 219.767 275.62 220.909 279.901 222.375V268.669C275.62 270.317 270.898 271.641 265.838 272.588V219.027Z"
                    fill="#6DB9DF"/>
                <path opacity="0.15"
                    d="M247.796 218.105C218.365 219.234 195.331 232.706 196.347 248.189C196.838 255.599 202.761 262.127 212.018 266.799C209.328 263.659 207.737 260.194 207.483 256.495C206.467 241.012 229.501 227.54 258.932 226.411C274.265 225.814 288.312 228.695 298.382 233.783C289.852 223.777 270.204 217.249 247.796 218.105Z"
                    fill="black"/>
                <path opacity="0.25"
                    d="M285.029 253.083C285.029 248.187 277.785 244.219 268.849 244.219C259.914 244.219 252.67 248.187 252.67 253.083C252.67 257.978 259.914 261.947 268.849 261.947C277.785 261.947 285.029 257.978 285.029 253.083Z"
                    fill="white"/>
                <path opacity="0.25"
                    d="M246.527 254.9C249.929 254.9 252.671 256.405 252.671 258.274C252.671 260.13 249.912 261.648 246.527 261.648C243.126 261.648 240.384 260.143 240.384 258.274C240.384 256.418 243.143 254.9 246.527 254.9Z"
                    fill="white"/>
                <path d="M105.988 143.962L132.001 149.101C136.249 149.945 140.107 146.934 138.923 143.689L131.713 123.846C130.528 120.601 125.214 119.55 122.134 121.951L103.331 136.655C100.268 139.069 101.74 143.118 105.988 143.962Z"
                    fill="#008DFF"/>
                <path opacity="0.15"
                    d="M117.785 146.286L105.989 143.963C101.741 143.12 100.252 139.07 103.332 136.656L111.862 129.999L117.785 146.286Z"
                    fill="black"/>
                <path d="M108.867 130.426L115.146 147.713C116.534 151.516 113.606 155.487 108.647 156.552L49.2942 169.231C44.3354 170.295 39.1566 168.05 37.7688 164.248L31.49 146.961C30.1022 143.158 33.0301 139.187 37.9889 138.122L97.3417 125.443C102.3 124.379 107.496 126.624 108.867 130.426Z"
                    fill="#5D00FF"/>
                <path d="M78.9779 162.885L108.646 156.552C113.605 155.487 116.532 151.516 115.145 147.713L108.866 130.426C107.478 126.624 102.299 124.379 97.3406 125.443L67.6726 131.776L78.9779 162.885Z"
                    fill="#008DFF"/>
                <path opacity="0.15"
                    d="M31.4909 146.948L37.7697 164.235C38.7851 167.051 41.8992 169.011 45.4532 169.4C45.2332 169.05 45.0471 168.673 44.9117 168.297L38.6328 151.01C37.2451 147.207 40.1729 143.236 45.1317 142.172L104.485 129.492C105.771 129.22 107.074 129.168 108.326 129.31C106.431 126.196 101.794 124.483 97.3425 125.43L37.9897 138.11C33.0479 139.161 30.12 143.145 31.4909 146.948Z"
                    fill="black"/>
                <path opacity="0.25"
                    d="M108.258 151.373C108.885 153.112 107.548 154.942 105.28 155.422L56.2675 165.883C53.9997 166.363 51.6134 165.338 50.9872 163.599C50.361 161.86 51.698 160.03 53.9658 159.549L102.978 149.089C105.246 148.596 107.615 149.634 108.258 151.373Z"
                    fill="white"/>
                <path d="M108.003 216.963L114.096 225.36C115.687 227.553 114.654 230.357 111.777 231.576L84.5462 243.192C81.686 244.412 78.0304 243.62 76.4396 241.414L70.3469 233.017C68.756 230.824 69.7884 228.02 72.6655 226.8L99.8964 215.185C102.757 213.965 106.412 214.77 108.003 216.963Z"
                    fill="#AE7CFF"/>
                <path opacity="0.15"
                    d="M70.3467 233.004L76.4394 241.414C77.641 243.075 80.0104 243.932 82.329 243.737C82.2274 243.62 82.1259 243.516 82.0413 243.386L75.9486 234.99C74.3577 232.796 75.3901 229.993 78.2672 228.773L105.498 217.157C106.209 216.859 106.97 216.677 107.732 216.612C106.023 214.679 102.604 214.03 99.8962 215.185L72.6653 226.8C69.7882 228.007 68.7389 230.811 70.3467 233.004Z"
                    fill="black"/>
                <path d="M85.8662 228.799L89.5726 233.913C90.0972 234.652 89.7587 235.574 88.7941 235.989C87.8463 236.391 86.6278 236.132 86.0862 235.392L82.3798 230.279C81.8552 229.539 82.1937 228.617 83.1583 228.202C84.1061 227.8 85.3246 228.072 85.8662 228.799Z"
                    fill="#67B6FF"/>
                <path d="M92.23 226.087L95.9363 231.201C96.461 231.928 96.1225 232.862 95.1578 233.277C94.1932 233.68 92.9916 233.42 92.45 232.68L88.7436 227.567C88.219 226.84 88.5574 225.906 89.5221 225.49C90.4868 225.088 91.7053 225.348 92.23 226.087Z"
                    fill="#67B6FF"/>
                <path d="M98.611 223.361L102.317 228.475C102.842 229.201 102.503 230.136 101.539 230.551C100.591 230.954 99.3725 230.694 98.831 229.954L95.1246 224.841C94.5999 224.114 94.9384 223.18 95.9031 222.764C96.8678 222.362 98.0863 222.634 98.611 223.361Z"
                    fill="#67B6FF"/>
                <path opacity="0.8"
                    d="M110.102 229.813C110.491 230.345 110.237 231.02 109.543 231.318L99.3382 235.627C98.6444 235.926 97.7643 235.731 97.375 235.199C96.9858 234.667 97.2396 233.992 97.9335 233.693L108.139 229.384C108.833 229.086 109.713 229.281 110.102 229.813Z"
                    fill="#BBE2FF"/>
                <path opacity="0.8"
                    d="M96.5283 235.548C96.9175 236.08 96.6637 236.755 95.9698 237.053L92.7881 238.403C92.0942 238.701 91.2141 238.507 90.8249 237.974C90.4356 237.442 90.6895 236.768 91.3834 236.469L94.5651 235.119C95.259 234.821 96.139 235.015 96.5283 235.548Z"
                    fill="#BBE2FF"/>
                <path d="M34.503 254.043C36.5508 254.796 38.4802 255.666 40.2403 256.652C42.2204 257.755 44.0144 258.975 45.6391 260.325C48.0931 262.376 50.124 264.673 51.681 267.152C53.4749 269.994 54.6258 273.07 55.0827 276.223C55.6581 280.156 55.1504 284.205 53.4411 288.124C52.9841 289.189 52.4256 290.24 51.7825 291.278C50.6994 293.017 49.4131 294.639 47.9577 296.132C46.1468 297.975 44.082 299.61 41.7973 301.025C38.514 303.049 34.8246 304.62 30.8813 305.671C27.4118 306.605 23.7393 307.137 20.016 307.228C17.5958 307.28 15.1418 307.163 12.6878 306.839C10.0138 306.489 7.35675 305.892 4.75044 305.061C4.24272 304.892 3.71807 304.723 3.21034 304.529C1.80564 304.01 0.451717 303.439 -0.834515 302.816C-3.05157 301.726 -5.06554 300.48 -6.87642 299.104C-8.39959 297.936 -9.78736 296.677 -11.0059 295.34C-12.7152 293.471 -14.103 291.46 -15.1692 289.344C-16.2016 287.281 -16.9293 285.113 -17.3017 282.894C-18.1817 277.742 -17.2001 272.343 -14.0692 267.294C-11.3275 262.882 -7.2826 259.261 -2.4423 256.6C-0.106778 255.302 2.41491 254.238 5.05507 253.408C7.76293 252.564 10.6062 251.967 13.5002 251.643C15.5819 251.396 17.6974 251.305 19.8298 251.344C22.3346 251.383 24.8563 251.643 27.3441 252.097C29.3242 252.46 31.3044 252.966 33.2337 253.602C33.6737 253.745 34.0799 253.888 34.503 254.043Z"
                    fill="#C3C11E"/>
                <path d="M51.6808 267.139C53.4748 269.981 54.6256 273.057 55.0826 276.21C52.527 283.128 49.3453 289.306 45.9943 294.73C44.6235 296.95 43.2018 299.052 41.7971 301.025C38.5139 303.049 34.8244 304.62 30.8811 305.671C38.3954 296.794 47.0436 283.777 51.6808 267.139Z"
                    fill="white"/>
                <path opacity="0.15"
                    d="M-14.0714 267.282C-18.8101 274.913 -18.607 283.375 -14.4945 290.539C-15.2222 285.542 -14.2068 280.351 -11.1943 275.471C-2.56297 261.532 19.1845 255.601 37.361 262.22C45.5861 265.218 51.6619 270.267 55.0636 276.198C53.7097 266.892 46.3138 258.327 34.4839 254.018C16.3074 247.412 -5.42314 253.343 -14.0714 267.282Z"
                    fill="black"/>
                <path d="M130.507 25.9939C127.028 -1.75299 94.8757 -22.0837 58.6927 -19.4161C22.5097 -16.7484 -4.00234 7.90741 -0.523623 35.6543C2.95509 63.4012 35.1072 83.7319 71.2902 81.0643C107.473 78.3966 133.985 53.7408 130.507 25.9939Z"
                    fill="#FFB1DB"/>
                <path opacity="0.1"
                    d="M8.13338 5.36739C-8.43532 27.1319 -1.36105 54.49 23.3481 69.9211C7.06716 54.1006 4.10544 31.6483 18.1524 13.1933C36.4812 -10.8814 76.7775 -18.9928 108.172 -4.93733C111.167 -3.58759 113.977 -2.09512 116.6 -0.459864C111.641 -5.27479 105.464 -9.47971 98.1527 -12.7632C66.7585 -26.8186 26.4622 -18.6943 8.13338 5.36739Z"
                    fill="black"/>
                <path d="M65.8771 31.5176C71.6652 51.4132 47.7684 67.5192 23.5161 70.2706C26.0717 71.8539 28.8134 73.3075 31.7412 74.6183C38.4262 77.6162 45.5174 79.5889 52.7102 80.6272C73.0699 69.6217 82.5135 47.5716 65.8771 31.5176Z"
                    fill="#FB67AE"/>
                <path d="M65.8792 31.519C90.6222 36.5156 98.5088 61.6285 89.2852 77.9161C98.9658 74.9701 107.783 70.246 114.841 63.9386C111.591 45.769 91.4684 27.1323 65.8792 31.519Z"
                    fill="#FB67AE"/>
                <path d="M65.8776 31.5186C46.0426 44.8732 12.8036 39.1368 -0.0417452 23.0178C-1.768 31.2071 -0.786406 39.5391 2.63226 47.2612C25.8183 55.8268 56.8232 49.7919 65.8776 31.5186Z"
                    fill="#FB67AE"/>
                <path opacity="0.25"
                    d="M107.68 50.6357C107.68 36.5512 92.791 25.1335 74.4243 25.1335C56.0576 25.1335 41.1685 36.5512 41.1685 50.6357C41.1685 64.7202 56.0576 76.1379 74.4243 76.1379C92.791 76.1379 107.68 64.7202 107.68 50.6357Z"
                    fill="white"/>
                <path d="M376.049 119.523L350.036 114.383C345.788 113.54 341.93 116.551 343.114 119.795L350.324 139.639C351.509 142.884 356.823 143.935 359.903 141.534L378.706 126.83C381.769 124.429 380.297 120.366 376.049 119.523Z"
                    fill="#5D00FF"/>
                <path opacity="0.15"
                    d="M364.254 117.2L376.05 119.523C380.298 120.366 381.771 124.416 378.707 126.83L370.178 133.487L364.254 117.2Z"
                    fill="black"/>
                <path d="M445.505 99.0705L451.784 116.358C453.172 120.16 450.244 124.131 445.285 125.196L385.932 137.875C380.974 138.94 375.795 136.694 374.407 132.892L368.128 115.605C366.741 111.802 369.668 107.831 374.627 106.767L433.98 94.0868C438.939 93.0226 444.118 95.2679 445.505 99.0705Z"
                    fill="#5D00FF"/>
                <path opacity="0.15"
                    d="M368.129 115.591L374.407 132.878C375.423 135.694 378.537 137.654 382.091 138.043C381.871 137.693 381.685 137.316 381.549 136.94L375.271 119.653C373.883 115.85 376.811 111.879 381.769 110.815L441.122 98.1352C442.408 97.8626 443.712 97.8107 444.964 97.9535C443.068 94.8387 438.431 93.1256 433.98 94.073L374.627 106.753C369.669 107.817 366.741 111.788 368.129 115.591Z"
                    fill="black"/>
                <path d="M340.792 159.679L349.661 171.905C351.979 175.11 350.473 179.185 346.293 180.963L306.657 197.861C302.476 199.639 297.162 198.484 294.844 195.278L285.975 183.053C283.657 179.847 285.163 175.772 289.343 173.994L328.979 157.096C333.16 155.305 338.474 156.473 340.792 159.679Z"
                    fill="#AE7CFF"/>
                <path opacity="0.15"
                    d="M285.993 183.027L294.861 195.252C296.604 197.666 300.057 198.912 303.424 198.627C303.272 198.458 303.137 198.302 303.018 198.121L294.15 185.895C291.831 182.689 293.338 178.614 297.518 176.836L337.154 159.939C338.187 159.497 339.287 159.238 340.404 159.147C337.916 156.331 332.957 155.383 328.997 157.07L289.36 173.968C285.18 175.746 283.657 179.821 285.993 183.027Z"
                    fill="black"/>
                <path d="M308.569 176.902L313.968 184.338C314.746 185.403 314.239 186.765 312.851 187.362C311.463 187.959 309.686 187.57 308.908 186.506L303.509 179.069C302.73 178.005 303.238 176.642 304.626 176.045C306.031 175.448 307.808 175.838 308.569 176.902Z"
                    fill="#67B6FF"/>
                <path d="M317.859 172.955L323.258 180.392C324.037 181.456 323.529 182.819 322.141 183.416C320.753 184.013 318.976 183.624 318.198 182.559L312.799 175.123C312.021 174.059 312.528 172.696 313.916 172.099C315.304 171.489 317.081 171.878 317.859 172.955Z"
                    fill="#67B6FF"/>
                <path d="M327.135 168.997L332.534 176.433C333.313 177.497 332.805 178.86 331.417 179.457C330.029 180.054 328.252 179.665 327.474 178.601L322.075 171.164C321.297 170.1 321.804 168.737 323.192 168.14C324.58 167.543 326.357 167.932 327.135 168.997Z"
                    fill="#67B6FF"/>
                <path opacity="0.8"
                    d="M343.857 178.38C344.415 179.159 344.043 180.132 343.027 180.561L328.168 186.842C327.152 187.27 325.883 186.985 325.325 186.206C324.766 185.428 325.138 184.454 326.154 184.026L341.013 177.744C342.012 177.316 343.298 177.602 343.857 178.38Z"
                    fill="#BBE2FF"/>
                <path opacity="0.8"
                    d="M324.107 186.726C324.666 187.504 324.293 188.478 323.278 188.906L318.641 190.866C317.625 191.294 316.356 191.008 315.797 190.23C315.239 189.451 315.611 188.478 316.627 188.049L321.264 186.09C322.262 185.661 323.549 185.947 324.107 186.726Z"
                    fill="#BBE2FF"/>
                <path d="M205.35 147.622C207.499 145.13 210.004 142.976 212.695 141.211C214.895 139.758 217.247 138.576 219.634 137.694C225.286 135.579 231.142 135.111 235.999 136.682C236.829 136.954 237.641 137.279 238.419 137.668C243.7 140.342 246.171 145.338 245.765 151.036C245.477 155.098 243.717 159.51 240.467 163.663C240.146 164.079 239.807 164.494 239.469 164.896C236.406 168.439 232.648 171.295 228.637 173.319C221.089 177.122 212.678 177.965 206.518 174.929L206.382 174.864C204.453 173.89 202.913 172.605 201.745 171.1C199.257 167.894 198.462 163.676 199.376 159.173C199.934 156.37 201.153 153.476 203.048 150.646C203.742 149.621 204.504 148.622 205.35 147.622Z"
                    fill="#FFDEC3"/>
                <path opacity="0.1"
                    d="M206.418 174.877C210.175 176.785 214.778 177.213 219.534 176.395C217.486 176.123 215.54 175.552 213.78 174.669C204.353 169.893 203.896 157.707 212.747 147.428C218.061 141.25 225.542 137.175 232.718 135.955C223.731 134.774 212.595 139.278 205.385 147.636C196.534 157.914 196.991 170.114 206.418 174.877Z"
                    fill="black"/>
                <path d="M208.361 170.023C211.746 166.091 218.651 165.001 223.796 167.609C226.487 168.972 228.145 171.075 228.636 173.333C221.088 177.135 212.677 177.979 206.516 174.942C206.465 173.255 207.058 171.542 208.361 170.023Z"
                    fill="#DFBCA7"/>
                <path d="M209.699 153.527C212.39 150.413 217.856 149.556 221.918 151.607C225.98 153.67 227.097 157.862 224.423 160.977C221.732 164.092 216.265 164.948 212.203 162.898C208.142 160.847 207.008 156.642 209.699 153.527Z"
                    fill="#DFBCA7"/>
                <path d="M199.376 159.173C200.103 159.355 200.814 159.615 201.474 159.952C205.536 162.016 206.653 166.208 203.962 169.322C203.353 170.036 202.574 170.633 201.728 171.1C199.257 167.895 198.462 163.664 199.376 159.173Z"
                    fill="#DFBCA7"/>
                <path d="M234.122 153.215C236.677 150.256 241.772 149.334 245.766 151.035C245.478 155.097 243.718 159.509 240.468 163.662C239.131 163.546 237.811 163.195 236.627 162.585C232.565 160.535 231.448 156.343 234.122 153.215Z"
                    fill="#DFBCA7"/>
                <path d="M219.634 137.694C225.287 135.579 231.143 135.112 236 136.682C237.32 138.758 237.201 141.302 235.424 143.366C232.733 146.48 227.267 147.337 223.188 145.286C219.888 143.599 218.534 140.485 219.634 137.694Z"
                    fill="#DFBCA7"/>
                <path d="M205.351 147.622C207.5 145.131 210.005 142.976 212.696 141.211C213.898 143.249 213.745 145.702 212.019 147.713C210.005 150.049 206.417 151.113 203.049 150.633C203.743 149.621 204.505 148.622 205.351 147.622Z"
                    fill="#DFBCA7"/>
                <path opacity="0.25"
                    d="M238.183 150.322L238.487 150.477C239.892 151.191 240.298 152.658 239.35 153.748L224.846 170.581C223.916 171.658 222.003 171.969 220.582 171.242L220.277 171.087C218.872 170.373 218.466 168.906 219.414 167.816L233.918 150.983C234.866 149.906 236.778 149.595 238.183 150.322Z"
                    fill="white"/>
                <path d="M169.912 41.6563C169.049 40.644 167.305 40.3325 165.952 40.9685C164.598 41.6044 164.191 42.9541 164.987 43.9924L163.057 44.9139C162.161 44.0314 160.536 43.7847 159.266 44.3947C157.997 44.9917 157.557 46.2246 158.183 47.237L156.22 48.1714C155.323 47.2889 153.698 47.0423 152.429 47.6523C151.16 48.2493 150.72 49.4822 151.346 50.4945L149.417 51.4159C148.57 50.4036 146.81 50.0922 145.456 50.7281C144.102 51.364 143.679 52.7138 144.492 53.752L145.795 55.3613C150.127 60.7213 159.385 62.3955 166.392 59.0731C173.381 55.7507 175.564 48.6516 171.232 43.2786L169.912 41.6563Z"
                    fill="#FDCFCA"/>
                <path opacity="0.15"
                    d="M173.382 48.1831C173.907 52.4011 171.368 56.6839 166.375 59.0589C161.383 61.4209 155.239 61.2522 150.568 59.02L173.382 48.1831Z"
                    fill="black"/>
                <path d="M200.105 122.626C200.968 123.639 202.711 123.95 204.065 123.314C205.419 122.678 205.825 121.329 205.029 120.29L206.959 119.369C207.856 120.251 209.481 120.498 210.75 119.888C212.019 119.291 212.459 118.058 211.833 117.046L213.796 116.111C214.693 116.994 216.318 117.24 217.587 116.63C218.856 116.033 219.297 114.801 218.67 113.788L220.6 112.867C221.446 113.879 223.206 114.191 224.56 113.555C225.914 112.919 226.337 111.569 225.525 110.531L224.221 108.921C219.889 103.561 210.631 101.887 203.625 105.21C196.635 108.532 194.452 115.631 198.785 121.004L200.105 122.626Z"
                    fill="#FDCFCA"/>
                <path opacity="0.15"
                    d="M196.651 116.098C196.127 111.88 198.665 107.598 203.658 105.223C208.651 102.861 214.794 103.029 219.465 105.262L196.651 116.098Z"
                    fill="black"/>
                <path d="M186.733 53.3376L219.43 93.8556C219.464 93.9075 219.515 93.9594 219.549 94.0113C222.121 97.3727 220.717 101.759 216.384 103.823L196.312 113.349C195.347 113.803 194.349 114.102 193.3 114.27C189.509 114.88 185.464 113.647 183.314 111L150.617 70.4818C147.892 67.0945 149.263 62.617 153.68 60.5145L173.752 50.9885C176.24 49.8075 179.185 49.6258 181.774 50.3007C183.754 50.8198 185.548 51.858 186.733 53.3376Z"
                    fill="#865868"/>
                <path d="M186.734 53.3366L189.222 56.4124L158.437 80.1626L152.531 72.8559L181.759 50.2997C183.756 50.8188 185.55 51.8571 186.734 53.3366Z"
                    fill="#FDCFCA"/>
                <path d="M193.436 61.6297L199.325 68.9365L168.557 92.6996L162.651 85.3799L193.436 61.6297Z"
                    fill="#FDCFCA"/>
                <path d="M203.557 74.1678L209.446 81.4616L178.661 105.225L172.772 97.918L203.557 74.1678Z"
                    fill="#FDCFCA"/>
                <path d="M213.66 86.6899L219.431 93.8539C219.465 93.9058 219.516 93.9577 219.549 94.0096L193.3 114.269C189.509 114.879 185.464 113.646 183.315 110.998L182.875 110.453L213.66 86.6899Z"
                    fill="#FDCFCA"/>
                <path opacity="0.15"
                    d="M181.876 50.4303C179.287 49.7554 176.342 49.9371 173.854 51.1181L153.782 60.6442C150.618 62.1496 149.027 64.875 149.382 67.5485C149.975 67.0294 150.668 66.5752 151.464 66.1988L171.536 56.6728C174.024 55.4918 176.969 55.3101 179.558 55.985C181.555 56.5041 183.332 57.5424 184.534 59.0219L217.231 99.5399C217.265 99.5918 217.316 99.6437 217.349 99.6957C218.06 100.617 218.449 101.603 218.585 102.603C221.225 100.319 221.784 96.8924 219.668 94.141C219.634 94.0891 219.6 94.0372 219.55 93.9852L186.852 53.4672C185.651 51.9877 183.857 50.9494 181.876 50.4303Z"
                    fill="black"/>
                <path opacity="0.25"
                    d="M176.716 86.1058C173.788 87.4944 169.912 86.7936 168.085 84.5484L159.589 74.023C157.778 71.7778 158.692 68.8058 161.62 67.4041C164.547 66.0154 168.423 66.7163 170.251 68.9615L178.747 79.4869C180.558 81.7451 179.644 84.7171 176.716 86.1058Z"
                    fill="white"/>
                <path opacity="0.25"
                    d="M184.973 96.3332C182.045 97.7218 178.17 97.021 176.342 94.7758L175.394 93.6077C173.583 91.3625 174.497 88.3905 177.425 86.9888C180.353 85.6002 184.228 86.301 186.056 88.5462L187.004 89.7143C188.815 91.9725 187.901 94.9445 184.973 96.3332Z"
                    fill="white"/>
                <path d="M325.916 83.6507L305.218 101.197C301.833 104.065 295.656 103.053 294.115 99.3673L293.692 98.381L288.937 87.051L284.638 76.8371C284.384 76.2271 284.283 75.6302 284.316 75.0461C284.316 74.9293 284.333 74.8125 284.35 74.6957C284.401 74.3453 284.503 74.0208 284.655 73.6964C284.841 73.2811 285.095 72.8787 285.416 72.5024C285.416 72.4894 285.416 72.5024 285.416 72.5024C286.026 71.8016 286.855 71.2305 287.82 70.8412C288.75 70.4648 289.817 70.2442 290.951 70.2701C291.103 70.2701 291.238 70.2831 291.391 70.2831C291.678 70.2961 291.966 70.335 292.254 70.374L305.928 72.6322L321.092 75.124L322.429 75.3446C327.354 76.1752 329.301 80.7825 325.916 83.6507Z"
                    fill="#AE98FF"/>
                <path opacity="0.15"
                    d="M288.937 87.051L284.638 76.8501C283.081 73.1643 287.312 69.5823 292.254 70.387L305.929 72.6452L288.937 87.051Z"
                    fill="black"/>
                <path d="M325.915 83.6507L305.217 101.197C301.832 104.066 295.655 103.053 294.115 99.3674L293.692 98.381L321.092 75.137L322.429 75.3577C327.354 76.1753 329.3 80.7825 325.915 83.6507Z"
                    fill="#6857DF"/>
                <path d="M284.032 40.0427C285.826 41.5871 287.434 43.1964 288.889 44.8187C291.292 47.5441 293.205 50.3345 294.61 53.1378C298.993 61.911 298.265 70.6064 291.546 76.3169C284.32 82.4556 271.897 83.6366 259.103 80.3661C255.329 79.4057 251.521 78.0559 247.814 76.3169C245.597 75.2786 243.397 74.1106 241.282 72.8128C240.232 72.1768 239.2 71.5019 238.185 70.8011C236.255 69.4643 234.444 68.0497 232.82 66.6092C231.043 65.0518 229.435 63.4295 228.013 61.7942C225.627 59.0428 223.765 56.2136 222.411 53.3973C218.282 44.7797 219.077 36.266 225.695 30.6594C232.82 24.6116 244.971 23.3786 257.546 26.4675C261.337 27.4019 265.179 28.7257 268.936 30.4388C271.17 31.4641 273.37 32.6062 275.519 33.904C276.721 34.6178 277.906 35.3835 279.056 36.1882C280.833 37.4081 282.492 38.706 284.032 40.0427Z"
                    fill="#AE98FF"/>
                <path d="M268.918 30.4256L228.012 61.7939C225.626 59.0425 223.764 56.2133 222.41 53.397L257.545 26.4542C261.336 27.3886 265.178 28.7124 268.918 30.4256Z"
                    fill="#6857DF"/>
                <path d="M284.031 40.043L241.28 72.8259C240.231 72.19 239.199 71.5152 238.183 70.8143C236.254 69.4776 234.443 68.0629 232.818 66.6223L275.484 33.9042C276.686 34.618 277.87 35.3838 279.021 36.1884C280.832 37.4084 282.491 38.7062 284.031 40.043Z"
                    fill="#6857DF"/>
                <path d="M288.887 44.8184C291.29 47.5439 293.203 50.3342 294.607 53.1375L259.101 80.3658C255.327 79.4054 251.519 78.0557 247.812 76.3166L288.887 44.8184Z"
                    fill="#6857DF"/>
                <path opacity="0.15"
                    d="M278.987 36.1361C260.811 23.5342 236.914 21.0554 225.642 30.6204C220.244 35.2017 218.72 41.7038 220.582 48.6342C221.411 45.5843 223.121 42.8199 225.829 40.5357C237.1 30.9708 260.98 33.4366 279.173 46.0515C288.651 52.6184 294.693 60.652 296.724 68.1794C299.381 58.4457 292.831 45.74 278.987 36.1361Z"
                    fill="black"/>
                <path opacity="0.25"
                    d="M261.301 55.5476C253.595 49.638 244.492 47.0372 240.969 49.7386C237.446 52.44 240.838 59.4206 248.544 65.3302C256.251 71.2398 265.354 73.8405 268.876 71.1392C272.399 68.4378 269.007 61.4572 261.301 55.5476Z"
                    fill="white"/>
            </g>
        </g>
        <g filter="url(#filter2_i_16_3)">
            <circle r="65.5"
                transform="matrix(-1 0 0 1 279.51 157.5)"
                fill="black"
                fill-opacity="0.06"/>
        </g>
        <g filter="url(#filter3_i_16_3)">
            <circle r="65.5"
                transform="matrix(-1 0 0 1 144.5 157.5)"
                fill="black"
                fill-opacity="0.06"/>
        </g>
    </g>
    <defs>
        <filter id="filter0_d_16_3"
            x="0"
            y="0"
            width="426"
            height="323"
            filterUnits="userSpaceOnUse"
            color-interpolation-filters="sRGB">
            <feFlood flood-opacity="0"
                result="BackgroundImageFix"/>
            <feColorMatrix in="SourceAlpha"
                type="matrix"
                values="0 0 0 0 0 0 0 0 0 0 0 0 0 0 0 0 0 0 127 0"
                result="hardAlpha"/>
            <feOffset dy="4"/>
            <feGaussianBlur stdDeviation="25"/>
            <feComposite in2="hardAlpha"
                operator="out"/>
            <feColorMatrix type="matrix"
                values="0 0 0 0 0 0 0 0 0 0 0 0 0 0 0 0 0 0 0.25 0"/>
            <feBlend mode="normal"
                in2="BackgroundImageFix"
                result="effect1_dropShadow_16_3"/>
            <feBlend mode="normal"
                in="SourceGraphic"
                in2="effect1_dropShadow_16_3"
                result="shape"/>
        </filter>
        <filter id="filter1_d_16_3"
            x="48"
            y="47"
            width="332"
            height="230"
            filterUnits="userSpaceOnUse"
            color-interpolation-filters="sRGB">
            <feFlood flood-opacity="0"
                result="BackgroundImageFix"/>
            <feColorMatrix in="SourceAlpha"
                type="matrix"
                values="0 0 0 0 0 0 0 0 0 0 0 0 0 0 0 0 0 0 127 0"
                result="hardAlpha"/>
            <feOffset dy="4"/>
            <feGaussianBlur stdDeviation="2"/>
            <feComposite in2="hardAlpha"
                operator="out"/>
            <feColorMatrix type="matrix"
                values="0 0 0 0 0 0 0 0 0 0 0 0 0 0 0 0 0 0 0.25 0"/>
            <feBlend mode="normal"
                in2="BackgroundImageFix"
                result="effect1_dropShadow_16_3"/>
            <feBlend mode="normal"
                in="SourceGraphic"
                in2="effect1_dropShadow_16_3"
                result="shape"/>
        </filter>
        <filter id="filter2_i_16_3"
            x="214.01"
            y="92"
            width="131"
            height="135"
            filterUnits="userSpaceOnUse"
            color-interpolation-filters="sRGB">
            <feFlood flood-opacity="0"
                result="BackgroundImageFix"/>
            <feBlend mode="normal"
                in="SourceGraphic"
                in2="BackgroundImageFix"
                result="shape"/>
            <feColorMatrix in="SourceAlpha"
                type="matrix"
                values="0 0 0 0 0 0 0 0 0 0 0 0 0 0 0 0 0 0 127 0"
                result="hardAlpha"/>
            <feOffset dy="4"/>
            <feGaussianBlur stdDeviation="12.5"/>
            <feComposite in2="hardAlpha"
                operator="arithmetic"
                k2="-1"
                k3="1"/>
            <feColorMatrix type="matrix"
                values="0 0 0 0 0 0 0 0 0 0 0 0 0 0 0 0 0 0 0.25 0"/>
            <feBlend mode="normal"
                in2="shape"
                result="effect1_innerShadow_16_3"/>
        </filter>
        <filter id="filter3_i_16_3"
            x="79"
            y="92"
            width="131"
            height="135"
            filterUnits="userSpaceOnUse"
            color-interpolation-filters="sRGB">
            <feFlood flood-opacity="0"
                result="BackgroundImageFix"/>
            <feBlend mode="normal"
                in="SourceGraphic"
                in2="BackgroundImageFix"
                result="shape"/>
            <feColorMatrix in="SourceAlpha"
                type="matrix"
                values="0 0 0 0 0 0 0 0 0 0 0 0 0 0 0 0 0 0 127 0"
                result="hardAlpha"/>
            <feOffset dy="4"/>
            <feGaussianBlur stdDeviation="12.5"/>
            <feComposite in2="hardAlpha"
                operator="arithmetic"
                k2="-1"
                k3="1"/>
            <feColorMatrix type="matrix"
                values="0 0 0 0 0 0 0 0 0 0 0 0 0 0 0 0 0 0 0.25 0"/>
            <feBlend mode="normal"
                in2="shape"
                result="effect1_innerShadow_16_3"/>
        </filter>
        <radialGradient id="paint0_radial_16_3"
            cx="0"
            cy="0"
            r="1"
            gradientUnits="userSpaceOnUse"
            gradientTransform="translate(162 120.5) rotate(89.4866) scale(530.521 774.677)">
            <stop stop-color="#FAF9F9"/>
            <stop offset="1"
                stop-color="#C09F9B"/>
        </radialGradient>
        <radialGradient id="paint1_radial_16_3"
            cx="0"
            cy="0"
            r="1"
            gradientUnits="userSpaceOnUse"
            gradientTransform="translate(149.932 102.359) rotate(31.412) scale(194.747 1625.27)">
            <stop stop-color="#F2E6FA"/>
            <stop offset="1"
                stop-color="#9C9A67"
                stop-opacity="0"/>
        </radialGradient>
    </defs>
</svg>
