<svg width="655"
    height="231"
    viewBox="0 0 655 231"
    fill="none"
    xmlns="http://www.w3.org/2000/svg">
    <g filter="url(#filter0_d_16_4)">
        <rect width="647"
            height="222"
            rx="50"
            transform="matrix(-1 0 0 1 651 1)"
            fill="url(#paint0_radial_16_4)"/>
        <rect x="-7.5"
            y="7.5"
            width="632"
            height="207"
            rx="42.5"
            transform="matrix(-1 0 0 1 636 1)"
            stroke="url(#paint1_radial_16_4)"
            stroke-width="15"/>
    </g>
    <g opacity="0.12">
        <mask id="mask0_16_4"
            style="mask-type:alpha"
            maskUnits="userSpaceOnUse"
            x="2"
            y="0"
            width="649"
            height="223">
            <rect width="649"
                height="223"
                rx="50"
                transform="matrix(-1 0 0 1 651 0)"
                fill="#D9D9D9"/>
        </mask>
        <g mask="url(#mask0_16_4)">
            <path opacity="0.25"
                d="M647.524 73.9791C643.343 75.835 640.737 78.9887 640.009 82.402C639.434 85.0495 640.009 87.8398 641.888 90.3316L658.304 111.979C662.603 117.651 672.165 119.585 679.561 116.288L749.728 84.9846C757.124 81.6881 759.646 74.3554 755.347 68.6839L738.931 47.0363C738.694 46.7118 738.423 46.4003 738.135 46.1018C738.152 46.1018 738.169 46.1018 738.169 46.1018C733.583 41.1312 724.664 39.5608 717.674 42.6885L647.524 73.9791Z"
                fill="#B4D0D8"/>
            <path opacity="0.25"
                d="M209.055 167.188C208.801 167.188 208.547 167.188 208.311 167.188C207.583 167.201 206.872 167.214 206.144 167.253C201.812 167.421 197.615 167.863 193.62 168.524C193.587 168.524 193.553 168.537 193.519 168.537C174.852 171.678 160.466 179.919 156.066 189.926L150.413 187.706L148.484 186.954L131.881 180.425L130.443 179.854C125.044 177.739 118.681 180.893 118.985 185.539L120.847 213.948C121.151 218.607 127.904 221.255 133.015 218.724L134.386 218.049L150.041 210.288L158.164 206.265C160.889 209.977 165.086 213.26 170.401 215.934C170.384 215.921 170.367 215.895 170.367 215.882C172.482 216.959 174.767 217.933 177.221 218.789C181.503 220.308 186.225 221.489 191.285 222.267C194.314 222.735 197.479 223.059 200.712 223.228C203.707 223.383 206.787 223.409 209.935 223.293C211.577 223.228 213.202 223.137 214.792 222.981C218.025 222.709 221.19 222.267 224.219 221.696C229.28 220.749 234.018 219.425 238.283 217.777C249.487 213.481 257.526 207.07 260.318 199.802L268.967 203.189L271.082 204.02L287.685 210.548L289.123 211.119C294.522 213.234 300.885 210.081 300.581 205.435L298.719 177.025C298.414 172.366 291.662 169.718 286.551 172.249L285.18 172.924L269.525 180.685L258.998 185.902C255.41 179.867 248.015 174.819 238.266 171.484C236.743 170.964 235.135 170.497 233.511 170.069C233.341 170.03 233.172 169.978 233.003 169.939C232.089 169.705 231.175 169.485 230.227 169.277C229.889 169.199 229.533 169.121 229.178 169.057C228.383 168.888 227.587 168.732 226.775 168.589C226.284 168.498 225.81 168.421 225.319 168.343C224.947 168.278 224.575 168.213 224.202 168.148C223.068 167.979 221.918 167.85 220.767 167.72C220.564 167.694 220.377 167.681 220.174 167.655C219.751 167.616 219.328 167.577 218.905 167.538C218.55 167.512 218.194 167.473 217.839 167.447C217.5 167.421 217.162 167.395 216.823 167.369C216.265 167.33 215.706 167.305 215.131 167.266C215.012 167.266 214.894 167.253 214.776 167.24C214.742 167.24 214.708 167.24 214.674 167.24C214.183 167.214 213.675 167.201 213.185 167.188C212.982 167.188 212.779 167.175 212.575 167.162C212.135 167.149 211.678 167.149 211.221 167.136C210.968 167.136 210.714 167.123 210.443 167.123C209.969 167.175 209.512 167.175 209.055 167.188Z"
                fill="#B4D0D8"/>
            <path opacity="0.25"
                d="M-4.64646 111.278L-3.88488 113.367C-3.76641 113.679 -3.61409 113.977 -3.46178 114.276C-3.42793 114.354 -3.37716 114.418 -3.32639 114.496C-3.15714 114.769 -2.97098 115.041 -2.76789 115.288C-2.76789 115.301 -2.75097 115.314 -2.75097 115.314C-2.53095 115.573 -2.27709 115.82 -2.02323 116.067C-1.97246 116.119 -1.90476 116.17 -1.85398 116.222C-1.5832 116.443 -1.31242 116.664 -1.02471 116.858L-1.00778 116.871C-0.686221 117.079 -0.36467 117.261 -0.00926337 117.442C0.0415089 117.468 0.0922815 117.494 0.143054 117.52C0.853866 117.858 1.61545 118.13 2.41088 118.312C2.44473 118.325 2.4955 118.325 2.52935 118.338C2.93553 118.429 3.34171 118.494 3.76482 118.546C5.0172 118.688 6.32035 118.636 7.60658 118.364L66.9594 105.684C68.8211 105.282 70.395 104.477 71.5628 103.426C72.1551 102.894 72.629 102.31 73.0013 101.674C73.8475 100.207 74.0845 98.5071 73.4752 96.8459L72.7136 94.7694L90.3316 98.2475C94.5796 99.0911 98.4382 96.0802 97.2536 92.8356L90.0439 72.9919C88.8592 69.7473 83.545 68.6961 80.4649 71.0971L67.7379 81.0514L67.1963 79.5589C67.0609 79.1695 66.8579 78.8061 66.6548 78.4557C66.5363 78.261 66.4178 78.0794 66.2655 77.8977C66.2655 77.8977 66.2655 77.8847 66.2486 77.8847C66.1132 77.703 65.9609 77.5343 65.8086 77.3656C65.8086 77.3656 65.8086 77.3526 65.7917 77.3526C65.5209 77.0541 65.2162 76.7686 64.8947 76.509C64.1162 75.899 63.2023 75.4059 62.2037 75.0295C62.1699 75.0165 62.1191 75.0035 62.0853 74.9776C61.916 74.9127 61.7299 74.8608 61.5606 74.8088C61.476 74.7829 61.3745 74.7569 61.2898 74.731C61.2391 74.718 61.1883 74.692 61.1206 74.6791C61.0191 74.6531 60.9175 74.6401 60.799 74.6142C60.6806 74.5882 60.5621 74.5623 60.4436 74.5363C60.3759 74.5233 60.3082 74.5104 60.2405 74.4974C60.1559 74.4844 60.0713 74.4714 59.9867 74.4584C59.8513 74.4325 59.7159 74.4195 59.5805 74.4065C59.4451 74.3935 59.2928 74.3806 59.1574 74.3676C59.0051 74.3546 58.8528 74.3416 58.7004 74.3416C58.6158 74.3416 58.5312 74.3287 58.4466 74.3287C58.3958 74.3287 58.345 74.3287 58.3112 74.3287C58.1419 74.3287 57.9727 74.3287 57.8035 74.3416C57.685 74.3416 57.5665 74.3416 57.4311 74.3546C57.245 74.3676 57.0419 74.3806 56.8557 74.4065C56.7542 74.4195 56.6526 74.4195 56.5511 74.4325C56.2634 74.4714 55.9587 74.5233 55.671 74.5882L26.0031 80.9216L-3.66487 87.255C-5.22189 87.5924 -6.55889 88.2024 -7.64203 89.007C-8.72517 89.8117 -9.53753 90.811 -10.0114 91.9012C-10.5868 93.212 -10.6714 94.6655 -10.1468 96.0931L-9.21597 98.6498L-28.2387 94.8992C-32.4866 94.0556 -36.3453 97.0665 -35.1606 100.311L-27.951 120.155C-26.7663 123.399 -21.4521 124.451 -18.3719 122.05L-4.64646 111.278Z"
                fill="#B4D0D8"/>
            <path opacity="0.25"
                d="M70.1068 180.737C72.967 179.517 74.0163 176.713 72.4254 174.52L66.3327 166.123C66.2481 165.993 66.1465 165.877 66.045 165.76H66.0619C66.0112 165.708 65.9435 165.656 65.8927 165.604C65.7742 165.487 65.6558 165.37 65.5204 165.267C65.368 165.15 65.2327 165.033 65.0634 164.929C64.9449 164.851 64.8434 164.786 64.7249 164.709C64.488 164.579 64.251 164.462 63.9972 164.358C63.9295 164.332 63.8618 164.293 63.7941 164.267C62.9479 163.943 62.0171 163.774 61.0693 163.774C61.0355 163.774 61.0016 163.774 60.9678 163.774C60.6293 163.774 60.2908 163.8 59.9693 163.852C59.9016 163.865 59.8339 163.878 59.7492 163.891C59.4615 163.943 59.1738 164.008 58.903 164.099C58.8015 164.124 58.6999 164.163 58.5815 164.202C58.463 164.241 58.3276 164.28 58.2091 164.332L30.9783 175.948C29.3536 176.635 28.3212 177.829 28.0166 179.14C27.7796 180.153 27.9658 181.23 28.6597 182.19L34.7523 190.587C36.3432 192.78 39.9988 193.585 42.859 192.365L70.1068 180.737Z"
                fill="#B4D0D8"/>
            <path opacity="0.25"
                d="M64.6579 261.54C66.0457 259.295 64.7933 256.582 61.8655 255.518L11.7701 237.271C13.4795 233.351 13.9872 229.289 13.4118 225.369C13.1579 223.63 12.684 221.917 12.024 220.256V220.243C11.4824 218.893 10.8224 217.583 10.0269 216.311C9.90846 216.142 9.79 215.973 9.67153 215.792C9.50229 215.532 9.31612 215.272 9.12996 215.013C8.92687 214.727 8.72378 214.442 8.50377 214.156C8.28375 213.871 8.04681 213.598 7.8268 213.326C7.60679 213.066 7.4037 212.807 7.16676 212.56C6.87905 212.236 6.57442 211.937 6.26979 211.626C5.999 211.353 5.74514 211.093 5.47435 210.834C5.03432 210.432 4.5943 210.029 4.13735 209.627C4.08657 209.588 4.0358 209.536 3.98503 209.497C3.545 209.121 3.07113 208.77 2.59725 208.407C2.58033 208.394 2.54648 208.368 2.52955 208.355C2.05568 208.005 1.54796 207.654 1.04024 207.317C0.904845 207.226 0.752528 207.135 0.617135 207.044C0.194033 206.772 -0.245995 206.512 -0.686021 206.253C-0.838338 206.162 -0.973735 206.071 -1.12605 205.993C-1.21067 205.941 -1.31222 205.889 -1.39684 205.837C-1.88764 205.565 -2.37843 205.305 -2.88615 205.059C-2.93693 205.033 -3.00462 205.007 -3.07232 204.968C-3.61389 204.695 -4.17239 204.436 -4.74781 204.189C-4.90013 204.124 -5.05244 204.059 -5.20476 203.994C-5.84788 203.722 -6.49099 203.462 -7.15103 203.229C-7.16795 203.229 -7.18488 203.216 -7.18488 203.216C-7.59106 203.073 -7.98031 202.93 -8.38649 202.8C-8.42033 202.787 -8.47111 202.774 -8.50495 202.761C-8.79266 202.671 -9.08038 202.58 -9.38501 202.489C-9.67272 202.398 -9.96043 202.32 -10.2481 202.229C-10.4682 202.164 -10.6882 202.112 -10.9082 202.048C-11.2467 201.957 -11.6021 201.866 -11.9406 201.788C-12.1436 201.736 -12.3467 201.684 -12.5498 201.645C-12.9052 201.567 -13.2776 201.49 -13.6499 201.412C-13.836 201.373 -14.0222 201.334 -14.2084 201.295C-14.2422 201.295 -14.2592 201.282 -14.293 201.282C-14.4453 201.256 -14.5976 201.23 -14.7669 201.204C-15.19 201.126 -15.63 201.061 -16.0531 200.996C-16.2731 200.97 -16.4931 200.944 -16.7131 200.906C-17.1024 200.854 -17.4917 200.802 -17.8809 200.763C-18.1009 200.737 -18.3209 200.724 -18.5579 200.698C-18.9641 200.659 -19.3702 200.633 -19.7764 200.607C-19.9456 200.594 -20.098 200.594 -20.2672 200.581C-20.7749 200.555 -21.2827 200.529 -21.7904 200.529C-21.8073 200.529 -21.8242 200.529 -21.8242 200.529C-21.8581 200.529 -21.8919 200.529 -21.9258 200.529C-22.3996 200.516 -22.8904 200.516 -23.3643 200.516C-23.4659 200.516 -23.5505 200.516 -23.652 200.516C-24.0921 200.529 -24.549 200.529 -24.989 200.555C-25.0737 200.555 -25.1413 200.568 -25.226 200.568C-26.9184 200.659 -28.6108 200.828 -30.2694 201.1C-30.354 201.113 -30.4217 201.126 -30.5063 201.139C-31.0817 201.23 -31.6402 201.334 -32.1987 201.451C-32.3849 201.49 -32.588 201.528 -32.7741 201.58C-33.2141 201.671 -33.6542 201.775 -34.0773 201.892C-34.3311 201.957 -34.5681 202.009 -34.805 202.074C-35.1266 202.164 -35.4651 202.255 -35.7866 202.359C-36.0574 202.437 -36.3282 202.502 -36.599 202.593C-36.9544 202.709 -37.2929 202.826 -37.6483 202.956C-37.8683 203.034 -38.1052 203.112 -38.3252 203.19C-38.6129 203.294 -38.8837 203.397 -39.1714 203.514C-39.493 203.644 -39.8145 203.761 -40.1361 203.891C-40.373 203.994 -40.61 204.098 -40.8638 204.202C-41.2362 204.371 -41.6085 204.539 -41.9808 204.708C-42.167 204.799 -42.3362 204.877 -42.5224 204.968C-43.6902 205.539 -44.8072 206.162 -45.8734 206.824C-45.8903 206.837 -45.9241 206.85 -45.9411 206.876C-46.4488 207.2 -46.9396 207.524 -47.4304 207.862C-47.5489 207.953 -47.6673 208.031 -47.7858 208.121C-48.192 208.407 -48.5812 208.705 -48.9705 209.017C-49.089 209.108 -49.2074 209.199 -49.3259 209.289C-49.7828 209.666 -50.2398 210.042 -50.6798 210.445C-50.6967 210.458 -50.7137 210.47 -50.7306 210.496C-51.1875 210.925 -51.6445 211.353 -52.0845 211.807C-52.1691 211.885 -52.2368 211.976 -52.3215 212.054C-52.6599 212.417 -52.9984 212.781 -53.32 213.157C-53.4215 213.274 -53.5231 213.404 -53.6246 213.533C-53.9293 213.897 -54.217 214.273 -54.5047 214.662C-54.5893 214.766 -54.657 214.87 -54.7416 214.974C-55.097 215.467 -55.4355 215.973 -55.7571 216.492C-56.1125 217.076 -56.434 217.66 -56.7387 218.257C-56.8063 218.387 -56.874 218.53 -56.9417 218.66C-57.1787 219.127 -57.3818 219.607 -57.5849 220.074C-57.6526 220.217 -57.7033 220.36 -57.771 220.503C-57.991 221.087 -58.211 221.671 -58.3803 222.268V222.281C-58.5665 222.878 -58.7018 223.488 -58.8372 224.085C-58.8711 224.24 -58.9049 224.409 -58.9219 224.565C-59.0065 225.006 -59.0742 225.447 -59.1249 225.889C-59.1419 226.07 -59.1757 226.252 -59.1926 226.447C-59.2434 226.94 -59.2603 227.433 -59.2773 227.926C-59.2773 228.03 -59.2942 228.134 -59.2942 228.238C-59.2942 228.822 -59.2773 229.393 -59.2434 229.977C-59.2265 230.158 -59.2096 230.34 -59.1926 230.522C-59.1588 230.937 -59.108 231.352 -59.0403 231.768C-59.0234 231.872 -59.0234 231.988 -59.0065 232.092C-58.9896 232.196 -58.9557 232.3 -58.9388 232.404C-58.888 232.676 -58.8203 232.949 -58.7695 233.221C-58.7188 233.481 -58.6511 233.74 -58.5834 234C-58.5326 234.221 -58.4649 234.441 -58.3972 234.662C-58.3126 234.96 -58.228 235.259 -58.1264 235.557C-58.0926 235.661 -58.0418 235.765 -58.008 235.869C-57.6864 236.764 -57.3141 237.66 -56.874 238.529C-56.6879 238.893 -56.4848 239.256 -56.2817 239.62C-56.2648 239.659 -56.2479 239.697 -56.214 239.736C-55.2493 241.411 -54.0985 243.02 -52.7107 244.512C-51.4922 245.849 -50.1044 247.108 -48.5812 248.276C-46.7704 249.652 -44.7564 250.898 -42.5393 251.988C-41.2531 252.611 -39.9161 253.195 -38.4945 253.701C-37.9867 253.883 -37.479 254.064 -36.9544 254.233C-34.3481 255.077 -31.691 255.661 -29.017 256.011C-26.563 256.336 -24.1259 256.452 -21.6888 256.4C-17.9655 256.31 -14.293 255.777 -10.8236 254.843C-6.88025 253.792 -3.19079 252.221 0.0924858 250.197C2.36032 248.782 4.44198 247.147 6.25286 245.317L56.7713 263.72C59.733 264.745 63.2702 263.785 64.6579 261.54Z"
                fill="#B4D0D8"/>
            <path opacity="0.25"
                d="M47.7516 26.8014C47.7009 26.8793 47.667 26.9701 47.6162 27.061C57.2968 24.1149 66.1143 19.3909 73.1716 13.0834C73.1547 13.0315 73.1547 12.9666 73.1378 12.9147C75.7102 10.6176 78.0627 8.12576 80.1105 5.42629C84.3585 -0.141374 87.0325 -6.0854 88.2679 -12.0943C88.2679 -12.0813 88.2848 -12.0813 88.2848 -12.0813C88.3695 -12.5226 88.4541 -12.9509 88.5218 -13.3921C88.5387 -13.47 88.5556 -13.5349 88.5556 -13.6128C88.6403 -14.1838 88.7249 -14.7678 88.7926 -15.3389C90.4342 -28.9531 84.7816 -42.6451 73.0024 -53.0796L72.9855 -53.0926C72.3423 -53.6506 71.6992 -54.2087 71.0223 -54.7538C70.9715 -54.7927 70.9207 -54.8316 70.8869 -54.8706C70.2438 -55.3767 69.6006 -55.8829 68.9237 -56.3761C68.8221 -56.4539 68.7037 -56.5318 68.6021 -56.6097C67.9759 -57.0639 67.3497 -57.5052 66.7066 -57.9465C66.5204 -58.0633 66.3343 -58.1801 66.1481 -58.3098C65.5558 -58.6992 64.9634 -59.0885 64.3542 -59.4649C64.0665 -59.6336 63.7788 -59.8023 63.491 -59.9711C62.9495 -60.2955 62.4079 -60.607 61.8663 -60.9184C61.4432 -61.152 61.0032 -61.3727 60.5632 -61.6063C60.1231 -61.8399 59.6831 -62.0735 59.2262 -62.3071C58.4307 -62.6965 57.6184 -63.0858 56.806 -63.4622C56.6875 -63.5141 56.586 -63.566 56.4675 -63.6179C45.67 -68.4458 33.84 -70.6651 22.1962 -70.5094C-0.0251103 -70.2109 -21.5187 -61.2818 -33.5518 -45.4873C-34.1103 -44.7606 -34.618 -44.0338 -35.1257 -43.294C-35.2611 -43.0864 -35.3965 -42.8787 -35.515 -42.684C-35.8704 -42.1519 -36.2088 -41.6198 -36.5304 -41.0877C-36.6827 -40.8281 -36.835 -40.5556 -36.9873 -40.2831C-37.2581 -39.8029 -37.5289 -39.3227 -37.7828 -38.8425C-37.9351 -38.557 -38.0874 -38.2584 -38.2228 -37.9599C-38.4597 -37.4927 -38.6798 -37.0385 -38.8828 -36.5713C-39.0182 -36.2728 -39.1536 -35.9613 -39.289 -35.6628C-39.4921 -35.2086 -39.6783 -34.7413 -39.8475 -34.2741C-39.966 -33.9626 -40.0845 -33.6512 -40.186 -33.3397C-40.3552 -32.8725 -40.5076 -32.4052 -40.6599 -31.951C-40.7614 -31.6395 -40.863 -31.341 -40.9476 -31.0296C-41.083 -30.5494 -41.2184 -30.0692 -41.3368 -29.602C-41.4045 -29.3035 -41.4892 -29.0049 -41.5569 -28.7064C-41.6753 -28.2003 -41.7769 -27.6812 -41.8615 -27.175C-41.9123 -26.9155 -41.963 -26.6429 -42.0138 -26.3834C-42.1154 -25.7604 -42.2 -25.1505 -42.2677 -24.5275C-42.2846 -24.3718 -42.3184 -24.203 -42.3354 -24.0473C-42.42 -23.2686 -42.4708 -22.4899 -42.5046 -21.7112C-42.5046 -21.5165 -42.5046 -21.3218 -42.5215 -21.1272C-42.5215 -21.1142 -42.5215 -21.1012 -42.5215 -21.0753C-42.5385 -20.634 -42.5385 -20.1927 -42.5385 -19.7515C-42.5385 -19.6347 -42.5385 -19.5309 -42.5385 -19.4141C-42.5385 -19.3881 -42.5385 -19.3751 -42.5385 -19.3492C-42.5385 -19.2843 -42.5385 -19.2194 -42.5385 -19.1545C-42.4369 -13.8594 -41.2522 -8.61616 -39.0521 -3.61954C-39.0013 -3.60656 -38.9675 -3.59357 -38.9167 -3.56762C-38.8998 -3.52868 -38.8828 -3.4768 -38.849 -3.43787C-38.6967 -3.11341 -38.5613 -2.80191 -38.409 -2.47745C-38.1551 -1.9713 -37.9012 -1.46514 -37.6305 -0.971971C-37.3766 -0.504755 -37.1227 -0.0375685 -36.852 0.41667C-36.5981 0.844951 -36.3612 1.27326 -36.0904 1.70154C-35.8873 2.03898 -35.6503 2.36342 -35.4303 2.70085C-35.1934 3.05126 -34.9734 3.41466 -34.7195 3.76508C-34.4826 4.10251 -34.2287 4.45293 -33.9749 4.79037C-33.7379 5.1278 -33.4841 5.45224 -33.2302 5.78968C-32.9594 6.12711 -32.6886 6.46454 -32.4178 6.80198C-32.164 7.12643 -31.8932 7.43793 -31.6224 7.7494C-31.3347 8.08684 -31.0301 8.42426 -30.7424 8.74871C-30.4716 9.06019 -30.1839 9.35871 -29.8961 9.6572C-29.5746 9.98166 -29.27 10.3191 -28.9484 10.6435C-28.6607 10.942 -28.3561 11.2276 -28.0514 11.5131C-27.7129 11.8375 -27.3745 12.162 -27.0191 12.4735C-26.7144 12.759 -26.3929 13.0315 -26.0713 13.3041C-25.7159 13.6156 -25.3436 13.94 -24.9712 14.2385C-24.6497 14.5111 -24.3112 14.7706 -23.9896 15.0302C-23.6004 15.3417 -23.2281 15.6402 -22.8219 15.9387C-22.4834 16.1853 -22.1449 16.4318 -21.8064 16.6654C-20.9095 17.3144 -19.9956 17.9373 -19.0478 18.5473C-18.7939 18.703 -18.557 18.8717 -18.3031 19.0404C-18.1339 19.1443 -17.9647 19.2481 -17.7954 19.3519C-17.897 19.3649 -18.0154 19.3779 -18.117 19.3909C-15.5614 20.9742 -12.8197 22.4278 -9.89186 23.7386C-3.20684 26.7365 3.88436 28.7092 11.0771 29.7475C11.1786 29.6956 11.2802 29.6307 11.3817 29.5788C23.7025 31.3438 36.3279 30.3056 47.7516 26.8014Z"
                fill="#B4D0D8"/>
            <path opacity="0.25"
                d="M433.891 61.4671L426.682 41.6234C425.497 38.3789 420.183 37.3276 417.103 39.7286L404.376 49.6829L403.834 48.1904C403.699 47.8011 403.496 47.4377 403.293 47.0873C403.174 46.8926 403.056 46.7109 402.903 46.5292C402.903 46.5292 402.903 46.5162 402.886 46.5162C402.751 46.3345 402.599 46.1658 402.446 45.9971C402.446 45.9971 402.446 45.9841 402.429 45.9841C401.499 44.9848 400.263 44.1931 398.841 43.661C398.808 43.648 398.757 43.635 398.723 43.6091C398.554 43.5442 398.368 43.4923 398.198 43.4404C398.114 43.4144 398.012 43.3885 397.928 43.3625C397.775 43.3236 397.606 43.2846 397.454 43.2457C397.335 43.2197 397.217 43.1938 397.098 43.1678C396.946 43.1419 396.811 43.1159 396.658 43.09C396.523 43.064 396.387 43.0511 396.235 43.0381C396.1 43.0251 395.947 43.0121 395.812 42.9991C395.66 42.9862 395.507 42.9732 395.355 42.9732C395.22 42.9732 395.084 42.9602 394.949 42.9602C394.78 42.9602 394.61 42.9602 394.441 42.9732C394.323 42.9732 394.204 42.9732 394.069 42.9862C393.883 42.9991 393.68 43.0121 393.493 43.0381C393.392 43.0511 393.29 43.051 393.189 43.064C392.901 43.103 392.597 43.1549 392.309 43.2197L332.956 55.8995C327.997 56.9637 325.069 60.9351 326.457 64.7377L327.388 67.2944L308.365 63.5437C304.117 62.7001 300.259 65.711 301.443 68.9556L308.653 88.7993C309.838 92.0439 315.152 93.0951 318.232 90.6941L331.974 79.9481L332.736 82.0376C332.854 82.3491 333.007 82.6476 333.159 82.9461C333.193 83.024 333.244 83.0889 333.294 83.1667C333.464 83.4393 333.65 83.7119 333.853 83.9584C333.87 83.9714 333.87 83.9844 333.87 83.9844C334.09 84.2439 334.344 84.4905 334.598 84.7371C334.648 84.789 334.716 84.841 334.767 84.8929C335.038 85.1135 335.308 85.3341 335.596 85.5288L335.613 85.5418C335.935 85.7494 336.256 85.9441 336.612 86.1128C336.662 86.1387 336.713 86.1647 336.764 86.1907C337.475 86.5281 338.236 86.8007 339.032 86.9824C339.066 86.9953 339.116 86.9953 339.15 87.0083C339.556 87.0991 339.963 87.164 340.386 87.2159C341.638 87.3587 342.941 87.3068 344.227 87.0343L373.895 80.7009L403.563 74.3675C407.896 73.4461 410.688 70.2794 410.384 66.9569C410.35 66.4768 410.231 66.0095 410.062 65.5293L409.301 63.4528L426.919 66.931C431.217 67.7226 435.076 64.7247 433.891 61.4671Z"
                fill="#B4D0D8"/>
            <path opacity="0.25"
                d="M714.983 -2.00869L707.774 -21.8524C706.589 -25.0969 701.275 -26.1482 698.195 -23.7472L685.468 -13.7929L684.926 -15.2854C684.791 -15.6747 684.588 -16.0381 684.385 -16.3886C684.266 -16.5832 684.148 -16.7649 683.995 -16.9466C683.995 -16.9466 683.995 -16.9596 683.978 -16.9596C683.843 -17.1413 683.691 -17.31 683.538 -17.4787C683.538 -17.4787 683.538 -17.4917 683.521 -17.4917C683.251 -17.7902 682.946 -18.0757 682.624 -18.3353C682.201 -18.6727 681.744 -18.9712 681.254 -19.2308C680.83 -19.4514 680.39 -19.6461 679.933 -19.8148C679.9 -19.8278 679.849 -19.8408 679.815 -19.8667C679.764 -19.8797 679.73 -19.9057 679.697 -19.9186C679.561 -19.9576 679.426 -19.9965 679.29 -20.0354C679.206 -20.0614 679.104 -20.0873 679.02 -20.1133C678.867 -20.1522 678.698 -20.1912 678.546 -20.2301C678.427 -20.2561 678.309 -20.282 678.19 -20.308C678.123 -20.321 678.055 -20.334 677.987 -20.3469C677.903 -20.3599 677.818 -20.3729 677.733 -20.3859C677.598 -20.4118 677.463 -20.4248 677.31 -20.4378C677.175 -20.4507 677.023 -20.4637 676.887 -20.4767C676.735 -20.4897 676.583 -20.5027 676.43 -20.5027C676.346 -20.5027 676.261 -20.5156 676.176 -20.5156C676.126 -20.5156 676.075 -20.5156 676.041 -20.5156C675.872 -20.5156 675.702 -20.5156 675.533 -20.5027C675.415 -20.5027 675.296 -20.5027 675.161 -20.4897C674.975 -20.4767 674.772 -20.4637 674.585 -20.4378C674.484 -20.4248 674.382 -20.4248 674.281 -20.4118C673.993 -20.3729 673.689 -20.321 673.401 -20.2561L660.471 -17.4917L614.048 -7.57632C612.491 -7.23889 611.154 -6.62895 610.071 -5.82429C608.988 -5.01964 608.175 -4.02031 607.701 -2.93013C607.126 -1.61933 607.041 -0.165757 607.549 1.26185L608.48 3.81856L589.457 0.067834C585.209 -0.775751 581.351 2.23522 582.535 5.47977L589.745 25.3235C590.93 28.568 596.244 29.6193 599.324 27.2183L613.066 16.4723L613.828 18.5618C613.946 18.8733 614.099 19.1718 614.251 19.4703C614.285 19.5482 614.336 19.613 614.386 19.6909C614.556 19.9635 614.742 20.236 614.945 20.4826C614.962 20.4956 614.962 20.5086 614.962 20.5086C615.182 20.7681 615.436 21.0147 615.69 21.2613C615.74 21.3132 615.808 21.3651 615.859 21.417C616.13 21.6377 616.4 21.8583 616.688 22.053L616.705 22.066C617.027 22.2736 617.348 22.4553 617.704 22.637C617.754 22.663 617.805 22.6889 617.856 22.7149C618.567 23.0523 619.328 23.3248 620.124 23.5065C620.158 23.5195 620.208 23.5195 620.242 23.5325C620.648 23.6234 621.055 23.6882 621.478 23.7401C622.73 23.8829 624.033 23.831 625.319 23.5584L684.672 10.8787C686.229 10.5543 687.566 9.93131 688.649 9.12666C689.733 8.32201 690.545 7.32267 691.019 6.23249C691.12 6.01186 691.205 5.79122 691.273 5.57059C691.543 4.66212 691.594 3.71474 691.374 2.76733C691.323 2.53372 691.256 2.28711 691.171 2.0535L690.41 -0.0230231L708.028 3.45517C712.309 4.23387 716.151 1.23587 714.983 -2.00869Z"
                fill="#B4D0D8"/>
            <path opacity="0.25"
                d="M304.627 130.109C308.807 128.331 310.313 124.255 307.995 121.05L299.127 108.824C298.991 108.643 298.856 108.474 298.704 108.292H298.72C296.233 105.476 291.274 104.529 287.314 106.216L247.677 123.113C245.325 124.113 243.819 125.852 243.362 127.747C243.006 129.213 243.277 130.784 244.309 132.185L253.178 144.411C255.496 147.616 260.81 148.771 264.991 146.993L304.627 130.109Z"
                fill="#B4D0D8"/>
            <path opacity="0.25"
                d="M515.092 21.7541C513.179 20.7937 511.233 19.9242 509.287 19.1455H509.27C503.82 17.0041 498.235 15.6154 492.837 14.9795C486.964 14.2787 481.345 14.4863 476.403 15.5635C476.386 15.5635 476.369 15.5635 476.369 15.5765C475.405 15.7842 474.474 16.0307 473.56 16.3033C473.425 16.3422 473.306 16.3811 473.171 16.4201C472.443 16.6537 471.749 16.9003 471.072 17.1728C470.852 17.2637 470.615 17.3545 470.395 17.4454C470.226 17.5232 470.023 17.5881 469.854 17.666C469.667 17.7568 469.481 17.8607 469.295 17.9515C469.024 18.0813 468.754 18.2241 468.483 18.3668C468.06 18.5874 467.637 18.8211 467.23 19.0677C466.892 19.2753 466.553 19.4829 466.232 19.7036C466.029 19.8463 465.809 19.9891 465.623 20.1318C465.149 20.4823 464.709 20.8456 464.286 21.222C464.15 21.3388 464.015 21.4686 463.879 21.5854C463.439 22.0007 463.016 22.416 462.627 22.8703C462.61 22.8832 462.593 22.9092 462.576 22.9222L462.441 23.0779C462.407 23.1169 462.373 23.1688 462.339 23.2077C462.018 23.5971 461.713 23.9864 461.442 24.3887C461.425 24.4017 461.425 24.4147 461.408 24.4276C458.718 28.386 458.21 33.0452 459.598 37.8082C459.598 37.7823 459.615 37.7563 459.615 37.7303C460.613 41.2085 462.61 44.7516 465.504 48.1389C469.38 52.6813 474.897 56.9511 481.734 60.4163C482.53 60.8186 483.325 61.195 484.121 61.5584C492.143 65.2442 500.639 67.2299 508.457 67.5543C519.424 68.0085 529.054 65.2182 534.216 59.2353C534.961 58.3657 535.604 57.4443 536.128 56.4969V56.4839C539.141 50.9681 538.244 44.3363 534.165 37.925C532.456 35.2255 530.171 32.565 527.379 30.0602C524.045 27.0233 519.898 24.181 515.092 21.7541Z"
                fill="#B4D0D8"/>
            <path opacity="0.25"
                d="M167.437 125.087C167.691 125.165 167.962 125.229 168.233 125.307C168.419 125.359 168.605 125.398 168.808 125.437C169.113 125.502 169.417 125.567 169.722 125.619C169.857 125.645 169.993 125.658 170.128 125.684C171.82 125.943 173.581 125.982 175.391 125.839C176.204 125.775 177.033 125.684 177.862 125.541C177.845 125.541 177.812 125.528 177.795 125.528C180.858 125.009 183.989 123.971 186.984 122.465C190.995 120.453 194.753 117.598 197.816 114.042C198.171 113.627 198.51 113.212 198.814 112.809C202.064 108.643 203.824 104.231 204.112 100.181C204.518 94.484 202.047 89.4874 196.767 86.8139C196.005 86.4245 195.193 86.0871 194.346 85.8275C189.489 84.2702 183.633 84.7244 177.981 86.8398C175.594 87.7353 173.259 88.9164 171.042 90.3569C168.351 92.109 165.846 94.2634 163.697 96.7682C162.851 97.7545 162.072 98.7668 161.395 99.7791C159.5 102.608 158.281 105.503 157.723 108.306C156.809 112.809 157.604 117.027 160.092 120.233C160.177 120.35 160.278 120.44 160.363 120.557C160.397 120.609 160.447 120.661 160.498 120.713C160.82 121.076 161.141 121.427 161.514 121.764C161.598 121.855 161.7 121.933 161.784 122.011C162.14 122.309 162.495 122.608 162.884 122.88C162.986 122.958 163.088 123.023 163.189 123.101C163.68 123.425 164.188 123.737 164.729 124.009L164.865 124.074C165.271 124.269 165.677 124.451 166.1 124.619C166.286 124.697 166.489 124.762 166.692 124.827C166.929 124.918 167.183 125.009 167.437 125.087Z"
                fill="#B4D0D8"/>
            <path opacity="0.25"
                d="M462.205 130.681C461.562 130.123 460.919 129.565 460.242 129.02C460.191 128.981 460.14 128.942 460.106 128.903C459.463 128.397 458.82 127.891 458.143 127.397C458.042 127.32 457.923 127.242 457.822 127.164C457.196 126.71 456.569 126.268 455.926 125.827C455.74 125.71 455.554 125.58 455.368 125.464C454.775 125.074 454.183 124.685 453.574 124.309C453.286 124.14 452.998 123.971 452.711 123.802C452.169 123.478 451.627 123.167 451.086 122.855C450.663 122.621 450.223 122.401 449.783 122.167C449.343 121.934 448.903 121.7 448.446 121.466C447.65 121.077 446.838 120.688 446.026 120.311C445.907 120.259 445.806 120.207 445.687 120.156C436.853 116.197 427.324 114.004 417.779 113.42C417.712 113.42 417.644 113.42 417.593 113.407C415.528 113.29 413.481 113.238 411.416 113.264C389.194 113.563 367.701 122.492 355.668 138.286C355.109 139.013 354.602 139.74 354.094 140.479C353.958 140.687 353.84 140.882 353.705 141.089C353.349 141.622 353.011 142.154 352.689 142.686C352.537 142.945 352.385 143.218 352.232 143.49C351.961 143.971 351.691 144.451 351.437 144.931C351.285 145.217 351.149 145.515 350.997 145.801C350.76 146.268 350.54 146.722 350.337 147.189C350.201 147.488 350.066 147.799 349.931 148.098C349.727 148.552 349.541 149.019 349.372 149.486C349.254 149.798 349.135 150.109 349.034 150.421C348.864 150.888 348.712 151.355 348.56 151.822C348.458 152.134 348.357 152.432 348.272 152.744C348.137 153.224 348.001 153.704 347.883 154.185C347.815 154.483 347.73 154.781 347.663 155.067C347.544 155.573 347.443 156.092 347.358 156.598C347.307 156.858 347.257 157.131 347.206 157.39C347.104 158.013 347.02 158.623 346.952 159.246C346.935 159.402 346.901 159.57 346.884 159.726C346.8 160.505 346.749 161.284 346.715 162.062C346.715 162.257 346.715 162.452 346.698 162.646C346.698 162.659 346.698 162.672 346.698 162.698C346.681 163.139 346.681 163.581 346.681 164.022C346.681 164.139 346.681 164.243 346.681 164.359C346.681 164.385 346.681 164.398 346.681 164.424C346.681 164.489 346.681 164.554 346.681 164.619C346.783 169.914 347.967 175.157 350.168 180.154C350.218 180.167 350.252 180.18 350.303 180.206C350.32 180.258 350.337 180.297 350.371 180.349C350.506 180.66 350.641 180.985 350.794 181.296C351.031 181.802 351.301 182.308 351.572 182.801C351.826 183.269 352.08 183.736 352.351 184.19C352.605 184.618 352.842 185.047 353.112 185.475C353.315 185.812 353.552 186.137 353.772 186.474C354.009 186.825 354.229 187.188 354.483 187.539C354.72 187.876 354.974 188.213 355.228 188.564C355.465 188.901 355.719 189.226 355.972 189.563C356.243 189.901 356.514 190.238 356.785 190.575C357.039 190.9 357.309 191.211 357.58 191.523C357.868 191.86 358.173 192.198 358.46 192.522C358.731 192.834 359.019 193.132 359.307 193.431C359.628 193.755 359.933 194.093 360.254 194.417C360.542 194.716 360.847 195.001 361.151 195.287C361.49 195.611 361.828 195.935 362.184 196.247C362.488 196.532 362.81 196.805 363.131 197.078C363.487 197.389 363.859 197.714 364.231 198.012C364.553 198.285 364.891 198.544 365.213 198.804C365.602 199.115 365.975 199.414 366.381 199.712C366.719 199.959 367.058 200.205 367.396 200.439C368.276 201.075 369.19 201.698 370.121 202.295C370.375 202.464 370.629 202.632 370.9 202.801C371.069 202.905 371.238 203.009 371.407 203.112C371.306 203.125 371.187 203.138 371.086 203.151C373.641 204.735 376.383 206.188 379.311 207.499C385.996 210.497 393.087 212.47 400.28 213.508C400.381 213.456 400.483 213.391 400.584 213.339C412.922 215.078 425.547 214.04 436.971 210.536C436.92 210.614 436.887 210.705 436.836 210.796C446.516 207.849 455.334 203.125 462.391 196.818C462.374 196.766 462.374 196.701 462.357 196.649C464.93 194.352 467.282 191.86 469.33 189.161C473.578 183.593 476.252 177.649 477.488 171.64C477.488 171.653 477.504 171.653 477.504 171.666C477.589 171.225 477.674 170.797 477.741 170.355C477.758 170.278 477.775 170.213 477.775 170.135C477.86 169.564 477.944 168.98 478.012 168.409C479.654 154.794 474.001 141.102 462.222 130.668C462.222 130.681 462.205 130.681 462.205 130.681Z"
                fill="#B4D0D8"/>
            <path opacity="0.25"
                d="M422.925 -26.6546C422.586 -26.6546 422.265 -26.6286 421.926 -26.5767C421.858 -26.5637 421.791 -26.5507 421.706 -26.5378C421.418 -26.4859 421.131 -26.421 420.86 -26.3301C420.758 -26.3042 420.657 -26.2652 420.538 -26.2263C420.42 -26.1874 420.285 -26.1484 420.166 -26.0965L392.935 -14.481C391.31 -13.7931 390.278 -12.5991 389.973 -11.2883C389.737 -10.276 389.923 -9.19884 390.617 -8.23845L396.709 0.158466C398.3 2.35179 401.956 3.15643 404.816 1.93648L432.047 -9.67906C434.907 -10.899 435.956 -13.7023 434.365 -15.8956L428.273 -24.3055C428.188 -24.4353 428.087 -24.5521 427.985 -24.6689H428.002C427.951 -24.7208 427.883 -24.7727 427.833 -24.8246C427.714 -24.9414 427.596 -25.0583 427.46 -25.1621C427.308 -25.2789 427.173 -25.3957 427.003 -25.4995C426.885 -25.5774 426.783 -25.6552 426.665 -25.7201C426.428 -25.8499 426.191 -25.9667 425.954 -26.0705C425.886 -26.0965 425.819 -26.1354 425.751 -26.1614C424.905 -26.4858 423.974 -26.6546 423.026 -26.6546C422.992 -26.6546 422.959 -26.6546 422.925 -26.6546Z"
                fill="#B4D0D8"/>
            <path opacity="0.25"
                d="M154.981 65.2435C155.201 66.9306 155.895 68.6178 157.148 70.1622L158.451 71.7715C159.314 72.7838 161.057 73.0953 162.411 72.4594C163.765 71.8234 164.171 70.4737 163.376 69.4354L165.305 68.514C166.202 69.3965 167.827 69.6431 169.096 69.0331C170.365 68.4361 170.805 67.2032 170.179 66.1909L172.142 65.2565C173.039 66.139 174.664 66.3855 175.933 65.7756C177.203 65.1786 177.643 63.9456 177.017 62.9333L178.946 62.0119C179.792 63.0242 181.552 63.3357 182.906 62.6997C184.26 62.0638 184.683 60.714 183.871 59.6758L182.568 58.0665C181.315 56.5221 179.657 55.3022 177.778 54.3937L177.795 54.3807C177.677 54.3288 177.575 54.2769 177.457 54.225C177.355 54.173 177.254 54.1341 177.152 54.0822C176.78 53.9264 176.407 53.7837 176.035 53.6409C176.018 53.6409 176.018 53.6279 176.001 53.6279C175.612 53.4981 175.206 53.3684 174.8 53.2645C174.698 53.2386 174.596 53.2126 174.495 53.1867C174.427 53.1737 174.343 53.1478 174.275 53.1348L174.732 52.9141C175.561 52.5248 176.272 52.0446 176.881 51.5125C176.898 51.5774 176.915 51.6423 176.915 51.6942C179.555 49.41 180.114 45.9838 177.998 43.2324C177.964 43.1805 177.931 43.1286 177.88 43.0767L177.778 42.9469L172.007 35.7829L167.793 30.5526L161.903 23.2459L145.098 2.41583C143.913 0.936313 142.119 -0.0889628 140.122 -0.62107C137.533 -1.29594 134.588 -1.11424 132.1 0.0667744L131.592 0.313364C131.609 0.235495 131.626 0.144644 131.643 0.0667744C131.66 -0.011095 131.677 -0.101946 131.694 -0.179815C131.745 -0.504271 131.795 -0.841718 131.812 -1.16617C131.812 -1.17915 131.812 -1.19212 131.812 -1.19212C131.829 -1.51657 131.829 -1.82804 131.795 -2.15249C131.795 -2.24334 131.778 -2.33418 131.778 -2.42502C131.762 -2.52885 131.762 -2.61971 131.762 -2.72354L131.745 -2.71055C131.542 -4.41069 130.848 -6.09789 129.595 -7.6423L128.292 -9.25159C127.429 -10.2639 125.686 -10.5754 124.332 -9.93943C122.978 -9.3035 122.572 -7.95378 123.367 -6.91552L121.438 -5.99404C120.541 -6.87656 118.916 -7.12318 117.647 -6.5132C116.378 -5.9162 115.938 -4.68326 116.564 -3.67096L114.601 -2.73653C113.704 -3.61905 112.079 -3.86563 110.81 -3.25565C109.54 -2.65865 109.1 -1.42572 109.726 -0.413414L107.797 0.50803C106.951 -0.504272 105.191 -0.815749 103.837 -0.179815C102.483 0.456118 102.06 1.80588 102.872 2.84414L104.175 4.45342C105.428 5.99783 107.086 7.21777 108.965 8.12625L108.948 8.13924C109.066 8.19115 109.168 8.24306 109.286 8.29497C109.388 8.34688 109.489 8.38584 109.591 8.43775C109.963 8.59349 110.336 8.73623 110.708 8.86601C110.725 8.86601 110.725 8.879 110.742 8.879C111.131 9.00879 111.537 9.13857 111.943 9.24239C112.045 9.26835 112.147 9.2943 112.265 9.32026C112.367 9.34622 112.468 9.37217 112.57 9.39813L112.062 9.64472C107.645 11.7342 106.274 16.2247 108.999 19.612L110.911 21.987L116.818 29.2937L121.032 34.511L126.938 41.8178L131.152 47.035L137.059 54.3418L141.713 60.117C143.845 62.7646 147.907 63.9976 151.698 63.3876C152.731 63.2189 153.746 62.9204 154.711 62.4661L155.185 62.2455C155.168 62.3104 155.168 62.3623 155.151 62.4272C155.134 62.505 155.117 62.5959 155.1 62.6738C155.049 62.9982 154.998 63.3357 154.981 63.6601C154.981 63.6731 154.981 63.6731 154.981 63.6861C154.965 64.0105 154.964 64.322 154.998 64.6465C154.998 64.7373 155.015 64.8282 155.015 64.919C154.965 65.0488 154.965 65.1396 154.981 65.2435Z"
                fill="#B4D0D8"/>
            <path opacity="0.25"
                d="M591.031 120.868C590.778 119.129 590.304 117.416 589.644 115.755V115.742C589.102 114.392 588.442 113.082 587.647 111.797C587.528 111.628 587.41 111.459 587.291 111.278C587.122 111.018 586.936 110.758 586.75 110.499C586.547 110.213 586.344 109.928 586.124 109.642C585.903 109.357 585.667 109.084 585.447 108.799C585.227 108.539 585.023 108.28 584.786 108.033C584.499 107.722 584.194 107.41 583.89 107.099C583.619 106.826 583.348 106.553 583.077 106.294C582.654 105.892 582.214 105.489 581.757 105.1C581.706 105.061 581.656 105.009 581.605 104.97C581.165 104.594 580.691 104.243 580.217 103.88C580.2 103.867 580.166 103.841 580.149 103.828C579.675 103.478 579.168 103.127 578.66 102.79C578.525 102.699 578.372 102.608 578.237 102.517C577.814 102.245 577.391 101.985 576.934 101.726C576.781 101.635 576.629 101.544 576.477 101.466C576.392 101.414 576.291 101.362 576.206 101.31C575.715 101.038 575.224 100.778 574.717 100.532C574.666 100.506 574.598 100.48 574.53 100.441C573.989 100.168 573.43 99.9086 572.855 99.662C572.703 99.5971 572.55 99.5322 572.398 99.4673C571.755 99.1948 571.112 98.9352 570.452 98.7016C570.435 98.7016 570.418 98.6886 570.401 98.6886C570.012 98.5459 569.606 98.4031 569.199 98.2734C569.166 98.2604 569.115 98.2474 569.081 98.2344C568.793 98.1436 568.506 98.0527 568.201 97.9619C567.913 97.871 567.625 97.7932 567.338 97.7023C567.118 97.6374 566.898 97.5725 566.678 97.5206C566.339 97.4298 566.001 97.3389 565.645 97.2611C565.442 97.2092 565.239 97.1572 565.036 97.1183C564.664 97.0404 564.308 96.9626 563.936 96.8847C563.75 96.8457 563.564 96.8068 563.378 96.7679C563.344 96.7679 563.327 96.7549 563.293 96.7549C563.141 96.7289 562.988 96.703 562.819 96.677C562.396 96.5992 561.973 96.5343 561.533 96.4694C561.313 96.4434 561.093 96.4174 560.873 96.3785C560.483 96.3266 560.094 96.2747 559.705 96.2358C559.485 96.2098 559.248 96.1968 559.028 96.1709C558.622 96.1319 558.216 96.106 557.826 96.08C557.657 96.0671 557.488 96.067 557.336 96.0541C556.828 96.0281 556.32 96.0022 555.829 96.0022C555.812 96.0022 555.795 96.0022 555.795 96.0022C555.762 96.0022 555.728 96.0022 555.694 96.0022C555.22 95.9892 554.729 95.9892 554.255 95.9892C554.154 95.9892 554.069 95.9892 553.968 95.9892C553.528 96.0022 553.071 96.0022 552.631 96.0281C552.546 96.0281 552.478 96.0411 552.411 96.0411C550.701 96.132 549.026 96.3007 547.367 96.5732C547.283 96.5862 547.215 96.5992 547.13 96.6122C546.555 96.703 545.996 96.8068 545.438 96.9236C545.252 96.9626 545.049 97.0015 544.863 97.0404C544.423 97.1313 543.983 97.2351 543.559 97.3519C543.322 97.4168 543.069 97.4687 542.832 97.5336C542.51 97.6244 542.172 97.7153 541.85 97.8191C541.579 97.897 541.308 97.9619 541.038 98.0527C540.682 98.1695 540.344 98.2863 539.988 98.4161C539.768 98.494 539.531 98.5718 539.311 98.6497C539.024 98.7535 538.753 98.8574 538.482 98.9742C538.161 99.1039 537.839 99.2208 537.517 99.3635C537.281 99.4674 537.044 99.5712 536.807 99.675C536.434 99.8437 536.062 100.012 535.69 100.181C535.504 100.272 535.334 100.35 535.148 100.441C533.98 101.012 532.863 101.635 531.797 102.31C531.78 102.323 531.746 102.336 531.729 102.349C531.222 102.673 530.731 102.997 530.24 103.335C530.122 103.426 530.003 103.504 529.885 103.594C529.479 103.88 529.089 104.178 528.7 104.49C528.582 104.581 528.463 104.672 528.345 104.762C527.888 105.139 527.431 105.515 527.008 105.918C526.991 105.931 526.974 105.943 526.957 105.969C526.5 106.398 526.043 106.826 525.603 107.28C525.518 107.358 525.451 107.449 525.366 107.527C525.028 107.89 524.689 108.254 524.367 108.63C524.266 108.747 524.164 108.877 524.063 109.006C523.758 109.37 523.47 109.746 523.183 110.135C523.098 110.239 523.014 110.343 522.946 110.46C522.59 110.953 522.252 111.459 521.93 111.978C521.575 112.562 521.253 113.146 520.949 113.743C520.881 113.873 520.813 114.016 520.746 114.146C520.509 114.613 520.306 115.093 520.103 115.56C520.035 115.703 519.984 115.846 519.933 115.989C519.696 116.573 519.493 117.157 519.324 117.754V117.767C519.138 118.364 519.003 118.974 518.867 119.571C518.833 119.726 518.799 119.895 518.782 120.051C518.698 120.492 518.63 120.933 518.579 121.375C518.562 121.556 518.529 121.738 518.512 121.933C518.461 122.426 518.444 122.919 518.427 123.412C518.427 123.516 518.41 123.62 518.41 123.724C518.41 124.308 518.427 124.879 518.461 125.463C518.478 125.644 518.495 125.826 518.512 126.008C518.546 126.423 518.596 126.838 518.664 127.254C518.681 127.358 518.681 127.474 518.698 127.578C518.715 127.682 518.749 127.786 518.766 127.89C518.816 128.162 518.884 128.435 518.935 128.707C518.986 128.967 519.053 129.226 519.121 129.486C519.172 129.707 519.256 129.927 519.307 130.148C519.392 130.446 519.476 130.745 519.578 131.043C519.612 131.147 519.663 131.251 519.696 131.368C520.018 132.263 520.39 133.159 520.813 134.028C521 134.392 521.203 134.755 521.406 135.119C521.423 135.157 521.456 135.196 521.473 135.248C522.438 136.923 523.589 138.532 524.977 140.024C526.195 141.361 527.583 142.62 529.106 143.788C530.917 145.164 532.931 146.41 535.148 147.5C536.434 148.123 537.771 148.707 539.193 149.213C539.701 149.395 540.208 149.576 540.733 149.745C543.339 150.589 545.996 151.173 548.67 151.523C551.124 151.848 553.562 151.964 555.999 151.912C559.722 151.822 563.394 151.289 566.864 150.355C570.807 149.304 574.497 147.733 577.78 145.709C580.048 144.294 582.129 142.659 583.94 140.829L634.459 159.232C637.387 160.296 640.924 159.336 642.312 157.091C643.699 154.845 642.447 152.133 639.519 151.069L589.424 132.821C591.099 128.863 591.607 124.801 591.031 120.868C591.031 120.881 591.031 120.881 591.031 120.868Z"
                fill="#B4D0D8"/>
            <path opacity="0.25"
                d="M594.721 202.774L578.119 196.246L576.68 195.675C571.282 193.56 564.918 196.714 565.223 201.36L567.084 229.769C567.389 234.428 574.142 237.076 579.253 234.545L580.624 233.87L596.278 226.109L604.402 222.086C607.127 225.798 611.324 229.081 616.638 231.755C616.621 231.742 616.604 231.716 616.604 231.703C618.72 232.78 621.005 233.753 623.459 234.61C627.74 236.128 632.462 237.309 637.522 238.088C640.552 238.555 643.717 238.88 646.949 239.048C649.945 239.204 653.025 239.23 656.173 239.113C657.814 239.048 659.439 238.958 661.03 238.802C664.263 238.529 667.427 238.088 670.457 237.517C675.517 236.57 680.256 235.246 684.521 233.598C695.724 229.302 703.763 222.891 706.556 215.623L715.39 219.088L717.32 219.841L733.922 226.369L735.361 226.94C740.759 229.055 747.123 225.902 746.818 221.255L744.957 192.846C744.652 188.187 737.899 185.539 732.788 188.07L731.417 188.745L715.763 196.506L705.236 201.723C701.648 195.688 694.252 190.64 684.504 187.304C682.981 186.785 681.373 186.318 679.748 185.89C679.579 185.851 679.41 185.799 679.24 185.76C678.326 185.526 677.413 185.306 676.465 185.098C676.126 185.02 675.771 184.942 675.416 184.877C674.62 184.709 673.825 184.553 673.012 184.41C672.522 184.319 672.048 184.241 671.54 184.164C671.168 184.099 670.795 184.034 670.423 183.969C669.289 183.8 668.138 183.67 666.987 183.541C666.784 183.515 666.598 183.502 666.395 183.476C665.972 183.437 665.549 183.398 665.126 183.359C664.77 183.333 664.415 183.294 664.059 183.268C663.721 183.242 663.383 183.216 663.044 183.19C662.486 183.151 661.927 183.125 661.352 183.086C661.233 183.086 661.115 183.073 660.996 183.06C660.962 183.06 660.928 183.06 660.895 183.06C660.404 183.034 659.896 183.021 659.405 183.008C659.202 183.008 658.999 182.996 658.796 182.983C658.356 182.97 657.899 182.97 657.442 182.957C657.188 182.957 656.934 182.944 656.664 182.944C656.207 182.944 655.767 182.944 655.31 182.957C655.056 182.957 654.802 182.957 654.565 182.957C653.837 182.97 653.126 182.983 652.399 183.021C648.066 183.19 643.869 183.631 639.875 184.293C639.841 184.293 639.807 184.306 639.773 184.306C621.106 187.447 606.721 195.688 602.32 205.694L596.702 203.488L594.721 202.774Z"
                fill="#B4D0D8"/>
            <path opacity="0.25"
                d="M280.762 24.505L279.425 24.2843L264.261 21.7925L254.055 20.1054C256.577 14.94 256.103 8.63261 252.921 2.27327C252.414 1.26097 251.821 0.235684 251.178 -0.776618C251.144 -0.828531 251.111 -0.880465 251.077 -0.919399C250.671 -1.54235 250.247 -2.16531 249.807 -2.78827C249.74 -2.89209 249.655 -2.98292 249.587 -3.08674C249.164 -3.65778 248.724 -4.22884 248.25 -4.79988C248.149 -4.92966 248.03 -5.05944 247.912 -5.2022C247.675 -5.48772 247.455 -5.77323 247.201 -6.04578C246.338 -7.00617 245.407 -7.96654 244.426 -8.91396C244.341 -9.0048 244.239 -9.08269 244.155 -9.17354C243.562 -9.7316 242.97 -10.2767 242.344 -10.8218C242.327 -10.8477 242.293 -10.8607 242.259 -10.8867C241.752 -11.3279 241.21 -11.7562 240.668 -12.1975C240.398 -12.4051 240.144 -12.6258 239.873 -12.8464C239.044 -13.4823 238.198 -14.1182 237.301 -14.7282C234.627 -16.5841 231.817 -18.2194 228.957 -19.634C228.94 -19.647 228.906 -19.6599 228.889 -19.6729C215.502 -26.2399 200.711 -27.8882 190.455 -23.9817L188.762 -27.992L188.271 -29.1471L183.516 -40.477L183.093 -41.4634C181.553 -45.1492 175.375 -46.1615 171.99 -43.2933L151.292 -25.7467C147.907 -22.8656 149.854 -18.2713 154.779 -17.4537L156.116 -17.233L171.28 -14.7412L179.132 -13.4434C177.88 -10.0301 177.829 -6.20153 178.912 -2.24316C178.912 -2.25614 178.929 -2.26913 178.929 -2.29509C179.352 -0.711744 179.945 0.897572 180.723 2.50687C182.077 5.32315 183.956 8.15241 186.325 10.9038C187.747 12.552 189.355 14.1613 191.132 15.7187C192.773 17.1723 194.567 18.5739 196.497 19.9107C197.512 20.6115 198.544 21.2864 199.594 21.9223C201.709 23.2201 203.909 24.3882 206.126 25.4264C209.833 27.1525 213.641 28.5023 217.415 29.4756C227.298 32.0064 236.945 31.8636 244.172 28.8397L246.66 34.7448L247.269 36.1724L252.025 47.5024L252.448 48.4887C253.988 52.1746 260.165 53.1869 263.55 50.3187L284.248 32.7721C287.633 29.9169 285.703 25.3226 280.762 24.505Z"
                fill="#B4D0D8"/>
            <path d="M732.615 51.9021L749.031 73.5498C753.33 79.2213 750.808 86.554 743.412 89.8504L673.245 121.154C665.849 124.45 656.287 122.517 651.988 116.845L635.572 95.1975C631.273 89.526 633.795 82.1933 641.191 78.8968L711.358 47.5933C718.737 44.2839 728.316 46.2306 732.615 51.9021Z"
                fill="#5D00FF"/>
            <path opacity="0.15"
                d="M635.573 95.1319L651.989 116.78C655.221 121.049 661.45 123.191 667.474 122.594C667.204 122.308 666.95 122.01 666.713 121.698L650.297 100.051C645.998 94.3792 648.519 87.0465 655.915 83.75L726.083 52.4465C727.91 51.6289 729.874 51.1357 731.854 50.941C727.267 45.9704 718.348 44.4 711.359 47.5278L641.191 78.8313C633.796 82.1407 631.274 89.4734 635.573 95.1319Z"
                fill="black"/>
            <path d="M114.484 218.815L112.622 190.406C112.317 185.759 118.698 182.606 124.08 184.721L125.518 185.292L142.121 191.82L157.082 197.699C157.962 198.05 158.723 198.491 159.333 199.01C159.451 199.114 159.57 199.218 159.688 199.322C160.026 199.659 160.314 199.997 160.551 200.36C160.856 200.84 161.093 201.346 161.228 201.878C161.245 201.891 161.228 201.891 161.228 201.891C161.482 202.878 161.414 203.903 161.025 204.876C160.653 205.811 159.976 206.68 159.011 207.407C158.893 207.498 158.757 207.589 158.622 207.68C158.351 207.848 158.08 208.017 157.776 208.16L143.644 215.155L127.989 222.916L126.618 223.591C121.558 226.109 114.805 223.461 114.484 218.815Z"
                fill="#369CFF"/>
            <path opacity="0.15"
                d="M142.156 191.822L157.116 197.701C162.515 199.829 162.904 205.631 157.81 208.161L143.696 215.157L142.156 191.822Z"
                fill="black"/>
            <path d="M114.483 218.815L112.622 190.406C112.317 185.759 118.697 182.606 124.079 184.721L125.518 185.292L128.006 222.916L126.635 223.591C121.558 226.109 114.805 223.461 114.483 218.815Z"
                fill="#6DB9DF"/>
            <path d="M292.353 181.904L294.215 210.313C294.519 214.959 288.139 218.113 282.757 215.998L281.319 215.427L264.716 208.899L249.755 203.019C248.875 202.669 248.114 202.228 247.504 201.709C247.386 201.605 247.267 201.501 247.149 201.397C246.81 201.06 246.523 200.722 246.286 200.359C245.981 199.879 245.744 199.372 245.609 198.84C245.592 198.827 245.609 198.827 245.609 198.827C245.355 197.841 245.423 196.816 245.812 195.842C246.184 194.908 246.861 194.038 247.826 193.312C247.944 193.221 248.08 193.13 248.215 193.039C248.486 192.87 248.757 192.702 249.061 192.559L263.193 185.564L278.848 177.803L280.219 177.128C285.279 174.61 292.049 177.258 292.353 181.904Z"
                fill="#369CFF"/>
            <path opacity="0.15"
                d="M264.681 208.899L249.72 203.033C244.321 200.905 243.932 195.103 249.026 192.573L263.141 185.577L264.681 208.899Z"
                fill="black"/>
            <path d="M292.355 181.903L294.217 210.313C294.522 214.959 288.141 218.113 282.759 215.997L281.321 215.426L278.833 177.802L280.204 177.127C285.281 174.61 292.051 177.257 292.355 181.903Z"
                fill="#6DB9DF"/>
            <path d="M208.412 172.144C211.645 172.287 214.793 172.599 217.839 173.04C222.899 173.78 227.621 174.922 231.903 176.388C245.357 180.983 254.378 188.86 254.987 198.088C255.647 208.016 246.39 217.114 231.903 222.669C227.621 224.317 222.899 225.641 217.839 226.588C214.809 227.159 211.645 227.587 208.412 227.873C206.821 228.016 205.197 228.12 203.555 228.184C200.424 228.301 197.344 228.275 194.331 228.12C191.099 227.951 187.934 227.626 184.905 227.159C179.844 226.367 175.106 225.186 170.841 223.681C157.775 219.048 149.025 211.3 148.416 202.215C147.773 192.442 156.743 183.461 170.841 177.894C175.089 176.207 179.827 174.844 184.905 173.845C187.934 173.248 191.082 172.806 194.331 172.495C196.142 172.326 197.987 172.209 199.866 172.131C202.76 171.989 205.62 172.015 208.412 172.144Z"
                fill="#369CFF"/>
            <path d="M184.903 173.819V227.146C179.843 226.355 175.104 225.174 170.839 223.668V177.868C175.087 176.181 179.826 174.805 184.903 173.819Z"
                fill="#6DB9DF"/>
            <path d="M208.41 172.144V227.86C206.819 228.003 205.194 228.106 203.553 228.171C200.422 228.288 197.342 228.262 194.329 228.106V172.482C196.14 172.313 197.985 172.196 199.863 172.118C202.757 171.989 205.618 172.015 208.41 172.144Z"
                fill="#6DB9DF"/>
            <path d="M217.838 173.027C222.898 173.767 227.62 174.909 231.901 176.375V222.669C227.62 224.317 222.898 225.641 217.838 226.588V173.027Z"
                fill="#6DB9DF"/>
            <path opacity="0.15"
                d="M199.796 172.105C170.365 173.234 147.331 186.706 148.347 202.189C148.838 209.599 154.761 216.127 164.018 220.799C161.328 217.659 159.737 214.194 159.483 210.495C158.467 195.012 181.501 181.54 210.932 180.411C226.265 179.814 240.312 182.695 250.382 187.783C241.852 177.777 222.204 171.249 199.796 172.105Z"
                fill="black"/>
            <path opacity="0.25"
                d="M237.029 207.083C237.029 202.187 229.785 198.219 220.849 198.219C211.914 198.219 204.67 202.187 204.67 207.083C204.67 211.978 211.914 215.947 220.849 215.947C229.785 215.947 237.029 211.978 237.029 207.083Z"
                fill="white"/>
            <path opacity="0.25"
                d="M198.527 208.9C201.929 208.9 204.671 210.405 204.671 212.274C204.671 214.13 201.912 215.648 198.527 215.648C195.126 215.648 192.384 214.143 192.384 212.274C192.384 210.418 195.143 208.9 198.527 208.9Z"
                fill="white"/>
            <path d="M57.9884 97.962L84.0007 103.101C88.2487 103.945 92.1074 100.934 90.9227 97.6894L83.713 77.8457C82.5284 74.6011 77.2142 73.5499 74.134 75.9509L55.3313 90.6552C52.2681 93.0692 53.7405 97.1184 57.9884 97.962Z"
                fill="#008DFF"/>
            <path opacity="0.15"
                d="M69.7854 100.286L57.9893 97.9631C53.7413 97.1195 52.252 93.0703 55.3322 90.6563L63.862 83.9985L69.7854 100.286Z"
                fill="black"/>
            <path d="M60.867 84.4264L67.1458 101.713C68.5336 105.516 65.6057 109.487 60.647 110.552L1.29416 123.231C-3.66461 124.295 -8.84338 122.05 -10.2312 118.248L-16.51 100.961C-17.8978 97.158 -14.9699 93.1867 -10.0111 92.1224L49.3417 79.4427C54.3004 78.3785 59.4961 80.6237 60.867 84.4264Z"
                fill="#5D00FF"/>
            <path d="M30.9779 116.885L60.6459 110.552C65.6046 109.487 68.5325 105.516 67.1447 101.713L60.8659 84.4264C59.4781 80.6238 54.2993 78.3785 49.3406 79.4427L19.6726 85.7761L30.9779 116.885Z"
                fill="#008DFF"/>
            <path opacity="0.15"
                d="M-16.5091 100.948L-10.2303 118.235C-9.21485 121.051 -6.10082 123.011 -2.54676 123.4C-2.76677 123.05 -2.95294 122.673 -3.08833 122.297L-9.36717 105.01C-10.7549 101.207 -7.82708 97.236 -2.86832 96.1718L56.4845 83.4921C57.7708 83.2196 59.0739 83.1677 60.3263 83.3104C58.4308 80.1957 53.7936 78.4825 49.3425 79.4299L-10.0103 92.1097C-14.9521 93.1609 -17.88 97.1452 -16.5091 100.948Z"
                fill="black"/>
            <path opacity="0.25"
                d="M60.2583 105.373C60.8845 107.112 59.5475 108.942 57.2797 109.422L8.26749 119.883C5.99966 120.363 3.61335 119.338 2.98716 117.599C2.36097 115.86 3.69798 114.03 5.96581 113.549L54.978 103.089C57.2458 102.596 59.6152 103.634 60.2583 105.373Z"
                fill="white"/>
            <path d="M60.003 170.963L66.0957 179.36C67.6866 181.553 66.6542 184.357 63.7771 185.576L36.5462 197.192C33.686 198.412 30.0304 197.62 28.4396 195.414L22.3469 187.017C20.756 184.824 21.7884 182.02 24.6655 180.8L51.8964 169.185C54.7565 167.965 58.4121 168.77 60.003 170.963Z"
                fill="#AE7CFF"/>
            <path opacity="0.15"
                d="M22.3467 187.004L28.4394 195.414C29.641 197.075 32.0104 197.932 34.329 197.737C34.2274 197.62 34.1259 197.516 34.0413 197.386L27.9486 188.99C26.3577 186.796 27.3901 183.993 30.2672 182.773L57.4981 171.157C58.2089 170.859 58.9705 170.677 59.732 170.612C58.0227 168.679 54.604 168.03 51.8962 169.185L24.6653 180.8C21.7882 182.007 20.7389 184.811 22.3467 187.004Z"
                fill="black"/>
            <path d="M37.8662 182.799L41.5726 187.913C42.0972 188.652 41.7587 189.574 40.7941 189.989C39.8463 190.391 38.6278 190.132 38.0862 189.392L34.3798 184.279C33.8552 183.539 34.1937 182.617 35.1583 182.202C36.1061 181.8 37.3246 182.072 37.8662 182.799Z"
                fill="#67B6FF"/>
            <path d="M44.23 180.087L47.9363 185.201C48.461 185.928 48.1225 186.862 47.1578 187.277C46.1932 187.68 44.9916 187.42 44.45 186.68L40.7436 181.567C40.219 180.84 40.5574 179.906 41.5221 179.49C42.4868 179.088 43.7053 179.348 44.23 180.087Z"
                fill="#67B6FF"/>
            <path d="M50.611 177.361L54.3173 182.475C54.842 183.201 54.5035 184.136 53.5388 184.551C52.5911 184.954 51.3725 184.694 50.831 183.954L47.1246 178.841C46.5999 178.114 46.9384 177.18 47.9031 176.764C48.8678 176.362 50.0863 176.634 50.611 177.361Z"
                fill="#67B6FF"/>
            <path opacity="0.8"
                d="M62.102 183.813C62.4912 184.345 62.2374 185.02 61.5435 185.318L51.3382 189.627C50.6444 189.926 49.7643 189.731 49.375 189.199C48.9858 188.667 49.2396 187.992 49.9335 187.693L60.1388 183.384C60.8327 183.086 61.7127 183.281 62.102 183.813Z"
                fill="#BBE2FF"/>
            <path opacity="0.8"
                d="M48.5283 189.548C48.9175 190.08 48.6637 190.755 47.9698 191.053L44.7881 192.403C44.0942 192.701 43.2141 192.507 42.8249 191.974C42.4356 191.442 42.6895 190.768 43.3834 190.469L46.5651 189.119C47.259 188.821 48.139 189.015 48.5283 189.548Z"
                fill="#BBE2FF"/>
            <path d="M-13.497 208.043C-11.4492 208.796 -9.51983 209.666 -7.75972 210.652C-5.7796 211.755 -3.98565 212.975 -2.36093 214.325C0.0930598 216.376 2.12395 218.673 3.68097 221.152C5.47492 223.994 6.62577 227.07 7.08272 230.223C7.65814 234.156 7.15041 238.205 5.44108 242.124C4.98413 243.189 4.42563 244.24 3.78252 245.278C2.69937 247.017 1.41314 248.639 -0.0423284 250.132C-1.85321 251.975 -3.91795 253.61 -6.20271 255.025C-9.48598 257.049 -13.1754 258.62 -17.1187 259.671C-20.5882 260.605 -24.2607 261.137 -27.984 261.228C-30.4042 261.28 -32.8582 261.163 -35.3122 260.839C-37.9862 260.489 -40.6432 259.892 -43.2496 259.061C-43.7573 258.892 -44.2819 258.723 -44.7897 258.529C-46.1944 258.01 -47.5483 257.439 -48.8345 256.816C-51.0516 255.726 -53.0655 254.48 -54.8764 253.104C-56.3996 251.936 -57.7874 250.677 -59.0059 249.34C-60.7152 247.471 -62.103 245.46 -63.1692 243.344C-64.2016 241.281 -64.9293 239.113 -65.3017 236.894C-66.1817 231.742 -65.2001 226.343 -62.0692 221.294C-59.3275 216.882 -55.2826 213.261 -50.4423 210.6C-48.1068 209.302 -45.5851 208.238 -42.9449 207.408C-40.2371 206.564 -37.3938 205.967 -34.4998 205.643C-32.4181 205.396 -30.3026 205.305 -28.1702 205.344C-25.6654 205.383 -23.1437 205.643 -20.6559 206.097C-18.6758 206.46 -16.6956 206.966 -14.7663 207.602C-14.3263 207.745 -13.9201 207.888 -13.497 208.043Z"
                fill="#C3C11E"/>
            <path d="M3.68082 221.139C5.47478 223.981 6.62562 227.057 7.08257 230.21C4.52703 237.128 1.3453 243.306 -2.00567 248.73C-3.37652 250.95 -4.79816 253.052 -6.20286 255.025C-9.48613 257.049 -13.1756 258.62 -17.1189 259.671C-9.60459 250.794 -0.956384 237.777 3.68082 221.139Z"
                fill="white"/>
            <path opacity="0.15"
                d="M-62.0714 221.282C-66.8101 228.913 -66.607 237.375 -62.4945 244.539C-63.2222 239.542 -62.2068 234.351 -59.1943 229.471C-50.563 215.532 -28.8155 209.601 -10.639 216.22C-2.4139 219.218 3.66186 224.267 7.0636 230.198C5.70967 220.892 -1.68616 212.327 -13.5161 208.018C-31.6926 201.412 -53.4231 207.343 -62.0714 221.282Z"
                fill="black"/>
            <path d="M82.5065 -20.0061C79.0278 -47.753 46.8757 -68.0837 10.6927 -65.4161C-25.4903 -62.7484 -52.0023 -38.0926 -48.5236 -10.3457C-45.0449 17.4012 -12.8928 37.7319 23.2902 35.0643C59.4732 32.3966 85.9852 7.74077 82.5065 -20.0061Z"
                fill="#FFB1DB"/>
            <path opacity="0.1"
                d="M-39.8666 -40.6326C-56.4353 -18.8681 -49.361 8.48999 -24.6519 23.9211C-40.9328 8.10064 -43.8946 -14.3517 -29.8476 -32.8067C-11.5188 -56.8814 28.7775 -64.9928 60.1718 -50.9373C63.1673 -49.5876 65.9767 -48.0951 68.6 -46.4599C63.6412 -51.2748 57.4639 -55.4797 50.1527 -58.7632C18.7585 -72.8186 -21.5378 -64.6943 -39.8666 -40.6326Z"
                fill="black"/>
            <path d="M17.8771 -14.4824C23.6652 5.41321 -0.231647 21.5192 -24.4839 24.2706C-21.9283 25.8539 -19.1866 27.3075 -16.2588 28.6183C-9.57375 31.6162 -2.48255 33.5889 4.71019 34.6272C25.0699 23.6217 34.5135 1.57165 17.8771 -14.4824Z"
                fill="#FB67AE"/>
            <path d="M17.8792 -14.481C42.6222 -9.48442 50.5088 15.6285 41.2852 31.9161C50.9658 28.9701 59.7832 24.246 66.8406 17.9386C63.5911 -0.230966 43.4684 -18.8677 17.8792 -14.481Z"
                fill="#FB67AE"/>
            <path d="M17.8776 -14.4814C-1.95742 -1.12683 -35.1964 -6.86323 -48.0417 -22.9822C-49.768 -14.7929 -48.7864 -6.46088 -45.3677 1.26117C-22.1817 9.82681 8.82324 3.79192 17.8776 -14.4814Z"
                fill="#FB67AE"/>
            <path opacity="0.25"
                d="M59.6802 4.63568C59.6802 -9.44881 44.791 -20.8665 26.4243 -20.8665C8.05762 -20.8665 -6.83154 -9.44881 -6.83154 4.63568C-6.83154 18.7202 8.05762 30.1379 26.4243 30.1379C44.791 30.1379 59.6802 18.7202 59.6802 4.63568Z"
                fill="white"/>
            <path d="M328.049 73.5228L302.036 68.3834C297.788 67.5399 293.93 70.5508 295.114 73.7953L302.324 93.6391C303.509 96.8836 308.823 97.9349 311.903 95.5339L330.706 80.8296C333.769 78.4286 332.297 74.3664 328.049 73.5228Z"
                fill="#5D00FF"/>
            <path opacity="0.15"
                d="M316.254 71.1997L328.05 73.5228C332.298 74.3664 333.771 78.4156 330.707 80.8295L322.178 87.4874L316.254 71.1997Z"
                fill="black"/>
            <path d="M394.628 66.604L420.641 71.7434C424.889 72.587 428.747 69.576 427.563 66.3315L420.353 46.4877C419.168 43.2432 413.854 42.192 410.774 44.5929L391.971 59.2973C388.891 61.7112 390.363 65.7734 394.628 66.604Z"
                fill="#008DFF"/>
            <path opacity="0.15"
                d="M406.409 68.9285L394.612 66.6054C390.365 65.7618 388.875 61.7126 391.955 59.2987L400.485 52.6409L406.409 68.9285Z"
                fill="black"/>
            <path d="M397.505 53.0705L403.784 70.3575C405.172 74.1601 402.244 78.1315 397.285 79.1957L337.932 91.8754C332.974 92.9396 327.795 90.6944 326.407 86.8918L320.128 69.6048C318.741 65.8022 321.668 61.8308 326.627 60.7666L385.98 48.0868C390.939 47.0226 396.118 49.2679 397.505 53.0705Z"
                fill="#5D00FF"/>
            <path d="M367.6 85.5283L397.267 79.1949C402.226 78.1307 405.154 74.1594 403.766 70.3568L397.487 53.0698C396.1 49.2671 390.921 47.0219 385.962 48.0861L356.294 54.4195L367.6 85.5283Z"
                fill="#008DFF"/>
            <path opacity="0.15"
                d="M320.129 69.5909L326.407 86.8779C327.423 89.6942 330.537 91.6539 334.091 92.0432C333.871 91.6928 333.685 91.3165 333.549 90.9401L327.271 73.6531C325.883 69.8505 328.811 65.8791 333.769 64.8149L393.122 52.1352C394.408 51.8626 395.712 51.8107 396.964 51.9535C395.068 48.8387 390.431 47.1256 385.98 48.073L326.627 60.7527C321.669 61.817 318.741 65.7883 320.129 69.5909Z"
                fill="black"/>
            <path opacity="0.25"
                d="M396.879 74.0169C397.505 75.756 396.168 77.5859 393.9 78.0661L344.888 88.5266C342.62 89.0067 340.234 87.9815 339.608 86.2424C338.981 84.5033 340.318 82.6734 342.586 82.1932L391.598 71.7327C393.866 71.2525 396.253 72.2778 396.879 74.0169Z"
                fill="white"/>
            <path d="M609.123 10.0344L583.111 4.89501C578.863 4.05143 575.004 7.0624 576.189 10.307L583.398 30.1506C584.583 33.3952 589.897 34.4465 592.977 32.0455L611.78 17.3411C614.86 14.9402 613.388 10.878 609.123 10.0344Z"
                fill="#FFDC8C"/>
            <path opacity="0.15"
                d="M597.343 7.71084L609.139 10.0339C613.387 10.8775 614.86 14.9267 611.796 17.3407L603.267 23.9985L597.343 7.71084Z"
                fill="black"/>
            <path d="M678.58 -10.4191L684.859 6.86791C686.247 10.6705 683.319 14.6419 678.36 15.7061L619.007 28.3858C614.049 29.4501 608.87 27.2048 607.482 23.4022L601.203 6.11519C599.815 2.31257 602.743 -1.65876 607.702 -2.72298L667.055 -15.4027C672.014 -16.4669 677.209 -14.2217 678.58 -10.4191Z"
                fill="#FFDC8C"/>
            <path d="M648.69 22.0394L678.358 15.706C683.317 14.6418 686.245 10.6705 684.857 6.86786L678.578 -10.4191C677.19 -14.2217 672.011 -16.467 667.053 -15.4027L637.385 -9.06941L648.69 22.0394Z"
                fill="#FFA28C"/>
            <path opacity="0.15"
                d="M601.202 6.10256L607.48 23.3896C608.496 26.2059 611.61 28.1656 615.164 28.5549C614.944 28.2045 614.758 27.8281 614.622 27.4518L608.344 10.1648C606.956 6.36213 609.884 2.3908 614.842 1.32658L674.195 -11.3531C675.481 -11.6257 676.785 -11.6776 678.037 -11.5349C676.141 -14.6496 671.504 -16.3627 667.053 -15.4153L607.7 -2.73561C602.759 -1.6714 599.831 2.29994 601.202 6.10256Z"
                fill="black"/>
            <path opacity="0.25"
                d="M677.969 10.5264C678.595 12.2655 677.258 14.0954 674.991 14.5756L625.978 25.0361C623.71 25.5163 621.324 24.491 620.698 22.7519C620.072 21.0128 621.409 19.1829 623.677 18.7027L672.689 8.24222C674.957 7.76203 677.326 8.78732 677.969 10.5264Z"
                fill="white"/>
            <path d="M292.792 113.679L301.661 125.905C303.979 129.11 302.473 133.185 298.293 134.963L258.657 151.861C254.476 153.639 249.162 152.484 246.844 149.278L237.975 137.053C235.657 133.847 237.163 129.772 241.343 127.994L280.979 111.096C285.16 109.305 290.474 110.473 292.792 113.679Z"
                fill="#AE7CFF"/>
            <path opacity="0.15"
                d="M237.993 137.027L246.861 149.252C248.604 151.666 252.057 152.912 255.424 152.627C255.272 152.458 255.137 152.302 255.018 152.121L246.15 139.895C243.831 136.689 245.338 132.614 249.518 130.836L289.154 113.939C290.187 113.497 291.287 113.238 292.404 113.147C289.916 110.331 284.957 109.383 280.997 111.07L241.36 127.968C237.18 129.746 235.657 133.821 237.993 137.027Z"
                fill="black"/>
            <path d="M260.569 130.902L265.968 138.338C266.746 139.403 266.239 140.765 264.851 141.362C263.463 141.959 261.686 141.57 260.908 140.506L255.509 133.069C254.73 132.005 255.238 130.642 256.626 130.045C258.031 129.448 259.808 129.838 260.569 130.902Z"
                fill="#67B6FF"/>
            <path d="M269.859 126.955L275.258 134.392C276.037 135.456 275.529 136.819 274.141 137.416C272.753 138.013 270.976 137.624 270.198 136.559L264.799 129.123C264.021 128.059 264.528 126.696 265.916 126.099C267.304 125.489 269.081 125.878 269.859 126.955Z"
                fill="#67B6FF"/>
            <path d="M279.135 122.997L284.534 130.433C285.313 131.497 284.805 132.86 283.417 133.457C282.029 134.054 280.252 133.665 279.474 132.601L274.075 125.164C273.297 124.1 273.804 122.737 275.192 122.14C276.58 121.543 278.357 121.932 279.135 122.997Z"
                fill="#67B6FF"/>
            <path opacity="0.8"
                d="M295.857 132.38C296.415 133.159 296.043 134.132 295.027 134.561L280.168 140.842C279.152 141.27 277.883 140.985 277.325 140.206C276.766 139.428 277.138 138.454 278.154 138.026L293.013 131.744C294.012 131.316 295.298 131.602 295.857 132.38Z"
                fill="#BBE2FF"/>
            <path opacity="0.8"
                d="M276.107 140.726C276.666 141.504 276.293 142.478 275.278 142.906L270.641 144.866C269.625 145.294 268.356 145.008 267.797 144.23C267.239 143.451 267.611 142.478 268.627 142.049L273.264 140.09C274.262 139.661 275.549 139.947 276.107 140.726Z"
                fill="#BBE2FF"/>
            <path d="M489.13 -30.846C492.058 -32.8446 495.189 -34.428 498.405 -35.596C501.028 -36.5694 503.702 -37.2442 506.308 -37.6335C512.503 -38.568 518.324 -37.8542 522.505 -35.3883C523.216 -34.9601 523.892 -34.4798 524.502 -33.9477C528.716 -30.3138 529.427 -24.9798 527.125 -19.5549C525.483 -15.6874 522.302 -11.755 517.749 -8.36764C517.309 -8.03021 516.835 -7.69279 516.361 -7.36833C512.215 -4.53908 507.595 -2.51447 503.042 -1.35941C494.461 0.833916 486.033 -0.00964661 481.091 -4.17566L480.973 -4.26652C479.433 -5.5903 478.367 -7.13469 477.74 -8.83484C476.403 -12.4298 477.063 -16.6737 479.45 -20.8527C480.939 -23.4613 483.088 -26.018 485.864 -28.3801C486.879 -29.2366 487.963 -30.0673 489.13 -30.846Z"
                fill="#FB67AE"/>
            <path d="M484.509 -8.5629C489.112 -11.7036 496.17 -11.3921 500.265 -7.86207C502.415 -6.01916 503.329 -3.64417 503.041 -1.36C494.46 0.833325 486.032 -0.0102379 481.09 -4.17625C481.598 -5.81151 482.749 -7.35593 484.509 -8.5629Z"
                fill="#D43B8B"/>
            <path d="M508.767 26.6077C513.573 29.0476 517.72 31.8768 521.105 34.9397C523.897 37.4445 526.182 40.105 527.891 42.8045C531.97 49.2158 532.867 55.8477 529.854 61.3634V61.3764C529.347 62.3238 528.704 63.2323 527.942 64.1148C522.78 70.0977 513.15 72.8881 502.183 72.4338C494.365 72.0964 485.869 70.1107 477.847 66.4379C477.051 66.0875 476.239 65.6981 475.46 65.2958C468.623 61.8306 463.123 57.5607 459.23 53.0184C451.902 44.4657 450.277 34.9397 456.133 27.9574L456.268 27.8017C458.147 25.6213 460.618 23.8693 463.529 22.5455C469.689 19.7292 477.847 18.8337 486.512 19.859C491.911 20.4949 497.496 21.8836 502.945 24.025H502.962C504.908 24.7777 506.855 25.6343 508.767 26.6077Z"
                fill="#7C9AFF"/>
            <path opacity="0.1"
                d="M456.234 27.8019C452.562 32.0588 451.732 37.276 453.306 42.662C453.831 40.3389 454.914 38.1326 456.64 36.1469C465.83 25.4788 489.338 24.9467 509.139 34.9789C521.037 41.0138 528.889 49.4886 531.259 57.6C533.544 47.425 524.845 34.7972 508.75 26.6339C488.932 16.6147 465.441 17.1338 456.234 27.8019Z"
                fill="black"/>
            <path d="M465.595 30.0083C473.177 33.8498 475.258 41.6757 470.249 47.49C467.626 50.5269 463.581 52.4217 459.231 52.9797C451.903 44.4271 450.279 34.901 456.134 27.9188C459.384 27.8668 462.684 28.5417 465.595 30.0083Z"
                fill="#4D85DF"/>
            <path d="M503.234 39.8729C503.234 34.3537 497.4 29.8796 490.202 29.8796C483.005 29.8796 477.171 34.3537 477.171 39.8729C477.171 45.392 483.005 49.8661 490.202 49.8661C497.4 49.8661 503.234 45.392 503.234 39.8729Z"
                fill="#4D85DF"/>
            <path d="M486.512 19.8328C486.156 20.6504 485.665 21.468 485.005 22.2208C481.028 26.8281 472.955 28.0869 466.947 25.05C465.576 24.3492 464.426 23.4796 463.529 22.5193C469.689 19.703 477.846 18.7945 486.512 19.8328Z"
                fill="#4D85DF"/>
            <path d="M497.986 59.2224C503.707 62.1166 505.467 67.8918 502.184 72.4083C494.365 72.0708 485.869 70.0852 477.847 66.4123C478.067 64.8939 478.744 63.4014 479.911 62.0517C483.872 57.4444 491.978 56.1725 497.986 59.2224Z"
                fill="#4D85DF"/>
            <path d="M527.892 42.7923C531.97 49.2035 532.867 55.8354 529.855 61.3512V61.3641C525.844 62.8566 520.953 62.7269 516.976 60.7152C510.968 57.6653 509.309 51.4617 513.286 46.8544C516.519 43.0908 522.527 41.5464 527.892 42.7923Z"
                fill="#4D85DF"/>
            <path d="M508.767 26.6086C513.573 29.0485 517.719 31.8777 521.104 34.9406C517.178 36.3033 512.456 36.1346 508.58 34.1749C504.079 31.8907 502.031 27.8415 502.945 24.0129C504.908 24.7786 506.854 25.6352 508.767 26.6086Z"
                fill="#4D85DF"/>
            <path opacity="0.25"
                d="M503.571 63.8163L503.267 64.1668C501.896 65.7631 499.052 66.2173 496.971 65.1531L464.544 48.7226C462.463 47.6714 461.87 45.4911 463.258 43.8947L463.563 43.5443C464.933 41.948 467.777 41.4938 469.858 42.558L502.285 58.9884C504.384 60.0397 504.959 62.22 503.571 63.8163Z"
                fill="white"/>
            <path d="M157.35 101.622C159.499 99.1305 162.004 96.9761 164.695 95.2111C166.895 93.7575 169.247 92.5765 171.634 91.694C177.286 89.5785 183.142 89.1113 187.999 90.6817C188.829 90.9542 189.641 91.2787 190.419 91.668C195.7 94.3415 198.171 99.3382 197.765 105.036C197.477 109.098 195.717 113.51 192.467 117.663C192.146 118.079 191.807 118.494 191.469 118.896C188.406 122.439 184.648 125.295 180.637 127.319C173.089 131.122 164.678 131.965 158.518 128.929L158.382 128.864C156.453 127.89 154.913 126.605 153.745 125.1C151.257 121.894 150.462 117.676 151.376 113.173C151.934 110.37 153.153 107.476 155.048 104.646C155.742 103.621 156.504 102.622 157.35 101.622Z"
                fill="#FFDEC3"/>
            <path opacity="0.1"
                d="M158.418 128.877C162.175 130.785 166.778 131.213 171.534 130.395C169.486 130.123 167.54 129.552 165.78 128.669C156.353 123.893 155.896 111.707 164.747 101.428C170.061 95.2502 177.542 91.1751 184.718 89.9551C175.731 88.7741 164.595 93.2775 157.385 101.636C148.534 111.914 148.991 124.114 158.418 128.877Z"
                fill="black"/>
            <path d="M160.361 124.023C163.746 120.091 170.651 119.001 175.796 121.609C178.487 122.972 180.145 125.075 180.636 127.333C173.088 131.135 164.677 131.979 158.516 128.942C158.465 127.255 159.058 125.542 160.361 124.023Z"
                fill="#DFBCA7"/>
            <path d="M161.699 107.527C164.39 104.413 169.856 103.556 173.918 105.607C177.98 107.67 179.097 111.862 176.423 114.977C173.732 118.092 168.265 118.948 164.203 116.898C160.142 114.847 159.008 110.642 161.699 107.527Z"
                fill="#DFBCA7"/>
            <path d="M151.376 113.173C152.103 113.355 152.814 113.615 153.474 113.952C157.536 116.016 158.653 120.208 155.962 123.322C155.353 124.036 154.574 124.633 153.728 125.1C151.257 121.895 150.462 117.664 151.376 113.173Z"
                fill="#DFBCA7"/>
            <path d="M186.122 107.215C188.677 104.256 193.772 103.334 197.766 105.035C197.478 109.097 195.718 113.509 192.468 117.662C191.131 117.546 189.811 117.195 188.627 116.585C184.565 114.535 183.448 110.343 186.122 107.215Z"
                fill="#DFBCA7"/>
            <path d="M171.634 91.6942C177.287 89.5788 183.143 89.1116 188 90.6819C189.32 92.7584 189.201 95.3022 187.424 97.3657C184.733 100.48 179.267 101.337 175.188 99.2865C171.888 97.5993 170.534 94.4845 171.634 91.6942Z"
                fill="#DFBCA7"/>
            <path d="M157.351 101.622C159.5 99.1305 162.005 96.9761 164.696 95.2111C165.898 97.2487 165.745 99.7016 164.019 101.713C162.005 104.049 158.417 105.113 155.049 104.633C155.743 103.621 156.505 102.622 157.351 101.622Z"
                fill="#DFBCA7"/>
            <path opacity="0.25"
                d="M190.183 104.322L190.487 104.477C191.892 105.191 192.298 106.658 191.35 107.748L176.846 124.581C175.916 125.658 174.003 125.969 172.582 125.242L172.277 125.087C170.872 124.373 170.466 122.906 171.414 121.816L185.918 104.983C186.866 103.906 188.778 103.595 190.183 104.322Z"
                fill="white"/>
            <path d="M471.611 163.265C467.787 135.543 435.382 115.447 399.232 118.38C363.081 121.312 336.876 146.163 340.7 173.884C344.524 201.606 376.929 221.702 413.08 218.769C449.23 215.837 475.435 190.987 471.611 163.265Z"
                fill="#FFB1DB"/>
            <path opacity="0.1"
                d="M349.32 143.152C332.751 164.916 339.825 192.274 364.535 207.706C348.254 191.885 345.292 169.433 359.339 150.978C377.668 126.903 417.964 118.792 449.358 132.847C452.354 134.197 455.163 135.689 457.786 137.325C452.828 132.51 446.65 128.305 439.339 125.021C407.962 110.966 367.649 119.077 349.32 143.152Z"
                fill="black"/>
            <path d="M407.08 169.289C398.956 148.511 424.563 133.482 448.036 129.9C445.328 128.2 442.434 126.63 439.32 125.228C432.889 122.347 426.086 120.413 419.181 119.349C397.653 130.302 390.951 154.689 407.08 169.289Z"
                fill="#FB67AE"/>
            <path d="M407.081 169.291C412.869 189.186 388.972 205.292 364.72 208.044C367.275 209.627 370.017 211.081 372.945 212.391C379.63 215.389 386.721 217.362 393.914 218.4C414.257 207.408 423.717 185.358 407.081 169.291Z"
                fill="#FB67AE"/>
            <path d="M407.082 169.292C383.405 162.387 372.523 138.702 383.117 121.545C373.267 124.361 364.264 128.981 357.02 135.237C358.797 154.665 380.545 172.29 407.082 169.292Z"
                fill="#FB67AE"/>
            <path d="M407.082 169.291C431.825 174.287 439.711 199.4 430.488 215.688C440.168 212.742 448.986 208.018 456.043 201.71C452.794 183.541 432.671 164.917 407.082 169.291Z"
                fill="#FB67AE"/>
            <path d="M407.082 169.29C425.462 155.585 455.536 162.178 471.174 176.532C472.815 168.382 471.8 160.102 468.364 152.431C446.871 145.54 414.292 149.433 407.082 169.29Z"
                fill="#FB67AE"/>
            <path d="M407.082 169.291C387.247 182.645 354.008 176.909 341.163 160.79C339.436 168.979 340.418 177.311 343.837 185.033C367.006 193.599 398.028 187.564 407.082 169.291Z"
                fill="#FB67AE"/>
            <path d="M407.186 158.166C399.167 157.171 391.615 161.35 390.318 167.498C389.021 173.647 394.47 179.439 402.488 180.433C410.507 181.428 418.059 177.25 419.356 171.101C420.653 164.952 415.204 159.161 407.186 158.166Z"
                fill="#FB67AE"/>
            <path opacity="0.25"
                d="M420.919 163.261C402.787 161.019 385.718 170.472 382.794 184.377C379.87 198.281 392.198 211.37 410.33 213.612C428.462 215.855 445.531 206.401 448.454 192.497C451.378 178.592 439.05 165.503 420.919 163.261Z"
                fill="white"/>
            <path opacity="0.25"
                d="M461.069 161.828C461.069 156.71 455.659 152.562 448.986 152.562C442.312 152.562 436.902 156.71 436.902 161.828C436.902 166.946 442.312 171.094 448.986 171.094C455.659 171.094 461.069 166.946 461.069 161.828Z"
                fill="white"/>
            <path d="M421.941 -19.4515L428.034 -11.0416C429.625 -8.8483 428.593 -6.04499 425.715 -4.82504L398.485 6.79046C395.624 8.01041 391.969 7.21874 390.378 5.01244L384.285 -3.38447C382.694 -5.57779 383.727 -8.3811 386.604 -9.60106L413.835 -21.2166C416.695 -22.4495 420.351 -21.6578 421.941 -19.4515Z"
                fill="#AE7CFF"/>
            <path opacity="0.15"
                d="M384.285 -3.41008L390.378 4.99979C391.579 6.661 393.949 7.51758 396.267 7.3229C396.166 7.2061 396.064 7.10229 395.98 6.9725L389.887 -1.42441C388.296 -3.61774 389.328 -6.42105 392.206 -7.641L419.436 -19.2565C420.147 -19.555 420.909 -19.7367 421.67 -19.8016C419.961 -21.7354 416.542 -22.3843 413.835 -21.2292L386.604 -9.61368C383.726 -8.41968 382.694 -5.61638 384.285 -3.41008Z"
                fill="black"/>
            <path opacity="0.8"
                d="M410.468 -0.867355C410.857 -0.335248 410.603 0.339625 409.909 0.638124L406.728 1.98787C406.034 2.28637 405.154 2.09168 404.764 1.55957C404.375 1.02746 404.629 0.352587 405.323 0.0540881L408.505 -1.29562C409.215 -1.59412 410.095 -1.39946 410.468 -0.867355Z"
                fill="#BBE2FF"/>
            <path d="M121.912 -4.34367C121.049 -5.35598 119.305 -5.66745 117.952 -5.03152C116.598 -4.39558 116.191 -3.04587 116.987 -2.00761L115.057 -1.08612C114.161 -1.96864 112.536 -2.21526 111.266 -1.60529C109.997 -1.00829 109.557 0.224649 110.183 1.23695L108.22 2.17139C107.323 1.28887 105.698 1.04229 104.429 1.65226C103.16 2.24926 102.72 3.4822 103.346 4.4945L101.417 5.41594C100.57 4.40364 98.8103 4.09216 97.4564 4.7281C96.1025 5.36403 95.6794 6.71379 96.4917 7.75205L97.7949 9.36134C102.127 14.7213 111.385 16.3955 118.392 13.0731C125.381 9.75066 127.564 2.65159 123.232 -2.72139L121.912 -4.34367Z"
                fill="#FDCFCA"/>
            <path opacity="0.15"
                d="M125.382 2.18314C125.907 6.40106 123.368 10.6839 118.375 13.0589C113.383 15.4209 107.239 15.2522 102.568 13.02L125.382 2.18314Z"
                fill="black"/>
            <path d="M152.105 76.6264C152.968 77.6387 154.711 77.9502 156.065 77.3142C157.419 76.6783 157.825 75.3286 157.029 74.2903L158.959 73.3689C159.856 74.2514 161.481 74.498 162.75 73.888C164.019 73.291 164.459 72.0581 163.833 71.0458L165.796 70.1113C166.693 70.9938 168.318 71.2404 169.587 70.6304C170.856 70.0334 171.297 68.8005 170.67 67.7882L172.6 66.8668C173.446 67.8791 175.206 68.1905 176.56 67.5546C177.914 66.9187 178.337 65.569 177.525 64.5307L176.221 62.9214C171.889 57.5614 162.631 55.8872 155.625 59.2096C148.635 62.532 146.452 69.6311 150.785 75.0041L152.105 76.6264Z"
                fill="#FDCFCA"/>
            <path opacity="0.15"
                d="M148.651 70.0984C148.127 65.8804 150.665 61.5976 155.658 59.2226C160.651 56.8606 166.794 57.0293 171.465 59.2616L148.651 70.0984Z"
                fill="black"/>
            <path d="M138.733 7.33756L171.43 47.8556C171.464 47.9075 171.515 47.9594 171.549 48.0113C174.121 51.3727 172.717 55.7593 168.384 57.8229L148.312 67.3489C147.347 67.8031 146.349 68.1016 145.3 68.2703C141.509 68.8803 137.464 67.6474 135.314 64.9998L102.617 24.4818C99.8922 21.0945 101.263 16.617 105.68 14.5145L125.752 4.9885C128.24 3.80748 131.185 3.62579 133.774 4.30066C135.754 4.81979 137.548 5.85804 138.733 7.33756Z"
                fill="#865868"/>
            <path d="M138.734 7.33661L141.222 10.4124L110.437 34.1626L104.531 26.8559L133.759 4.29971C135.756 4.81884 137.55 5.85709 138.734 7.33661Z"
                fill="#FDCFCA"/>
            <path d="M145.436 15.6297L151.325 22.9365L120.557 46.6996L114.651 39.3799L145.436 15.6297Z"
                fill="#FDCFCA"/>
            <path d="M155.557 28.1678L161.446 35.4616L130.661 59.2247L124.772 51.918L155.557 28.1678Z"
                fill="#FDCFCA"/>
            <path d="M165.66 40.6899L171.431 47.8539C171.465 47.9058 171.516 47.9577 171.549 48.0096L145.3 68.2686C141.509 68.8786 137.464 67.6457 135.315 64.9981L134.875 64.4531L165.66 40.6899Z"
                fill="#FDCFCA"/>
            <path opacity="0.15"
                d="M133.876 4.43029C131.287 3.75543 128.342 3.93712 125.854 5.11814L105.782 14.6442C102.618 16.1496 101.027 18.875 101.382 21.5485C101.975 21.0294 102.668 20.5752 103.464 20.1988L123.536 10.6728C126.024 9.4918 128.969 9.31011 131.558 9.98498C133.555 10.5041 135.332 11.5424 136.534 13.0219L169.231 53.5399C169.265 53.5918 169.316 53.6437 169.349 53.6957C170.06 54.6171 170.449 55.6034 170.585 56.6028C173.225 54.3186 173.784 50.8924 171.668 48.141C171.634 48.0891 171.6 48.0372 171.55 47.9852L138.852 7.4672C137.651 5.98768 135.857 4.94942 133.876 4.43029Z"
                fill="black"/>
            <path opacity="0.25"
                d="M128.716 40.1058C125.788 41.4944 121.912 40.7936 120.085 38.5484L111.589 28.023C109.778 25.7778 110.692 22.8058 113.62 21.4041C116.547 20.0154 120.423 20.7163 122.251 22.9615L130.747 33.4869C132.558 35.7451 131.644 38.7171 128.716 40.1058Z"
                fill="white"/>
            <path opacity="0.25"
                d="M136.973 50.3332C134.045 51.7218 130.17 51.021 128.342 48.7758L127.394 47.6077C125.583 45.3625 126.497 42.3905 129.425 40.9888C132.353 39.6002 136.228 40.301 138.056 42.5462L139.004 43.7143C140.815 45.9725 139.901 48.9445 136.973 50.3332Z"
                fill="white"/>
            <path d="M635.931 161.919C634.543 164.165 631.006 165.125 628.078 164.061L557.065 138.182C554.137 137.118 552.884 134.406 554.272 132.16C555.66 129.915 559.197 128.955 562.125 130.019L633.138 155.898C636.066 156.962 637.336 159.674 635.931 161.919Z"
                fill="#FEAB57"/>
            <path opacity="0.15"
                d="M554.255 132.186C553.002 134.211 553.899 136.612 556.235 137.845C556.167 137.105 556.336 136.326 556.793 135.612C558.181 133.367 561.718 132.407 564.646 133.471L635.66 159.35C635.947 159.453 636.218 159.583 636.472 159.713C636.337 158.13 635.118 156.65 633.121 155.923L562.108 130.045C559.18 128.98 555.643 129.941 554.255 132.186Z"
                fill="black"/>
            <path d="M564.12 103.557C566.168 104.31 568.097 105.179 569.858 106.166C571.838 107.269 573.632 108.489 575.256 109.838C577.71 111.889 579.741 114.186 581.298 116.665C583.092 119.507 584.243 122.583 584.7 125.737C585.275 129.669 584.768 133.718 583.058 137.638C582.601 138.702 582.043 139.753 581.4 140.791C580.317 142.531 579.03 144.153 577.575 145.645C575.764 147.488 573.699 149.123 571.415 150.538C568.131 152.563 564.442 154.133 560.499 155.184C557.029 156.119 553.357 156.651 549.633 156.742C547.213 156.794 544.759 156.677 542.305 156.352C539.631 156.002 536.974 155.405 534.368 154.574C533.86 154.406 533.335 154.237 532.828 154.042C531.423 153.523 530.069 152.952 528.783 152.329C526.566 151.239 524.552 149.993 522.741 148.617C521.218 147.449 519.83 146.19 518.611 144.854C516.902 142.985 515.514 140.973 514.448 138.858C513.416 136.794 512.688 134.627 512.316 132.407C511.436 127.255 512.417 121.856 515.548 116.808C518.29 112.395 522.335 108.774 527.175 106.114C529.511 104.816 532.032 103.752 534.672 102.921C537.38 102.077 540.223 101.48 543.117 101.156C545.199 100.909 547.315 100.818 549.447 100.857C551.952 100.896 554.474 101.156 556.961 101.61C558.942 101.974 560.922 102.48 562.851 103.116C563.274 103.271 563.697 103.414 564.12 103.557Z"
                fill="#E7C26B"/>
            <path d="M549.447 100.87C546.654 112.278 542.051 122.089 537.024 130.201C532.252 137.884 527.107 144.048 522.74 148.63C521.217 147.462 519.829 146.203 518.611 144.866C526.921 135.898 537.921 121.038 543.117 101.181C545.199 100.922 547.331 100.818 549.447 100.87Z"
                fill="white"/>
            <path d="M534.688 102.921C531.913 111.499 528.189 119.04 524.178 125.503C520.997 130.642 517.646 135.094 514.464 138.857C513.432 136.794 512.704 134.626 512.332 132.407C517.646 125.503 523.163 116.691 527.174 106.113C529.51 104.828 532.031 103.751 534.688 102.921Z"
                fill="white"/>
            <path d="M562.868 103.129C560.16 115.575 555.269 126.191 549.887 134.873C544.674 143.296 538.988 149.902 534.367 154.574C533.86 154.406 533.335 154.237 532.827 154.042C531.423 153.523 530.069 152.952 528.782 152.329C537.769 143.309 551.833 125.918 556.961 101.623C558.958 101.987 560.938 102.493 562.868 103.129Z"
                fill="white"/>
            <path d="M569.859 106.168C571.839 107.271 573.633 108.491 575.258 109.84C572.482 121.417 567.828 131.358 562.751 139.561C558.401 146.569 553.747 152.318 549.635 156.744C547.215 156.796 544.761 156.679 542.307 156.354C551.327 147.14 564.883 129.97 569.859 106.168Z"
                fill="white"/>
            <path d="M581.3 116.665C583.094 119.508 584.245 122.583 584.702 125.737C582.146 132.655 578.982 138.832 575.614 144.257C574.243 146.476 572.821 148.579 571.417 150.552C568.133 152.576 564.444 154.147 560.5 155.198C568.015 146.321 576.663 133.303 581.3 116.665Z"
                fill="white"/>
            <path opacity="0.15"
                d="M515.548 116.807C510.81 124.438 511.013 132.9 515.125 140.064C514.398 135.067 515.413 129.876 518.426 124.996C527.057 111.058 548.804 105.126 566.981 111.745C575.206 114.743 581.282 119.792 584.683 125.723C583.329 116.418 575.934 107.852 564.104 103.543C545.927 96.9373 524.18 102.868 515.548 116.807Z"
                fill="black"/>
            <path opacity="0.15"
                d="M556.81 128.084L583.06 137.649C582.603 138.714 582.044 139.765 581.401 140.803C580.318 142.542 579.032 144.164 577.576 145.657L551.767 136.248L556.81 128.084Z"
                fill="black"/>
            <path opacity="0.5"
                d="M550.106 134.885C554.676 136.547 556.622 140.739 554.456 144.243C552.289 147.747 546.823 149.239 542.253 147.578C537.684 145.917 535.737 141.725 537.904 138.221C540.07 134.704 545.536 133.211 550.106 134.885Z"
                fill="white"/>
            <path opacity="0.5"
                d="M535.056 140.167C533.901 138.231 530.918 137.381 528.394 138.267C525.87 139.153 524.761 141.441 525.916 143.376C527.072 145.312 530.055 146.162 532.579 145.276C535.103 144.39 536.212 142.102 535.056 140.167Z"
                fill="white"/>
            <path d="M560.72 234.636L558.858 206.227C558.554 201.58 564.934 198.427 570.316 200.542L571.755 201.113L588.357 207.641L603.318 213.52C604.198 213.871 604.96 214.312 605.569 214.831C605.687 214.935 605.806 215.039 605.924 215.143C606.263 215.48 606.55 215.817 606.787 216.181C607.092 216.661 607.329 217.167 607.464 217.699C607.481 217.712 607.464 217.712 607.464 217.712C607.718 218.699 607.651 219.724 607.261 220.697C606.889 221.632 606.212 222.501 605.247 223.228C605.129 223.319 604.993 223.41 604.858 223.501C604.587 223.669 604.317 223.838 604.012 223.981L589.88 230.976L574.225 238.737L572.855 239.412C567.794 241.93 561.042 239.282 560.72 234.636Z"
                fill="#FB67AE"/>
            <path opacity="0.15"
                d="M588.39 207.642L603.351 213.521C608.75 215.649 609.139 221.45 604.045 223.981L589.93 230.976L588.39 207.642Z"
                fill="black"/>
            <path d="M560.72 234.636L558.859 206.226C558.554 201.58 564.934 198.427 570.316 200.542L571.755 201.113L574.243 238.737L572.872 239.412C567.795 241.93 561.042 239.282 560.72 234.636Z"
                fill="#D43B8B"/>
            <path d="M654.649 187.966C657.882 188.108 661.03 188.42 664.076 188.861C669.136 189.601 673.858 190.743 678.14 192.209C691.595 196.804 700.615 204.681 701.225 213.909C701.885 223.837 692.627 232.935 678.14 238.49C673.858 240.138 669.136 241.462 664.076 242.409C661.047 242.98 657.882 243.409 654.649 243.694C653.059 243.837 651.434 243.941 649.792 244.006C646.661 244.122 643.581 244.096 640.569 243.941C637.336 243.772 634.171 243.447 631.142 242.98C626.082 242.189 621.343 241.008 617.078 239.502C604.013 234.869 595.263 227.121 594.654 218.036C594.01 208.263 602.98 199.283 617.078 193.715C621.326 192.028 626.065 190.665 631.142 189.666C634.171 189.069 637.319 188.627 640.569 188.316C642.38 188.147 644.224 188.03 646.103 187.953C648.997 187.81 651.857 187.836 654.649 187.966Z"
                fill="#FB67AE"/>
            <path d="M631.141 189.64V242.967C626.081 242.175 621.342 240.994 617.077 239.489V193.689C621.325 192.002 626.064 190.626 631.141 189.64Z"
                fill="#D43B8B"/>
            <path d="M654.647 187.967V243.682C653.057 243.825 651.432 243.929 649.79 243.994C646.659 244.11 643.579 244.084 640.567 243.929V188.304C642.378 188.135 644.222 188.019 646.101 187.941C648.995 187.811 651.855 187.837 654.647 187.967Z"
                fill="#D43B8B"/>
            <path opacity="0.15"
                d="M646.033 187.926C616.602 189.055 593.569 202.527 594.584 218.01C595.075 225.42 600.998 231.948 610.256 236.62C607.582 233.48 605.974 230.014 605.72 226.316C604.705 210.833 627.738 197.361 657.169 196.232C672.503 195.635 686.55 198.516 696.62 203.604C688.09 193.598 668.441 187.07 646.033 187.926Z"
                fill="black"/>
            <path opacity="0.25"
                d="M676.242 224.267C676.242 219.68 665.619 215.961 652.515 215.961C639.41 215.961 628.787 219.68 628.787 224.267C628.787 228.855 639.41 232.573 652.515 232.573C665.619 232.573 676.242 228.855 676.242 224.267Z"
                fill="white"/>
            <path d="M277.916 37.6507L257.218 55.1973C253.833 58.0655 247.656 57.0532 246.115 53.3673L245.692 52.381L240.937 41.051L236.638 30.8371C236.384 30.2271 236.283 29.6302 236.316 29.0461C236.316 28.9293 236.333 28.8125 236.35 28.6957C236.401 28.3453 236.503 28.0208 236.655 27.6964C236.841 27.2811 237.095 26.8787 237.416 26.5024C237.416 26.4894 237.416 26.5024 237.416 26.5024C238.026 25.8016 238.855 25.2305 239.82 24.8412C240.75 24.4648 241.817 24.2442 242.951 24.2701C243.103 24.2701 243.238 24.2831 243.391 24.2831C243.678 24.2961 243.966 24.335 244.254 24.374L257.928 26.6322L273.092 29.124L274.429 29.3446C279.354 30.1752 281.301 34.7825 277.916 37.6507Z"
                fill="#AE98FF"/>
            <path opacity="0.15"
                d="M240.937 41.051L236.638 30.8501C235.081 27.1643 239.312 23.5823 244.254 24.387L257.929 26.6452L240.937 41.051Z"
                fill="black"/>
            <path d="M277.915 37.6507L257.217 55.1973C253.832 58.0655 247.655 57.0532 246.115 53.3674L245.692 52.381L273.092 29.137L274.429 29.3577C279.354 30.1753 281.3 34.7825 277.915 37.6507Z"
                fill="#6857DF"/>
            <path d="M236.032 -5.95728C237.826 -4.41287 239.434 -2.80358 240.889 -1.1813C243.292 1.54413 245.205 4.33445 246.61 7.13775C250.993 15.911 250.265 24.6064 243.546 30.3169C236.32 36.4556 223.897 37.6366 211.103 34.3661C207.329 33.4057 203.521 32.0559 199.814 30.3169C197.597 29.2786 195.397 28.1106 193.282 26.8128C192.232 26.1768 191.2 25.5019 190.185 24.8011C188.255 23.4643 186.444 22.0497 184.82 20.6092C183.043 19.0518 181.435 17.4295 180.013 15.7942C177.627 13.0428 175.765 10.2136 174.411 7.39729C170.282 -1.22026 171.077 -9.73396 177.695 -15.3406C184.82 -21.3884 196.971 -22.6214 209.546 -19.5325C213.337 -18.5981 217.179 -17.2743 220.936 -15.5612C223.17 -14.5359 225.37 -13.3938 227.519 -12.096C228.721 -11.3822 229.906 -10.6165 231.056 -9.81182C232.833 -8.59187 234.492 -7.29404 236.032 -5.95728Z"
                fill="#AE98FF"/>
            <path d="M220.918 -15.5744L180.012 15.7939C177.626 13.0425 175.764 10.2133 174.41 7.397L209.545 -19.5458C213.336 -18.6114 217.178 -17.2876 220.918 -15.5744Z"
                fill="#6857DF"/>
            <path d="M236.031 -5.95705L193.28 26.8259C192.231 26.19 191.199 25.5152 190.183 24.8143C188.254 23.4776 186.443 22.0629 184.818 20.6223L227.484 -12.0958C228.686 -11.382 229.87 -10.6162 231.021 -9.81158C232.832 -8.59163 234.491 -7.2938 236.031 -5.95705Z"
                fill="#6857DF"/>
            <path d="M240.887 -1.18156C243.29 1.54387 245.203 4.33419 246.607 7.13749L211.101 34.3658C207.327 33.4054 203.519 32.0557 199.812 30.3166L240.887 -1.18156Z"
                fill="#6857DF"/>
            <path opacity="0.15"
                d="M230.987 -9.86389C212.811 -22.4658 188.914 -24.9446 177.642 -15.3796C172.244 -10.7983 170.72 -4.29622 172.582 2.63416C173.411 -0.415726 175.121 -3.18012 177.829 -5.46429C189.1 -15.0292 212.98 -12.5634 231.173 0.0514635C240.651 6.61845 246.693 14.652 248.724 22.1794C251.381 12.4457 244.831 -0.259993 230.987 -9.86389Z"
                fill="black"/>
            <path opacity="0.25"
                d="M213.301 9.54759C205.595 3.63799 196.492 1.03722 192.969 3.73861C189.446 6.43999 192.838 13.4206 200.544 19.3302C208.251 25.2398 217.354 27.8405 220.876 25.1392C224.399 22.4378 221.007 15.4572 213.301 9.54759Z"
                fill="white"/>
        </g>
    </g>
    <g filter="url(#filter1_i_16_4)">
        <circle r="65.5"
            transform="matrix(-1 0 0 1 389.47 111.141)"
            fill="black"
            fill-opacity="0.06"/>
    </g>
    <g filter="url(#filter2_i_16_4)">
        <circle r="65.5"
            transform="matrix(-1 0 0 1 254.46 111.141)"
            fill="black"
            fill-opacity="0.06"/>
    </g>
    <g filter="url(#filter3_i_16_4)">
        <circle r="65.5"
            transform="matrix(-1 0 0 1 524.46 111.141)"
            fill="black"
            fill-opacity="0.06"/>
    </g>
    <g filter="url(#filter4_i_16_4)">
        <circle r="65.5"
            transform="matrix(-1 0 0 1 119.46 111.141)"
            fill="black"
            fill-opacity="0.06"/>
    </g>
    <defs>
        <filter id="filter0_d_16_4"
            x="0"
            y="1"
            width="655"
            height="230"
            filterUnits="userSpaceOnUse"
            color-interpolation-filters="sRGB">
            <feFlood flood-opacity="0"
                result="BackgroundImageFix"/>
            <feColorMatrix in="SourceAlpha"
                type="matrix"
                values="0 0 0 0 0 0 0 0 0 0 0 0 0 0 0 0 0 0 127 0"
                result="hardAlpha"/>
            <feOffset dy="4"/>
            <feGaussianBlur stdDeviation="2"/>
            <feComposite in2="hardAlpha"
                operator="out"/>
            <feColorMatrix type="matrix"
                values="0 0 0 0 0 0 0 0 0 0 0 0 0 0 0 0 0 0 0.25 0"/>
            <feBlend mode="normal"
                in2="BackgroundImageFix"
                result="effect1_dropShadow_16_4"/>
            <feBlend mode="normal"
                in="SourceGraphic"
                in2="effect1_dropShadow_16_4"
                result="shape"/>
        </filter>
        <filter id="filter1_i_16_4"
            x="323.97"
            y="45.6406"
            width="131"
            height="135"
            filterUnits="userSpaceOnUse"
            color-interpolation-filters="sRGB">
            <feFlood flood-opacity="0"
                result="BackgroundImageFix"/>
            <feBlend mode="normal"
                in="SourceGraphic"
                in2="BackgroundImageFix"
                result="shape"/>
            <feColorMatrix in="SourceAlpha"
                type="matrix"
                values="0 0 0 0 0 0 0 0 0 0 0 0 0 0 0 0 0 0 127 0"
                result="hardAlpha"/>
            <feOffset dy="4"/>
            <feGaussianBlur stdDeviation="12.5"/>
            <feComposite in2="hardAlpha"
                operator="arithmetic"
                k2="-1"
                k3="1"/>
            <feColorMatrix type="matrix"
                values="0 0 0 0 0 0 0 0 0 0 0 0 0 0 0 0 0 0 0.25 0"/>
            <feBlend mode="normal"
                in2="shape"
                result="effect1_innerShadow_16_4"/>
        </filter>
        <filter id="filter2_i_16_4"
            x="188.96"
            y="45.6406"
            width="131"
            height="135"
            filterUnits="userSpaceOnUse"
            color-interpolation-filters="sRGB">
            <feFlood flood-opacity="0"
                result="BackgroundImageFix"/>
            <feBlend mode="normal"
                in="SourceGraphic"
                in2="BackgroundImageFix"
                result="shape"/>
            <feColorMatrix in="SourceAlpha"
                type="matrix"
                values="0 0 0 0 0 0 0 0 0 0 0 0 0 0 0 0 0 0 127 0"
                result="hardAlpha"/>
            <feOffset dy="4"/>
            <feGaussianBlur stdDeviation="12.5"/>
            <feComposite in2="hardAlpha"
                operator="arithmetic"
                k2="-1"
                k3="1"/>
            <feColorMatrix type="matrix"
                values="0 0 0 0 0 0 0 0 0 0 0 0 0 0 0 0 0 0 0.25 0"/>
            <feBlend mode="normal"
                in2="shape"
                result="effect1_innerShadow_16_4"/>
        </filter>
        <filter id="filter3_i_16_4"
            x="458.96"
            y="45.6406"
            width="131"
            height="135"
            filterUnits="userSpaceOnUse"
            color-interpolation-filters="sRGB">
            <feFlood flood-opacity="0"
                result="BackgroundImageFix"/>
            <feBlend mode="normal"
                in="SourceGraphic"
                in2="BackgroundImageFix"
                result="shape"/>
            <feColorMatrix in="SourceAlpha"
                type="matrix"
                values="0 0 0 0 0 0 0 0 0 0 0 0 0 0 0 0 0 0 127 0"
                result="hardAlpha"/>
            <feOffset dy="4"/>
            <feGaussianBlur stdDeviation="12.5"/>
            <feComposite in2="hardAlpha"
                operator="arithmetic"
                k2="-1"
                k3="1"/>
            <feColorMatrix type="matrix"
                values="0 0 0 0 0 0 0 0 0 0 0 0 0 0 0 0 0 0 0.25 0"/>
            <feBlend mode="normal"
                in2="shape"
                result="effect1_innerShadow_16_4"/>
        </filter>
        <filter id="filter4_i_16_4"
            x="53.96"
            y="45.6406"
            width="131"
            height="135"
            filterUnits="userSpaceOnUse"
            color-interpolation-filters="sRGB">
            <feFlood flood-opacity="0"
                result="BackgroundImageFix"/>
            <feBlend mode="normal"
                in="SourceGraphic"
                in2="BackgroundImageFix"
                result="shape"/>
            <feColorMatrix in="SourceAlpha"
                type="matrix"
                values="0 0 0 0 0 0 0 0 0 0 0 0 0 0 0 0 0 0 127 0"
                result="hardAlpha"/>
            <feOffset dy="4"/>
            <feGaussianBlur stdDeviation="12.5"/>
            <feComposite in2="hardAlpha"
                operator="arithmetic"
                k2="-1"
                k3="1"/>
            <feColorMatrix type="matrix"
                values="0 0 0 0 0 0 0 0 0 0 0 0 0 0 0 0 0 0 0.25 0"/>
            <feBlend mode="normal"
                in2="shape"
                result="effect1_innerShadow_16_4"/>
        </filter>
        <radialGradient id="paint0_radial_16_4"
            cx="0"
            cy="0"
            r="1"
            gradientUnits="userSpaceOnUse"
            gradientTransform="translate(323.5 120.5) rotate(88.9748) scale(530.585 1546.78)">
            <stop stop-color="#FAF9F9"/>
            <stop offset="1"
                stop-color="#C09F9B"/>
        </radialGradient>
        <radialGradient id="paint1_radial_16_4"
            cx="0"
            cy="0"
            r="1"
            gradientUnits="userSpaceOnUse"
            gradientTransform="translate(299.402 102.359) rotate(17.0045) scale(347.071 1821.11)">
            <stop stop-color="#F2E6FA"/>
            <stop offset="1"
                stop-color="#9C9A67"
                stop-opacity="0"/>
        </radialGradient>
    </defs>
</svg>
