<svg width="607"
    height="323"
    viewBox="0 0 607 323"
    fill="none"
    xmlns="http://www.w3.org/2000/svg">
    <g filter="url(#filter0_d_16_3)">
        <g filter="url(#filter1_d_16_3)">
            <rect width="505"
                height="222"
                rx="50"
                transform="matrix(-1 0 0 1 557 47)"
                fill="url(#paint0_radial_16_3)"/>
            <rect x="-7.5"
                y="7.5"
                width="490"
                height="207"
                rx="42.5"
                transform="matrix(-1 0 0 1 542 47)"
                stroke="url(#paint1_radial_16_3)"
                stroke-width="15"/>
        </g>
        <g opacity="0.12">
            <mask id="mask0_16_3"
                style="mask-type:alpha"
                maskUnits="userSpaceOnUse"
                x="50"
                y="46"
                width="507"
                height="223">
                <rect width="507"
                    height="223"
                    rx="50"
                    transform="matrix(-1 0 0 1 557 46)"
                    fill="#D9D9D9"/>
            </mask>
            <g mask="url(#mask0_16_3)">
                <path opacity="0.25"
                    d="M554.284 119.979C551.019 121.835 548.983 124.989 548.414 128.402C547.965 131.05 548.414 133.84 549.882 136.332L562.706 157.979C566.064 163.651 573.534 165.585 579.312 162.288L634.127 130.985C639.904 127.688 641.874 120.355 638.516 114.684L625.692 93.0363C625.507 92.7118 625.295 92.4003 625.07 92.1018C625.083 92.1018 625.097 92.1018 625.097 92.1018C621.514 87.1312 614.546 85.5608 609.086 88.6885L554.284 119.979Z"
                    fill="#B4D0D8"/>
                <path opacity="0.25"
                    d="M211.752 213.188C211.554 213.188 211.355 213.188 211.17 213.188C210.602 213.201 210.046 213.214 209.478 213.253C206.093 213.421 202.814 213.863 199.694 214.524C199.668 214.524 199.641 214.537 199.615 214.537C185.032 217.678 173.794 225.919 170.356 235.926L165.941 233.706L164.433 232.954L151.463 226.425L150.34 225.854C146.122 223.739 141.151 226.893 141.389 231.539L142.843 259.948C143.081 264.607 148.356 267.255 152.349 264.724L153.42 264.049L165.65 256.288L171.996 252.265C174.125 255.977 177.403 259.26 181.555 261.934C181.542 261.921 181.528 261.895 181.528 261.882C183.181 262.959 184.966 263.933 186.883 264.789C190.228 266.308 193.917 267.489 197.87 268.267C200.236 268.735 202.709 269.059 205.234 269.228C207.574 269.383 209.98 269.409 212.439 269.293C213.722 269.228 214.991 269.137 216.234 268.981C218.759 268.709 221.231 268.267 223.598 267.696C227.551 266.749 231.253 265.425 234.585 263.777C243.337 259.481 249.617 253.07 251.799 245.802L258.555 249.189L260.207 250.02L273.177 256.548L274.301 257.119C278.519 259.234 283.49 256.081 283.252 251.435L281.797 223.025C281.559 218.366 276.284 215.718 272.291 218.249L271.221 218.924L258.991 226.685L250.767 231.902C247.965 225.867 242.187 220.819 234.572 217.484C233.382 216.964 232.126 216.497 230.856 216.069C230.724 216.03 230.592 215.978 230.46 215.939C229.746 215.705 229.032 215.485 228.292 215.277C228.027 215.199 227.749 215.121 227.472 215.057C226.85 214.888 226.229 214.732 225.594 214.589C225.211 214.498 224.841 214.421 224.457 214.343C224.167 214.278 223.876 214.213 223.585 214.148C222.699 213.979 221.8 213.85 220.901 213.72C220.742 213.694 220.597 213.681 220.438 213.655C220.108 213.616 219.777 213.577 219.447 213.538C219.169 213.512 218.891 213.473 218.614 213.447C218.349 213.421 218.085 213.395 217.82 213.369C217.384 213.33 216.948 213.305 216.498 213.266C216.406 213.266 216.313 213.253 216.221 213.24C216.194 213.24 216.168 213.24 216.141 213.24C215.758 213.214 215.361 213.201 214.978 213.188C214.819 213.188 214.661 213.175 214.502 213.162C214.158 213.149 213.801 213.149 213.444 213.136C213.246 213.136 213.048 213.123 212.836 213.123C212.466 213.175 212.109 213.175 211.752 213.188Z"
                    fill="#B4D0D8"/>
                <path opacity="0.25"
                    d="M44.8077 157.278L45.4027 159.367C45.4952 159.679 45.6142 159.977 45.7332 160.276C45.7597 160.354 45.7993 160.418 45.839 160.496C45.9712 160.769 46.1166 161.041 46.2753 161.288C46.2753 161.301 46.2885 161.314 46.2885 161.314C46.4604 161.573 46.6587 161.82 46.857 162.067C46.8967 162.119 46.9496 162.17 46.9892 162.222C47.2008 162.443 47.4123 162.664 47.6371 162.858L47.6503 162.871C47.9015 163.079 48.1527 163.261 48.4303 163.442C48.47 163.468 48.5096 163.494 48.5493 163.52C49.1046 163.858 49.6995 164.13 50.3209 164.312C50.3474 164.325 50.387 164.325 50.4135 164.338C50.7308 164.429 51.0481 164.494 51.3786 164.546C52.357 164.688 53.375 164.636 54.3798 164.364L100.746 151.684C102.201 151.282 103.43 150.477 104.343 149.426C104.805 148.894 105.175 148.31 105.466 147.674C106.127 146.207 106.312 144.507 105.837 142.846L105.242 140.769L119.005 144.248C122.323 145.091 125.338 142.08 124.412 138.836L118.78 118.992C117.855 115.747 113.703 114.696 111.297 117.097L101.355 127.051L100.931 125.559C100.826 125.17 100.667 124.806 100.508 124.456C100.416 124.261 100.323 124.079 100.204 123.898C100.204 123.898 100.204 123.885 100.191 123.885C100.085 123.703 99.9663 123.534 99.8473 123.366C99.8473 123.366 99.8473 123.353 99.8341 123.353C99.6226 123.054 99.3846 122.769 99.1334 122.509C98.5252 121.899 97.8113 121.406 97.0312 121.029C97.0048 121.017 96.9651 121.004 96.9387 120.978C96.8065 120.913 96.661 120.861 96.5288 120.809C96.4627 120.783 96.3834 120.757 96.3173 120.731C96.2776 120.718 96.238 120.692 96.1851 120.679C96.1057 120.653 96.0264 120.64 95.9339 120.614C95.8413 120.588 95.7488 120.562 95.6562 120.536C95.6033 120.523 95.5505 120.51 95.4976 120.497C95.4315 120.484 95.3654 120.471 95.2993 120.458C95.1935 120.432 95.0877 120.419 94.9819 120.407C94.8762 120.394 94.7572 120.381 94.6514 120.368C94.5324 120.355 94.4134 120.342 94.2945 120.342C94.2283 120.342 94.1622 120.329 94.0961 120.329C94.0565 120.329 94.0168 120.329 93.9904 120.329C93.8582 120.329 93.7259 120.329 93.5937 120.342C93.5012 120.342 93.4086 120.342 93.3029 120.355C93.1574 120.368 92.9988 120.381 92.8533 120.407C92.774 120.419 92.6947 120.419 92.6154 120.432C92.3906 120.471 92.1526 120.523 91.9279 120.588L68.7512 126.922L45.5746 133.255C44.3582 133.592 43.3137 134.202 42.4676 135.007C41.6214 135.812 40.9868 136.811 40.6166 137.901C40.1671 139.212 40.101 140.666 40.5109 142.093L41.238 144.65L26.3775 140.899C23.059 140.056 20.0445 143.067 20.97 146.311L26.6022 166.155C27.5277 169.399 31.6791 170.451 34.0854 168.05L44.8077 157.278Z"
                    fill="#B4D0D8"/>
                <path opacity="0.25"
                    d="M103.205 226.737C105.439 225.517 106.259 222.713 105.016 220.52L100.257 212.123C100.191 211.993 100.111 211.877 100.032 211.76H100.045C100.006 211.708 99.9527 211.656 99.9131 211.604C99.8205 211.487 99.728 211.37 99.6222 211.267C99.5032 211.15 99.3974 211.033 99.2652 210.929C99.1727 210.851 99.0933 210.786 99.0008 210.709C98.8157 210.579 98.6306 210.462 98.4323 210.358C98.3794 210.332 98.3265 210.293 98.2736 210.267C97.6126 209.943 96.8854 209.774 96.145 209.774C96.1186 209.774 96.0921 209.774 96.0657 209.774C95.8013 209.774 95.5369 209.8 95.2857 209.852C95.2328 209.865 95.1799 209.878 95.1138 209.891C94.889 209.943 94.6643 210.008 94.4527 210.099C94.3734 210.124 94.2941 210.163 94.2015 210.202C94.109 210.241 94.0032 210.28 93.9107 210.332L72.6378 221.948C71.3686 222.635 70.5621 223.829 70.3241 225.14C70.1391 226.153 70.2845 227.23 70.8266 228.19L75.5862 236.587C76.8289 238.78 79.6847 239.585 81.9191 238.365L103.205 226.737Z"
                    fill="#B4D0D8"/>
                <path opacity="0.25"
                    d="M98.9484 307.54C100.033 305.295 99.0542 302.582 96.767 301.518L57.6324 283.271C58.9677 279.351 59.3644 275.289 58.9148 271.369C58.7165 269.63 58.3463 267.917 57.8307 266.256V266.243C57.4076 264.893 56.892 263.583 56.2706 262.311C56.1781 262.142 56.0855 261.973 55.993 261.792C55.8608 261.532 55.7153 261.272 55.5699 261.013C55.4112 260.727 55.2526 260.442 55.0807 260.156C54.9088 259.871 54.7237 259.598 54.5519 259.326C54.38 259.066 54.2213 258.807 54.0362 258.56C53.8115 258.236 53.5735 257.937 53.3355 257.626C53.124 257.353 52.9257 257.093 52.7141 256.834C52.3704 256.432 52.0266 256.029 51.6697 255.627C51.63 255.588 51.5903 255.536 51.5507 255.497C51.2069 255.121 50.8367 254.77 50.4665 254.407C50.4533 254.394 50.4269 254.368 50.4136 254.355C50.0435 254.005 49.6468 253.654 49.2502 253.317C49.1444 253.226 49.0254 253.135 48.9197 253.044C48.5891 252.772 48.2454 252.512 47.9016 252.253C47.7826 252.162 47.6769 252.071 47.5579 251.993C47.4918 251.941 47.4124 251.889 47.3463 251.837C46.9629 251.565 46.5795 251.305 46.1829 251.059C46.1432 251.033 46.0903 251.007 46.0374 250.968C45.6144 250.695 45.1781 250.436 44.7286 250.189C44.6096 250.124 44.4906 250.059 44.3716 249.994C43.8692 249.722 43.3668 249.462 42.8512 249.229C42.8379 249.229 42.8247 249.216 42.8247 249.216C42.5074 249.073 42.2033 248.93 41.886 248.8C41.8596 248.787 41.8199 248.774 41.7935 248.761C41.5687 248.671 41.3439 248.58 41.106 248.489C40.8812 248.398 40.6564 248.32 40.4317 248.229C40.2598 248.164 40.0879 248.112 39.9161 248.048C39.6516 247.957 39.374 247.866 39.1096 247.788C38.9509 247.736 38.7923 247.684 38.6336 247.645C38.356 247.567 38.0651 247.49 37.7742 247.412C37.6288 247.373 37.4834 247.334 37.3379 247.295C37.3115 247.295 37.2983 247.282 37.2718 247.282C37.1528 247.256 37.0339 247.23 36.9016 247.204C36.5711 247.126 36.2274 247.061 35.8968 246.996C35.725 246.97 35.5531 246.944 35.3812 246.906C35.0771 246.854 34.773 246.802 34.469 246.763C34.2971 246.737 34.1252 246.724 33.9401 246.698C33.6228 246.659 33.3055 246.633 32.9882 246.607C32.856 246.594 32.737 246.594 32.6048 246.581C32.2081 246.555 31.8115 246.529 31.4149 246.529C31.4016 246.529 31.3884 246.529 31.3884 246.529C31.362 246.529 31.3355 246.529 31.3091 246.529C30.9389 246.516 30.5555 246.516 30.1853 246.516C30.106 246.516 30.0399 246.516 29.9605 246.516C29.6168 246.529 29.2598 246.529 28.9161 246.555C28.85 246.555 28.7971 246.568 28.731 246.568C27.4089 246.659 26.0867 246.828 24.7911 247.1C24.725 247.113 24.6721 247.126 24.606 247.139C24.1565 247.23 23.7202 247.334 23.2839 247.451C23.1384 247.49 22.9798 247.528 22.8343 247.58C22.4906 247.671 22.1468 247.775 21.8163 247.892C21.618 247.957 21.4329 248.009 21.2478 248.074C20.9966 248.164 20.7322 248.255 20.481 248.359C20.2694 248.437 20.0579 248.502 19.8464 248.593C19.5687 248.709 19.3043 248.826 19.0267 248.956C18.8548 249.034 18.6697 249.112 18.4978 249.19C18.2731 249.294 18.0615 249.397 17.8368 249.514C17.5856 249.644 17.3344 249.761 17.0832 249.891C16.8981 249.994 16.713 250.098 16.5146 250.202C16.2238 250.371 15.9329 250.539 15.642 250.708C15.4966 250.799 15.3644 250.877 15.219 250.968C14.3067 251.539 13.4341 252.162 12.6012 252.824C12.588 252.837 12.5615 252.85 12.5483 252.876C12.1517 253.2 11.7683 253.524 11.3848 253.862C11.2923 253.953 11.1997 254.031 11.1072 254.121C10.7899 254.407 10.4858 254.705 10.1817 255.017C10.0892 255.108 9.99662 255.199 9.90407 255.289C9.5471 255.666 9.19013 256.042 8.84638 256.445C8.83316 256.458 8.81994 256.47 8.80672 256.496C8.44975 256.925 8.09278 257.353 7.74903 257.807C7.68292 257.885 7.63004 257.976 7.56393 258.054C7.29951 258.417 7.03508 258.781 6.78388 259.157C6.70456 259.274 6.62523 259.404 6.5459 259.533C6.30792 259.897 6.08316 260.273 5.8584 260.662C5.7923 260.766 5.73941 260.87 5.67331 260.974C5.39566 261.467 5.13124 261.973 4.88004 262.492C4.60239 263.076 4.35119 263.66 4.11321 264.257C4.06033 264.387 4.00744 264.53 3.95456 264.66C3.76946 265.127 3.61081 265.607 3.45216 266.074C3.39927 266.217 3.35961 266.36 3.30672 266.503C3.13485 267.087 2.96297 267.671 2.83076 268.268V268.281C2.68533 268.878 2.57956 269.488 2.47379 270.085C2.44735 270.24 2.42091 270.409 2.40769 270.565C2.34158 271.006 2.2887 271.447 2.24903 271.889C2.23581 272.07 2.20937 272.252 2.19615 272.447C2.15648 272.94 2.14326 273.433 2.13004 273.926C2.13004 274.03 2.11682 274.134 2.11682 274.238C2.11682 274.822 2.13004 275.393 2.15648 275.977C2.16971 276.158 2.18293 276.34 2.19615 276.522C2.22259 276.937 2.26225 277.352 2.31514 277.768C2.32836 277.872 2.32836 277.988 2.34158 278.092C2.3548 278.196 2.38124 278.3 2.39447 278.404C2.43413 278.676 2.48701 278.949 2.52668 279.221C2.56634 279.481 2.61922 279.74 2.67211 280C2.71177 280.221 2.76466 280.441 2.81754 280.662C2.88365 280.96 2.94975 281.259 3.02908 281.557C3.05552 281.661 3.09518 281.765 3.12163 281.869C3.37283 282.764 3.66369 283.66 4.00744 284.529C4.15288 284.893 4.31153 285.256 4.47018 285.62C4.4834 285.659 4.49663 285.697 4.52307 285.736C5.27667 287.411 6.17571 289.02 7.25984 290.512C8.21177 291.849 9.2959 293.108 10.4858 294.276C11.9005 295.652 13.4738 296.898 15.2058 297.988C16.2106 298.611 17.255 299.195 18.3656 299.701C18.7622 299.883 19.1589 300.064 19.5687 300.233C21.6048 301.077 23.6805 301.661 25.7694 302.011C27.6865 302.336 29.5904 302.452 31.4942 302.4C34.4028 302.31 37.2718 301.777 39.9822 300.843C43.0627 299.792 45.9449 298.221 48.5098 296.197C50.2814 294.782 51.9076 293.147 53.3223 291.317L92.7874 309.72C95.1011 310.745 97.8643 309.785 98.9484 307.54Z"
                    fill="#B4D0D8"/>
                <path opacity="0.25"
                    d="M85.7412 72.8014C85.7015 72.8793 85.6751 72.9701 85.6354 73.061C93.1979 70.1149 100.086 65.3909 105.599 59.0834C105.586 59.0315 105.586 58.9666 105.573 58.9147C107.583 56.6176 109.42 54.1258 111.02 51.4263C114.339 45.8586 116.427 39.9146 117.393 33.9057C117.393 33.9187 117.406 33.9187 117.406 33.9187C117.472 33.4774 117.538 33.0491 117.591 32.6079C117.604 32.53 117.617 32.4651 117.617 32.3872C117.683 31.8162 117.75 31.2322 117.802 30.6611C119.085 17.0469 114.669 3.35489 105.467 -7.07961L105.454 -7.09257C104.952 -7.65063 104.449 -8.20869 103.92 -8.75378C103.881 -8.79271 103.841 -8.83164 103.814 -8.87058C103.312 -9.37673 102.81 -9.88288 102.281 -10.3761C102.202 -10.4539 102.109 -10.5318 102.03 -10.6097C101.54 -11.0639 101.051 -11.5052 100.549 -11.9465C100.403 -12.0633 100.258 -12.1801 100.113 -12.3098C99.6498 -12.6992 99.1871 -13.0885 98.7111 -13.4649C98.4864 -13.6336 98.2616 -13.8023 98.0369 -13.9711C97.6138 -14.2955 97.1907 -14.607 96.7676 -14.9184C96.4371 -15.152 96.0933 -15.3727 95.7496 -15.6063C95.4058 -15.8399 95.0621 -16.0735 94.7051 -16.3071C94.0837 -16.6965 93.4491 -17.0858 92.8145 -17.4622C92.722 -17.5141 92.6426 -17.566 92.5501 -17.6179C84.115 -22.4458 74.8734 -24.6651 65.7773 -24.5094C48.4179 -24.2109 31.6271 -15.2818 22.2268 0.512666C21.7905 1.23945 21.3939 1.96623 20.9973 2.70599C20.8915 2.91364 20.7857 3.1213 20.6932 3.31597C20.4155 3.84808 20.1511 4.3802 19.8999 4.91231C19.7809 5.17187 19.6619 5.44441 19.543 5.71695C19.3314 6.19714 19.1199 6.67732 18.9216 7.15751C18.8026 7.44304 18.6836 7.74157 18.5778 8.04006C18.3927 8.50728 18.2208 8.96149 18.0622 9.42871C17.9564 9.7272 17.8506 10.0387 17.7449 10.3372C17.5862 10.7914 17.4408 11.2587 17.3086 11.7259C17.216 12.0374 17.1235 12.3488 17.0442 12.6603C16.9119 13.1275 16.793 13.5948 16.674 14.049C16.5946 14.3605 16.5153 14.659 16.4492 14.9704C16.3434 15.4506 16.2377 15.9308 16.1451 16.398C16.0922 16.6965 16.0261 16.9951 15.9732 17.2936C15.8807 17.7997 15.8014 18.3188 15.7353 18.825C15.6956 19.0845 15.6559 19.3571 15.6163 19.6166C15.5369 20.2396 15.4708 20.8495 15.418 21.4725C15.4047 21.6282 15.3783 21.797 15.3651 21.9527C15.299 22.7314 15.2593 23.5101 15.2329 24.2888C15.2329 24.4835 15.2329 24.6782 15.2196 24.8728C15.2196 24.8858 15.2196 24.8988 15.2196 24.9247C15.2064 25.366 15.2064 25.8073 15.2064 26.2485C15.2064 26.3653 15.2064 26.4691 15.2064 26.5859C15.2064 26.6119 15.2064 26.6249 15.2064 26.6508C15.2064 26.7157 15.2064 26.7806 15.2064 26.8455C15.2857 32.1406 16.2112 37.3838 17.93 42.3805C17.9696 42.3934 17.9961 42.4064 18.0357 42.4324C18.049 42.4713 18.0622 42.5232 18.0886 42.5621C18.2076 42.8866 18.3134 43.1981 18.4324 43.5225C18.6307 44.0287 18.829 44.5349 19.0406 45.028C19.2389 45.4952 19.4372 45.9624 19.6487 46.4167C19.847 46.845 20.0321 47.2733 20.2437 47.7015C20.4023 48.039 20.5874 48.3634 20.7593 48.7009C20.9444 49.0513 21.1163 49.4147 21.3146 49.7651C21.4997 50.1025 21.698 50.4529 21.8963 50.7904C22.0814 51.1278 22.2797 51.4522 22.478 51.7897C22.6896 52.1271 22.9011 52.4645 23.1127 52.802C23.311 53.1264 23.5225 53.4379 23.7341 53.7494C23.9588 54.0868 24.1968 54.4243 24.4216 54.7487C24.6331 55.0602 24.8579 55.3587 25.0826 55.6572C25.3338 55.9817 25.5718 56.3191 25.823 56.6435C26.0478 56.942 26.2857 57.2276 26.5237 57.5131C26.7881 57.8375 27.0526 58.162 27.3302 58.4735C27.5682 58.759 27.8194 59.0315 28.0706 59.3041C28.3482 59.6156 28.6391 59.94 28.93 60.2385C29.1812 60.5111 29.4456 60.7706 29.6968 61.0302C30.0009 61.3417 30.2917 61.6402 30.609 61.9387C30.8735 62.1853 31.1379 62.4318 31.4023 62.6654C32.103 63.3144 32.817 63.9373 33.5574 64.5473C33.7557 64.703 33.9408 64.8717 34.1391 65.0404C34.2713 65.1443 34.4035 65.2481 34.5357 65.3519C34.4564 65.3649 34.3639 65.3779 34.2845 65.3909C36.2809 66.9742 38.4227 68.4278 40.71 69.7386C45.9323 72.7365 51.472 74.7092 57.091 75.7475C57.1703 75.6956 57.2496 75.6307 57.329 75.5788C66.954 77.3438 76.8169 76.3056 85.7412 72.8014Z"
                    fill="#B4D0D8"/>
                <path opacity="0.25"
                    d="M387.394 107.467L381.762 87.6234C380.837 84.3789 376.685 83.3276 374.279 85.7286L364.337 95.6829L363.914 94.1904C363.808 93.8011 363.649 93.4377 363.49 93.0873C363.398 92.8926 363.305 92.7109 363.186 92.5292C363.186 92.5292 363.186 92.5162 363.173 92.5162C363.067 92.3345 362.948 92.1658 362.829 91.9971C362.829 91.9971 362.829 91.9841 362.816 91.9841C362.089 90.9848 361.124 90.1931 360.013 89.661C359.987 89.648 359.947 89.635 359.921 89.6091C359.788 89.5442 359.643 89.4923 359.511 89.4404C359.445 89.4144 359.365 89.3885 359.299 89.3625C359.18 89.3236 359.048 89.2846 358.929 89.2457C358.837 89.2197 358.744 89.1938 358.651 89.1678C358.532 89.1419 358.427 89.1159 358.308 89.09C358.202 89.064 358.096 89.0511 357.977 89.0381C357.871 89.0251 357.752 89.0121 357.647 88.9991C357.528 88.9862 357.409 88.9732 357.29 88.9732C357.184 88.9732 357.078 88.9602 356.972 88.9602C356.84 88.9602 356.708 88.9602 356.576 88.9732C356.483 88.9732 356.391 88.9732 356.285 88.9862C356.139 88.9991 355.981 89.0121 355.835 89.0381C355.756 89.0511 355.677 89.051 355.597 89.064C355.373 89.103 355.135 89.1549 354.91 89.2197L308.543 101.899C304.67 102.964 302.382 106.935 303.466 110.738L304.194 113.294L289.333 109.544C286.015 108.7 283 111.711 283.926 114.956L289.558 134.799C290.483 138.044 294.635 139.095 297.041 136.694L307.777 125.948L308.371 128.038C308.464 128.349 308.583 128.648 308.702 128.946C308.728 129.024 308.768 129.089 308.808 129.167C308.94 129.439 309.085 129.712 309.244 129.958C309.257 129.971 309.257 129.984 309.257 129.984C309.429 130.244 309.627 130.491 309.826 130.737C309.865 130.789 309.918 130.841 309.958 130.893C310.17 131.114 310.381 131.334 310.606 131.529L310.619 131.542C310.87 131.749 311.121 131.944 311.399 132.113C311.439 132.139 311.478 132.165 311.518 132.191C312.073 132.528 312.668 132.801 313.29 132.982C313.316 132.995 313.356 132.995 313.382 133.008C313.7 133.099 314.017 133.164 314.347 133.216C315.326 133.359 316.344 133.307 317.349 133.034L340.525 126.701L363.702 120.368C367.087 119.446 369.268 116.279 369.03 112.957C369.004 112.477 368.911 112.01 368.779 111.529L368.184 109.453L381.947 112.931C385.305 113.723 388.32 110.725 387.394 107.467Z"
                    fill="#B4D0D8"/>
                <path opacity="0.25"
                    d="M606.984 43.9913L601.352 24.1476C600.426 20.9031 596.275 19.8518 593.868 22.2528L583.926 32.2071L583.503 30.7146C583.397 30.3253 583.239 29.9619 583.08 29.6114C582.987 29.4168 582.895 29.2351 582.776 29.0534C582.776 29.0534 582.776 29.0404 582.763 29.0404C582.657 28.8587 582.538 28.69 582.419 28.5213C582.419 28.5213 582.419 28.5083 582.406 28.5083C582.194 28.2098 581.956 27.9243 581.705 27.6647C581.374 27.3273 581.017 27.0288 580.634 26.7692C580.304 26.5486 579.96 26.3539 579.603 26.1852C579.576 26.1722 579.537 26.1592 579.51 26.1333C579.471 26.1203 579.444 26.0943 579.418 26.0814C579.312 26.0424 579.206 26.0035 579.1 25.9646C579.034 25.9386 578.955 25.9127 578.889 25.8867C578.77 25.8478 578.638 25.8088 578.519 25.7699C578.426 25.7439 578.334 25.718 578.241 25.692C578.188 25.679 578.135 25.666 578.082 25.6531C578.016 25.6401 577.95 25.6271 577.884 25.6141C577.778 25.5882 577.673 25.5752 577.554 25.5622C577.448 25.5493 577.329 25.5363 577.223 25.5233C577.104 25.5103 576.985 25.4973 576.866 25.4973C576.8 25.4973 576.734 25.4844 576.668 25.4844C576.628 25.4844 576.588 25.4844 576.562 25.4844C576.43 25.4844 576.298 25.4844 576.165 25.4973C576.073 25.4973 575.98 25.4973 575.874 25.5103C575.729 25.5233 575.57 25.5363 575.425 25.5622C575.346 25.5752 575.266 25.5752 575.187 25.5882C574.962 25.6271 574.724 25.679 574.499 25.7439L564.399 28.5083L528.133 38.4237C526.917 38.7611 525.872 39.3711 525.026 40.1757C524.18 40.9804 523.545 41.9797 523.175 43.0699C522.725 44.3807 522.659 45.8342 523.056 47.2618L523.783 49.8186L508.923 46.0678C505.604 45.2242 502.59 48.2352 503.515 51.4798L509.147 71.3235C510.073 74.568 514.224 75.6193 516.631 73.2183L527.366 62.4723L527.961 64.5618C528.054 64.8733 528.173 65.1718 528.292 65.4703C528.318 65.5482 528.358 65.613 528.397 65.6909C528.53 65.9635 528.675 66.236 528.834 66.4826C528.847 66.4956 528.847 66.5086 528.847 66.5086C529.019 66.7681 529.217 67.0147 529.415 67.2613C529.455 67.3132 529.508 67.3651 529.548 67.417C529.759 67.6377 529.971 67.8583 530.195 68.053L530.209 68.066C530.46 68.2736 530.711 68.4553 530.989 68.637C531.028 68.663 531.068 68.6889 531.108 68.7149C531.663 69.0523 532.258 69.3248 532.879 69.5065C532.906 69.5195 532.945 69.5195 532.972 69.5325C533.289 69.6234 533.607 69.6882 533.937 69.7401C534.915 69.8829 535.933 69.831 536.938 69.5584L583.305 56.8787C584.521 56.5543 585.566 55.9313 586.412 55.1267C587.258 54.322 587.892 53.3227 588.263 52.2325C588.342 52.0119 588.408 51.7912 588.461 51.5706C588.673 50.6621 588.712 49.7147 588.54 48.7673C588.501 48.5337 588.448 48.2871 588.382 48.0535L587.787 45.977L601.55 49.4552C604.895 50.2339 607.896 47.2359 606.984 43.9913Z"
                    fill="#B4D0D8"/>
                <path opacity="0.25"
                    d="M286.413 176.109C289.678 174.331 290.855 170.255 289.044 167.05L282.116 154.824C282.01 154.643 281.904 154.474 281.785 154.292H281.798C279.855 151.476 275.981 150.529 272.887 152.216L241.924 169.113C240.086 170.113 238.909 171.852 238.552 173.747C238.275 175.213 238.486 176.784 239.293 178.185L246.22 190.411C248.032 193.616 252.183 194.771 255.449 192.993L286.413 176.109Z"
                    fill="#B4D0D8"/>
                <path opacity="0.25"
                    d="M450.828 67.7541C449.334 66.7937 447.814 65.9242 446.293 65.1455H446.28C442.023 63.0041 437.66 61.6154 433.442 60.9795C428.855 60.2787 424.465 60.4863 420.605 61.5635C420.591 61.5635 420.578 61.5635 420.578 61.5765C419.825 61.7842 419.097 62.0307 418.384 62.3033C418.278 62.3422 418.185 62.3811 418.079 62.4201C417.511 62.6537 416.969 62.9003 416.44 63.1728C416.268 63.2637 416.083 63.3545 415.911 63.4454C415.779 63.5232 415.62 63.5881 415.488 63.666C415.343 63.7568 415.197 63.8607 415.052 63.9515C414.84 64.0813 414.629 64.2241 414.417 64.3668C414.087 64.5874 413.756 64.8211 413.439 65.0677C413.174 65.2753 412.91 65.4829 412.659 65.7036C412.5 65.8463 412.328 65.9891 412.183 66.1318C411.813 66.4823 411.469 66.8456 411.138 67.222C411.033 67.3388 410.927 67.4686 410.821 67.5854C410.477 68.0007 410.147 68.416 409.843 68.8703C409.829 68.8832 409.816 68.9092 409.803 68.9222L409.697 69.0779C409.671 69.1169 409.644 69.1688 409.618 69.2077C409.367 69.5971 409.129 69.9864 408.917 70.3887C408.904 70.4017 408.904 70.4147 408.891 70.4276C406.789 74.386 406.392 79.0452 407.476 83.8082C407.476 83.7823 407.489 83.7563 407.489 83.7303C408.269 87.2085 409.829 90.7516 412.09 94.1389C415.118 98.6813 419.428 102.951 424.769 106.416C425.391 106.819 426.012 107.195 426.634 107.558C432.9 111.244 439.537 113.23 445.645 113.554C454.213 114.009 461.736 111.218 465.768 105.235C466.35 104.366 466.852 103.444 467.262 102.497V102.484C469.615 96.9681 468.915 90.3363 465.728 83.925C464.393 81.2255 462.608 78.565 460.427 76.0602C457.822 73.0233 454.583 70.181 450.828 67.7541Z"
                    fill="#B4D0D8"/>
                <path opacity="0.25"
                    d="M179.24 171.087C179.438 171.165 179.65 171.229 179.861 171.307C180.007 171.359 180.152 171.398 180.311 171.437C180.549 171.502 180.787 171.567 181.025 171.619C181.13 171.645 181.236 171.658 181.342 171.684C182.664 171.943 184.039 171.982 185.454 171.839C186.088 171.775 186.736 171.684 187.384 171.541C187.371 171.541 187.344 171.528 187.331 171.528C189.724 171.009 192.17 169.971 194.51 168.465C197.644 166.453 200.579 163.598 202.972 160.042C203.249 159.627 203.514 159.212 203.752 158.809C206.29 154.643 207.665 150.231 207.89 146.181C208.207 140.484 206.277 135.487 202.152 132.814C201.557 132.425 200.922 132.087 200.261 131.828C196.467 130.27 191.892 130.724 187.476 132.84C185.612 133.735 183.788 134.916 182.056 136.357C179.954 138.109 177.997 140.263 176.318 142.768C175.657 143.755 175.049 144.767 174.52 145.779C173.039 148.608 172.087 151.503 171.651 154.306C170.937 158.809 171.558 163.027 173.502 166.233C173.568 166.35 173.647 166.44 173.713 166.557C173.74 166.609 173.779 166.661 173.819 166.713C174.07 167.076 174.321 167.427 174.612 167.764C174.678 167.855 174.758 167.933 174.824 168.011C175.102 168.309 175.379 168.608 175.683 168.88C175.763 168.958 175.842 169.023 175.921 169.101C176.305 169.425 176.701 169.737 177.124 170.009L177.23 170.074C177.547 170.269 177.865 170.451 178.195 170.619C178.341 170.697 178.499 170.762 178.658 170.827C178.843 170.918 179.041 171.009 179.24 171.087Z"
                    fill="#B4D0D8"/>
                <path opacity="0.25"
                    d="M409.513 176.681C409.011 176.123 408.508 175.565 407.979 175.02C407.94 174.981 407.9 174.942 407.874 174.903C407.371 174.397 406.869 173.891 406.34 173.397C406.261 173.32 406.168 173.242 406.089 173.164C405.6 172.71 405.11 172.268 404.608 171.827C404.463 171.71 404.317 171.58 404.172 171.464C403.709 171.074 403.246 170.685 402.77 170.309C402.546 170.14 402.321 169.971 402.096 169.802C401.673 169.478 401.25 169.167 400.827 168.855C400.496 168.621 400.153 168.401 399.809 168.167C399.465 167.934 399.121 167.7 398.764 167.466C398.143 167.077 397.508 166.688 396.874 166.311C396.781 166.259 396.702 166.207 396.609 166.156C389.708 162.197 382.264 160.004 374.808 159.42C374.755 159.42 374.702 159.42 374.662 159.407C373.049 159.29 371.449 159.238 369.836 159.264C352.477 159.563 335.686 168.492 326.286 184.286C325.85 185.013 325.453 185.74 325.056 186.479C324.951 186.687 324.858 186.882 324.752 187.089C324.475 187.622 324.21 188.154 323.959 188.686C323.84 188.945 323.721 189.218 323.602 189.49C323.391 189.971 323.179 190.451 322.981 190.931C322.862 191.217 322.756 191.515 322.637 191.801C322.452 192.268 322.28 192.722 322.121 193.189C322.016 193.488 321.91 193.799 321.804 194.098C321.645 194.552 321.5 195.019 321.368 195.486C321.275 195.798 321.183 196.109 321.103 196.421C320.971 196.888 320.852 197.355 320.733 197.822C320.654 198.134 320.575 198.432 320.508 198.744C320.403 199.224 320.297 199.704 320.204 200.185C320.151 200.483 320.085 200.781 320.032 201.067C319.94 201.573 319.861 202.092 319.794 202.598C319.755 202.858 319.715 203.131 319.675 203.39C319.596 204.013 319.53 204.623 319.477 205.246C319.464 205.402 319.437 205.57 319.424 205.726C319.358 206.505 319.318 207.284 319.292 208.062C319.292 208.257 319.292 208.452 319.279 208.646C319.279 208.659 319.279 208.672 319.279 208.698C319.266 209.139 319.266 209.581 319.266 210.022C319.266 210.139 319.266 210.243 319.266 210.359C319.266 210.385 319.266 210.398 319.266 210.424C319.266 210.489 319.266 210.554 319.266 210.619C319.345 215.914 320.27 221.157 321.989 226.154C322.029 226.167 322.055 226.18 322.095 226.206C322.108 226.258 322.121 226.297 322.148 226.349C322.254 226.66 322.359 226.985 322.478 227.296C322.663 227.802 322.875 228.308 323.087 228.801C323.285 229.269 323.483 229.736 323.695 230.19C323.893 230.618 324.078 231.047 324.29 231.475C324.448 231.812 324.633 232.137 324.805 232.474C324.99 232.825 325.162 233.188 325.361 233.539C325.546 233.876 325.744 234.213 325.942 234.564C326.127 234.901 326.326 235.226 326.524 235.563C326.736 235.901 326.947 236.238 327.159 236.575C327.357 236.9 327.568 237.211 327.78 237.523C328.005 237.86 328.243 238.198 328.468 238.522C328.679 238.834 328.904 239.132 329.129 239.431C329.38 239.755 329.618 240.093 329.869 240.417C330.094 240.716 330.332 241.001 330.57 241.287C330.834 241.611 331.099 241.935 331.376 242.247C331.614 242.532 331.865 242.805 332.117 243.078C332.394 243.389 332.685 243.714 332.976 244.012C333.227 244.285 333.492 244.544 333.743 244.804C334.047 245.115 334.338 245.414 334.655 245.712C334.919 245.959 335.184 246.205 335.448 246.439C336.136 247.075 336.85 247.698 337.577 248.295C337.775 248.464 337.974 248.632 338.185 248.801C338.317 248.905 338.449 249.009 338.582 249.112C338.502 249.125 338.41 249.138 338.331 249.151C340.327 250.735 342.469 252.188 344.756 253.499C349.978 256.497 355.518 258.47 361.137 259.508C361.216 259.456 361.296 259.391 361.375 259.339C371.013 261.078 380.876 260.04 389.8 256.536C389.761 256.614 389.734 256.705 389.695 256.796C397.257 253.849 404.145 249.125 409.659 242.818C409.645 242.766 409.645 242.701 409.632 242.649C411.642 240.352 413.479 237.86 415.079 235.161C418.398 229.593 420.487 223.649 421.452 217.64C421.452 217.653 421.465 217.653 421.465 217.666C421.531 217.225 421.597 216.797 421.65 216.355C421.663 216.278 421.677 216.213 421.677 216.135C421.743 215.564 421.809 214.98 421.862 214.409C423.144 200.794 418.728 187.102 409.526 176.668C409.526 176.681 409.513 176.681 409.513 176.681Z"
                    fill="#B4D0D8"/>
                <path opacity="0.25"
                    d="M378.827 19.3454C378.563 19.3454 378.312 19.3714 378.047 19.4233C377.994 19.4363 377.941 19.4493 377.875 19.4622C377.651 19.5141 377.426 19.579 377.214 19.6699C377.135 19.6958 377.056 19.7348 376.963 19.7737C376.87 19.8126 376.765 19.8516 376.672 19.9035L355.399 31.519C354.13 32.2069 353.324 33.4009 353.086 34.7117C352.901 35.724 353.046 36.8012 353.588 37.7615L358.348 46.1585C359.59 48.3518 362.446 49.1564 364.681 47.9365L385.953 36.3209C388.188 35.101 389.007 32.2977 387.765 30.1044L383.005 21.6945C382.939 21.5647 382.86 21.4479 382.78 21.3311H382.794C382.754 21.2792 382.701 21.2273 382.661 21.1754C382.569 21.0586 382.476 20.9417 382.37 20.8379C382.251 20.7211 382.146 20.6043 382.013 20.5005C381.921 20.4226 381.842 20.3448 381.749 20.2799C381.564 20.1501 381.379 20.0333 381.194 19.9295C381.141 19.9035 381.088 19.8646 381.035 19.8386C380.374 19.5142 379.647 19.3454 378.907 19.3454C378.88 19.3454 378.854 19.3454 378.827 19.3454Z"
                    fill="#B4D0D8"/>
                <path opacity="0.25"
                    d="M169.509 111.243C169.681 112.931 170.223 114.618 171.202 116.162L172.22 117.772C172.894 118.784 174.256 119.095 175.313 118.459C176.371 117.823 176.688 116.474 176.067 115.435L177.574 114.514C178.275 115.396 179.544 115.643 180.536 115.033C181.527 114.436 181.871 113.203 181.382 112.191L182.916 111.256C183.616 112.139 184.886 112.386 185.877 111.776C186.869 111.179 187.212 109.946 186.723 108.933L188.23 108.012C188.892 109.024 190.267 109.336 191.324 108.7C192.382 108.064 192.712 106.714 192.078 105.676L191.06 104.066C190.081 102.522 188.786 101.302 187.318 100.394L187.331 100.381C187.239 100.329 187.16 100.277 187.067 100.225C186.988 100.173 186.908 100.134 186.829 100.082C186.538 99.9264 186.247 99.7837 185.956 99.6409C185.943 99.6409 185.943 99.6279 185.93 99.6279C185.626 99.4981 185.309 99.3684 184.991 99.2645C184.912 99.2386 184.833 99.2126 184.753 99.1867C184.7 99.1737 184.634 99.1478 184.581 99.1348L184.938 98.9141C185.586 98.5248 186.142 98.0446 186.618 97.5125C186.631 97.5774 186.644 97.6423 186.644 97.6942C188.706 95.41 189.143 91.9838 187.49 89.2324C187.464 89.1805 187.437 89.1286 187.398 89.0767L187.318 88.9469L182.81 81.7829L179.518 76.5526L174.917 69.2459L161.788 48.4158C160.863 46.9363 159.461 45.911 157.901 45.3789C155.878 44.7041 153.578 44.8858 151.634 46.0668L151.238 46.3134C151.251 46.2355 151.264 46.1446 151.277 46.0668C151.291 45.9889 151.304 45.8981 151.317 45.8202C151.357 45.4957 151.396 45.1583 151.41 44.8338C151.41 44.8208 151.41 44.8079 151.41 44.8079C151.423 44.4834 151.423 44.172 151.396 43.8475C151.396 43.7567 151.383 43.6658 151.383 43.575C151.37 43.4712 151.37 43.3803 151.37 43.2765L151.357 43.2895C151.198 41.5893 150.656 39.9021 149.678 38.3577L148.66 36.7484C147.985 35.7361 146.624 35.4246 145.566 36.0606C144.508 36.6965 144.191 38.0462 144.812 39.0845L143.305 40.006C142.604 39.1234 141.335 38.8768 140.344 39.4868C139.352 40.0838 139.008 41.3167 139.497 42.329L137.964 43.2635C137.263 42.381 135.994 42.1344 135.002 42.7444C134.011 43.3413 133.667 44.5743 134.156 45.5866L132.649 46.508C131.988 45.4957 130.613 45.1843 129.555 45.8202C128.497 46.4561 128.167 47.8059 128.801 48.8441L129.82 50.4534C130.798 51.9978 132.094 53.2178 133.561 54.1262L133.548 54.1392C133.64 54.1911 133.72 54.2431 133.812 54.295C133.892 54.3469 133.971 54.3858 134.05 54.4377C134.341 54.5935 134.632 54.7362 134.923 54.866C134.936 54.866 134.936 54.879 134.949 54.879C135.253 55.0088 135.571 55.1386 135.888 55.2424C135.967 55.2684 136.047 55.2943 136.139 55.3203C136.219 55.3462 136.298 55.3722 136.377 55.3981L135.981 55.6447C132.53 57.7342 131.459 62.2247 133.588 65.612L135.082 67.987L139.696 75.2937L142.988 80.511L147.602 87.8178L150.894 93.035L155.508 100.342L159.144 106.117C160.81 108.765 163.983 109.998 166.944 109.388C167.751 109.219 168.544 108.92 169.298 108.466L169.668 108.245C169.655 108.31 169.655 108.362 169.642 108.427C169.628 108.505 169.615 108.596 169.602 108.674C169.562 108.998 169.523 109.336 169.509 109.66C169.509 109.673 169.509 109.673 169.509 109.686C169.496 110.011 169.496 110.322 169.523 110.646C169.523 110.737 169.536 110.828 169.536 110.919C169.496 111.049 169.496 111.14 169.509 111.243Z"
                    fill="#B4D0D8"/>
                <path opacity="0.25"
                    d="M510.153 166.868C509.954 165.129 509.584 163.416 509.068 161.755V161.742C508.645 160.392 508.13 159.082 507.508 157.797C507.416 157.628 507.323 157.459 507.231 157.278C507.098 157.018 506.953 156.758 506.808 156.499C506.649 156.213 506.49 155.928 506.318 155.642C506.147 155.357 505.961 155.084 505.79 154.799C505.618 154.539 505.459 154.28 505.274 154.033C505.049 153.722 504.811 153.41 504.573 153.099C504.362 152.826 504.15 152.553 503.939 152.294C503.608 151.892 503.264 151.489 502.907 151.1C502.868 151.061 502.828 151.009 502.788 150.97C502.445 150.594 502.074 150.243 501.704 149.88C501.691 149.867 501.665 149.841 501.651 149.828C501.281 149.478 500.885 149.127 500.488 148.79C500.382 148.699 500.263 148.608 500.157 148.517C499.827 148.245 499.496 147.985 499.139 147.726C499.02 147.635 498.901 147.544 498.782 147.466C498.716 147.414 498.637 147.362 498.571 147.31C498.187 147.038 497.804 146.778 497.407 146.532C497.368 146.506 497.315 146.48 497.262 146.441C496.839 146.168 496.403 145.909 495.953 145.662C495.834 145.597 495.715 145.532 495.596 145.467C495.094 145.195 494.591 144.935 494.076 144.702C494.062 144.702 494.049 144.689 494.036 144.689C493.732 144.546 493.415 144.403 493.097 144.273C493.071 144.26 493.031 144.247 493.005 144.234C492.78 144.144 492.555 144.053 492.317 143.962C492.093 143.871 491.868 143.793 491.643 143.702C491.471 143.637 491.299 143.573 491.127 143.521C490.863 143.43 490.599 143.339 490.321 143.261C490.162 143.209 490.004 143.157 489.845 143.118C489.554 143.04 489.276 142.963 488.986 142.885C488.84 142.846 488.695 142.807 488.549 142.768C488.523 142.768 488.51 142.755 488.483 142.755C488.364 142.729 488.245 142.703 488.113 142.677C487.782 142.599 487.452 142.534 487.108 142.469C486.936 142.443 486.764 142.417 486.592 142.379C486.288 142.327 485.984 142.275 485.68 142.236C485.508 142.21 485.323 142.197 485.151 142.171C484.834 142.132 484.517 142.106 484.213 142.08C484.08 142.067 483.948 142.067 483.829 142.054C483.433 142.028 483.036 142.002 482.653 142.002C482.639 142.002 482.626 142.002 482.626 142.002C482.6 142.002 482.573 142.002 482.547 142.002C482.177 141.989 481.793 141.989 481.423 141.989C481.344 141.989 481.278 141.989 481.198 141.989C480.855 142.002 480.498 142.002 480.154 142.028C480.088 142.028 480.035 142.041 479.982 142.041C478.647 142.132 477.338 142.301 476.042 142.573C475.976 142.586 475.923 142.599 475.857 142.612C475.407 142.703 474.971 142.807 474.535 142.924C474.389 142.963 474.231 143.001 474.085 143.04C473.742 143.131 473.398 143.235 473.067 143.352C472.882 143.417 472.684 143.469 472.499 143.534C472.248 143.624 471.983 143.715 471.732 143.819C471.52 143.897 471.309 143.962 471.097 144.053C470.82 144.17 470.555 144.286 470.278 144.416C470.106 144.494 469.921 144.572 469.749 144.65C469.524 144.754 469.312 144.857 469.101 144.974C468.85 145.104 468.599 145.221 468.347 145.364C468.162 145.467 467.977 145.571 467.792 145.675C467.501 145.844 467.21 146.012 466.919 146.181C466.774 146.272 466.642 146.35 466.496 146.441C465.584 147.012 464.712 147.635 463.879 148.31C463.865 148.323 463.839 148.336 463.826 148.349C463.429 148.673 463.046 148.997 462.662 149.335C462.57 149.426 462.477 149.504 462.385 149.594C462.067 149.88 461.763 150.178 461.459 150.49C461.367 150.581 461.274 150.672 461.181 150.762C460.824 151.139 460.468 151.515 460.137 151.918C460.124 151.931 460.111 151.943 460.097 151.969C459.74 152.398 459.383 152.826 459.04 153.28C458.974 153.358 458.921 153.449 458.855 153.527C458.59 153.89 458.326 154.254 458.075 154.63C457.995 154.747 457.916 154.877 457.837 155.006C457.599 155.37 457.374 155.746 457.149 156.135C457.083 156.239 457.017 156.343 456.964 156.46C456.686 156.953 456.422 157.459 456.171 157.978C455.893 158.562 455.642 159.146 455.404 159.743C455.351 159.873 455.298 160.016 455.245 160.146C455.06 160.613 454.901 161.093 454.743 161.56C454.69 161.703 454.65 161.846 454.611 161.989C454.425 162.573 454.267 163.157 454.135 163.754V163.767C453.989 164.364 453.883 164.974 453.778 165.571C453.751 165.726 453.725 165.895 453.712 166.051C453.645 166.492 453.593 166.933 453.553 167.375C453.54 167.556 453.513 167.738 453.5 167.933C453.46 168.426 453.447 168.919 453.434 169.412C453.434 169.516 453.421 169.62 453.421 169.724C453.421 170.308 453.434 170.879 453.46 171.463C453.474 171.644 453.487 171.826 453.5 172.008C453.526 172.423 453.566 172.838 453.619 173.254C453.632 173.358 453.632 173.474 453.645 173.578C453.659 173.682 453.685 173.786 453.698 173.89C453.738 174.162 453.791 174.435 453.831 174.707C453.87 174.967 453.923 175.226 453.976 175.486C454.016 175.707 454.082 175.927 454.121 176.148C454.187 176.446 454.254 176.745 454.333 177.043C454.359 177.147 454.399 177.251 454.425 177.368C454.677 178.263 454.968 179.159 455.298 180.028C455.444 180.392 455.602 180.755 455.761 181.119C455.774 181.157 455.8 181.196 455.814 181.248C456.567 182.923 457.466 184.532 458.55 186.024C459.502 187.361 460.587 188.62 461.776 189.788C463.191 191.164 464.764 192.41 466.496 193.5C467.501 194.123 468.546 194.707 469.656 195.213C470.053 195.395 470.449 195.576 470.859 195.745C472.895 196.589 474.971 197.173 477.06 197.523C478.977 197.848 480.881 197.964 482.785 197.912C485.693 197.822 488.562 197.289 491.273 196.355C494.353 195.304 497.236 193.733 499.8 191.709C501.572 190.294 503.198 188.659 504.613 186.829L544.078 205.232C546.365 206.296 549.129 205.336 550.213 203.091C551.297 200.845 550.318 198.133 548.031 197.069L508.897 178.821C510.205 174.863 510.602 170.801 510.153 166.868C510.153 166.881 510.153 166.881 510.153 166.868Z"
                    fill="#B4D0D8"/>
                <path opacity="0.25"
                    d="M513.035 248.774L500.065 242.246L498.941 241.675C494.724 239.56 489.753 242.714 489.991 247.36L491.445 275.769C491.683 280.428 496.958 283.076 500.951 280.545L502.022 279.87L514.251 272.109L520.598 268.086C522.726 271.798 526.005 275.081 530.156 277.755C530.143 277.742 530.13 277.716 530.13 277.703C531.783 278.78 533.568 279.753 535.485 280.61C538.83 282.128 542.518 283.309 546.471 284.088C548.838 284.555 551.31 284.88 553.836 285.048C556.176 285.204 558.582 285.23 561.041 285.113C562.324 285.048 563.593 284.958 564.836 284.802C567.361 284.529 569.833 284.088 572.2 283.517C576.153 282.57 579.855 281.246 583.187 279.598C591.939 275.302 598.219 268.891 600.4 261.623L607.302 265.088L608.809 265.841L621.779 272.369L622.903 272.94C627.12 275.055 632.092 271.902 631.854 267.255L630.399 238.846C630.161 234.187 624.886 231.539 620.893 234.07L619.822 234.745L607.593 242.506L599.369 247.723C596.566 241.688 590.789 236.64 583.173 233.304C581.983 232.785 580.727 232.318 579.458 231.89C579.326 231.851 579.194 231.799 579.061 231.76C578.348 231.526 577.634 231.306 576.893 231.098C576.629 231.02 576.351 230.942 576.074 230.877C575.452 230.709 574.831 230.553 574.196 230.41C573.813 230.319 573.443 230.241 573.046 230.164C572.755 230.099 572.464 230.034 572.173 229.969C571.287 229.8 570.388 229.67 569.489 229.541C569.331 229.515 569.185 229.502 569.027 229.476C568.696 229.437 568.366 229.398 568.035 229.359C567.757 229.333 567.48 229.294 567.202 229.268C566.938 229.242 566.673 229.216 566.409 229.19C565.973 229.151 565.536 229.125 565.087 229.086C564.994 229.086 564.902 229.073 564.809 229.06C564.783 229.06 564.756 229.06 564.73 229.06C564.346 229.034 563.95 229.021 563.566 229.008C563.408 229.008 563.249 228.996 563.09 228.983C562.747 228.97 562.39 228.97 562.033 228.957C561.834 228.957 561.636 228.944 561.424 228.944C561.068 228.944 560.724 228.944 560.367 228.957C560.168 228.957 559.97 228.957 559.785 228.957C559.217 228.97 558.661 228.983 558.093 229.021C554.708 229.19 551.429 229.631 548.309 230.293C548.283 230.293 548.256 230.306 548.23 230.306C533.647 233.447 522.409 241.688 518.971 251.694L514.582 249.488L513.035 248.774Z"
                    fill="#B4D0D8"/>
                <path opacity="0.25"
                    d="M267.769 70.505L266.725 70.2843L254.879 67.7925L246.906 66.1054C248.876 60.94 248.506 54.6326 246.02 48.2733C245.624 47.261 245.161 46.2357 244.659 45.2234C244.632 45.1715 244.606 45.1195 244.579 45.0806C244.262 44.4576 243.931 43.8347 243.588 43.2117C243.535 43.1079 243.469 43.0171 243.416 42.9133C243.085 42.3422 242.742 41.7712 242.371 41.2001C242.292 41.0703 242.199 40.9406 242.107 40.7978C241.922 40.5123 241.75 40.2268 241.552 39.9542C240.877 38.9938 240.15 38.0335 239.383 37.086C239.317 36.9952 239.238 36.9173 239.172 36.8265C238.709 36.2684 238.246 35.7233 237.757 35.1782C237.744 35.1523 237.717 35.1393 237.691 35.1133C237.294 34.6721 236.871 34.2438 236.448 33.8025C236.237 33.5949 236.038 33.3742 235.827 33.1536C235.179 32.5177 234.518 31.8818 233.817 31.2718C231.728 29.4159 229.534 27.7806 227.299 26.366C227.286 26.353 227.26 26.3401 227.246 26.3271C216.788 19.7601 205.233 18.1118 197.221 22.0183L195.899 18.008L195.516 16.8529L191.8 5.52297L191.47 4.53661C190.267 0.850795 185.441 -0.161512 182.797 2.70668L166.627 20.2533C163.983 23.1344 165.504 27.7287 169.351 28.5463L170.395 28.767L182.242 31.2588L188.376 32.5566C187.398 35.9699 187.358 39.7985 188.204 43.7568C188.204 43.7439 188.218 43.7309 188.218 43.7049C188.548 45.2883 189.011 46.8976 189.619 48.5069C190.677 51.3231 192.144 54.1524 193.995 56.9038C195.106 58.552 196.362 60.1613 197.75 61.7187C199.032 63.1723 200.434 64.5739 201.941 65.9107C202.734 66.6115 203.541 67.2864 204.361 67.9223C206.013 69.2201 207.732 70.3882 209.464 71.4264C212.359 73.1525 215.334 74.5023 218.282 75.4756C226.004 78.0064 233.54 77.8636 239.185 74.8397L241.129 80.7448L241.604 82.1724L245.32 93.5024L245.65 94.4887C246.853 98.1746 251.679 99.1869 254.323 96.3187L270.493 78.7721C273.137 75.9169 271.63 71.3226 267.769 70.505Z"
                    fill="#B4D0D8"/>
                <path d="M620.758 97.9021L633.582 119.55C636.94 125.221 634.97 132.554 629.193 135.85L574.378 167.154C568.6 170.45 561.13 168.517 557.772 162.845L544.948 141.197C541.589 135.526 543.559 128.193 549.337 124.897L604.152 93.5933C609.916 90.2839 617.399 92.2306 620.758 97.9021Z"
                    fill="#5D00FF"/>
                <path opacity="0.15"
                    d="M544.948 141.132L557.772 162.78C560.298 167.049 565.163 169.191 569.87 168.594C569.658 168.308 569.46 168.01 569.275 167.698L556.45 146.051C553.092 140.379 555.062 133.046 560.84 129.75L615.655 98.4465C617.082 97.6289 618.616 97.1357 620.163 96.941C616.58 91.9704 609.612 90.4 604.152 93.5278L549.337 124.831C543.56 128.141 541.59 135.473 544.948 141.132Z"
                    fill="black"/>
                <path d="M137.873 264.815L136.418 236.406C136.18 231.759 141.165 228.606 145.369 230.721L146.493 231.292L159.463 237.82L171.15 243.699C171.838 244.05 172.433 244.491 172.909 245.01C173.001 245.114 173.094 245.218 173.186 245.322C173.451 245.659 173.675 245.997 173.86 246.36C174.098 246.84 174.284 247.346 174.389 247.878C174.403 247.891 174.389 247.891 174.389 247.891C174.588 248.878 174.535 249.903 174.231 250.876C173.94 251.811 173.411 252.68 172.657 253.407C172.565 253.498 172.459 253.589 172.353 253.68C172.142 253.848 171.93 254.017 171.692 254.16L160.653 261.155L148.423 268.916L147.352 269.591C143.399 272.109 138.124 269.461 137.873 264.815Z"
                    fill="#369CFF"/>
                <path opacity="0.15"
                    d="M159.49 237.822L171.177 243.701C175.395 245.829 175.699 251.631 171.719 254.161L160.693 261.157L159.49 237.822Z"
                    fill="black"/>
                <path d="M137.872 264.815L136.418 236.406C136.18 231.759 141.164 228.606 145.368 230.721L146.492 231.292L148.436 268.916L147.365 269.591C143.399 272.109 138.123 269.461 137.872 264.815Z"
                    fill="#6DB9DF"/>
                <path d="M276.824 227.904L278.279 256.313C278.517 260.959 273.532 264.113 269.328 261.998L268.204 261.427L255.234 254.899L243.547 249.019C242.859 248.669 242.264 248.228 241.788 247.709C241.696 247.605 241.603 247.501 241.511 247.397C241.246 247.06 241.022 246.722 240.836 246.359C240.598 245.879 240.413 245.372 240.308 244.84C240.294 244.827 240.308 244.827 240.308 244.827C240.109 243.841 240.162 242.816 240.466 241.842C240.757 240.908 241.286 240.038 242.04 239.312C242.132 239.221 242.238 239.13 242.344 239.039C242.555 238.87 242.767 238.702 243.005 238.559L254.044 231.564L266.274 223.803L267.345 223.128C271.298 220.61 276.586 223.258 276.824 227.904Z"
                    fill="#369CFF"/>
                <path opacity="0.15"
                    d="M255.207 254.899L243.519 249.033C239.302 246.905 238.998 241.103 242.977 238.573L254.004 231.577L255.207 254.899Z"
                    fill="black"/>
                <path d="M276.826 227.903L278.28 256.313C278.518 260.959 273.534 264.113 269.33 261.997L268.206 261.426L266.262 223.802L267.333 223.127C271.3 220.61 276.588 223.257 276.826 227.903Z"
                    fill="#6DB9DF"/>
                <path d="M211.25 218.144C213.775 218.287 216.234 218.599 218.614 219.04C222.567 219.78 226.256 220.922 229.601 222.388C240.111 226.983 247.158 234.86 247.634 244.088C248.15 254.016 240.918 263.114 229.601 268.669C226.256 270.317 222.567 271.641 218.614 272.588C216.247 273.159 213.775 273.587 211.25 273.873C210.007 274.016 208.738 274.12 207.455 274.184C205.009 274.301 202.603 274.275 200.25 274.12C197.724 273.951 195.252 273.626 192.885 273.159C188.932 272.367 185.23 271.186 181.899 269.681C171.692 265.048 164.857 257.3 164.381 248.215C163.878 238.442 170.885 229.461 181.899 223.894C185.217 222.207 188.919 220.844 192.885 219.845C195.252 219.248 197.711 218.806 200.25 218.495C201.664 218.326 203.105 218.209 204.573 218.131C206.834 217.989 209.068 218.015 211.25 218.144Z"
                    fill="#369CFF"/>
                <path d="M192.884 219.819V273.146C188.931 272.355 185.229 271.174 181.898 269.668V223.868C185.216 222.181 188.918 220.805 192.884 219.819Z"
                    fill="#6DB9DF"/>
                <path d="M211.248 218.144V273.86C210.005 274.003 208.736 274.106 207.453 274.171C205.008 274.288 202.601 274.262 200.248 274.106V218.482C201.663 218.313 203.104 218.196 204.571 218.118C206.832 217.989 209.066 218.015 211.248 218.144Z"
                    fill="#6DB9DF"/>
                <path d="M218.613 219.027C222.566 219.767 226.254 220.909 229.599 222.375V268.669C226.254 270.317 222.566 271.641 218.613 272.588V219.027Z"
                    fill="#6DB9DF"/>
                <path opacity="0.15"
                    d="M204.519 218.105C181.527 219.234 163.533 232.706 164.326 248.189C164.71 255.599 169.337 262.127 176.569 266.799C174.467 263.659 173.224 260.194 173.026 256.495C172.233 241.012 190.227 227.54 213.218 226.411C225.197 225.814 236.17 228.695 244.037 233.783C237.373 223.777 222.023 217.249 204.519 218.105Z"
                    fill="black"/>
                <path opacity="0.25"
                    d="M233.605 253.083C233.605 248.187 227.946 244.219 220.966 244.219C213.985 244.219 208.326 248.187 208.326 253.083C208.326 257.978 213.985 261.947 220.966 261.947C227.946 261.947 233.605 257.978 233.605 253.083Z"
                    fill="white"/>
                <path opacity="0.25"
                    d="M203.528 254.9C206.185 254.9 208.327 256.405 208.327 258.274C208.327 260.13 206.172 261.648 203.528 261.648C200.87 261.648 198.728 260.143 198.728 258.274C198.728 256.418 200.883 254.9 203.528 254.9Z"
                    fill="white"/>
                <path d="M93.7383 143.962L114.059 149.101C117.378 149.945 120.392 146.934 119.467 143.689L113.834 123.846C112.909 120.601 108.758 119.55 106.351 121.951L91.6626 136.655C89.2696 139.069 90.4198 143.118 93.7383 143.962Z"
                    fill="#008DFF"/>
                <path opacity="0.15"
                    d="M102.954 146.286L93.7389 143.963C90.4204 143.12 89.2569 139.07 91.6632 136.656L98.3266 129.999L102.954 146.286Z"
                    fill="black"/>
                <path d="M95.987 130.426L100.892 147.713C101.976 151.516 99.6889 155.487 95.8151 156.552L49.4486 169.231C45.5748 170.295 41.5291 168.05 40.445 164.248L35.5399 146.961C34.4558 143.158 36.743 139.187 40.6168 138.122L86.9834 125.443C90.8572 124.379 94.9161 126.624 95.987 130.426Z"
                    fill="#5D00FF"/>
                <path d="M72.6376 162.885L95.8143 156.552C99.6881 155.487 101.975 151.516 100.891 147.713L95.9862 130.426C94.902 126.624 90.8564 124.379 86.9826 125.443L63.8059 131.776L72.6376 162.885Z"
                    fill="#008DFF"/>
                <path opacity="0.15"
                    d="M35.5406 146.948L40.4457 164.235C41.2389 167.051 43.6716 169.011 46.448 169.4C46.2762 169.05 46.1307 168.673 46.025 168.297L41.1199 151.01C40.0358 147.207 42.3231 143.236 46.1968 142.172L92.5634 129.492C93.5682 129.22 94.5862 129.168 95.5646 129.31C94.0838 126.196 90.4612 124.483 86.9841 125.43L40.6175 138.11C36.757 139.161 34.4697 143.145 35.5406 146.948Z"
                    fill="black"/>
                <path opacity="0.25"
                    d="M95.5115 151.373C96.0007 153.112 94.9562 154.942 93.1846 155.422L54.8962 165.883C53.1245 166.363 51.2603 165.338 50.7712 163.599C50.282 161.86 51.3264 160.03 53.0981 159.549L91.3865 149.089C93.1581 148.596 95.0091 149.634 95.5115 151.373Z"
                    fill="white"/>
                <path d="M95.3119 216.963L100.072 225.36C101.314 227.553 100.508 230.357 98.2602 231.576L76.9874 243.192C74.753 244.412 71.8973 243.62 70.6545 241.414L65.8949 233.017C64.6521 230.824 65.4586 228.02 67.7062 226.8L88.979 215.185C91.2134 213.965 94.0691 214.77 95.3119 216.963Z"
                    fill="#AE7CFF"/>
                <path opacity="0.15"
                    d="M65.8949 233.004L70.6545 241.414C71.5932 243.075 73.4442 243.932 75.2555 243.737C75.1761 243.62 75.0968 243.516 75.0307 243.386L70.2711 234.99C69.0283 232.796 69.8348 229.993 72.0824 228.773L93.3552 217.157C93.9105 216.859 94.5054 216.677 95.1004 216.612C93.7651 214.679 91.0944 214.03 88.979 215.185L67.7062 226.8C65.4586 228.007 64.6389 230.811 65.8949 233.004Z"
                    fill="black"/>
                <path d="M78.0187 228.799L80.9142 233.913C81.324 234.652 81.0596 235.574 80.306 235.989C79.5656 236.391 78.6137 236.132 78.1906 235.392L75.2952 230.279C74.8853 229.539 75.1497 228.617 75.9034 228.202C76.6437 227.8 77.5957 228.072 78.0187 228.799Z"
                    fill="#67B6FF"/>
                <path d="M82.9902 226.087L85.8856 231.201C86.2955 231.928 86.031 232.862 85.2774 233.277C84.5238 233.68 83.5851 233.42 83.162 232.68L80.2666 227.567C79.8568 226.84 80.1212 225.906 80.8748 225.49C81.6284 225.088 82.5803 225.348 82.9902 226.087Z"
                    fill="#67B6FF"/>
                <path d="M87.9749 223.361L90.8703 228.475C91.2802 229.201 91.0158 230.136 90.2622 230.551C89.5218 230.954 88.5699 230.694 88.1468 229.954L85.2514 224.841C84.8415 224.114 85.1059 223.18 85.8595 222.764C86.6131 222.362 87.5651 222.634 87.9749 223.361Z"
                    fill="#67B6FF"/>
                <path opacity="0.8"
                    d="M96.9518 229.813C97.2559 230.345 97.0576 231.02 96.5155 231.318L88.5431 235.627C88.0011 235.926 87.3136 235.731 87.0095 235.199C86.7054 234.667 86.9037 233.992 87.4458 233.693L95.4181 229.384C95.9602 229.086 96.6477 229.281 96.9518 229.813Z"
                    fill="#BBE2FF"/>
                <path opacity="0.8"
                    d="M86.3479 235.548C86.652 236.08 86.4537 236.755 85.9116 237.053L83.4261 238.403C82.884 238.701 82.1965 238.507 81.8924 237.974C81.5883 237.442 81.7866 236.768 82.3287 236.469L84.8143 235.119C85.3564 234.821 86.0439 235.015 86.3479 235.548Z"
                    fill="#BBE2FF"/>
                <path d="M37.8938 254.043C39.4935 254.796 41.0007 255.666 42.3757 256.652C43.9226 257.755 45.324 258.975 46.5933 260.325C48.5103 262.376 50.0969 264.673 51.3132 267.152C52.7146 269.994 53.6137 273.07 53.9707 276.223C54.4202 280.156 54.0235 284.205 52.6882 288.124C52.3312 289.189 51.8949 290.24 51.3925 291.278C50.5464 293.017 49.5416 294.639 48.4046 296.132C46.9899 297.975 45.3769 299.61 43.5921 301.025C41.0272 303.049 38.145 304.62 35.0644 305.671C32.3541 306.605 29.4851 307.137 26.5765 307.228C24.6858 307.28 22.7688 307.163 20.8517 306.839C18.7628 306.489 16.687 305.892 14.651 305.061C14.2544 304.892 13.8445 304.723 13.4479 304.529C12.3505 304.01 11.2928 303.439 10.288 302.816C8.55604 301.726 6.98273 300.48 5.56807 299.104C4.37816 297.936 3.29403 296.677 2.34211 295.34C1.00677 293.471 -0.0773612 291.46 -0.910293 289.344C-1.71678 287.281 -2.28529 285.113 -2.57616 282.894C-3.26366 277.742 -2.49683 272.343 -0.050919 267.294C2.09091 262.882 5.25076 259.261 9.032 256.6C10.8565 255.302 12.8265 254.238 14.889 253.408C17.0044 252.564 19.2255 251.967 21.4863 251.643C23.1125 251.396 24.7652 251.305 26.431 251.344C28.3878 251.383 30.3577 251.643 32.3012 252.097C33.8481 252.46 35.395 252.966 36.9022 253.602C37.2459 253.745 37.5632 253.888 37.8938 254.043Z"
                    fill="#C3C11E"/>
                <path d="M51.3131 267.139C52.7145 269.981 53.6136 273.057 53.9706 276.21C51.9742 283.128 49.4886 289.306 46.8708 294.73C45.7999 296.95 44.6893 299.052 43.592 301.025C41.0271 303.049 38.1449 304.62 35.0643 305.671C40.9345 296.794 47.6905 283.777 51.3131 267.139Z"
                    fill="white"/>
                <path opacity="0.15"
                    d="M-0.052618 267.282C-3.75454 274.913 -3.59588 283.375 -0.383147 290.539C-0.951656 285.542 -0.158387 280.351 2.19498 275.471C8.93776 261.532 25.9269 255.601 40.1264 262.22C46.5519 265.218 51.2983 270.267 53.9557 276.198C52.898 266.892 47.1204 258.327 37.8788 254.018C23.6793 247.412 6.70339 253.343 -0.052618 267.282Z"
                    fill="black"/>
                <path d="M112.892 25.9939C110.174 -1.75299 85.0569 -22.0837 56.7907 -19.4161C28.5245 -16.7484 7.81323 7.90742 10.5308 35.6543C13.2484 63.4012 38.3657 83.7319 66.6319 81.0643C94.8981 78.3966 115.609 53.7408 112.892 25.9939Z"
                    fill="#FFB1DB"/>
                <path opacity="0.1"
                    d="M17.2938 5.36739C4.35027 27.1319 9.87671 54.49 29.1796 69.9211C16.4608 54.1006 14.1471 31.6483 25.1207 13.1933C39.4392 -10.8814 70.9187 -18.9928 95.4439 -4.93733C97.7841 -3.58759 99.9788 -2.09512 102.028 -0.459864C98.1543 -5.27479 93.3285 -9.47971 87.617 -12.7632C63.0918 -26.8186 31.6123 -18.6943 17.2938 5.36739Z"
                    fill="black"/>
                <path d="M62.4033 31.5176C66.9249 51.4132 48.2567 67.5192 29.3108 70.2706C31.3072 71.8539 33.449 73.3075 35.7363 74.6183C40.9586 77.6162 46.4983 79.5889 52.1173 80.6272C68.0223 69.6217 75.3997 47.5716 62.4033 31.5176Z"
                    fill="#FB67AE"/>
                <path d="M62.4048 31.519C81.7341 36.5156 87.8951 61.6285 80.6896 77.9161C88.2521 74.9701 95.1403 70.246 100.654 63.9386C98.1151 45.769 82.3951 27.1323 62.4048 31.519Z"
                    fill="#FB67AE"/>
                <path d="M62.4036 31.5186C46.9085 44.8732 20.9421 39.1368 10.9073 23.0178C9.55874 31.2071 10.3256 39.5391 12.9962 47.2612C31.1092 55.8268 55.3303 49.7919 62.4036 31.5186Z"
                    fill="#FB67AE"/>
                <path opacity="0.25"
                    d="M95.0599 50.6357C95.0599 36.5512 83.4285 25.1335 69.0804 25.1335C54.7323 25.1335 43.1008 36.5512 43.1008 50.6357C43.1008 64.7202 54.7323 76.1379 69.0804 76.1379C83.4285 76.1379 95.0599 64.7202 95.0599 50.6357Z"
                    fill="white"/>
                <path d="M304.71 119.523L284.389 114.383C281.07 113.54 278.056 116.551 278.981 119.795L284.614 139.639C285.539 142.884 289.691 143.935 292.097 141.534L306.786 126.83C309.179 124.429 308.028 120.366 304.71 119.523Z"
                    fill="#5D00FF"/>
                <path opacity="0.15"
                    d="M295.496 117.2L304.711 119.523C308.029 120.366 309.18 124.416 306.787 126.83L300.123 133.487L295.496 117.2Z"
                    fill="black"/>
                <path d="M356.722 112.604L377.043 117.743C380.361 118.587 383.376 115.576 382.45 112.331L376.818 92.4877C375.892 89.2432 371.741 88.192 369.335 90.5929L354.646 105.297C352.24 107.711 353.39 111.773 356.722 112.604Z"
                    fill="#008DFF"/>
                <path opacity="0.15"
                    d="M365.925 114.929L356.71 112.605C353.391 111.762 352.228 107.713 354.634 105.299L361.297 98.6409L365.925 114.929Z"
                    fill="black"/>
                <path d="M358.969 99.0705L363.874 116.358C364.959 120.16 362.671 124.131 358.798 125.196L312.431 137.875C308.557 138.94 304.511 136.694 303.427 132.892L298.522 115.605C297.438 111.802 299.725 107.831 303.599 106.767L349.966 94.0868C353.84 93.0226 357.885 95.2679 358.969 99.0705Z"
                    fill="#5D00FF"/>
                <path d="M335.607 131.528L358.784 125.195C362.658 124.131 364.945 120.159 363.861 116.357L358.956 99.0698C357.872 95.2671 353.826 93.0219 349.952 94.0861L326.775 100.42L335.607 131.528Z"
                    fill="#008DFF"/>
                <path opacity="0.15"
                    d="M298.523 115.591L303.428 132.878C304.221 135.694 306.654 137.654 309.43 138.043C309.258 137.693 309.113 137.316 309.007 136.94L304.102 119.653C303.018 115.85 305.305 111.879 309.179 110.815L355.545 98.1352C356.55 97.8626 357.568 97.8107 358.547 97.9535C357.066 94.8387 353.443 93.1256 349.966 94.073L303.599 106.753C299.726 107.817 297.438 111.788 298.523 115.591Z"
                    fill="black"/>
                <path opacity="0.25"
                    d="M358.48 120.017C358.969 121.756 357.925 123.586 356.153 124.066L317.865 134.527C316.093 135.007 314.229 133.981 313.74 132.242C313.25 130.503 314.295 128.673 316.067 128.193L354.355 117.733C356.127 117.253 357.991 118.278 358.48 120.017Z"
                    fill="white"/>
                <path d="M524.285 56.0344L503.965 50.895C500.646 50.0514 497.632 53.0624 498.557 56.307L504.189 76.1506C505.115 79.3952 509.266 80.4465 511.673 78.0455L526.361 63.3411C528.767 60.9402 527.617 56.878 524.285 56.0344Z"
                    fill="#FFDC8C"/>
                <path opacity="0.15"
                    d="M515.083 53.7108L524.298 56.0339C527.617 56.8775 528.767 60.9267 526.374 63.3407L519.711 69.9985L515.083 53.7108Z"
                    fill="black"/>
                <path d="M578.546 35.5809L583.451 52.8679C584.535 56.6705 582.248 60.6419 578.374 61.7061L532.007 74.3858C528.134 75.4501 524.088 73.2048 523.004 69.4022L518.099 52.1152C517.015 48.3126 519.302 44.3412 523.176 43.277L569.542 30.5973C573.416 29.5331 577.475 31.7783 578.546 35.5809Z"
                    fill="#FFDC8C"/>
                <path d="M555.195 68.0394L578.372 61.706C582.246 60.6418 584.533 56.6705 583.449 52.8679L578.544 35.5809C577.46 31.7783 573.414 29.533 569.54 30.5973L546.364 36.9306L555.195 68.0394Z"
                    fill="#FFA28C"/>
                <path opacity="0.15"
                    d="M518.097 52.1026L523.002 69.3896C523.796 72.2059 526.228 74.1656 529.005 74.5549C528.833 74.2045 528.687 73.8281 528.582 73.4518L523.677 56.1648C522.593 52.3621 524.88 48.3908 528.754 47.3266L575.12 34.6469C576.125 34.3743 577.143 34.3224 578.121 34.4651C576.641 31.3504 573.018 29.6373 569.541 30.5847L523.174 43.2644C519.314 44.3286 517.026 48.2999 518.097 52.1026Z"
                    fill="black"/>
                <path opacity="0.25"
                    d="M578.068 56.5264C578.558 58.2655 577.513 60.0954 575.741 60.5756L537.453 71.0361C535.681 71.5163 533.817 70.491 533.328 68.7519C532.839 67.0128 533.883 65.1829 535.655 64.7027L573.943 54.2422C575.715 53.762 577.566 54.7873 578.068 56.5264Z"
                    fill="white"/>
                <path d="M277.168 159.679L284.095 171.905C285.907 175.11 284.73 179.185 281.464 180.963L250.501 197.861C247.235 199.639 243.083 198.484 241.272 195.278L234.344 183.053C232.533 179.847 233.71 175.772 236.975 173.994L267.939 157.096C271.205 155.305 275.356 156.473 277.168 159.679Z"
                    fill="#AE7CFF"/>
                <path opacity="0.15"
                    d="M234.358 183.027L241.286 195.252C242.648 197.666 245.345 198.912 247.976 198.627C247.857 198.458 247.751 198.302 247.658 198.121L240.73 185.895C238.919 182.689 240.096 178.614 243.361 176.836L274.325 159.939C275.132 159.497 275.991 159.238 276.864 159.147C274.92 156.331 271.047 155.383 267.953 157.07L236.989 173.968C233.723 175.746 232.533 179.821 234.358 183.027Z"
                    fill="black"/>
                <path d="M251.995 176.902L256.212 184.338C256.82 185.403 256.424 186.765 255.34 187.362C254.255 187.959 252.867 187.57 252.259 186.506L248.042 179.069C247.433 178.005 247.83 176.642 248.914 176.045C250.012 175.448 251.4 175.838 251.995 176.902Z"
                    fill="#67B6FF"/>
                <path d="M259.252 172.955L263.47 180.392C264.078 181.456 263.681 182.819 262.597 183.416C261.513 184.013 260.125 183.624 259.517 182.559L255.299 175.123C254.691 174.059 255.088 172.696 256.172 172.099C257.256 171.489 258.644 171.878 259.252 172.955Z"
                    fill="#67B6FF"/>
                <path d="M266.499 168.997L270.716 176.433C271.324 177.497 270.928 178.86 269.844 179.457C268.759 180.054 267.371 179.665 266.763 178.601L262.545 171.164C261.937 170.1 262.334 168.737 263.418 168.14C264.502 167.543 265.89 167.932 266.499 168.997Z"
                    fill="#67B6FF"/>
                <path opacity="0.8"
                    d="M279.561 178.38C279.998 179.159 279.707 180.132 278.913 180.561L267.305 186.842C266.512 187.27 265.52 186.985 265.084 186.206C264.648 185.428 264.939 184.454 265.732 184.026L277.34 177.744C278.12 177.316 279.125 177.602 279.561 178.38Z"
                    fill="#BBE2FF"/>
                <path opacity="0.8"
                    d="M264.133 186.726C264.569 187.504 264.278 188.478 263.485 188.906L259.862 190.866C259.069 191.294 258.078 191.008 257.641 190.23C257.205 189.451 257.496 188.478 258.289 188.049L261.912 186.09C262.692 185.661 263.697 185.947 264.133 186.726Z"
                    fill="#BBE2FF"/>
                <path d="M430.547 15.154C432.834 13.1554 435.28 11.572 437.792 10.404C439.842 9.43064 441.931 8.7558 443.967 8.36645C448.806 7.43202 453.354 8.1458 456.619 10.6117C457.175 11.0399 457.703 11.5202 458.179 12.0523C461.471 15.6862 462.027 21.0202 460.229 26.4451C458.946 30.3126 456.461 34.245 452.904 37.6324C452.56 37.9698 452.19 38.3072 451.82 38.6317C448.581 41.4609 444.971 43.4855 441.415 44.6406C434.712 46.8339 428.128 45.9904 424.267 41.8243L424.175 41.7335C422.971 40.4097 422.139 38.8653 421.649 37.1652C420.605 33.5702 421.121 29.3263 422.985 25.1473C424.148 22.5387 425.827 19.982 427.996 17.6199C428.789 16.7634 429.635 15.9327 430.547 15.154Z"
                    fill="#FB67AE"/>
                <path d="M426.937 37.4371C430.533 34.2964 436.046 34.6079 439.246 38.1379C440.925 39.9808 441.639 42.3558 441.414 44.64C434.711 46.8333 428.127 45.9898 424.266 41.8237C424.663 40.1885 425.562 38.6441 426.937 37.4371Z"
                    fill="#D43B8B"/>
                <path d="M445.887 72.6077C449.642 75.0476 452.881 77.8768 455.525 80.9397C457.707 83.4445 459.492 86.105 460.827 88.8045C464.013 95.2157 464.714 101.848 462.361 107.363V107.376C461.964 108.324 461.462 109.232 460.867 110.115C456.834 116.098 449.312 118.888 440.744 118.434C434.636 118.096 427.999 116.111 421.732 112.438C421.111 112.087 420.476 111.698 419.868 111.296C414.527 107.831 410.23 103.561 407.189 99.0183C401.464 90.4657 400.195 80.9397 404.77 73.9574L404.875 73.8016C406.343 71.6213 408.273 69.8693 410.547 68.5455C415.36 65.7292 421.732 64.8337 428.501 65.859C432.719 66.4949 437.082 67.8836 441.339 70.025H441.352C442.873 70.7777 444.393 71.6343 445.887 72.6077Z"
                    fill="#7C9AFF"/>
                <path opacity="0.1"
                    d="M404.849 73.8019C401.98 78.0588 401.332 83.276 402.562 88.662C402.971 86.3389 403.818 84.1326 405.166 82.1469C412.345 71.4788 430.709 70.9467 446.178 80.9789C455.473 87.0137 461.607 95.4885 463.458 103.6C465.243 93.425 458.447 80.7972 445.874 72.6339C430.392 62.6147 412.041 63.1338 404.849 73.8019Z"
                    fill="black"/>
                <path d="M412.161 76.0082C418.084 79.8498 419.71 87.6757 415.797 93.4899C413.748 96.5268 410.588 98.4216 407.19 98.9797C401.465 90.427 400.196 80.901 404.77 73.9187C407.309 73.8668 409.887 74.5417 412.161 76.0082Z"
                    fill="#4D85DF"/>
                <path d="M441.565 85.8728C441.565 80.3537 437.007 75.8796 431.385 75.8796C425.762 75.8796 421.205 80.3537 421.205 85.8728C421.205 91.3919 425.762 95.866 431.385 95.866C437.007 95.866 441.565 91.3919 441.565 85.8728Z"
                    fill="#4D85DF"/>
                <path d="M428.501 65.8328C428.224 66.6504 427.84 67.468 427.325 68.2208C424.218 72.828 417.911 74.0869 413.218 71.05C412.147 70.3492 411.248 69.4796 410.547 68.5192C415.36 65.7029 421.732 64.7945 428.501 65.8328Z"
                    fill="#4D85DF"/>
                <path d="M437.466 105.222C441.934 108.117 443.309 113.892 440.744 118.408C434.636 118.071 427.999 116.085 421.732 112.412C421.904 110.894 422.433 109.401 423.345 108.052C426.439 103.444 432.772 102.173 437.466 105.222Z"
                    fill="#4D85DF"/>
                <path d="M460.828 88.7923C464.014 95.2035 464.715 101.835 462.361 107.351V107.364C459.228 108.857 455.407 108.727 452.3 106.715C447.607 103.665 446.311 97.4617 449.418 92.8544C451.943 89.0907 456.637 87.5464 460.828 88.7923Z"
                    fill="#4D85DF"/>
                <path d="M445.887 72.6085C449.642 75.0484 452.881 77.8777 455.525 80.9405C452.458 82.3033 448.769 82.1345 445.742 80.1748C442.225 77.8907 440.625 73.8415 441.339 70.0129C442.873 70.7786 444.393 71.6352 445.887 72.6085Z"
                    fill="#4D85DF"/>
                <path opacity="0.25"
                    d="M441.829 109.816L441.591 110.167C440.52 111.763 438.299 112.217 436.672 111.153L411.341 94.7226C409.714 93.6714 409.252 91.491 410.336 89.8947L410.574 89.5443C411.645 87.948 413.866 87.4937 415.492 88.558L440.824 104.988C442.463 106.04 442.913 108.22 441.829 109.816Z"
                    fill="white"/>
                <path d="M171.36 147.622C173.039 145.13 174.995 142.976 177.098 141.211C178.816 139.758 180.654 138.576 182.518 137.694C186.934 135.579 191.509 135.111 195.303 136.682C195.951 136.954 196.586 137.279 197.194 137.668C201.319 140.342 203.249 145.338 202.932 151.036C202.707 155.098 201.332 159.51 198.793 163.663C198.542 164.079 198.278 164.494 198.013 164.896C195.62 168.439 192.685 171.295 189.552 173.319C183.655 177.122 177.084 177.965 172.272 174.929L172.166 174.864C170.659 173.89 169.456 172.605 168.544 171.1C166.6 167.894 165.979 163.676 166.693 159.173C167.129 156.37 168.081 153.476 169.562 150.646C170.104 149.621 170.699 148.622 171.36 147.622Z"
                    fill="#FFDEC3"/>
                <path opacity="0.1"
                    d="M172.194 174.877C175.129 176.785 178.725 177.213 182.44 176.395C180.84 176.123 179.32 175.552 177.945 174.669C170.581 169.893 170.224 157.707 177.138 147.428C181.29 141.25 187.134 137.175 192.739 135.955C185.719 134.774 177.019 139.278 171.387 147.636C164.473 157.914 164.83 170.114 172.194 174.877Z"
                    fill="black"/>
                <path d="M173.712 170.023C176.356 166.091 181.75 165.001 185.77 167.609C187.872 168.972 189.167 171.075 189.551 173.333C183.654 177.135 177.083 177.979 172.271 174.942C172.231 173.255 172.694 171.542 173.712 170.023Z"
                    fill="#DFBCA7"/>
                <path d="M174.757 153.527C176.859 150.413 181.129 149.556 184.303 151.607C187.476 153.67 188.348 157.862 186.259 160.977C184.157 164.092 179.887 164.948 176.714 162.898C173.541 160.847 172.655 156.642 174.757 153.527Z"
                    fill="#DFBCA7"/>
                <path d="M166.692 159.173C167.261 159.355 167.816 159.615 168.332 159.952C171.505 162.016 172.378 166.208 170.275 169.322C169.799 170.036 169.191 170.633 168.53 171.1C166.6 167.895 165.978 163.664 166.692 159.173Z"
                    fill="#DFBCA7"/>
                <path d="M193.836 153.215C195.833 150.256 199.812 149.334 202.932 151.035C202.708 155.097 201.333 159.509 198.794 163.662C197.75 163.546 196.718 163.195 195.793 162.585C192.62 160.535 191.747 156.343 193.836 153.215Z"
                    fill="#DFBCA7"/>
                <path d="M182.519 137.694C186.934 135.579 191.509 135.112 195.303 136.682C196.335 138.758 196.242 141.302 194.854 143.366C192.752 146.48 188.481 147.337 185.295 145.286C182.717 143.599 181.659 140.485 182.519 137.694Z"
                    fill="#DFBCA7"/>
                <path d="M171.36 147.622C173.039 145.131 174.996 142.976 177.098 141.211C178.037 143.249 177.918 145.702 176.569 147.713C174.996 150.049 172.193 151.113 169.562 150.633C170.104 149.621 170.699 148.622 171.36 147.622Z"
                    fill="#DFBCA7"/>
                <path opacity="0.25"
                    d="M197.009 150.322L197.247 150.477C198.344 151.191 198.661 152.658 197.921 153.748L186.59 170.581C185.863 171.658 184.369 171.969 183.259 171.242L183.021 171.087C181.923 170.373 181.606 168.906 182.346 167.816L193.677 150.983C194.417 149.906 195.911 149.595 197.009 150.322Z"
                    fill="white"/>
                <path d="M416.861 209.265C413.874 181.543 388.559 161.447 360.318 164.38C332.077 167.312 311.606 192.163 314.593 219.884C317.58 247.606 342.896 267.702 371.136 264.769C399.377 261.837 419.849 236.987 416.861 209.265Z"
                    fill="#FFB1DB"/>
                <path opacity="0.1"
                    d="M321.327 189.152C308.383 210.916 313.91 238.274 333.213 253.706C320.494 237.885 318.18 215.433 329.154 196.978C343.472 172.903 374.952 164.792 399.477 178.847C401.817 180.197 404.012 181.689 406.061 183.325C402.187 178.51 397.362 174.305 391.65 171.021C367.138 156.966 335.645 165.077 321.327 189.152Z"
                    fill="black"/>
                <path d="M366.449 215.289C360.103 194.511 380.107 179.482 398.444 175.9C396.329 174.2 394.068 172.63 391.636 171.228C386.612 168.347 381.297 166.413 375.902 165.349C359.085 176.302 353.849 200.689 366.449 215.289Z"
                    fill="#FB67AE"/>
                <path d="M366.45 215.291C370.972 235.186 352.303 251.292 333.357 254.044C335.354 255.627 337.496 257.081 339.783 258.391C345.005 261.389 350.545 263.362 356.164 264.4C372.056 253.408 379.446 231.358 366.45 215.291Z"
                    fill="#FB67AE"/>
                <path d="M366.451 215.292C347.954 208.387 339.453 184.702 347.73 167.545C340.035 170.361 333.001 174.981 327.343 181.237C328.731 200.665 345.72 218.29 366.451 215.292Z"
                    fill="#FB67AE"/>
                <path d="M366.45 215.291C385.78 220.287 391.941 245.4 384.735 261.688C392.298 258.742 399.186 254.018 404.699 247.71C402.161 229.541 386.441 210.917 366.45 215.291Z"
                    fill="#FB67AE"/>
                <path d="M366.451 215.29C380.809 201.585 404.303 208.178 416.519 222.532C417.802 214.382 417.009 206.102 414.325 198.431C397.534 191.54 372.083 195.433 366.451 215.29Z"
                    fill="#FB67AE"/>
                <path d="M366.451 215.291C350.956 228.645 324.989 222.909 314.955 206.79C313.606 214.979 314.373 223.311 317.043 231.033C335.143 239.599 359.378 233.564 366.451 215.291Z"
                    fill="#FB67AE"/>
                <path d="M366.532 204.166C360.268 203.171 354.368 207.35 353.355 213.499C352.342 219.647 356.598 225.439 362.862 226.433C369.126 227.428 375.026 223.25 376.039 217.101C377.053 210.952 372.796 205.161 366.532 204.166Z"
                    fill="#FB67AE"/>
                <path opacity="0.25"
                    d="M377.26 209.261C363.096 207.019 349.761 216.472 347.477 230.377C345.193 244.281 354.824 257.37 368.988 259.612C383.153 261.855 396.487 252.401 398.771 238.497C401.055 224.592 391.425 211.503 377.26 209.261Z"
                    fill="white"/>
                <path opacity="0.25"
                    d="M408.626 207.828C408.626 202.71 404.4 198.562 399.186 198.562C393.972 198.562 389.746 202.71 389.746 207.828C389.746 212.946 393.972 217.094 399.186 217.094C404.4 217.094 408.626 212.946 408.626 207.828Z"
                    fill="white"/>
                <path d="M378.059 26.5485L382.818 34.9584C384.061 37.1517 383.255 39.955 381.007 41.175L359.734 52.7905C357.5 54.0104 354.644 53.2187 353.401 51.0124L348.642 42.6155C347.399 40.4222 348.206 37.6189 350.453 36.3989L371.726 24.7834C373.96 23.5505 376.816 24.3422 378.059 26.5485Z"
                    fill="#AE7CFF"/>
                <path opacity="0.15"
                    d="M348.642 42.5899L353.401 50.9998C354.34 52.661 356.191 53.5176 358.002 53.3229C357.923 53.2061 357.844 53.1023 357.777 52.9725L353.018 44.5756C351.775 42.3823 352.582 39.579 354.829 38.359L376.102 26.7435C376.657 26.445 377.252 26.2633 377.847 26.1984C376.512 24.2646 373.841 23.6157 371.726 24.7708L350.453 36.3863C348.205 37.5803 347.399 40.3836 348.642 42.5899Z"
                    fill="black"/>
                <path opacity="0.8"
                    d="M369.096 45.1326C369.4 45.6648 369.202 46.3396 368.66 46.6381L366.174 47.9879C365.632 48.2864 364.944 48.0917 364.64 47.5596C364.336 47.0275 364.535 46.3526 365.077 46.0541L367.562 44.7044C368.117 44.4059 368.805 44.6005 369.096 45.1326Z"
                    fill="#BBE2FF"/>
                <path d="M143.675 41.6563C143.001 40.644 141.639 40.3325 140.582 40.9685C139.524 41.6044 139.207 42.9541 139.828 43.9924L138.321 44.9139C137.62 44.0314 136.351 43.7847 135.359 44.3947C134.368 44.9917 134.024 46.2246 134.513 47.237L132.979 48.1714C132.279 47.2889 131.009 47.0423 130.018 47.6523C129.026 48.2493 128.682 49.4822 129.172 50.4945L127.664 51.4159C127.003 50.4036 125.628 50.0922 124.571 50.7281C123.513 51.364 123.182 52.7138 123.817 53.752L124.835 55.3613C128.22 60.7213 135.452 62.3955 140.925 59.0731C146.386 55.7507 148.091 48.6516 144.706 43.2786L143.675 41.6563Z"
                    fill="#FDCFCA"/>
                <path opacity="0.15"
                    d="M146.386 48.1831C146.796 52.4011 144.813 56.6839 140.913 59.0589C137.013 61.4209 132.213 61.2522 128.564 59.02L146.386 48.1831Z"
                    fill="black"/>
                <path d="M167.262 122.626C167.936 123.639 169.298 123.95 170.356 123.314C171.413 122.678 171.731 121.329 171.109 120.29L172.617 119.369C173.317 120.251 174.586 120.498 175.578 119.888C176.57 119.291 176.913 118.058 176.424 117.046L177.958 116.111C178.659 116.994 179.928 117.24 180.919 116.63C181.911 116.033 182.255 114.801 181.766 113.788L183.273 112.867C183.934 113.879 185.309 114.191 186.367 113.555C187.424 112.919 187.755 111.569 187.12 110.531L186.102 108.921C182.717 103.561 175.486 101.887 170.012 105.21C164.552 108.532 162.846 115.631 166.231 121.004L167.262 122.626Z"
                    fill="#FDCFCA"/>
                <path opacity="0.15"
                    d="M164.564 116.098C164.154 111.88 166.137 107.598 170.038 105.223C173.938 102.861 178.737 103.029 182.386 105.262L164.564 116.098Z"
                    fill="black"/>
                <path d="M156.816 53.3376L182.359 93.8556C182.386 93.9075 182.425 93.9594 182.452 94.0113C184.462 97.3727 183.364 101.759 179.98 103.823L164.299 113.349C163.546 113.803 162.766 114.102 161.946 114.27C158.984 114.88 155.825 113.647 154.145 111L128.602 70.4818C126.474 67.0945 127.545 62.617 130.995 60.5145L146.676 50.9885C148.619 49.8075 150.919 49.6258 152.942 50.3007C154.489 50.8198 155.891 51.858 156.816 53.3376Z"
                    fill="#865868"/>
                <path d="M156.817 53.3366L158.761 56.4124L134.711 80.1626L130.097 72.8559L152.93 50.2997C154.49 50.8188 155.892 51.8571 156.817 53.3366Z"
                    fill="#FDCFCA"/>
                <path d="M162.052 61.6297L166.653 68.9365L142.617 92.6996L138.003 85.3799L162.052 61.6297Z"
                    fill="#FDCFCA"/>
                <path d="M169.959 74.1678L174.56 81.4616L150.51 105.225L145.91 97.918L169.959 74.1678Z"
                    fill="#FDCFCA"/>
                <path d="M177.851 86.6899L182.36 93.8539C182.386 93.9058 182.426 93.9577 182.452 94.0096L161.946 114.269C158.985 114.879 155.825 113.646 154.146 110.998L153.802 110.453L177.851 86.6899Z"
                    fill="#FDCFCA"/>
                <path opacity="0.15"
                    d="M153.022 50.4303C150.999 49.7554 148.699 49.9371 146.755 51.1181L131.075 60.6442C128.603 62.1496 127.36 64.875 127.638 67.5485C128.1 67.0294 128.642 66.5752 129.264 66.1988L144.944 56.6728C146.888 55.4918 149.188 55.3101 151.211 55.985C152.771 56.5041 154.159 57.5424 155.098 59.0219L180.641 99.5399C180.668 99.5918 180.707 99.6437 180.734 99.6957C181.289 100.617 181.593 101.603 181.699 102.603C183.761 100.319 184.198 96.8924 182.545 94.141C182.519 94.0891 182.492 94.0372 182.452 93.9852L156.909 53.4672C155.971 51.9877 154.569 50.9494 153.022 50.4303Z"
                    fill="black"/>
                <path opacity="0.25"
                    d="M148.991 86.1058C146.703 87.4944 143.676 86.7936 142.248 84.5484L135.611 74.023C134.196 71.7778 134.91 68.8058 137.197 67.4041C139.485 66.0154 142.512 66.7163 143.94 68.9615L150.577 79.4869C151.992 81.7451 151.278 84.7171 148.991 86.1058Z"
                    fill="white"/>
                <path opacity="0.25"
                    d="M155.441 96.3332C153.154 97.7218 150.126 97.021 148.698 94.7758L147.958 93.6077C146.543 91.3625 147.257 88.3905 149.545 86.9888C151.832 85.6002 154.859 86.301 156.287 88.5462L157.028 89.7143C158.442 91.9725 157.728 94.9445 155.441 96.3332Z"
                    fill="white"/>
                <path d="M545.228 207.919C544.144 210.165 541.381 211.125 539.093 210.061L483.618 184.182C481.33 183.118 480.352 180.406 481.436 178.16C482.52 175.915 485.283 174.955 487.571 176.019L543.047 201.898C545.334 202.962 546.325 205.674 545.228 207.919Z"
                    fill="#FEAB57"/>
                <path opacity="0.15"
                    d="M481.422 178.186C480.444 180.211 481.145 182.612 482.969 183.845C482.916 183.105 483.049 182.326 483.406 181.612C484.49 179.367 487.253 178.407 489.54 179.471L545.016 205.35C545.241 205.453 545.452 205.583 545.651 205.713C545.545 204.13 544.593 202.65 543.033 201.923L487.557 176.045C485.27 174.98 482.507 175.941 481.422 178.186Z"
                    fill="black"/>
                <path d="M489.129 149.557C490.729 150.31 492.236 151.179 493.611 152.166C495.158 153.269 496.56 154.489 497.829 155.838C499.746 157.889 501.333 160.186 502.549 162.665C503.95 165.507 504.849 168.583 505.206 171.737C505.656 175.669 505.259 179.718 503.924 183.638C503.567 184.702 503.131 185.753 502.628 186.791C501.782 188.531 500.777 190.153 499.64 191.645C498.226 193.488 496.613 195.123 494.828 196.538C492.263 198.563 489.381 200.133 486.3 201.184C483.59 202.119 480.721 202.651 477.812 202.742C475.922 202.794 474.004 202.677 472.087 202.352C469.998 202.002 467.923 201.405 465.887 200.574C465.49 200.406 465.08 200.237 464.684 200.042C463.586 199.523 462.529 198.952 461.524 198.329C459.792 197.239 458.218 195.993 456.804 194.617C455.614 193.449 454.53 192.19 453.578 190.854C452.242 188.985 451.158 186.973 450.325 184.858C449.519 182.794 448.95 180.627 448.66 178.407C447.972 173.255 448.739 167.856 451.185 162.808C453.327 158.395 456.486 154.774 460.268 152.114C462.092 150.816 464.062 149.752 466.125 148.921C468.24 148.077 470.461 147.48 472.722 147.156C474.348 146.909 476.001 146.818 477.667 146.857C479.623 146.896 481.593 147.156 483.537 147.61C485.084 147.974 486.631 148.48 488.138 149.116C488.468 149.271 488.799 149.414 489.129 149.557Z"
                    fill="#E7C26B"/>
                <path d="M477.666 146.87C475.485 158.278 471.889 168.089 467.962 176.201C464.234 183.884 460.214 190.048 456.803 194.63C455.613 193.462 454.529 192.203 453.577 190.866C460.069 181.898 468.663 167.038 472.722 147.181C474.348 146.922 476.014 146.818 477.666 146.87Z"
                    fill="white"/>
                <path d="M466.137 148.921C463.969 157.499 461.06 165.04 457.927 171.503C455.441 176.642 452.823 181.094 450.338 184.857C449.531 182.794 448.963 180.626 448.672 178.407C452.823 171.503 457.133 162.691 460.267 152.113C462.091 150.828 464.061 149.751 466.137 148.921Z"
                    fill="white"/>
                <path d="M488.151 149.129C486.035 161.575 482.215 172.191 478.01 180.873C473.938 189.296 469.496 195.902 465.886 200.574C465.49 200.406 465.08 200.237 464.683 200.042C463.586 199.523 462.528 198.952 461.523 198.329C468.544 189.309 479.531 171.918 483.537 147.623C485.097 147.987 486.644 148.493 488.151 149.129Z"
                    fill="white"/>
                <path d="M493.613 152.168C495.16 153.271 496.561 154.491 497.83 155.84C495.662 167.417 492.026 177.358 488.06 185.561C484.662 192.569 481.026 198.318 477.813 202.744C475.923 202.796 474.006 202.679 472.089 202.354C479.135 193.14 489.726 175.97 493.613 152.168Z"
                    fill="white"/>
                <path d="M502.55 162.665C503.952 165.508 504.851 168.583 505.208 171.737C503.211 178.655 500.739 184.832 498.108 190.257C497.037 192.476 495.927 194.579 494.829 196.552C492.264 198.576 489.382 200.147 486.302 201.198C492.172 192.321 498.928 179.303 502.55 162.665Z"
                    fill="white"/>
                <path opacity="0.15"
                    d="M451.185 162.807C447.483 170.438 447.642 178.9 450.854 186.064C450.286 181.067 451.079 175.876 453.433 170.996C460.175 157.058 477.164 151.126 491.364 157.745C497.789 160.743 502.536 165.792 505.193 171.723C504.136 162.418 498.358 153.852 489.116 149.543C474.917 142.937 457.928 148.868 451.185 162.807Z"
                    fill="black"/>
                <path opacity="0.15"
                    d="M483.419 174.084L503.925 183.649C503.568 184.714 503.132 185.765 502.629 186.803C501.783 188.542 500.778 190.164 499.641 191.657L479.479 182.248L483.419 174.084Z"
                    fill="black"/>
                <path opacity="0.5"
                    d="M478.181 180.885C481.751 182.547 483.272 186.739 481.579 190.243C479.887 193.747 475.617 195.239 472.047 193.578C468.477 191.917 466.957 187.725 468.649 184.221C470.341 180.704 474.612 179.211 478.181 180.885Z"
                    fill="white"/>
                <path opacity="0.5"
                    d="M466.425 186.167C465.522 184.231 463.191 183.381 461.22 184.267C459.248 185.153 458.381 187.441 459.284 189.376C460.187 191.312 462.517 192.162 464.489 191.276C466.461 190.39 467.327 188.102 466.425 186.167Z"
                    fill="white"/>
                <path d="M486.473 280.636L485.019 252.227C484.781 247.58 489.765 244.427 493.969 246.542L495.093 247.113L508.063 253.641L519.751 259.52C520.438 259.871 521.033 260.312 521.509 260.831C521.602 260.935 521.694 261.039 521.787 261.143C522.051 261.48 522.276 261.817 522.461 262.181C522.699 262.661 522.884 263.167 522.99 263.699C523.003 263.712 522.99 263.712 522.99 263.712C523.188 264.699 523.135 265.724 522.831 266.697C522.54 267.632 522.011 268.501 521.258 269.228C521.165 269.319 521.06 269.41 520.954 269.501C520.742 269.669 520.531 269.838 520.293 269.981L509.253 276.976L497.023 284.737L495.953 285.412C491.999 287.93 486.724 285.282 486.473 280.636Z"
                    fill="#FB67AE"/>
                <path opacity="0.15"
                    d="M508.089 253.642L519.777 259.521C523.994 261.649 524.298 267.45 520.319 269.981L509.292 276.976L508.089 253.642Z"
                    fill="black"/>
                <path d="M486.473 280.636L485.019 252.226C484.781 247.58 489.765 244.427 493.97 246.542L495.093 247.113L497.037 284.737L495.966 285.412C492 287.93 486.724 285.282 486.473 280.636Z"
                    fill="#D43B8B"/>
                <path d="M559.851 233.966C562.376 234.108 564.835 234.42 567.215 234.861C571.168 235.601 574.857 236.743 578.202 238.209C588.713 242.804 595.76 250.681 596.236 259.909C596.751 269.837 589.519 278.935 578.202 284.49C574.857 286.138 571.168 287.462 567.215 288.409C564.849 288.98 562.376 289.409 559.851 289.694C558.608 289.837 557.339 289.941 556.057 290.006C553.611 290.122 551.204 290.096 548.851 289.941C546.326 289.772 543.853 289.447 541.487 288.98C537.534 288.189 533.832 287.008 530.5 285.502C520.293 280.869 513.458 273.121 512.982 264.036C512.48 254.263 519.487 245.283 530.5 239.715C533.819 238.028 537.521 236.665 541.487 235.666C543.853 235.069 546.313 234.627 548.851 234.316C550.266 234.147 551.707 234.03 553.174 233.953C555.435 233.81 557.67 233.836 559.851 233.966Z"
                    fill="#FB67AE"/>
                <path d="M541.486 235.64V288.967C537.533 288.175 533.831 286.994 530.499 285.489V239.689C533.818 238.002 537.52 236.626 541.486 235.64Z"
                    fill="#D43B8B"/>
                <path d="M559.849 233.967V289.682C558.607 289.825 557.337 289.929 556.055 289.994C553.609 290.11 551.203 290.084 548.849 289.929V234.304C550.264 234.135 551.705 234.019 553.173 233.941C555.433 233.811 557.668 233.837 559.849 233.967Z"
                    fill="#D43B8B"/>
                <path opacity="0.15"
                    d="M553.12 233.926C530.129 235.055 512.135 248.527 512.928 264.01C513.311 271.42 517.939 277.948 525.171 282.62C523.082 279.48 521.826 276.014 521.627 272.316C520.834 256.833 538.828 243.361 561.82 242.232C573.798 241.635 584.772 244.516 592.638 249.604C585.975 239.598 570.625 233.07 553.12 233.926Z"
                    fill="black"/>
                <path opacity="0.25"
                    d="M576.719 270.267C576.719 265.68 568.42 261.961 558.183 261.961C547.946 261.961 539.647 265.68 539.647 270.267C539.647 274.855 547.946 278.573 558.183 278.573C568.42 278.573 576.719 274.855 576.719 270.267Z"
                    fill="white"/>
                <path d="M265.546 83.6507L249.377 101.197C246.732 104.065 241.907 103.053 240.703 99.3673L240.373 98.381L236.658 87.051L233.3 76.8371C233.101 76.2271 233.022 75.6302 233.048 75.0461C233.048 74.9293 233.062 74.8125 233.075 74.6957C233.115 74.3453 233.194 74.0208 233.313 73.6964C233.458 73.2811 233.657 72.8787 233.908 72.5024C233.908 72.4894 233.908 72.5024 233.908 72.5024C234.384 71.8016 235.032 71.2305 235.785 70.8412C236.512 70.4648 237.345 70.2442 238.231 70.2701C238.35 70.2701 238.456 70.2831 238.575 70.2831C238.8 70.2961 239.024 70.335 239.249 70.374L249.932 72.6322L261.778 75.124L262.822 75.3446C266.67 76.1752 268.19 80.7825 265.546 83.6507Z"
                    fill="#AE98FF"/>
                <path opacity="0.15"
                    d="M236.658 87.051L233.3 76.8501C232.083 73.1643 235.389 69.5823 239.249 70.387L249.932 72.6452L236.658 87.051Z"
                    fill="black"/>
                <path d="M265.546 83.6507L249.376 101.197C246.732 104.066 241.906 103.053 240.703 99.3674L240.373 98.381L261.778 75.137L262.822 75.3577C266.669 76.1753 268.19 80.7825 265.546 83.6507Z"
                    fill="#6857DF"/>
                <path d="M232.826 40.0427C234.228 41.5871 235.484 43.1964 236.621 44.8187C238.498 47.5441 239.992 50.3345 241.089 53.1378C244.514 61.911 243.945 70.6064 238.696 76.3169C233.051 82.4556 223.347 83.6366 213.352 80.3661C210.403 79.4057 207.428 78.0559 204.533 76.3169C202.801 75.2786 201.082 74.1106 199.43 72.8128C198.61 72.1768 197.803 71.5019 197.01 70.8011C195.503 69.4643 194.088 68.0497 192.819 66.6092C191.431 65.0518 190.175 63.4295 189.064 61.7942C187.2 59.0428 185.746 56.2136 184.688 53.3973C181.462 44.7797 182.083 36.266 187.253 30.6594C192.819 24.6116 202.312 23.3786 212.135 26.4675C215.097 27.4019 218.098 28.7257 221.033 30.4388C222.778 31.4641 224.497 32.6062 226.176 33.904C227.115 34.6178 228.04 35.3835 228.939 36.1882C230.327 37.4081 231.623 38.706 232.826 40.0427Z"
                    fill="#AE98FF"/>
                <path d="M221.019 30.4256L189.063 61.7939C187.199 59.0425 185.745 56.2133 184.687 53.397L212.134 26.4542C215.096 27.3886 218.097 28.7124 221.019 30.4256Z"
                    fill="#6857DF"/>
                <path d="M232.825 40.043L199.429 72.8259C198.609 72.19 197.802 71.5152 197.009 70.8143C195.502 69.4776 194.087 68.0629 192.818 66.6223L226.148 33.9042C227.087 34.618 228.013 35.3838 228.912 36.1884C230.326 37.4084 231.622 38.7062 232.825 40.043Z"
                    fill="#6857DF"/>
                <path d="M236.619 44.8184C238.496 47.5439 239.99 50.3342 241.088 53.1375L213.35 80.3658C210.401 79.4054 207.427 78.0557 204.531 76.3166L236.619 44.8184Z"
                    fill="#6857DF"/>
                <path opacity="0.15"
                    d="M228.885 36.1361C214.686 23.5342 196.017 21.0554 187.212 30.6204C182.995 35.2017 181.805 41.7038 183.259 48.6342C183.907 45.5843 185.242 42.8199 187.358 40.5357C196.163 30.9708 214.818 33.4366 229.031 46.0515C236.434 52.6184 241.154 60.652 242.741 68.1794C244.817 58.4457 239.7 45.74 228.885 36.1361Z"
                    fill="black"/>
                <path opacity="0.25"
                    d="M215.069 55.5476C209.049 49.638 201.937 47.0372 199.185 49.7386C196.433 52.44 199.083 59.4206 205.103 65.3302C211.123 71.2398 218.235 73.8405 220.987 71.1392C223.738 68.4378 221.089 61.4572 215.069 55.5476Z"
                    fill="white"/>
            </g>
        </g>
        <g filter="url(#filter2_i_16_3)">
            <circle r="65.5"
                transform="matrix(-1 0 0 1 437.47 157.141)"
                fill="black"
                fill-opacity="0.06"/>
        </g>
        <g filter="url(#filter3_i_16_3)">
            <circle r="65.5"
                transform="matrix(-1 0 0 1 302.46 157.141)"
                fill="black"
                fill-opacity="0.06"/>
        </g>
        <g filter="url(#filter4_i_16_3)">
            <circle r="65.5"
                transform="matrix(-1 0 0 1 167.46 157.141)"
                fill="black"
                fill-opacity="0.06"/>
        </g>
    </g>
    <defs>
        <filter id="filter0_d_16_3"
            x="0"
            y="0"
            width="607"
            height="323"
            filterUnits="userSpaceOnUse"
            color-interpolation-filters="sRGB">
            <feFlood flood-opacity="0"
                result="BackgroundImageFix"/>
            <feColorMatrix in="SourceAlpha"
                type="matrix"
                values="0 0 0 0 0 0 0 0 0 0 0 0 0 0 0 0 0 0 127 0"
                result="hardAlpha"/>
            <feOffset dy="4"/>
            <feGaussianBlur stdDeviation="25"/>
            <feComposite in2="hardAlpha"
                operator="out"/>
            <feColorMatrix type="matrix"
                values="0 0 0 0 0 0 0 0 0 0 0 0 0 0 0 0 0 0 0.25 0"/>
            <feBlend mode="normal"
                in2="BackgroundImageFix"
                result="effect1_dropShadow_16_3"/>
            <feBlend mode="normal"
                in="SourceGraphic"
                in2="effect1_dropShadow_16_3"
                result="shape"/>
        </filter>
        <filter id="filter1_d_16_3"
            x="48"
            y="47"
            width="513"
            height="230"
            filterUnits="userSpaceOnUse"
            color-interpolation-filters="sRGB">
            <feFlood flood-opacity="0"
                result="BackgroundImageFix"/>
            <feColorMatrix in="SourceAlpha"
                type="matrix"
                values="0 0 0 0 0 0 0 0 0 0 0 0 0 0 0 0 0 0 127 0"
                result="hardAlpha"/>
            <feOffset dy="4"/>
            <feGaussianBlur stdDeviation="2"/>
            <feComposite in2="hardAlpha"
                operator="out"/>
            <feColorMatrix type="matrix"
                values="0 0 0 0 0 0 0 0 0 0 0 0 0 0 0 0 0 0 0.25 0"/>
            <feBlend mode="normal"
                in2="BackgroundImageFix"
                result="effect1_dropShadow_16_3"/>
            <feBlend mode="normal"
                in="SourceGraphic"
                in2="effect1_dropShadow_16_3"
                result="shape"/>
        </filter>
        <filter id="filter2_i_16_3"
            x="371.97"
            y="91.6406"
            width="131"
            height="135"
            filterUnits="userSpaceOnUse"
            color-interpolation-filters="sRGB">
            <feFlood flood-opacity="0"
                result="BackgroundImageFix"/>
            <feBlend mode="normal"
                in="SourceGraphic"
                in2="BackgroundImageFix"
                result="shape"/>
            <feColorMatrix in="SourceAlpha"
                type="matrix"
                values="0 0 0 0 0 0 0 0 0 0 0 0 0 0 0 0 0 0 127 0"
                result="hardAlpha"/>
            <feOffset dy="4"/>
            <feGaussianBlur stdDeviation="12.5"/>
            <feComposite in2="hardAlpha"
                operator="arithmetic"
                k2="-1"
                k3="1"/>
            <feColorMatrix type="matrix"
                values="0 0 0 0 0 0 0 0 0 0 0 0 0 0 0 0 0 0 0.25 0"/>
            <feBlend mode="normal"
                in2="shape"
                result="effect1_innerShadow_16_3"/>
        </filter>
        <filter id="filter3_i_16_3"
            x="236.96"
            y="91.6406"
            width="131"
            height="135"
            filterUnits="userSpaceOnUse"
            color-interpolation-filters="sRGB">
            <feFlood flood-opacity="0"
                result="BackgroundImageFix"/>
            <feBlend mode="normal"
                in="SourceGraphic"
                in2="BackgroundImageFix"
                result="shape"/>
            <feColorMatrix in="SourceAlpha"
                type="matrix"
                values="0 0 0 0 0 0 0 0 0 0 0 0 0 0 0 0 0 0 127 0"
                result="hardAlpha"/>
            <feOffset dy="4"/>
            <feGaussianBlur stdDeviation="12.5"/>
            <feComposite in2="hardAlpha"
                operator="arithmetic"
                k2="-1"
                k3="1"/>
            <feColorMatrix type="matrix"
                values="0 0 0 0 0 0 0 0 0 0 0 0 0 0 0 0 0 0 0.25 0"/>
            <feBlend mode="normal"
                in2="shape"
                result="effect1_innerShadow_16_3"/>
        </filter>
        <filter id="filter4_i_16_3"
            x="101.96"
            y="91.6406"
            width="131"
            height="135"
            filterUnits="userSpaceOnUse"
            color-interpolation-filters="sRGB">
            <feFlood flood-opacity="0"
                result="BackgroundImageFix"/>
            <feBlend mode="normal"
                in="SourceGraphic"
                in2="BackgroundImageFix"
                result="shape"/>
            <feColorMatrix in="SourceAlpha"
                type="matrix"
                values="0 0 0 0 0 0 0 0 0 0 0 0 0 0 0 0 0 0 127 0"
                result="hardAlpha"/>
            <feOffset dy="4"/>
            <feGaussianBlur stdDeviation="12.5"/>
            <feComposite in2="hardAlpha"
                operator="arithmetic"
                k2="-1"
                k3="1"/>
            <feColorMatrix type="matrix"
                values="0 0 0 0 0 0 0 0 0 0 0 0 0 0 0 0 0 0 0.25 0"/>
            <feBlend mode="normal"
                in2="shape"
                result="effect1_innerShadow_16_3"/>
        </filter>
        <radialGradient id="paint0_radial_16_3"
            cx="0"
            cy="0"
            r="1"
            gradientUnits="userSpaceOnUse"
            gradientTransform="translate(252.5 120.5) rotate(89.1998) scale(530.552 1207.37)">
            <stop stop-color="#FAF9F9"/>
            <stop offset="1"
                stop-color="#C09F9B"/>
        </radialGradient>
        <radialGradient id="paint1_radial_16_3"
            cx="0"
            cy="0"
            r="1"
            gradientUnits="userSpaceOnUse"
            gradientTransform="translate(233.691 102.359) rotate(21.3957) scale(278.229 1773.13)">
            <stop stop-color="#F2E6FA"/>
            <stop offset="1"
                stop-color="#9C9A67"
                stop-opacity="0"/>
        </radialGradient>
    </defs>
</svg>
