<svg width="157"
    height="159"
    viewBox="0 0 157 159"
    fill="none"
    xmlns="http://www.w3.org/2000/svg">
    <path d="M78.0337 151.687C118.679 151.687 151.628 118.724 151.628 78.0612C151.628 37.3987 118.679 4.43515 78.0337 4.43515C37.3888 4.43515 4.43958 37.3987 4.43958 78.0612C4.43958 118.724 37.3888 151.687 78.0337 151.687Z"
        fill="url(#paint0_linear_33_1652)"/>
    <path opacity="0.7"
        d="M37.3302 83.905L20.1281 32.6173C15.008 39.1372 10.9666 46.5411 8.26685 54.5625L48.2883 145.424C53.2654 147.628 58.5349 149.295 64.0188 150.351L37.3302 83.905Z"
        fill="#FCFFAC"/>
    <path d="M57.3784 39.2801L60.507 35.6009L50.3286 9.83034C48.3891 10.6201 46.4951 11.4879 44.6433 12.4305L57.3784 39.2801Z"
        fill="#FCFFAC"/>
    <path opacity="0.7"
        d="M111.116 50.1357L141.622 115.142C143.409 112.081 144.984 108.876 146.323 105.554L97.3639 6.99952C93.9982 6.08622 90.535 5.40369 86.9971 4.97467L111.116 50.1357Z"
        fill="#FCFFAC"/>
    <path d="M118.2 119.627C139.629 98.1889 139.629 63.4314 118.2 41.9936C96.7718 20.5559 62.0294 20.5559 40.6009 41.9936C19.1725 63.4314 19.1725 98.1889 40.6009 119.627C62.0294 141.064 96.7718 141.064 118.2 119.627Z"
        fill="#FCFFAC"/>
    <path d="M117.04 117.091C138.586 95.5348 138.586 60.586 117.04 39.0302C95.4934 17.4744 60.5598 17.4744 39.0133 39.0302C17.4669 60.586 17.4668 95.5348 39.0133 117.091C60.5597 138.646 95.4934 138.646 117.04 117.091Z"
        fill="#FBAA12"/>
    <path opacity="0.3"
        d="M123.191 46.3396C126.96 53.8085 129.085 62.2492 129.085 71.1871C129.085 101.67 104.381 126.385 73.9109 126.385C55.2403 126.385 38.7366 117.109 28.7532 102.909C37.8399 120.911 56.4976 133.259 78.0336 133.259C108.504 133.259 133.207 108.545 133.207 78.0612C133.207 66.2534 129.5 55.3133 123.191 46.3396Z"
        fill="#EA831C"/>
    <path opacity="0.25"
        d="M6.71045 59.8375C13.6076 82.4749 34.6465 98.9468 59.532 98.9468C90.0248 98.9468 114.745 74.2162 114.745 43.7102C114.745 30.2967 109.966 18.0014 102.019 8.43286C94.5016 5.83923 86.4317 4.43188 78.0304 4.43188C43.6748 4.43513 14.8161 27.9891 6.71045 59.8375Z"
        fill="#FFFFEB"/>
    <path d="M24.2342 80.1219C24.2342 49.6386 48.9378 24.9243 79.4079 24.9243C98.1305 24.9243 114.676 34.2556 124.65 48.5206C114.865 33.0985 97.6432 22.8638 78.0337 22.8638C47.5636 22.8638 22.86 47.578 22.86 78.0613C22.86 89.8139 26.5311 100.712 32.7915 109.663C27.3725 101.121 24.2342 90.9872 24.2342 80.1219Z"
        fill="#CF7310"/>
    <defs>
        <linearGradient id="paint0_linear_33_1652"
            x1="25.9944"
            y1="130.121"
            x2="130.115"
            y2="26.0449"
            gradientUnits="userSpaceOnUse">
            <stop stop-color="#FBC01E"/>
            <stop offset="0.4609"
                stop-color="#FDC822"/>
            <stop offset="1"
                stop-color="#FCE13C"/>
        </linearGradient>
    </defs>
</svg>
